<svg width="16" height="16" viewBox="0 0 16 16" fill="none" xmlns="http://www.w3.org/2000/svg">
<mask id="mask0_2702_30471" style="mask-type:alpha" maskUnits="userSpaceOnUse" x="0" y="0" width="16" height="16">
<rect width="16" height="16" fill="#D9D9D9"/>
</mask>
<g mask="url(#mask0_2702_30471)">
<path d="M3.33107 12.01C4.04315 11.5242 4.7857 11.1631 5.55872 10.9267C6.33159 10.6904 7.14562 10.5722 8.00078 10.5722C8.85595 10.5722 9.66997 10.6904 10.4428 10.9267C11.2159 11.1631 11.9584 11.5242 12.6705 12.01C13.1624 11.4694 13.5356 10.8567 13.7903 10.1721C14.0449 9.4874 14.1722 8.76364 14.1722 8.00078C14.1722 6.29085 13.5707 4.83476 12.3677 3.63252C11.1646 2.43041 9.70748 1.82935 7.99623 1.82935C6.28498 1.82935 4.82935 2.43041 3.62935 3.63252C2.42935 4.83476 1.82935 6.29085 1.82935 8.00078C1.82935 8.76364 1.95667 9.4874 2.21131 10.1721C2.46595 10.8567 2.8392 11.4694 3.33107 12.01ZM8.00078 9.22715C7.26535 9.22715 6.63977 8.96922 6.12403 8.45335C5.60817 7.93762 5.35023 7.31203 5.35023 6.57661C5.35023 5.84118 5.60817 5.21559 6.12403 4.69986C6.63977 4.18399 7.26535 3.92606 8.00078 3.92606C8.73621 3.92606 9.36179 4.18399 9.87753 4.69986C10.3934 5.21559 10.6513 5.84118 10.6513 6.57661C10.6513 7.31203 10.3934 7.93762 9.87753 8.45335C9.36179 8.96922 8.73621 9.22715 8.00078 9.22715ZM8.00632 15.2008C7.01164 15.2008 6.07683 15.0144 5.20188 14.6416C4.32694 14.2688 3.56111 13.754 2.90441 13.0972C2.24757 12.4405 1.73276 11.6749 1.35997 10.8005C0.987177 9.92619 0.800781 8.98992 0.800781 7.99168C0.800781 6.99357 0.987177 6.06034 1.35997 5.19199C1.73276 4.32364 2.24757 3.56111 2.90441 2.90441C3.56111 2.24757 4.32667 1.73276 5.20109 1.35997C6.07537 0.987177 7.01164 0.800781 8.00988 0.800781C9.00799 0.800781 9.94122 0.987177 10.8096 1.35997C11.6779 1.73276 12.4405 2.24757 13.0972 2.90441C13.754 3.56111 14.2688 4.32509 14.6416 5.19634C15.0144 6.06773 15.2008 7.00069 15.2008 7.99524C15.2008 8.98992 15.0144 9.92474 14.6416 10.7997C14.2688 11.6746 13.754 12.4405 13.0972 13.0972C12.4405 13.754 11.6765 14.2688 10.8052 14.6416C9.93384 15.0144 9.00087 15.2008 8.00632 15.2008Z" fill="url(#paint0_linear_2702_30471)"/>
</g>
<defs>
<linearGradient id="paint0_linear_2702_30471" x1="8.00041" y1="15.2001" x2="8.00041" y2="0.800277" gradientUnits="userSpaceOnUse">
<stop stop-color="#1768D0"/>
<stop offset="1" stop-color="#0070FF"/>
</linearGradient>
</defs>
</svg>
