<svg width="22" height="12" viewBox="0 0 22 12" fill="none" xmlns="http://www.w3.org/2000/svg">
<path d="M21.9026 7.4633C21.1284 5.83153 20.0148 4.35668 18.5145 4.13586C18.4663 4.10399 18.3935 4.07334 18.2971 4.07334H5.97959C5.18078 3.06927 4.55215 1.87638 3.82614 0.777907C3.14739 -0.320569 2.25217 0.0558003 1.23597 0.0876874C0.872965 0.119562 0.727375 0.558463 0.848377 0.934833C1.21138 1.97079 1.47797 3.06926 1.7436 4.1678C1.25959 4.29285 0.775583 4.48165 0.316162 4.67047C-0.167845 4.82739 -0.0714309 5.76894 0.437164 5.76894C0.921172 5.76894 1.40518 5.73707 1.88919 5.67454C2.3732 7.02435 2.78441 7.71457 3.89801 8.34227C4.76961 8.84493 5.68845 9.2213 6.60821 9.53515C5.59199 9.97404 4.57577 10.4142 3.55848 10.8531C3.09906 11.0419 3.17089 11.9515 3.67948 11.9515C5.61551 12.0459 7.2367 12.0459 9.09988 11.5433C10.5765 11.135 12.0768 10.7587 13.5523 10.3504C13.5778 10.4129 13.626 10.4129 13.6988 10.4129H18.829C18.8773 10.4129 18.9018 10.4129 18.95 10.3811C20.2329 10.3492 22.0232 9.91028 21.9998 7.87026C21.9998 7.80773 21.9998 7.77586 21.9752 7.71333C21.9752 7.65081 21.9517 7.55648 21.9026 7.4633ZM9.07637 10.4449C8.61695 10.5699 8.13294 10.6962 7.67256 10.8212C7.59977 10.8531 7.18855 10.9156 7.26134 10.9156C6.87375 10.9782 6.46254 10.9782 6.05132 10.9782C7.21314 10.4755 8.37495 10.0047 9.5357 9.66025H12.0039C11.0614 9.91035 10.069 10.1617 9.07637 10.4449ZM18.5392 9.28266C18.491 9.28266 18.4428 9.28266 18.4182 9.31453H16.4576C16.554 8.9688 16.4094 8.52991 16.07 8.52991H9.5112C9.46299 8.52991 9.41478 8.52991 9.3902 8.56178H9.34199C8.97898 8.68683 8.61598 8.78123 8.22839 8.93815C7.16396 8.6243 6.07494 8.27856 5.05765 7.77716C3.94405 7.24386 3.31542 6.7412 2.80682 5.54832C3.21804 5.45392 3.62925 5.35952 4.04143 5.23447C4.52544 5.10942 4.40444 4.2304 3.96864 4.13599H3.92043H3.87222H2.6622C2.42019 3.13192 2.1536 2.15848 1.86339 1.1863C2.17819 1.15443 2.51661 1.12378 2.7832 1.1863C3.098 1.2807 3.31541 1.7196 3.60562 2.19037C4.21063 3.16381 4.79106 4.16788 5.51707 5.04691C5.61349 5.17196 5.73449 5.20384 5.83187 5.20384H5.92829H17.9556C18.0039 5.23571 18.0521 5.23571 18.1249 5.23571C18.7544 5.23571 19.2867 5.51769 19.7707 5.95782H18.3669C17.9556 5.95782 17.9556 6.80496 18.3669 6.80496H20.3511C20.3757 6.80496 20.4239 6.80496 20.4475 6.77309C20.6895 7.14946 20.9069 7.55771 21.1253 7.96597C21.1045 9.34641 19.2649 9.28266 18.5388 9.28266L18.5392 9.28266Z" fill="url(#paint0_linear_2702_33009)"/>
<path d="M16.6517 5.92578H16.0467C15.6355 5.92578 15.6355 6.77293 16.0467 6.77293H16.6517C17.0629 6.77293 17.0629 5.92578 16.6517 5.92578Z" fill="url(#paint1_linear_2702_33009)"/>
<path d="M14.9564 5.92578H14.3514C13.9402 5.92578 13.9402 6.77293 14.3514 6.77293H14.9564C15.3676 6.77293 15.3676 5.92578 14.9564 5.92578Z" fill="url(#paint2_linear_2702_33009)"/>
<path d="M13.265 5.92578H12.66C12.2488 5.92578 12.2488 6.77293 12.66 6.77293H13.265C13.6762 6.77293 13.6762 5.92578 13.265 5.92578Z" fill="url(#paint3_linear_2702_33009)"/>
<path d="M11.4486 5.92578H10.8436C10.4324 5.92578 10.4324 6.77293 10.8436 6.77293H11.4486C11.8598 6.77293 11.8598 5.92578 11.4486 5.92578Z" fill="url(#paint4_linear_2702_33009)"/>
<defs>
<linearGradient id="paint0_linear_2702_33009" x1="10.9994" y1="11.9994" x2="10.9994" y2="-0.000419849" gradientUnits="userSpaceOnUse">
<stop stop-color="#1768D0"/>
<stop offset="1" stop-color="#0070FF"/>
</linearGradient>
<linearGradient id="paint1_linear_2702_33009" x1="16.3492" y1="6.77288" x2="16.3492" y2="5.92575" gradientUnits="userSpaceOnUse">
<stop stop-color="#1768D0"/>
<stop offset="1" stop-color="#0070FF"/>
</linearGradient>
<linearGradient id="paint2_linear_2702_33009" x1="14.6539" y1="6.77288" x2="14.6539" y2="5.92575" gradientUnits="userSpaceOnUse">
<stop stop-color="#1768D0"/>
<stop offset="1" stop-color="#0070FF"/>
</linearGradient>
<linearGradient id="paint3_linear_2702_33009" x1="12.9624" y1="6.77288" x2="12.9624" y2="5.92575" gradientUnits="userSpaceOnUse">
<stop stop-color="#1768D0"/>
<stop offset="1" stop-color="#0070FF"/>
</linearGradient>
<linearGradient id="paint4_linear_2702_33009" x1="11.146" y1="6.77288" x2="11.146" y2="5.92575" gradientUnits="userSpaceOnUse">
<stop stop-color="#1768D0"/>
<stop offset="1" stop-color="#0070FF"/>
</linearGradient>
</defs>
</svg>
