<svg width="48" height="28" viewBox="0 0 48 28" fill="none" xmlns="http://www.w3.org/2000/svg">
<g clip-path="url(#clip0_2702_52519)">
<path d="M44 0.5H4C2.067 0.5 0.5 2.067 0.5 4V24C0.5 25.933 2.067 27.5 4 27.5H44C45.933 27.5 47.5 25.933 47.5 24V4C47.5 2.067 45.933 0.5 44 0.5Z" fill="white"/>
<path fill-rule="evenodd" clip-rule="evenodd" d="M15 5H32.5116V23H15V5Z" fill="#2F6EB7"/>
<path fill-rule="evenodd" clip-rule="evenodd" d="M21.3711 20.1492V13.6992H32.5104V15.4992L31.2457 16.8992L32.5104 18.3492V20.1492H30.4674L29.3486 18.8992L28.2784 20.1492H21.3711Z" fill="white"/>
<path fill-rule="evenodd" clip-rule="evenodd" d="M22.1016 19.4484V14.3984H26.2362V15.5484H23.4636V16.3484H26.1876V17.4984H23.4636V18.2484H26.2362V19.4484H22.1016Z" fill="#2F6EB7"/>
<path fill-rule="evenodd" clip-rule="evenodd" d="M26.2344 19.4484L28.5206 16.8984L26.2344 14.3984H27.9855L29.3962 15.9984L30.8068 14.3984H32.5094V14.4484L30.2718 16.8984L32.5094 19.3484V19.4484H30.8068L29.3962 17.7984L27.9369 19.4484H26.2344Z" fill="#2F6EB7"/>
<path fill-rule="evenodd" clip-rule="evenodd" d="M21.8586 7.94922H24.5826L25.5068 10.1492V7.94922H28.8632L29.3983 9.59922L29.982 7.94922H32.5114V14.3992H19.0859L21.8586 7.94922Z" fill="white"/>
<path fill-rule="evenodd" clip-rule="evenodd" d="M22.3959 8.64844L20.207 13.6984H21.7149L22.104 12.6984H24.3416L24.7308 13.6984H26.2387L24.0984 8.64844H22.3959ZM22.5905 11.5484L23.2229 9.94846L23.8552 11.5484H22.5905Z" fill="#2F6EB7"/>
<path fill-rule="evenodd" clip-rule="evenodd" d="M26.2344 13.6984V8.64844H28.326L29.4448 11.7484L30.515 8.64844H32.5094V13.6984H31.2446V10.2484L29.9799 13.6984H28.8125L27.5478 10.2484V13.6984H26.2344Z" fill="#2F6EB7"/>
<path d="M44 0.5H4C2.067 0.5 0.5 2.067 0.5 4V24C0.5 25.933 2.067 27.5 4 27.5H44C45.933 27.5 47.5 25.933 47.5 24V4C47.5 2.067 45.933 0.5 44 0.5Z" stroke="#EBF0F5"/>
</g>
<defs>
<clipPath id="clip0_2702_52519">
<rect width="48" height="28" fill="white"/>
</clipPath>
</defs>
</svg>
