<svg width="88" height="27" viewBox="0 0 88 27" fill="none" xmlns="http://www.w3.org/2000/svg">
<g clip-path="url(#clip0_2702_32976)">
<g clip-path="url(#clip1_2702_32976)">
<g clip-path="url(#clip2_2702_32976)">
<path d="M81.694 0H6.47005C3.27428 0 0.683594 2.59069 0.683594 5.78646V20.2526C0.683594 23.4484 3.27428 26.0391 6.47005 26.0391H81.694C84.8898 26.0391 87.4805 23.4484 87.4805 20.2526V5.78646C87.4805 2.59069 84.8898 0 81.694 0Z" fill="black"/>
<path d="M19.1936 13.1176C19.1771 11.29 20.69 10.4009 20.7592 10.3596C19.9024 9.11033 18.5744 8.93963 18.1077 8.92603C16.9923 8.80864 15.9104 9.59343 15.3422 9.59343C14.7627 9.59343 13.8878 8.93739 12.9448 8.95663C11.7313 8.97536 10.5961 9.67791 9.97345 10.7689C8.68857 12.9934 9.64687 16.2625 10.8779 18.0605C11.4937 18.9412 12.2132 19.9244 13.1551 19.8898C14.0766 19.8518 14.4208 19.3024 15.5327 19.3024C16.6345 19.3024 16.9577 19.8898 17.9183 19.8677C18.9072 19.8518 19.5299 18.9831 20.1241 18.0945C20.8357 17.0852 21.1215 16.0912 21.1328 16.0401C21.1096 16.0322 19.2123 15.3081 19.1936 13.1176Z" fill="white"/>
<path d="M17.378 7.74048C17.8735 7.12074 18.2126 6.27755 18.1185 5.42188C17.4012 5.45364 16.5041 5.91804 15.9876 6.52421C15.5305 7.05836 15.1223 7.93389 15.2277 8.75723C16.0335 8.81734 16.8608 8.35066 17.378 7.74048Z" fill="white"/>
<path d="M33.3987 19.4414H32.0895L31.3724 17.1879H28.8797L28.1965 19.4414H26.9219L29.3915 11.7695H30.9169L33.3987 19.4414ZM31.1562 16.2425L30.5076 14.2392C30.439 14.0345 30.3105 13.5526 30.1208 12.794H30.0978C30.0223 13.1202 29.9006 13.6022 29.7334 14.2392L29.0964 16.2425H31.1562Z" fill="white"/>
<path d="M39.7492 16.6084C39.7492 17.5492 39.4949 18.2929 38.9864 18.8388C38.5311 19.3248 37.9655 19.5675 37.2904 19.5675C36.5618 19.5675 36.0383 19.3057 35.7195 18.7823H35.6965V21.6965H34.4674V15.7315C34.4674 15.1401 34.4518 14.5331 34.4219 13.9104H35.5028L35.5714 14.7872H35.5944C36.0043 14.1266 36.6263 13.7969 37.4611 13.7969C38.1136 13.7969 38.6584 14.0545 39.0943 14.5705C39.5312 15.087 39.7492 15.7662 39.7492 16.6084ZM38.4971 16.6534C38.4971 16.1149 38.376 15.671 38.1327 15.3217C37.8669 14.9573 37.5101 14.7751 37.0627 14.7751C36.7595 14.7751 36.484 14.8766 36.2378 15.0766C35.991 15.2784 35.8296 15.5419 35.7541 15.8681C35.7161 16.0204 35.6971 16.1449 35.6971 16.2429V17.1652C35.6971 17.5676 35.8204 17.9072 36.0671 18.1845C36.3139 18.4618 36.6344 18.6001 37.0287 18.6001C37.4917 18.6001 37.8519 18.4214 38.1097 18.0652C38.3679 17.7083 38.4971 17.2379 38.4971 16.6534Z" fill="white"/>
<path d="M46.1119 16.6084C46.1119 17.5492 45.8576 18.2929 45.3486 18.8388C44.8938 19.3248 44.3282 19.5675 43.6531 19.5675C42.9245 19.5675 42.401 19.3057 42.0828 18.7823H42.0598V21.6965H40.8307V15.7315C40.8307 15.1401 40.8151 14.5331 40.7852 13.9104H41.8661L41.9346 14.7872H41.9577C42.367 14.1266 42.989 13.7969 43.8243 13.7969C44.4763 13.7969 45.0211 14.0545 45.4582 14.5705C45.8934 15.087 46.1119 15.7662 46.1119 16.6084ZM44.8598 16.6534C44.8598 16.1149 44.7381 15.671 44.4948 15.3217C44.229 14.9573 43.8734 14.7751 43.4254 14.7751C43.1217 14.7751 42.8467 14.8766 42.5999 15.0766C42.3531 15.2784 42.1923 15.5419 42.1168 15.8681C42.0794 16.0204 42.0598 16.1449 42.0598 16.2429V17.1652C42.0598 17.5676 42.1831 17.9072 42.4287 18.1845C42.6754 18.4612 42.9959 18.6001 43.3915 18.6001C43.8544 18.6001 44.2146 18.4214 44.4724 18.0652C44.7306 17.7083 44.8598 17.2379 44.8598 16.6534Z" fill="white"/>
<path d="M53.2243 17.2891C53.2243 17.9416 52.9977 18.4726 52.5429 18.8825C52.043 19.3304 51.3472 19.5541 50.4531 19.5541C49.6276 19.5541 48.9658 19.395 48.4648 19.0762L48.7496 18.0518C49.2892 18.3781 49.8812 18.5418 50.5263 18.5418C50.9893 18.5418 51.3495 18.4369 51.6084 18.2281C51.8661 18.0195 51.9947 17.7393 51.9947 17.39C51.9947 17.0787 51.8885 16.8164 51.6758 16.6037C51.4643 16.3909 51.1109 16.1932 50.6174 16.0104C49.2742 15.5095 48.6031 14.7756 48.6031 13.8105C48.6031 13.1799 48.8384 12.6628 49.3094 12.2604C49.7787 11.8574 50.4047 11.6562 51.1876 11.6562C51.8857 11.6562 52.4656 11.7779 52.9285 12.0206L52.6213 13.0225C52.1889 12.7873 51.7001 12.6697 51.1529 12.6697C50.7206 12.6697 50.3828 12.7764 50.1407 12.9885C49.936 13.1782 49.8334 13.4093 49.8334 13.6832C49.8334 13.9864 49.9504 14.2372 50.1856 14.4343C50.3903 14.6165 50.7621 14.8136 51.3017 15.0264C51.9618 15.2922 52.4466 15.6028 52.7585 15.9591C53.0692 16.3143 53.2243 16.7587 53.2243 17.2891Z" fill="white"/>
<path d="M57.2908 14.8281H55.9361V17.514C55.9361 18.1971 56.1748 18.5384 56.6532 18.5384C56.8729 18.5384 57.055 18.5194 57.1992 18.4813L57.2332 19.4147C56.9911 19.5052 56.6723 19.5507 56.2774 19.5507C55.792 19.5507 55.4127 19.4025 55.1388 19.1068C54.8662 18.8105 54.7289 18.3136 54.7289 17.6154V14.827H53.9219V13.9046H54.7289V12.8917L55.9361 12.5273V13.9046H57.2908V14.8281Z" fill="white"/>
<path d="M63.3988 16.6304C63.3988 17.4807 63.1556 18.1788 62.6702 18.7247C62.1612 19.2868 61.4855 19.567 60.6433 19.567C59.8316 19.567 59.1854 19.2978 58.7034 18.7593C58.2215 18.2208 57.9805 17.5412 57.9805 16.722C57.9805 15.8647 58.2283 15.1626 58.7258 14.6167C59.2222 14.0701 59.8921 13.7969 60.7343 13.7969C61.546 13.7969 62.1992 14.0662 62.6921 14.6052C63.1637 15.128 63.3988 15.8031 63.3988 16.6304ZM62.1236 16.6701C62.1236 16.1599 62.0147 15.7224 61.794 15.3575C61.5362 14.9159 61.1679 14.6957 60.6906 14.6957C60.1965 14.6957 59.8212 14.9164 59.5635 15.3575C59.3427 15.723 59.2337 16.1674 59.2337 16.6931C59.2337 17.2034 59.3427 17.6409 59.5635 18.0052C59.8292 18.4469 60.2005 18.667 60.6796 18.667C61.1488 18.667 61.5172 18.4422 61.783 17.9937C62.0095 17.6219 62.1236 17.1797 62.1236 16.6701Z" fill="white"/>
<path d="M67.3972 14.9913C67.2755 14.9688 67.1458 14.9573 67.0098 14.9573C66.5774 14.9573 66.2431 15.1205 66.0079 15.4473C65.8033 15.7356 65.7006 16.0999 65.7006 16.5398V19.4424H64.4721L64.4837 15.6526C64.4837 15.015 64.4681 14.4345 64.4375 13.911H65.5081L65.5531 14.9694H65.5871C65.7167 14.6057 65.9214 14.3128 66.2016 14.0931C66.4754 13.8955 66.7711 13.7969 67.0899 13.7969C67.2035 13.7969 67.3061 13.8049 67.3972 13.8194V14.9913Z" fill="white"/>
<path d="M72.8889 16.4095C72.8889 16.6297 72.8745 16.8153 72.8439 16.9669H69.1567C69.1712 17.5134 69.3493 17.9314 69.6917 18.2196C70.0025 18.4773 70.4043 18.6064 70.8977 18.6064C71.4437 18.6064 71.9417 18.5194 72.3897 18.3447L72.5822 19.198C72.0588 19.4262 71.4408 19.5398 70.7277 19.5398C69.8698 19.5398 69.1965 19.2873 68.7065 18.7828C68.2176 18.2784 67.9727 17.601 67.9727 16.7513C67.9727 15.9171 68.2004 15.2224 68.6563 14.6685C69.1337 14.077 69.7788 13.7812 70.5905 13.7812C71.3878 13.7812 71.9914 14.077 72.4012 14.6685C72.7258 15.1383 72.8889 15.7194 72.8889 16.4095ZM71.7169 16.0906C71.725 15.7263 71.6449 15.4116 71.4782 15.1458C71.2655 14.8039 70.9387 14.6333 70.4988 14.6333C70.097 14.6333 69.7701 14.7999 69.5205 15.1343C69.3158 15.4 69.1942 15.7188 69.1567 16.0901L71.7169 16.0906Z" fill="white"/>
<path d="M30.7465 7.04998C30.7465 7.72851 30.543 8.23931 30.1365 8.5823C29.7601 8.89875 29.2251 9.0573 28.5322 9.0573C28.1886 9.0573 27.8946 9.04233 27.6484 9.01231V5.30496C27.9695 5.25308 28.3154 5.22656 28.689 5.22656C29.3491 5.22656 29.8466 5.3701 30.1821 5.6572C30.5579 5.98176 30.7465 6.44583 30.7465 7.04998ZM30.1095 7.06671C30.1095 6.62684 29.993 6.2896 29.7601 6.0544C29.5272 5.81976 29.1871 5.70216 28.7392 5.70216C28.5489 5.70216 28.3869 5.71485 28.2526 5.74136V8.55981C28.327 8.57131 28.463 8.57652 28.6608 8.57652C29.1231 8.57652 29.4799 8.44798 29.7313 8.19085C29.9826 7.93371 30.1095 7.55904 30.1095 7.06671Z" fill="white"/>
<path d="M34.1226 7.64944C34.1226 8.06737 34.0032 8.40985 33.7646 8.67849C33.5144 8.95458 33.1829 9.09237 32.769 9.09237C32.3701 9.09237 32.0524 8.96036 31.8155 8.6952C31.5791 8.43061 31.4609 8.09681 31.4609 7.69443C31.4609 7.27361 31.5826 6.92826 31.827 6.6602C32.0714 6.39213 32.4 6.25781 32.814 6.25781C33.2129 6.25781 33.5334 6.38982 33.7761 6.65443C34.0067 6.91155 34.1226 7.24359 34.1226 7.64944ZM33.496 7.66904C33.496 7.41827 33.4417 7.20325 33.3339 7.02396C33.2071 6.8072 33.0267 6.69882 32.792 6.69882C32.5494 6.69882 32.3649 6.8072 32.2381 7.02396C32.1296 7.20325 32.076 7.42174 32.076 7.68004C32.076 7.93081 32.1302 8.14577 32.2381 8.32508C32.3689 8.54186 32.5511 8.65021 32.7863 8.65021C33.0168 8.65021 33.1979 8.54012 33.3282 8.3193C33.4401 8.13659 33.496 7.91981 33.496 7.66904Z" fill="white"/>
<path d="M38.6522 6.30859L37.8019 9.02612H37.2485L36.8963 7.84611C36.8069 7.55151 36.7342 7.25864 36.6778 6.9681H36.6668C36.6144 7.26674 36.5417 7.55896 36.4483 7.84611L36.0742 9.02612H35.5145L34.7148 6.30859H35.3357L35.643 7.60048C35.7174 7.906 35.7785 8.19713 35.8274 8.47271H35.8384C35.8833 8.2456 35.9578 7.9562 36.0627 7.60626L36.4483 6.30917H36.9407L37.3102 7.57856C37.3995 7.88814 37.4722 8.18621 37.5281 8.47329H37.5448C37.5857 8.19373 37.6474 7.89566 37.7293 7.57856L38.0591 6.30917L38.6522 6.30859Z" fill="white"/>
<path d="M41.7883 9.03243H41.1841V7.47595C41.1841 6.99629 41.002 6.75647 40.6365 6.75647C40.4572 6.75647 40.3125 6.82219 40.2001 6.95421C40.0888 7.08622 40.0323 7.24189 40.0323 7.42004V9.03185H39.4282V7.09141C39.4282 6.85274 39.4207 6.5939 39.4062 6.31373H39.9372L39.9654 6.7386H39.9822C40.0525 6.60658 40.1574 6.49762 40.2952 6.41057C40.459 6.30912 40.6422 6.25781 40.8429 6.25781C41.0965 6.25781 41.3075 6.33967 41.4753 6.50397C41.6839 6.70516 41.7883 7.00551 41.7883 7.40441V9.03243Z" fill="white"/>
<path d="M43.4513 9.02702H42.8477V5.0625H43.4513V9.02702Z" fill="white"/>
<path d="M47.0093 7.64944C47.0093 8.06737 46.8899 8.40985 46.6513 8.67849C46.4011 8.95458 46.0691 9.09237 45.6557 9.09237C45.2562 9.09237 44.9385 8.96036 44.7021 8.6952C44.4658 8.43061 44.3477 8.09681 44.3477 7.69443C44.3477 7.27361 44.4693 6.92826 44.7137 6.6602C44.9581 6.39213 45.2867 6.25781 45.7001 6.25781C46.0996 6.25781 46.4196 6.38982 46.6628 6.65443C46.8934 6.91155 47.0093 7.24359 47.0093 7.64944ZM46.382 7.66904C46.382 7.41827 46.3279 7.20325 46.2201 7.02396C46.0938 6.8072 45.9128 6.69882 45.6788 6.69882C45.4355 6.69882 45.251 6.8072 45.1248 7.02396C45.0164 7.20325 44.9628 7.42174 44.9628 7.68004C44.9628 7.93081 45.0169 8.14577 45.1248 8.32508C45.2556 8.54186 45.4378 8.65021 45.673 8.65021C45.9036 8.65021 46.084 8.54012 46.2143 8.3193C46.3267 8.13659 46.382 7.91981 46.382 7.66904Z" fill="white"/>
<path d="M49.9341 9.03074H49.3916L49.3467 8.71769H49.33C49.1443 8.96731 48.8797 9.09237 48.5362 9.09237C48.2796 9.09237 48.0721 9.00998 47.9158 8.84623C47.774 8.69751 47.7031 8.51242 47.7031 8.29282C47.7031 7.96075 47.8415 7.70767 48.1199 7.53241C48.3978 7.35715 48.7887 7.2713 49.2919 7.27527V7.22458C49.2919 6.86658 49.104 6.68787 48.7275 6.68787C48.4595 6.68787 48.2231 6.75532 48.019 6.88906L47.8962 6.49244C48.1488 6.33621 48.4606 6.25781 48.8284 6.25781C49.5387 6.25781 49.8949 6.63253 49.8949 7.38196V8.38273C49.8949 8.65426 49.9082 8.87046 49.9341 9.03074ZM49.3069 8.09681V7.67772C48.6405 7.66615 48.3073 7.84893 48.3073 8.22534C48.3073 8.36718 48.3453 8.47322 48.4232 8.54417C48.5009 8.61506 48.6001 8.65021 48.7183 8.65021C48.8509 8.65021 48.9748 8.60811 49.0878 8.52457C49.2014 8.44038 49.2712 8.33376 49.2971 8.20284C49.3034 8.17348 49.3069 8.13775 49.3069 8.09681Z" fill="white"/>
<path d="M53.3637 9.02702H52.8276L52.7993 8.59058H52.7826C52.6114 8.92265 52.3197 9.08865 51.9098 9.08865C51.5824 9.08865 51.3097 8.96011 51.0935 8.70298C50.8774 8.44591 50.7695 8.11211 50.7695 7.70221C50.7695 7.26237 50.8866 6.9061 51.1218 6.634C51.3495 6.38034 51.6285 6.25352 51.9605 6.25352C52.3255 6.25352 52.5808 6.37632 52.7262 6.62247H52.7377V5.0625H53.3424V8.29489C53.3424 8.55947 53.3494 8.8033 53.3637 9.02702ZM52.7377 7.88094V7.42779C52.7377 7.34945 52.7319 7.28602 52.7209 7.23756C52.6869 7.09231 52.6137 6.97009 52.5024 6.87151C52.39 6.77293 52.2546 6.72336 52.0983 6.72336C51.8729 6.72336 51.6965 6.81271 51.5668 6.992C51.4383 7.17129 51.3731 7.40016 51.3731 7.67971C51.3731 7.94842 51.4348 8.16628 51.5587 8.33409C51.6897 8.51275 51.866 8.60215 52.0868 8.60215C52.2851 8.60215 52.4437 8.52779 52.5641 8.37843C52.6806 8.24064 52.7377 8.07464 52.7377 7.88094Z" fill="white"/>
<path d="M58.5327 7.64944C58.5327 8.06737 58.4134 8.40985 58.1748 8.67849C57.9245 8.95458 57.5937 9.09237 57.1791 9.09237C56.7808 9.09237 56.4631 8.96036 56.2257 8.6952C55.9893 8.43061 55.8711 8.09681 55.8711 7.69443C55.8711 7.27361 55.9928 6.92826 56.2372 6.6602C56.4816 6.39213 56.8102 6.25781 57.2247 6.25781C57.623 6.25781 57.9442 6.38982 58.1863 6.65443C58.4169 6.91155 58.5327 7.24359 58.5327 7.64944ZM57.9066 7.66904C57.9066 7.41827 57.8525 7.20325 57.7447 7.02396C57.6172 6.8072 57.4374 6.69882 57.2022 6.69882C56.96 6.69882 56.7756 6.8072 56.6482 7.02396C56.5398 7.20325 56.4862 7.42174 56.4862 7.68004C56.4862 7.93081 56.5404 8.14577 56.6482 8.32508C56.7791 8.54186 56.9612 8.65021 57.1964 8.65021C57.427 8.65021 57.6086 8.54012 57.7389 8.3193C57.8501 8.13659 57.9066 7.91981 57.9066 7.66904Z" fill="white"/>
<path d="M61.7799 9.03243H61.1763V7.47595C61.1763 6.99629 60.9941 6.75647 60.6281 6.75647C60.4487 6.75647 60.3041 6.82219 60.1923 6.95421C60.0804 7.08622 60.0245 7.24189 60.0245 7.42004V9.03185H59.4198V7.09141C59.4198 6.85274 59.4128 6.5939 59.3984 6.31373H59.9288L59.957 6.7386H59.9738C60.0446 6.60658 60.1496 6.49762 60.2868 6.41057C60.4511 6.30912 60.6338 6.25781 60.835 6.25781C61.0881 6.25781 61.2991 6.33967 61.4668 6.50397C61.6761 6.70516 61.7799 7.00551 61.7799 7.40441V9.03243Z" fill="white"/>
<path d="M65.8465 6.76215H65.1812V8.0823C65.1812 8.41784 65.2994 8.58558 65.5334 8.58558C65.6419 8.58558 65.7318 8.57632 65.8026 8.5573L65.8182 9.01566C65.6989 9.06057 65.5421 9.08307 65.349 9.08307C65.1103 9.08307 64.9247 9.01045 64.7904 8.86514C64.6555 8.7199 64.5886 8.47549 64.5886 8.13243V6.76215H64.1914V6.3096H64.5886V5.81152L65.1806 5.63281V6.30902H65.8459L65.8465 6.76215Z" fill="white"/>
<path d="M69.0437 9.02702H68.439V7.48204C68.439 6.99488 68.2569 6.75102 67.8919 6.75102C67.6117 6.75102 67.4204 6.89227 67.3154 7.17475C67.2975 7.23416 67.2872 7.30678 67.2872 7.39206V9.02644H66.6836V5.0625H67.2872V6.7003H67.2987C67.4889 6.40225 67.7616 6.25352 68.115 6.25352C68.3652 6.25352 68.5721 6.33538 68.7365 6.49968C68.9411 6.70434 69.0437 7.00872 69.0437 7.41108V9.02702Z" fill="white"/>
<path d="M72.3418 7.53294C72.3418 7.6413 72.3337 7.73243 72.3193 7.80679H70.5075C70.5155 8.07542 70.602 8.28005 70.7697 8.42189C70.9231 8.54868 71.1208 8.61212 71.363 8.61212C71.6311 8.61212 71.8755 8.56944 72.0957 8.48359L72.1902 8.90325C71.9325 9.01507 71.6293 9.07098 71.2782 9.07098C70.8574 9.07098 70.5259 8.94708 70.2861 8.6992C70.0451 8.45125 69.9258 8.11868 69.9258 7.70126C69.9258 7.29136 70.037 6.95011 70.2613 6.67801C70.4953 6.38746 70.8118 6.24219 71.2113 6.24219C71.6022 6.24219 71.8991 6.38746 72.0997 6.67801C72.2617 6.90861 72.3418 7.19397 72.3418 7.53294ZM71.7654 7.37671C71.7699 7.19742 71.7301 7.04293 71.6483 6.91264C71.5434 6.74489 71.3837 6.66072 71.1676 6.66072C70.9704 6.66072 70.8095 6.74258 70.6868 6.90688C70.5865 7.03774 70.5271 7.19397 70.5075 7.37671H71.7654Z" fill="white"/>
</g>
</g>
</g>
<defs>
<clipPath id="clip0_2702_32976">
<rect width="86.7969" height="26.0391" fill="white" transform="translate(0.683594)"/>
</clipPath>
<clipPath id="clip1_2702_32976">
<rect width="86.7969" height="26.0391" fill="white" transform="translate(0.683594)"/>
</clipPath>
<clipPath id="clip2_2702_32976">
<rect width="86.7969" height="26.0391" fill="white" transform="translate(0.683594)"/>
</clipPath>
</defs>
</svg>
