<svg width="8" height="14" viewBox="0 0 8 14" fill="none" xmlns="http://www.w3.org/2000/svg">
<path d="M5.88734 6.9987L0.865506 1.97686C0.733062 1.84442 0.668562 1.68675 0.672006 1.50386C0.67545 1.32098 0.743395 1.16325 0.875839 1.0307C1.00828 0.898253 1.16595 0.832031 1.34884 0.832031C1.53173 0.832031 1.68945 0.898253 1.82201 1.0307L6.92584 6.14486C7.04628 6.26542 7.13556 6.40048 7.19367 6.55003C7.25189 6.69959 7.28101 6.84914 7.28101 6.9987C7.28101 7.14825 7.25189 7.29781 7.19367 7.44736C7.13556 7.59692 7.04628 7.73198 6.92584 7.85253L1.81167 12.9667C1.67923 13.0991 1.52328 13.1636 1.34384 13.1602C1.16428 13.1568 1.00828 13.0888 0.875839 12.9564C0.743395 12.8239 0.677173 12.6663 0.677173 12.4834C0.677173 12.3005 0.743395 12.1428 0.875839 12.0102L5.88734 6.9987Z" fill="white"/>
</svg>
