<svg width="8" height="14" viewBox="0 0 8 14" fill="none" xmlns="http://www.w3.org/2000/svg">
<path d="M2.11266 7.0013L7.13449 12.0231C7.26694 12.1556 7.33144 12.3132 7.32799 12.4961C7.32455 12.679 7.2566 12.8367 7.12416 12.9693C6.99172 13.1017 6.83405 13.168 6.65116 13.168C6.46827 13.168 6.31055 13.1017 6.17799 12.9693L1.07416 7.85514C0.953716 7.73458 0.864439 7.59952 0.806328 7.44997C0.748106 7.30041 0.718995 7.15086 0.718995 7.0013C0.718995 6.85175 0.748106 6.70219 0.806328 6.55264C0.864439 6.40308 0.953716 6.26802 1.07416 6.14747L6.18833 1.0333C6.32077 0.900857 6.47672 0.836358 6.65616 0.839803C6.83572 0.843247 6.99172 0.911191 7.12416 1.04364C7.2566 1.17608 7.32283 1.33375 7.32283 1.51663C7.32283 1.69952 7.2566 1.85725 7.12416 1.9898L2.11266 7.0013Z" fill="white"/>
</svg>
