<svg width="48" height="28" viewBox="0 0 48 28" fill="none" xmlns="http://www.w3.org/2000/svg">
<g clip-path="url(#clip0_2702_52552)">
<path d="M44 0.5H4C2.067 0.5 0.5 2.067 0.5 4V24C0.5 25.933 2.067 27.5 4 27.5H44C45.933 27.5 47.5 25.933 47.5 24V4C47.5 2.067 45.933 0.5 44 0.5Z" fill="white"/>
<path d="M38.4569 14.8091L30.7617 13.6367L31.7818 18.0949L38.4569 14.8091Z" fill="#D12053"/>
<path d="M38.4555 14.8094L32.6568 6.97656L30.7617 13.6384L38.4555 14.8094Z" fill="#E2136E"/>
<path d="M30.5797 13.5492L24.5039 6L32.4604 6.92404L30.5797 13.5492Z" fill="#D12053"/>
<path d="M27.8153 10.3958L24.4414 7.30469H25.3295L27.8153 10.3958Z" fill="#9E1638"/>
<path d="M40.0941 11.0039L38.6662 14.7694L36.3516 11.6572L40.0941 11.0039Z" fill="#D12053"/>
<path d="M32.6758 17.872L38.2786 15.6839L38.5137 14.9883L32.6758 17.872Z" fill="#E2136E"/>
<path d="M28.1953 22.0019L30.5954 13.8164L31.8129 19.1422L28.1953 22.0019Z" fill="#9E1638"/>
<path d="M40.3189 11.0312L39.7299 12.5859L41.8543 12.5521L40.3189 11.0312ZM6 11.6549C6.10303 11.6633 6.20751 11.6817 6.3178 11.6817C6.42808 11.6817 6.51805 11.6633 6.63559 11.6549V14.9661C6.9708 14.4116 7.39307 14.0462 8.01415 14.0462C9.13732 14.0462 9.61909 15.1269 9.61909 16.1201C9.61909 17.3094 8.96609 18.4478 7.82116 18.4478C7.59193 18.4527 7.36568 18.3966 7.16694 18.2854C6.96819 18.1743 6.80452 18.0124 6.69363 17.8172C6.50209 17.9809 6.3323 18.1771 6.15092 18.3549H6.0058L6 11.6549ZM6.62108 16.525C6.62108 17.4899 7.0419 18.1628 7.73409 18.1628C8.63233 18.1628 8.92111 16.989 8.92111 16.1567C8.92111 15.1903 8.59315 14.43 7.81535 14.4215C6.90695 14.4145 6.62108 15.4599 6.62108 16.5264V16.525Z" fill="#E2136E"/>
<path d="M12.5465 13.7967L11.8703 14.6432C12.5059 15.5461 13.1647 16.4307 13.8032 17.345L14.4475 18.3325V18.3818C14.2893 18.372 14.1456 18.3523 14.0121 18.3523C13.8787 18.3523 13.7103 18.372 13.5681 18.3818C13.3925 18.0659 13.2184 17.7738 13.0196 17.4874L11.2783 14.9832C11.239 14.9437 11.1447 14.9127 11.1447 14.9536V18.3818C11.017 18.372 10.9053 18.3523 10.795 18.3523C10.6847 18.3523 10.557 18.372 10.4453 18.3818V11.6551C10.557 11.6636 10.6775 11.6847 10.795 11.6847C10.9126 11.6847 11.017 11.6636 11.1447 11.6551V14.6912C11.1447 14.7504 11.2637 14.7109 11.3421 14.6319C11.4933 14.4796 11.6347 14.3184 11.7658 14.1494L13.7234 11.6523C13.8264 11.6607 13.9294 11.682 14.0412 11.682C14.1529 11.682 14.2386 11.6607 14.3517 11.6523L12.5465 13.7967ZM17.8126 17.6243C17.8126 17.9742 17.7894 18.1519 18.2581 18.0362V18.2324C18.1815 18.2696 18.1013 18.2994 18.0187 18.3212C17.6051 18.4016 17.2627 18.3296 17.1988 17.8034L17.1277 17.881C16.9894 18.0571 16.8111 18.1998 16.6067 18.2977C16.4022 18.3956 16.1773 18.4461 15.9494 18.4453C15.3863 18.4453 14.893 18.0137 14.893 17.3519C14.893 16.332 15.6185 16.1979 16.3629 16.0639C16.9927 15.9482 17.2075 15.8946 17.2075 15.4643C17.2075 14.8012 16.8738 14.4175 16.2773 14.4175C16.0736 14.4136 15.8737 14.4707 15.7045 14.5809C15.5352 14.6912 15.4049 14.8494 15.3312 15.034H15.2442V14.5374C15.6023 14.2346 16.0569 14.0611 16.5313 14.0464C17.3657 14.0464 17.8199 14.5374 17.8199 15.549L17.8126 17.6243ZM17.177 16.1471L16.897 16.2092C16.3557 16.3249 15.5446 16.4138 15.5446 17.2307C15.5446 17.795 15.8347 18.0772 16.3223 18.0772C16.5745 18.0469 16.8052 17.9237 16.9666 17.7329C17.0247 17.668 17.1843 17.5156 17.1843 17.4507L17.177 16.1471ZM19.2304 17.5058C19.419 17.857 19.7702 18.1716 20.1446 18.1716C20.3582 18.161 20.5592 18.07 20.7049 17.9178C20.8507 17.7656 20.9297 17.5642 20.9253 17.3562C20.9253 16.1486 19.046 16.933 19.046 15.3698C19.046 14.512 19.6265 14.0479 20.3419 14.0479C20.6582 14.0411 20.9702 14.1212 21.2416 14.2793C21.1633 14.4862 21.1002 14.6984 21.0529 14.9141H20.9804C20.8759 14.6192 20.5988 14.323 20.3042 14.323C19.9066 14.323 19.5786 14.5839 19.5786 15.0679C19.5786 16.2121 21.4579 15.6026 21.4579 17.0346C21.4579 17.9924 20.6945 18.4453 19.9922 18.4453C19.6405 18.4451 19.2961 18.3472 18.9996 18.1632C19.0709 17.9486 19.1266 17.7294 19.1665 17.5071L19.2304 17.5058ZM22.5288 11.6551C22.6347 11.6636 22.7377 11.682 22.848 11.682C22.9583 11.682 23.0482 11.6636 23.1673 11.6551V14.9127C23.4459 14.3667 23.8826 14.0464 24.4486 14.0464C25.3715 14.0464 25.73 14.6616 25.73 15.7902V18.3818C25.6095 18.372 25.5166 18.3551 25.4107 18.3551C25.3048 18.3551 25.1959 18.3734 25.0914 18.3818V15.9948C25.0914 15.0072 24.8869 14.5092 24.2092 14.5092C23.4923 14.5092 23.1673 15.0115 23.1673 15.9412V18.3818C23.0482 18.372 22.9539 18.3551 22.848 18.3551C22.7421 18.3551 22.6361 18.3734 22.5288 18.3818V11.6551Z" fill="#231F20"/>
<path d="M44 0.5H4C2.067 0.5 0.5 2.067 0.5 4V24C0.5 25.933 2.067 27.5 4 27.5H44C45.933 27.5 47.5 25.933 47.5 24V4C47.5 2.067 45.933 0.5 44 0.5Z" stroke="#EBF0F5"/>
</g>
<defs>
<clipPath id="clip0_2702_52552">
<rect width="48" height="28" fill="white"/>
</clipPath>
</defs>
</svg>
