<svg width="24" height="24" viewBox="0 0 24 24" fill="none" xmlns="http://www.w3.org/2000/svg">
<path d="M4.49113 15.9999C4.87671 15.9999 5.18929 15.5522 5.18929 15C5.18929 14.4477 4.87671 14 4.49113 14C4.10555 14 3.79297 14.4477 3.79297 15C3.79297 15.5522 4.10555 15.9999 4.49113 15.9999Z" fill="white"/>
<path d="M17.4091 15.9999C17.7947 15.9999 18.1073 15.5522 18.1073 15C18.1073 14.4477 17.7947 14 17.4091 14C17.0235 14 16.7109 14.4477 16.7109 15C16.7109 15.5522 17.0235 15.9999 17.4091 15.9999Z" fill="white"/>
<path d="M20.7126 11.5874L20.2207 11.3704C18.8142 10.7526 17.3673 10.3417 15.9026 10.1439C15.8974 10.1369 15.8942 10.1274 15.8886 10.1204L14.8177 8.80495C13.8684 7.64054 12.6598 7.0004 11.4099 7H9.40412C8.64659 7.00179 7.8982 7.23711 7.2098 7.68998L3.71585 9.99991H3.31022L3.07563 9.32793L3.31371 9.46443C3.39972 9.51376 3.49588 9.51213 3.58105 9.4599C3.66623 9.40768 3.73342 9.30913 3.76786 9.18594C3.8023 9.06275 3.80117 8.92501 3.7647 8.80302C3.72824 8.68103 3.65943 8.58478 3.57342 8.53546L1.82802 7.53548C1.74201 7.48616 1.64584 7.48778 1.56067 7.54001C1.4755 7.59224 1.40831 7.69079 1.37387 7.81398C1.33943 7.93717 1.34056 8.07491 1.37703 8.19689C1.41349 8.31888 1.4823 8.41513 1.5683 8.46446L2.09995 8.76895L2.54014 10.0299C2.11692 10.1005 1.72645 10.3908 1.44263 10.846C1.1588 11.3012 1.00133 11.8896 1 12.4998V14.4998C1 14.8976 1.11033 15.2791 1.30673 15.5604C1.50313 15.8417 1.7695 15.9997 2.04724 15.9997H2.5185C2.66226 16.5845 2.9292 17.091 3.28247 17.4493C3.63574 17.8076 4.05794 18 4.49081 18C4.92368 18 5.34587 17.8076 5.69915 17.4493C6.05242 17.091 6.31935 16.5845 6.46312 15.9997H15.4345C15.5783 16.5845 15.8452 17.091 16.1985 17.4493C16.5517 17.8076 16.9739 18 17.4068 18C17.8397 18 18.2619 17.8076 18.6151 17.4493C18.9684 17.091 19.2353 16.5845 19.3791 15.9997H21.5958C21.6884 15.9997 21.7771 15.9471 21.8426 15.8533C21.9081 15.7595 21.9449 15.6324 21.9449 15.4998V13.9768C21.9462 13.4417 21.8271 12.9201 21.6051 12.4897C21.3831 12.0592 21.0701 11.7428 20.7126 11.5874ZM7.50233 8.59995C8.09883 8.20671 8.74747 8.00207 9.40412 7.99997H11.4099C12.4931 8.00022 13.5406 8.5551 14.3632 9.56443L14.7189 9.99991H14.3475L12.7689 8.86945C12.4294 8.62708 12.0553 8.50061 11.6759 8.49996H9.70573C9.19958 8.49995 8.70294 8.69696 8.26891 9.06994L7.18676 9.99991H5.38201L7.50233 8.59995ZM12.7864 9.99991H8.54329L8.62812 9.92692C8.95376 9.64766 9.32618 9.50009 9.70573 9.49993H11.6759C11.947 9.50046 12.2142 9.59081 12.4568 9.76392L12.7864 9.99991ZM4.49081 16.9997C4.21464 16.9997 3.94468 16.8824 3.71505 16.6627C3.48543 16.4429 3.30646 16.1306 3.20077 15.7651C3.09509 15.3997 3.06744 14.9976 3.12132 14.6096C3.17519 14.2217 3.30818 13.8653 3.50346 13.5856C3.69874 13.3059 3.94754 13.1154 4.2184 13.0383C4.48926 12.9611 4.77001 13.0007 5.02516 13.1521C5.2803 13.3034 5.49838 13.5598 5.65181 13.8887C5.80524 14.2176 5.88713 14.6042 5.88713 14.9998C5.88713 15.5302 5.74002 16.0389 5.47816 16.4139C5.2163 16.789 4.86114 16.9997 4.49081 16.9997ZM17.4068 16.9997C17.1306 16.9997 16.8607 16.8824 16.631 16.6627C16.4014 16.4429 16.2225 16.1306 16.1168 15.7651C16.0111 15.3997 15.9834 14.9976 16.0373 14.6096C16.0912 14.2217 16.2242 13.8653 16.4195 13.5856C16.6147 13.3059 16.8635 13.1154 17.1344 13.0383C17.4053 12.9611 17.686 13.0007 17.9412 13.1521C18.1963 13.3034 18.4144 13.5598 18.5678 13.8887C18.7212 14.2176 18.8031 14.6042 18.8031 14.9998C18.8031 15.5302 18.656 16.0389 18.3942 16.4139C18.1323 16.789 17.7771 16.9997 17.4068 16.9997ZM21.2467 14.9998H19.5013C19.5013 14.2041 19.2806 13.4411 18.8878 12.8785C18.495 12.3159 17.9623 11.9999 17.4068 11.9999C16.8513 11.9999 16.3186 12.3159 15.9258 12.8785C15.533 13.4411 15.3123 14.2041 15.3123 14.9998H6.58529C6.58529 14.2041 6.36463 13.4411 5.97183 12.8785C5.57904 12.3159 5.0463 11.9999 4.49081 11.9999C3.93532 11.9999 3.40258 12.3159 3.00978 12.8785C2.61699 13.4411 2.39632 14.2041 2.39632 14.9998H2.04724C1.95466 14.9998 1.86587 14.9471 1.80041 14.8533C1.73494 14.7596 1.69816 14.6324 1.69816 14.4998V12.4998C1.69816 12.102 1.8085 11.7205 2.00489 11.4392C2.20129 11.1579 2.46766 10.9999 2.7454 10.9999H5.06016L7.38609 13.8558L7.40249 13.8763C7.43298 13.9131 7.46755 13.9423 7.50477 13.9628C7.54538 13.9864 7.58871 13.999 7.63254 13.9998H8.3307C8.42328 13.9998 8.51207 13.9471 8.57754 13.8534C8.643 13.7596 8.67978 13.6324 8.67978 13.4998C8.67978 13.3672 8.643 13.24 8.57754 13.1463C8.51207 13.0525 8.42328 12.9998 8.3307 12.9998H7.76379L6.16814 10.9999H7.50373L9.84885 13.8793C9.88037 13.9184 9.91672 13.9488 9.95602 13.9688C9.99445 13.9892 10.0351 13.9997 10.0761 13.9998H13.916C14.0086 13.9998 14.0974 13.9471 14.1628 13.8534C14.2283 13.7596 14.2651 13.6324 14.2651 13.4998C14.2651 13.3672 14.2283 13.24 14.1628 13.1463C14.0974 13.0525 14.0086 12.9998 13.916 12.9998H10.2053L8.57506 10.9999H13.856C15.9438 10.9996 18.02 11.4467 20.0155 12.3263L20.5073 12.5433C20.6956 12.6269 20.8635 12.7852 20.9915 12.9998H20.5485C20.4559 12.9998 20.3672 13.0525 20.3017 13.1463C20.2362 13.24 20.1994 13.3672 20.1994 13.4998C20.1994 13.6324 20.2362 13.7596 20.3017 13.8534C20.3672 13.9471 20.4559 13.9998 20.5485 13.9998H21.2467V14.9998Z" fill="white"/>
</svg>
