<svg width="10" height="8" viewBox="0 0 10 8" fill="none" xmlns="http://www.w3.org/2000/svg">
<path d="M3.33268 5.83333L8.24935 0.916667C8.40213 0.763889 8.59657 0.6875 8.83268 0.6875C9.06879 0.6875 9.26324 0.763889 9.41602 0.916667C9.56879 1.06944 9.64518 1.26389 9.64518 1.5C9.64518 1.73611 9.56879 1.93056 9.41602 2.08333L3.91602 7.58333C3.74935 7.75 3.5549 7.83333 3.33268 7.83333C3.11046 7.83333 2.91602 7.75 2.74935 7.58333L0.582682 5.41667C0.429905 5.26389 0.353516 5.06944 0.353516 4.83333C0.353516 4.59722 0.429905 4.40278 0.582682 4.25C0.73546 4.09722 0.929905 4.02083 1.16602 4.02083C1.40213 4.02083 1.59657 4.09722 1.74935 4.25L3.33268 5.83333Z" fill="url(#paint0_linear_83_3672)"/>
<defs>
<linearGradient id="paint0_linear_83_3672" x1="0.353516" y1="4.26042" x2="9.64518" y2="4.26042" gradientUnits="userSpaceOnUse">
<stop stop-color="#02AAB0"/>
<stop offset="1" stop-color="#00CDAC"/>
</linearGradient>
</defs>
</svg>
