<svg width="8" height="5" viewBox="0 0 8 5" fill="none" xmlns="http://www.w3.org/2000/svg">
<path d="M3.99967 3.12986L6.715 0.414365C6.80733 0.322142 6.92339 0.27492 7.06317 0.272698C7.20283 0.270587 7.321 0.317809 7.41767 0.414365C7.51422 0.511031 7.5625 0.628142 7.5625 0.765698C7.5625 0.903253 7.51422 1.02036 7.41767 1.11703L4.4215 4.1132C4.35906 4.17553 4.29322 4.21953 4.224 4.2452C4.15478 4.27086 4.08 4.2837 3.99967 4.2837C3.91933 4.2837 3.84456 4.27086 3.77533 4.2452C3.70611 4.21953 3.64028 4.17553 3.57783 4.1132L0.581666 1.11703C0.489444 1.0247 0.442222 0.908642 0.44 0.768864C0.437889 0.629198 0.485111 0.511031 0.581666 0.414365C0.678333 0.317809 0.795444 0.269531 0.933 0.269531C1.07056 0.269531 1.18767 0.317809 1.28433 0.414365L3.99967 3.12986Z" fill="url(#paint0_linear_2702_33130)"/>
<defs>
<linearGradient id="paint0_linear_2702_33130" x1="0.440286" y1="2.27651" x2="7.56275" y2="2.27651" gradientUnits="userSpaceOnUse">
<stop stop-color="#1768D0"/>
<stop offset="1" stop-color="#0070FF"/>
</linearGradient>
</defs>
</svg>
