<svg width="18" height="18" viewBox="0 0 18 18" fill="none" xmlns="http://www.w3.org/2000/svg">
<path d="M8.98108 17.5C6.97092 17.5 5.19917 16.8865 3.66583 15.6595C2.1325 14.4327 1.14975 12.8628 0.717583 10.95C0.66375 10.7513 0.696166 10.5687 0.814833 10.402C0.933333 10.2353 1.10125 10.1385 1.31858 10.1115C1.52308 10.0847 1.70642 10.1251 1.86858 10.2327C2.03075 10.3404 2.14392 10.4988 2.20808 10.7078C2.58875 12.2526 3.40892 13.5208 4.66858 14.5125C5.92825 15.5042 7.36575 16 8.98108 16C10.9311 16 12.5852 15.3208 13.9436 13.9625C15.3019 12.6042 15.9811 10.95 15.9811 9C15.9811 7.05 15.3019 5.39583 13.9436 4.0375C12.5852 2.67917 10.9311 2 8.98108 2C7.88875 2 6.86508 2.24267 5.91008 2.728C4.95492 3.21317 4.13242 3.88075 3.44258 4.73075H5.30808C5.52058 4.73075 5.69867 4.80267 5.84233 4.9465C5.98617 5.09033 6.05808 5.2685 6.05808 5.481C6.05808 5.69367 5.98617 5.87175 5.84233 6.01525C5.69867 6.15892 5.52058 6.23075 5.30808 6.23075H1.88508C1.62892 6.23075 1.41425 6.14408 1.24108 5.97075C1.06775 5.79758 0.981083 5.58292 0.981083 5.32675V1.90375C0.981083 1.69125 1.053 1.51317 1.19683 1.3695C1.34067 1.22567 1.51892 1.15375 1.73158 1.15375C1.94408 1.15375 2.12217 1.22567 2.26583 1.3695C2.40933 1.51317 2.48108 1.69125 2.48108 1.90375V3.523C3.29258 2.56533 4.26442 1.82208 5.39658 1.29325C6.52858 0.764416 7.72342 0.5 8.98108 0.5C10.1611 0.5 11.2663 0.723084 12.2968 1.16925C13.3273 1.61542 14.2259 2.22183 14.9926 2.9885C15.7592 3.75517 16.3657 4.65367 16.8118 5.684C17.258 6.7145 17.4811 7.81967 17.4811 8.9995C17.4811 10.1793 17.258 11.2846 16.8118 12.3152C16.3657 13.3461 15.7592 14.2448 14.9926 15.0115C14.2259 15.7782 13.3273 16.3846 12.2968 16.8307C11.2663 17.2769 10.1611 17.5 8.98108 17.5ZM9.75983 8.69625L12.5098 11.4462C12.6483 11.5846 12.7192 11.7586 12.7223 11.9683C12.7257 12.1779 12.6548 12.3552 12.5098 12.5C12.365 12.6448 12.1894 12.7172 11.9831 12.7172C11.7766 12.7172 11.6009 12.6448 11.4561 12.5L8.53108 9.575C8.43758 9.48133 8.369 9.37933 8.32533 9.269C8.28183 9.15867 8.26008 9.04467 8.26008 8.927V4.75C8.26008 4.5375 8.33192 4.35933 8.47558 4.2155C8.61942 4.07183 8.79767 4 9.01033 4C9.22283 4 9.40092 4.07183 9.54458 4.2155C9.68808 4.35933 9.75983 4.5375 9.75983 4.75V8.69625Z" fill="#243045"/>
</svg>
