<svg width="48" height="28" viewBox="0 0 48 28" fill="none" xmlns="http://www.w3.org/2000/svg">
<g clip-path="url(#clip0_2702_52567)">
<path d="M44 0.5H4C2.067 0.5 0.5 2.067 0.5 4V24C0.5 25.933 2.067 27.5 4 27.5H44C45.933 27.5 47.5 25.933 47.5 24V4C47.5 2.067 45.933 0.5 44 0.5Z" fill="white"/>
<path d="M32.8753 10.5551C32.8753 13.3124 28.8739 15.5471 23.9374 15.5471C19.002 15.5471 15 13.3124 15 10.5551C15 7.79833 19.002 5.5625 23.9374 5.5625C28.8739 5.5625 32.8753 7.79833 32.8753 10.5551Z" fill="url(#paint0_linear_2702_52567)"/>
<path d="M32.8766 10.0493C32.8766 12.8379 28.8836 15.0987 23.9579 15.0987C19.0322 15.0987 15.0391 12.8379 15.0391 10.0493C15.0391 7.26077 19.0322 5 23.9579 5C28.8836 5 32.8766 7.26077 32.8766 10.0493Z" fill="url(#paint1_linear_2702_52567)" stroke="#C5C5C6" stroke-width="0.3854" stroke-miterlimit="10"/>
<path fill-rule="evenodd" clip-rule="evenodd" d="M26.7726 14.9397C26.5251 14.9785 26.2963 15.0237 26.0663 15.0474C25.5552 15.0996 25.0424 15.1424 24.5307 15.1859C24.4154 15.1957 24.3007 15.1957 24.1854 15.1957C24.1608 15.1957 24.1302 15.1824 24.1127 15.1662C23.0095 14.1674 21.9616 13.1233 21.1046 11.9291C20.8331 11.5514 20.6007 11.1545 20.4212 10.7298C20.1275 10.0346 20.2386 9.39145 20.6836 8.78367C21.0271 8.31321 21.4715 7.9366 21.9549 7.59594C22.6876 7.0791 23.4869 6.66541 24.3115 6.29287C25.2315 5.87745 26.1786 5.51997 27.1491 5.21579C27.2055 5.19783 27.2758 5.19435 27.3341 5.20594C27.5431 5.24997 27.7497 5.30328 27.9574 5.36817C27.8049 5.42148 27.6512 5.47362 27.4992 5.52808C26.4033 5.92032 25.3456 6.38383 24.3631 6.98465C23.8353 7.3068 23.3404 7.66774 22.9272 8.11503C22.615 8.45227 22.3658 8.82187 22.2618 9.26283C22.176 9.62609 22.2096 9.97774 22.3681 10.3214C22.5825 10.786 22.8822 11.2009 23.2113 11.5989C23.8269 12.344 24.5241 13.0207 25.2586 13.6632C25.739 14.0833 26.2363 14.4871 26.7257 14.8979C26.7365 14.9078 26.7462 14.917 26.7726 14.9397Z" fill="#E8242A"/>
<path fill-rule="evenodd" clip-rule="evenodd" d="M23.2686 15.1957C23.0758 15.187 22.9052 15.1852 22.7353 15.1713C22.3864 15.1436 22.0357 15.1221 21.6891 15.074C21.2321 15.0109 20.7781 14.9257 20.3234 14.8486C20.3036 14.8452 20.2826 14.8301 20.2688 14.815C19.4671 13.9141 18.726 12.9749 18.1855 11.913C17.9801 11.5086 17.8222 11.0897 17.7483 10.6446C17.6666 10.1528 17.7831 9.70257 18.0504 9.27962C18.3344 8.82885 18.7236 8.46211 19.1512 8.12953C19.8022 7.62435 20.521 7.21412 21.2681 6.84505C22.7497 6.11212 24.3069 5.54606 25.8966 5.05011C26.1254 4.97885 26.332 5.0223 26.5494 5.05648C26.6472 5.07271 26.7445 5.09125 26.8628 5.11268C26.6917 5.17062 26.5386 5.22103 26.3872 5.27433C25.1237 5.71582 23.8943 6.22452 22.7287 6.85837C22.0555 7.22396 21.4123 7.62894 20.8454 8.12953C20.5475 8.39261 20.2803 8.6788 20.0695 9.00908C19.7133 9.56643 19.6503 10.1452 19.8899 10.7571C20.1115 11.3208 20.4286 11.8364 20.7835 12.3341C21.3871 13.1795 22.0789 13.9604 22.8038 14.7183C22.9509 14.8724 23.1016 15.0242 23.2686 15.1957Z" fill="#214596"/>
<path fill-rule="evenodd" clip-rule="evenodd" d="M29.723 14.0453C29.4996 14.1339 29.2918 14.2209 29.0817 14.2996C28.5886 14.4844 28.0824 14.6339 27.5683 14.7596C27.522 14.7707 27.4878 14.7655 27.4494 14.7376C26.3834 13.967 25.3583 13.1559 24.4256 12.2469C23.9241 11.7567 23.4527 11.2439 23.093 10.6518C22.9512 10.42 22.8341 10.1779 22.7801 9.91371C22.6906 9.48145 22.7825 9.07533 22.9993 8.69002C23.2251 8.2885 23.544 7.95592 23.9043 7.65582C24.5457 7.12279 25.273 6.70853 26.0321 6.33888C26.7167 6.00515 27.4248 5.72125 28.1478 5.4669C28.2091 5.44547 28.2631 5.44257 28.325 5.46342C28.5214 5.53006 28.7183 5.59263 28.9285 5.66042C28.7045 5.74269 28.4943 5.81569 28.2871 5.89623C27.4584 6.21952 26.6657 6.6025 25.9564 7.11989C25.527 7.43334 25.1445 7.78848 24.8742 8.23465C24.658 8.59096 24.5571 8.97217 24.5835 9.38121C24.6034 9.68889 24.7349 9.95831 24.9072 10.2143C25.1895 10.6367 25.5426 11.0058 25.9228 11.3534C26.671 12.0377 27.4956 12.635 28.355 13.1924C28.7868 13.4728 29.2306 13.737 29.669 14.0088C29.681 14.0157 29.6937 14.0244 29.723 14.0453Z" fill="#0D984A"/>
<path d="M16.043 23.0013V18.5859H17.4404C17.8396 18.5859 18.1962 18.6738 18.5102 18.8497C18.8263 19.0236 19.0727 19.2723 19.2495 19.5957C19.4262 19.9172 19.5146 20.2831 19.5146 20.6935V20.8967C19.5146 21.3071 19.4273 21.672 19.2526 21.9914C19.08 22.3109 18.8357 22.5585 18.5196 22.7344C18.2035 22.9103 17.8469 22.9992 17.4497 23.0013H16.043ZM16.9787 19.3228V22.2704H17.431C17.7969 22.2704 18.0767 22.1542 18.2701 21.9217C18.4634 21.6892 18.5622 21.3566 18.5664 20.924V20.6905C18.5664 20.2416 18.4707 19.902 18.2794 19.6716C18.0881 19.439 17.8084 19.3228 17.4404 19.3228H16.9787ZM20.1977 23.0013V18.5859H21.7885C22.3395 18.5859 22.7575 18.689 23.0424 18.8952C23.3273 19.0994 23.4697 19.3996 23.4697 19.7959C23.4697 20.0122 23.4126 20.2033 23.2982 20.369C23.1839 20.5328 23.0247 20.6531 22.821 20.7299C23.0539 20.7865 23.2369 20.9007 23.37 21.0726C23.5051 21.2444 23.5727 21.4547 23.5727 21.7034C23.5727 22.1279 23.4334 22.4494 23.1547 22.6677C22.8761 22.8861 22.4789 22.9973 21.9632 23.0013H20.1977ZM21.1335 21.0787V22.2704H21.9351C22.1556 22.2704 22.3271 22.2199 22.4498 22.1188C22.5746 22.0157 22.6369 21.8742 22.6369 21.6943C22.6369 21.2899 22.4217 21.0847 21.9913 21.0787H21.1335ZM21.1335 20.4357H21.8259C22.298 20.4277 22.534 20.2447 22.534 19.8869C22.534 19.6867 22.4737 19.5432 22.3531 19.4562C22.2345 19.3673 22.0464 19.3228 21.7885 19.3228H21.1335V20.4357ZM24.2776 23.0013V18.5859H25.8684C26.4195 18.5859 26.8375 18.689 27.1223 18.8952C27.4073 19.0994 27.5497 19.3996 27.5497 19.7959C27.5497 20.0122 27.4925 20.2033 27.3781 20.369C27.2638 20.5328 27.1046 20.6531 26.9009 20.7299C27.1338 20.7865 27.3168 20.9007 27.4499 21.0726C27.585 21.2444 27.6526 21.4547 27.6526 21.7034C27.6526 22.1279 27.5133 22.4494 27.2346 22.6677C26.956 22.8861 26.5588 22.9973 26.0431 23.0013H24.2776ZM25.2134 21.0787V22.2704H26.015C26.2355 22.2704 26.407 22.2199 26.5297 22.1188C26.6545 22.0157 26.7169 21.8742 26.7169 21.6943C26.7169 21.2899 26.5016 21.0847 26.0712 21.0787H25.2134ZM25.2134 20.4357H25.9059C26.3779 20.4277 26.6139 20.2447 26.6139 19.8869C26.6139 19.6867 26.5536 19.5432 26.433 19.4562C26.3145 19.3673 26.1263 19.3228 25.8684 19.3228H25.2134V20.4357ZM29.2933 22.2704H31.2803V23.0013H28.3576V18.5859H29.2933V22.2704Z" fill="black"/>
<path d="M44 0.5H4C2.067 0.5 0.5 2.067 0.5 4V24C0.5 25.933 2.067 27.5 4 27.5H44C45.933 27.5 47.5 25.933 47.5 24V4C47.5 2.067 45.933 0.5 44 0.5Z" stroke="#EBF0F5"/>
</g>
<defs>
<linearGradient id="paint0_linear_2702_52567" x1="15.3043" y1="10.5548" x2="32.419" y2="10.5548" gradientUnits="userSpaceOnUse">
<stop stop-color="#949494"/>
<stop offset="0.055" stop-color="#A6A6A6"/>
<stop offset="0.165" stop-color="#D5D5D5"/>
<stop offset="0.2527" stop-color="white"/>
<stop offset="0.3697" stop-color="#CACACA"/>
<stop offset="0.5142" stop-color="#8F8F8F"/>
<stop offset="0.621" stop-color="#6A6A6A"/>
<stop offset="0.6774" stop-color="#5C5C5C"/>
<stop offset="0.7181" stop-color="#636464"/>
<stop offset="0.7796" stop-color="#787878"/>
<stop offset="0.8543" stop-color="#9A9A9A"/>
<stop offset="0.9386" stop-color="#C9C9C9"/>
<stop offset="1" stop-color="#EFF0F0"/>
</linearGradient>
<linearGradient id="paint1_linear_2702_52567" x1="23.9579" y1="4.47237" x2="23.9579" y2="15.559" gradientUnits="userSpaceOnUse">
<stop stop-color="#C2C4C6"/>
<stop offset="0.2146" stop-color="#DCDDDE"/>
<stop offset="0.4462" stop-color="white"/>
<stop offset="0.766" stop-color="#C2C4C6"/>
<stop offset="1" stop-color="#9C9FA1"/>
</linearGradient>
<clipPath id="clip0_2702_52567">
<rect width="48" height="28" fill="white"/>
</clipPath>
</defs>
</svg>
