<svg width="48" height="28" viewBox="0 0 48 28" fill="none" xmlns="http://www.w3.org/2000/svg">
<g clip-path="url(#clip0_2702_52701)">
<path d="M44 0.5H4C2.067 0.5 0.5 2.067 0.5 4V24C0.5 25.933 2.067 27.5 4 27.5H44C45.933 27.5 47.5 25.933 47.5 24V4C47.5 2.067 45.933 0.5 44 0.5Z" fill="white"/>
<path d="M9.36612 19.9058C12.2068 19.9058 14.5096 17.5283 14.5096 14.5955C14.5096 11.6627 12.2068 9.28516 9.36612 9.28516C6.52546 9.28516 4.22266 11.6627 4.22266 14.5955C4.22266 17.5283 6.52546 19.9058 9.36612 19.9058Z" fill="white"/>
<path d="M18.0385 11.3685C18.0385 10.8481 17.7754 10.8824 17.5234 10.8767V10.7266C17.7414 10.7372 17.9658 10.7372 18.1846 10.7372C18.42 10.7372 18.7392 10.7266 19.1539 10.7266C20.6051 10.7266 21.395 11.7265 21.395 12.7509C21.395 13.3235 21.0704 14.7646 19.0868 14.7646C18.8016 14.7646 18.5369 14.7532 18.2747 14.7532C18.0227 14.7532 17.7754 14.7589 17.5234 14.7646V14.6137C17.8592 14.5787 18.0219 14.5672 18.0385 14.1741V11.3685ZM18.5875 14.082C18.5875 14.5281 18.8964 14.5795 19.1705 14.5795C20.3815 14.5795 20.7789 13.6366 20.7789 12.7746C20.7789 11.6931 20.1066 10.9117 19.0251 10.9117C18.7953 10.9117 18.6894 10.928 18.5883 10.9346L18.5875 14.082Z" fill="black"/>
<path d="M21.5898 14.6118H21.6964C21.8536 14.6118 21.965 14.6118 21.965 14.4201V12.8534C21.965 12.5989 21.8813 12.5638 21.6735 12.4488V12.3559C21.9373 12.2743 22.251 12.1658 22.2731 12.1471C22.3126 12.1242 22.3458 12.1185 22.3742 12.1185C22.4018 12.1185 22.4129 12.1528 22.4129 12.1993V14.4201C22.4129 14.6118 22.5369 14.6118 22.6933 14.6118H22.7881V14.7627C22.5978 14.7627 22.4018 14.7513 22.2004 14.7513C21.999 14.7513 21.7967 14.757 21.5898 14.7627V14.6118ZM22.1901 11.2279C22.044 11.2279 21.9152 11.0892 21.9152 10.9384C21.9152 10.7932 22.0495 10.6602 22.1901 10.6602C22.3355 10.6602 22.465 10.7818 22.465 10.9384C22.4642 11.095 22.341 11.2279 22.1901 11.2279Z" fill="black"/>
<path d="M23.3212 12.8894C23.3212 12.6757 23.2596 12.6178 22.9965 12.5085V12.3984C23.2375 12.3177 23.4665 12.2418 23.7359 12.1211C23.7525 12.1211 23.7691 12.1325 23.7691 12.1782V12.555C24.089 12.3177 24.3639 12.1211 24.7392 12.1211C25.2155 12.1211 25.3838 12.4792 25.3838 12.931V14.4219C25.3838 14.6136 25.5078 14.6136 25.6642 14.6136H25.7653V14.7645C25.5686 14.7645 25.3727 14.7531 25.1721 14.7531C24.9698 14.7531 24.7684 14.7588 24.5662 14.7645V14.6136H24.6673C24.8245 14.6136 24.9359 14.6136 24.9359 14.4219V12.9245C24.9359 12.5942 24.74 12.4327 24.4208 12.4327C24.2415 12.4327 23.9563 12.5828 23.7707 12.7108V14.4219C23.7707 14.6136 23.8947 14.6136 24.0519 14.6136H24.153V14.7645C23.9571 14.7645 23.7604 14.7531 23.5582 14.7531C23.3567 14.7531 23.1553 14.7588 22.9531 14.7645V14.6136H23.055C23.2114 14.6136 23.3236 14.6136 23.3236 14.4219V12.8894H23.3212Z" fill="black"/>
<path d="M26.1909 13.166C26.179 13.2182 26.179 13.3047 26.1909 13.5013C26.2232 14.051 26.5661 14.502 27.014 14.502C27.3221 14.502 27.5638 14.3283 27.7708 14.1138L27.849 14.1945C27.5907 14.5477 27.2723 14.8478 26.8126 14.8478C25.9215 14.8478 25.7422 13.9572 25.7422 13.5869C25.7422 12.4532 26.4816 12.1172 26.8734 12.1172C27.3276 12.1172 27.8158 12.4116 27.8205 13.0249C27.8205 13.06 27.8205 13.0951 27.8158 13.1293L27.7645 13.1644H26.1909V13.166ZM27.1823 12.9809C27.3221 12.9809 27.3379 12.9059 27.3379 12.8365C27.3379 12.5413 27.1641 12.304 26.8505 12.304C26.5092 12.304 26.2738 12.5641 26.2067 12.9809H27.1823Z" fill="black"/>
<path d="M27.9507 14.6105H28.1024C28.2588 14.6105 28.3702 14.6105 28.3702 14.4189V12.7942C28.3702 12.6148 28.1632 12.5805 28.0795 12.5332V12.4476C28.4887 12.2681 28.713 12.1172 28.7636 12.1172C28.7968 12.1172 28.8134 12.1336 28.8134 12.1923V12.7126H28.8252C28.965 12.4875 29.2005 12.1172 29.5417 12.1172C29.6815 12.1172 29.8609 12.2151 29.8609 12.4239C29.8609 12.5797 29.755 12.7192 29.5978 12.7192C29.424 12.7192 29.424 12.5797 29.2281 12.5797C29.1333 12.5797 28.8189 12.7126 28.8189 13.0601V14.4189C28.8189 14.6105 28.9303 14.6105 29.0875 14.6105H29.4011V14.7614C29.093 14.7557 28.8584 14.75 28.6167 14.75C28.3868 14.75 28.1514 14.7557 27.9492 14.7614V14.6105H27.9507Z" fill="black"/>
<path d="M30.1089 13.9572C30.1823 14.3389 30.4067 14.6635 30.8159 14.6635C31.1461 14.6635 31.2685 14.4547 31.2685 14.2525C31.2685 13.5698 30.048 13.7892 30.048 12.8578C30.048 12.5332 30.3008 12.1172 30.917 12.1172C31.0963 12.1172 31.3365 12.1694 31.5553 12.2844L31.5948 12.8749H31.466C31.4099 12.5104 31.214 12.3024 30.8546 12.3024C30.6303 12.3024 30.4178 12.4361 30.4178 12.6841C30.4178 13.3618 31.7172 13.153 31.7172 14.0608C31.7172 14.4425 31.4202 14.8479 30.7535 14.8479C30.5283 14.8479 30.2653 14.7671 30.0694 14.6521L30.0078 13.9866L30.1089 13.9572Z" fill="black"/>
<path d="M36.7754 11.7734H36.6355C36.5289 11.0973 36.0636 10.8249 35.4372 10.8249C34.7918 10.8249 33.8557 11.2702 33.8557 12.6584C33.8557 13.8279 34.6638 14.6672 35.5256 14.6672C36.0802 14.6672 36.54 14.274 36.6521 13.6664L36.7801 13.7007L36.6521 14.5456C36.4167 14.6965 35.7832 14.8523 35.4127 14.8523C34.1021 14.8523 33.2734 13.9788 33.2734 12.6771C33.2734 11.4912 34.298 10.6406 35.3969 10.6406C35.8511 10.6406 36.2872 10.7915 36.7193 10.9472L36.7754 11.7734Z" fill="black"/>
<path d="M36.9766 14.6133H37.0832C37.2404 14.6133 37.3526 14.6133 37.3526 14.4217V11.2009C37.3526 10.8241 37.2681 10.8127 37.0556 10.749V10.6561C37.2792 10.581 37.5146 10.4774 37.6331 10.4073C37.6947 10.373 37.7397 10.3438 37.7563 10.3438C37.7903 10.3438 37.8013 10.3789 37.8013 10.4253V14.4217C37.8013 14.6133 37.9253 14.6133 38.0818 14.6133H38.1766V14.7642C37.987 14.7642 37.7903 14.7528 37.588 14.7528C37.3866 14.7528 37.1851 14.7585 36.9766 14.7642V14.6133Z" fill="black"/>
<path d="M40.5781 14.4427C40.5781 14.5471 40.6389 14.5528 40.7345 14.5528C40.8016 14.5528 40.8861 14.5471 40.9588 14.5471V14.6686C40.7171 14.6915 40.2581 14.813 40.1507 14.8473L40.123 14.8301V14.362C39.7873 14.645 39.529 14.8473 39.1308 14.8473C38.8283 14.8473 38.5155 14.645 38.5155 14.1597V12.6778C38.5155 12.5269 38.4925 12.3825 38.1797 12.354V12.2439C38.382 12.2374 38.8291 12.2039 38.9025 12.2039C38.9649 12.2039 38.9649 12.2439 38.9649 12.3711V13.8637C38.9649 14.0366 38.9649 14.5349 39.4524 14.5349C39.6419 14.5349 39.8947 14.384 40.1294 14.1826V12.6256C40.1294 12.5106 39.8608 12.447 39.6593 12.3882V12.2838C40.1633 12.2488 40.4777 12.2031 40.533 12.2031C40.5781 12.2031 40.5781 12.2431 40.5781 12.3075V14.4427Z" fill="black"/>
<path d="M41.6872 12.5338C41.9115 12.338 42.2149 12.1178 42.5222 12.1178C43.1723 12.1178 43.5641 12.7026 43.5641 13.3322C43.5641 14.0899 43.0262 14.8476 42.2243 14.8476C41.8096 14.8476 41.5924 14.709 41.4462 14.6453L41.278 14.7775L41.161 14.7139C41.21 14.3729 41.2385 14.0361 41.2385 13.6838V11.197C41.2385 10.8202 41.1547 10.8088 40.9414 10.7452V10.6522C41.1666 10.5772 41.4004 10.4736 41.5189 10.4034C41.5797 10.3692 41.6255 10.3398 41.6429 10.3398C41.6761 10.3398 41.6872 10.3749 41.6872 10.4214V12.5338ZM41.6872 14.1079C41.6872 14.3281 41.8886 14.6984 42.2646 14.6984C42.8642 14.6984 43.1162 14.0907 43.1162 13.5753C43.1162 12.9505 42.6565 12.4302 42.2196 12.4302C42.0111 12.4302 41.8381 12.5688 41.6864 12.7026L41.6872 14.1079Z" fill="black"/>
<path d="M17.5117 18.1269H17.5543C17.6641 18.1269 17.7803 18.1122 17.7803 17.9474V16.2983C17.7803 16.1344 17.6641 16.1189 17.5543 16.1189H17.5117V16.0234C17.631 16.0234 17.8134 16.0365 17.9635 16.0365C18.116 16.0365 18.2985 16.0234 18.4415 16.0234V16.1189H18.3988C18.289 16.1189 18.1729 16.1336 18.1729 16.2983V17.9474C18.1729 18.1114 18.289 18.1269 18.3988 18.1269H18.4415V18.2215C18.2953 18.2215 18.112 18.2092 17.9596 18.2092C17.8103 18.2092 17.6302 18.2215 17.5117 18.2215V18.1269Z" fill="black"/>
<path d="M18.4471 18.2359C18.3001 18.2359 18.1169 18.2236 17.9652 18.2236C17.8159 18.2236 17.6366 18.2359 17.5173 18.2359H17.5039V18.2228V18.1282V18.1152H17.5173H17.5599C17.6705 18.1127 17.7717 18.1029 17.7724 17.9488V16.2996C17.7717 16.1455 17.6705 16.1357 17.5599 16.1333H17.5039V16.1202V16.0117H17.5173C17.6366 16.0117 17.8198 16.024 17.9691 16.024C18.1208 16.024 18.3033 16.0117 18.4471 16.0117H18.4605V16.0256V16.1333H18.4471H18.4044C18.2938 16.1357 18.1919 16.1455 18.1919 16.2996V17.9488C18.1927 18.1029 18.2938 18.1127 18.4044 18.1152H18.4605V18.1282V18.2359H18.4471ZM18.4336 18.209V18.1421H18.4044C18.2954 18.1421 18.1658 18.1225 18.1651 17.9488V16.2996C18.1658 16.1259 18.2954 16.1064 18.4044 16.1064H18.4336V16.0395C18.293 16.0395 18.1161 16.0517 17.9684 16.0517C17.8238 16.0517 17.6484 16.0403 17.5299 16.0395V16.1064H17.5592C17.6674 16.1064 17.7977 16.1259 17.7977 16.2996V17.9488C17.7977 18.1225 17.6674 18.1421 17.5592 18.1421H17.5299V18.209C17.6476 18.2073 17.8206 18.1959 17.9652 18.1959C18.1137 18.1959 18.2899 18.2073 18.4336 18.209Z" fill="black"/>
<path d="M20.5406 17.6008L20.5469 17.5943V16.4141C20.5469 16.1564 20.3731 16.1189 20.2815 16.1189H20.2151V16.0234C20.3581 16.0234 20.4987 16.0365 20.6417 16.0365C20.7665 16.0365 20.8921 16.0234 21.0161 16.0234V16.1189H20.9711C20.8431 16.1189 20.6994 16.1433 20.6994 16.5177V17.9507C20.6994 18.0608 20.7033 18.1709 20.7175 18.268H20.6014L19.0317 16.4614V17.7582C19.0317 18.0331 19.0831 18.126 19.3177 18.126H19.3698V18.2207C19.2387 18.2207 19.1076 18.2084 18.9764 18.2084C18.8406 18.2084 18.6992 18.2207 18.5625 18.2207V18.126H18.6052C18.8153 18.126 18.8801 17.9792 18.8801 17.7272V16.4019C18.8801 16.2257 18.7395 16.1189 18.6028 16.1189H18.5633V16.0234C18.6786 16.0234 18.7979 16.0365 18.9132 16.0365C19.0049 16.0365 19.0934 16.0234 19.185 16.0234L20.5406 17.6008Z" fill="black"/>
<path d="M20.7161 18.2839L20.5905 18.279L19.043 16.4986V17.7595C19.0469 18.0335 19.0872 18.1118 19.3163 18.1143H19.3819V18.1273V18.2358H19.3684C19.2365 18.2358 19.1054 18.2236 18.975 18.2236C18.8392 18.2236 18.6993 18.2358 18.5603 18.2358H18.5469V18.2227V18.1151H18.5603H18.6037C18.8052 18.1135 18.8628 17.9797 18.8652 17.7285V16.4032C18.8644 16.236 18.7309 16.134 18.6006 16.1332H18.5469V16.1193V16.0117H18.5603C18.6772 16.0117 18.7957 16.0239 18.911 16.0239C19.0019 16.0239 19.0896 16.0117 19.1931 16.0166L20.5328 17.5735V16.4162C20.5313 16.1658 20.3693 16.1356 20.28 16.1332H20.1995V16.1193V16.0117H20.2129C20.3567 16.0117 20.4973 16.0239 20.6395 16.0239C20.7635 16.0239 20.8883 16.0117 21.0139 16.0117H21.0281V16.0247V16.1332H21.0139H20.9689C20.8425 16.1373 20.7137 16.1487 20.7106 16.5198V17.9528C20.7106 18.0621 20.7137 18.1722 20.7287 18.2684L20.7311 18.2847L20.7161 18.2839ZM20.6 18.2562H20.7011C20.6869 18.1616 20.6853 18.0564 20.6853 17.9528V16.5198C20.6853 16.1422 20.8386 16.1071 20.9697 16.1071H21.0021V16.0402C20.8812 16.041 20.7611 16.0524 20.6403 16.0524C20.5004 16.0524 20.3646 16.041 20.2263 16.0402V16.1071H20.28C20.3741 16.1071 20.5589 16.1503 20.5589 16.417L20.555 17.607L20.5486 17.6127L20.5384 17.6225L19.1828 16.0402C19.0919 16.0402 19.0035 16.0524 18.911 16.0524C18.7997 16.0524 18.6843 16.041 18.5745 16.0402L18.5737 16.1071H18.6006C18.7436 16.1071 18.8913 16.2196 18.8913 16.404V17.7293C18.8913 17.9813 18.8234 18.142 18.6037 18.1428L18.5745 18.142V18.2105C18.7064 18.2089 18.8423 18.1975 18.975 18.1975C19.103 18.1975 19.2294 18.2089 19.355 18.2105V18.1436H19.3163C19.0761 18.1428 19.0169 18.0352 19.0169 17.7611V16.4293L20.6 18.2562Z" fill="black"/>
<path d="M21.4729 16.1811C21.2439 16.1811 21.236 16.2382 21.1893 16.4673H21.0977C21.1104 16.3793 21.1254 16.2912 21.1348 16.1998C21.1467 16.1117 21.153 16.0237 21.153 15.9323H21.2265C21.251 16.0269 21.3268 16.0228 21.4097 16.0228H22.9826C23.0647 16.0228 23.1414 16.0204 23.1477 15.9258L23.2203 15.9388C23.2093 16.0228 23.1966 16.1085 23.1872 16.1933C23.1809 16.2781 23.1808 16.3629 23.1808 16.4478L23.09 16.4828C23.0837 16.3662 23.0687 16.1794 22.8641 16.1794H22.364V17.8547C22.364 18.0977 22.4707 18.1246 22.6168 18.1246H22.6745V18.2192C22.556 18.2192 22.3419 18.207 22.1776 18.207C21.9951 18.207 21.781 18.2192 21.6617 18.2192V18.1246H21.7194C21.8877 18.1246 21.9722 18.1099 21.9722 17.8612V16.1794H21.4729V16.1811Z" fill="black"/>
<path d="M22.6762 18.2347C22.5561 18.2347 22.3428 18.2225 22.1785 18.2225C21.996 18.2225 21.7827 18.2347 21.6626 18.2347H21.65V18.2216V18.114H21.6626H21.7203C21.8886 18.1099 21.9565 18.1075 21.9597 17.8636V16.1949H21.4731V16.1818V16.1688H21.9865V17.8636C21.9865 18.1156 21.8878 18.1417 21.7203 18.1417H21.6753V18.2086C21.7961 18.2078 22.0008 18.1964 22.1777 18.1964C22.3365 18.1964 22.5403 18.2078 22.6612 18.2086V18.1417H22.6169C22.4692 18.1417 22.3499 18.105 22.3499 17.8571V16.1688H22.8634C23.068 16.1696 23.0949 16.3482 23.1012 16.4657L23.1675 16.4404C23.1675 16.3588 23.1683 16.2764 23.1731 16.1933C23.1817 16.1125 23.1928 16.0326 23.2047 15.9518L23.1581 15.9437C23.143 16.035 23.0577 16.0399 22.9811 16.0391H21.4083C21.402 16.0391 21.3972 16.0391 21.3925 16.0391C21.3206 16.0391 21.2424 16.035 21.2155 15.9478H21.165C21.165 16.035 21.1586 16.119 21.1468 16.203C21.1381 16.2895 21.1247 16.3727 21.1128 16.4551H21.1776C21.2179 16.2365 21.244 16.1647 21.4715 16.1688V16.1818V16.1949C21.2463 16.1998 21.2511 16.2381 21.2013 16.4714L21.1997 16.482H21.1887H21.082L21.0844 16.4657C21.0962 16.3776 21.112 16.2895 21.1215 16.1981C21.1342 16.1109 21.1397 16.0236 21.1397 15.9331V15.9192H21.1523H21.2361L21.2384 15.929C21.2598 16.0081 21.3151 16.0089 21.3933 16.0106C21.3988 16.0106 21.4027 16.0106 21.4091 16.0106H22.9819C23.0664 16.0089 23.1288 16.0073 23.1336 15.9249L23.1344 15.9102L23.1478 15.9127L23.2339 15.9266L23.2323 15.9396C23.2205 16.0244 23.2086 16.1092 23.1999 16.1933C23.1936 16.2773 23.1936 16.3629 23.1936 16.4477V16.4575L23.1849 16.4616L23.0767 16.5024L23.0759 16.4836C23.0672 16.3653 23.0554 16.1941 22.8626 16.1941H22.376V17.8554C22.3791 18.0928 22.4708 18.1099 22.6161 18.1132H22.6864V18.1262V18.2347H22.6762Z" fill="black"/>
<path d="M23.3164 18.1269H23.3591C23.4689 18.1269 23.5842 18.1122 23.5842 17.9474V16.2983C23.5842 16.1344 23.4689 16.1189 23.3591 16.1189H23.3164V16.0234C23.5013 16.0234 23.8196 16.0365 24.0756 16.0365C24.3323 16.0365 24.6483 16.0234 24.8553 16.0234C24.8505 16.1588 24.8529 16.3676 24.8624 16.5055L24.7699 16.5307C24.7557 16.326 24.7186 16.1629 24.3987 16.1629H23.976V16.9867H24.3378C24.5211 16.9867 24.5614 16.8806 24.5788 16.7102H24.6696C24.6641 16.8333 24.6609 16.9557 24.6609 17.078C24.6609 17.1979 24.6641 17.317 24.6696 17.4369L24.5788 17.4556C24.5614 17.2664 24.5519 17.1441 24.341 17.1441H23.976V17.8773C23.976 18.082 24.1522 18.082 24.3473 18.082C24.7139 18.082 24.875 18.0567 24.9659 17.6979L25.0512 17.7199C25.0117 17.8871 24.9753 18.0527 24.9477 18.2207C24.7526 18.2207 24.4018 18.2084 24.1269 18.2084C23.8528 18.2084 23.4902 18.2207 23.3164 18.2207V18.1269Z" fill="black"/>
<path d="M24.9494 18.2359C24.7535 18.2359 24.4028 18.2228 24.1287 18.2228C23.8545 18.2228 23.4919 18.2359 23.3182 18.2359H23.3047V18.2228V18.1282V18.1152H23.3182H23.3608C23.4706 18.1127 23.5717 18.1029 23.5725 17.9488V16.2996C23.5717 16.1463 23.4706 16.1357 23.3608 16.1333H23.3047V16.1202V16.0117H23.3182C23.5038 16.0117 23.8214 16.024 24.0773 16.024C24.3333 16.024 24.65 16.0117 24.857 16.0117H24.8704V16.0256C24.8681 16.0729 24.8665 16.1284 24.8665 16.1887C24.8665 16.2972 24.8704 16.4163 24.876 16.506V16.5174L24.8665 16.5207L24.7598 16.55L24.759 16.5337C24.7409 16.3298 24.7148 16.1814 24.4004 16.1789H23.9896V16.9758H24.3396C24.5157 16.975 24.5465 16.8812 24.5671 16.7115L24.5679 16.6993H24.5797H24.6856V16.7132C24.6793 16.8363 24.6761 16.9586 24.6761 17.081C24.6761 17.2001 24.6801 17.32 24.6856 17.4398V17.4505L24.6745 17.4529L24.5679 17.4741L24.5671 17.4594C24.5458 17.2669 24.545 17.1625 24.3427 17.1593L23.9896 17.1585V17.8786C23.9904 18.0703 24.15 18.0695 24.3491 18.0703C24.7164 18.0679 24.8633 18.0491 24.955 17.6959L24.9581 17.6829L24.9708 17.6853L25.0687 17.7114L25.0656 17.7245C25.0261 17.8909 24.9897 18.0573 24.9621 18.2236L24.9597 18.2351L24.9494 18.2359ZM24.9384 18.2081C24.9644 18.0491 24.9992 17.8901 25.0371 17.7318L24.9763 17.7163C24.8854 18.0687 24.7085 18.0997 24.3483 18.0972C24.1555 18.0972 23.9636 18.0972 23.9628 17.8786V17.1316H24.3419C24.5552 17.1291 24.5766 17.262 24.5916 17.4415L24.6579 17.4276C24.6524 17.3118 24.6492 17.1952 24.6492 17.0794C24.6492 16.9611 24.6524 16.8436 24.6579 16.7246H24.5916C24.575 16.8893 24.5252 17.0043 24.3388 17.0019H23.9628V16.1496H24.4004C24.7172 16.1479 24.7701 16.3168 24.7835 16.5141L24.8499 16.4962C24.8444 16.4073 24.8412 16.2939 24.8412 16.1887C24.8412 16.1341 24.842 16.0835 24.8436 16.0387C24.6366 16.0395 24.3277 16.0509 24.0765 16.0509C23.8261 16.0509 23.5172 16.0395 23.3308 16.0387V16.1055H23.3608C23.469 16.1055 23.5994 16.1251 23.6002 16.2988V17.948C23.5994 18.1217 23.4698 18.1404 23.3608 18.1413H23.3308V18.2081C23.5077 18.2073 23.8609 18.1959 24.1287 18.1959C24.398 18.1959 24.7417 18.2073 24.9384 18.2081Z" fill="black"/>
<path d="M25.4592 16.3578C25.4592 16.1278 25.3368 16.1189 25.2428 16.1189H25.1875V16.0234C25.2854 16.0234 25.4742 16.0365 25.6606 16.0365C25.8431 16.0365 25.9893 16.0234 26.152 16.0234C26.5351 16.0234 26.8772 16.1311 26.8772 16.5781C26.8772 16.8611 26.6947 17.034 26.4538 17.1327L26.9751 17.9377C27.0605 18.0714 27.1205 18.1081 27.2706 18.1269V18.2215C27.1703 18.2215 27.0723 18.2092 26.972 18.2092C26.8772 18.2092 26.7792 18.2215 26.6852 18.2215C26.4506 17.9042 26.2492 17.5641 26.0509 17.2012H25.8502V17.8749C25.8502 18.1179 25.9593 18.1261 26.0999 18.1261H26.1552V18.2207C25.9806 18.2207 25.8036 18.2084 25.6298 18.2084C25.4837 18.2084 25.3407 18.2207 25.1875 18.2207V18.1261H25.2428C25.3549 18.1261 25.4592 18.0739 25.4592 17.9564V16.3578ZM25.8494 17.0878H25.998C26.3029 17.0878 26.4672 16.9687 26.4672 16.5968C26.4672 16.3171 26.2934 16.1368 26.0217 16.1368C25.93 16.1368 25.8905 16.1466 25.8487 16.1499L25.8494 17.0878Z" fill="black"/>
<path d="M27.2716 18.235C27.1697 18.235 27.0725 18.2228 26.9722 18.2228C26.8798 18.2228 26.7818 18.235 26.6752 18.2301C26.4421 17.9129 26.2415 17.5752 26.044 17.2155H25.8639V17.8754C25.867 18.1127 25.9595 18.1102 26.1001 18.1143H26.168V18.1274V18.2358H26.1546C25.98 18.2358 25.8031 18.2236 25.6301 18.2236C25.4839 18.2236 25.3417 18.2358 25.1885 18.2358H25.1758V18.2228V18.1151H25.1885H25.2438C25.3536 18.1143 25.4452 18.0646 25.4468 17.9585V16.3592C25.4444 16.1357 25.3386 16.1365 25.2438 16.1332H25.1758V16.1202V16.0117H25.1885C25.288 16.0117 25.476 16.024 25.6617 16.024C25.8433 16.024 25.9903 16.0117 26.153 16.0117C26.5369 16.0117 26.8908 16.1226 26.8916 16.5786C26.8916 16.8632 26.7091 17.0402 26.4745 17.1389L26.9864 17.9308C27.0717 18.0621 27.1247 18.0947 27.2724 18.1143L27.2835 18.1151V18.1266V18.235H27.2716ZM25.8505 17.1878H26.059L26.063 17.1951C26.2612 17.5573 26.4619 17.8966 26.6862 18.2081C26.7795 18.2081 26.8774 18.1951 26.9722 18.1951C27.0694 18.1951 27.1642 18.2057 27.2582 18.2073V18.138C27.1152 18.12 27.048 18.076 26.9651 17.9455L26.4342 17.1258L26.45 17.1193C26.6886 17.0222 26.8648 16.8542 26.8656 16.5777C26.8648 16.1414 26.5361 16.0394 26.1538 16.0378C25.9926 16.0378 25.8457 16.0501 25.6624 16.0501C25.4823 16.0501 25.3022 16.0386 25.2027 16.0378V16.1047H25.2446C25.3393 16.1047 25.4736 16.121 25.4736 16.3575V17.9569C25.4736 18.0833 25.3599 18.1412 25.2446 18.1412H25.2027V18.2081C25.3496 18.2073 25.4879 18.1959 25.6308 18.1959C25.8015 18.1959 25.9737 18.2073 26.1427 18.2081V18.1412H26.1009C25.9618 18.1412 25.8378 18.1233 25.8378 17.8754V17.1878H25.8505ZM25.8505 17.1014H25.837V16.1373L25.8489 16.1365C25.8907 16.1324 25.9318 16.1251 26.0242 16.1251C26.3015 16.1251 26.4824 16.311 26.4832 16.5981C26.4824 16.9733 26.3078 17.1022 26.0005 17.1022L25.8505 17.1014ZM25.9998 17.0744C26.3015 17.0712 26.454 16.9635 26.4564 16.5973C26.4548 16.3225 26.2889 16.152 26.0235 16.1504C25.9405 16.1504 25.9026 16.1577 25.8631 16.1618V17.0736L25.9998 17.0744Z" fill="black"/>
<path d="M29.343 17.6008L29.3485 17.5943V16.4141C29.3485 16.1564 29.1747 16.1189 29.0839 16.1189H29.0167V16.0234C29.1605 16.0234 29.2996 16.0365 29.4441 16.0365C29.5697 16.0365 29.6937 16.0234 29.8193 16.0234V16.1189H29.7735C29.6456 16.1189 29.5018 16.1433 29.5018 16.5177V17.9507C29.5018 18.0608 29.5042 18.1709 29.5192 18.2679H29.4038L27.8334 16.4614V17.7582C27.8334 18.0331 27.8855 18.126 28.1201 18.126H28.1723V18.2206C28.0411 18.2206 27.9092 18.2084 27.7781 18.2084C27.6406 18.2084 27.5008 18.2206 27.3633 18.2206V18.126H27.4052C27.6161 18.126 27.6801 17.9792 27.6801 17.7272V16.4019C27.6801 16.2257 27.5395 16.1189 27.4028 16.1189H27.3633V16.0234C27.4787 16.0234 27.5988 16.0365 27.7141 16.0365C27.8049 16.0365 27.8934 16.0234 27.9851 16.0234L29.343 17.6008Z" fill="black"/>
<path d="M29.5178 18.2808L29.3921 18.2759L27.8446 16.4955V17.7564C27.8486 18.0313 27.8888 18.1088 28.1187 18.1112H28.1835V18.1242V18.2327H28.1701C28.0381 18.2327 27.907 18.2197 27.7767 18.2197C27.64 18.2197 27.4994 18.2327 27.3619 18.2327H27.3477V18.2197V18.112H27.3619H27.4038C27.6052 18.1112 27.6629 17.9766 27.6653 17.7254V16.4001C27.6645 16.2321 27.5326 16.1309 27.4014 16.1301H27.3477V16.1171V16.0086H27.3619C27.4781 16.0086 27.5973 16.0208 27.7127 16.0208C27.8027 16.0208 27.8904 16.0086 27.9931 16.0119L29.3337 17.5696V16.4123C29.3337 16.1619 29.1702 16.1309 29.0817 16.1293H29.0011V16.1163V16.0078H29.0145C29.1591 16.0078 29.2989 16.02 29.4419 16.02C29.5659 16.02 29.6915 16.0078 29.8171 16.0078H29.8306V16.0216V16.1293H29.8171H29.7721C29.6465 16.1326 29.5162 16.1448 29.513 16.5159V17.9489C29.513 18.0582 29.5154 18.1675 29.5312 18.2645L29.5328 18.2808H29.5178ZM29.4024 18.2531H29.502C29.4893 18.1593 29.4862 18.0533 29.4862 17.9497V16.5167C29.4862 16.1391 29.6402 16.104 29.7713 16.104H29.8029V16.0371C29.6829 16.038 29.562 16.0494 29.4411 16.0494C29.3013 16.0494 29.1646 16.038 29.0272 16.0371V16.104H29.0809C29.1749 16.1048 29.3598 16.1472 29.3598 16.4139L29.3558 17.6039L29.3503 17.6096L29.3408 17.6202L27.9844 16.0371C27.8936 16.0371 27.8051 16.0494 27.7135 16.0494C27.6005 16.0494 27.4868 16.038 27.3754 16.0371V16.104H27.4022C27.5452 16.1048 27.6921 16.2158 27.6921 16.4009V17.7262C27.6921 17.9791 27.6234 18.1389 27.4046 18.1406H27.3754V18.2074C27.5073 18.2066 27.6432 18.1952 27.7767 18.1952C27.9039 18.1952 28.031 18.2066 28.1566 18.2074V18.1406H28.1179C27.8778 18.1406 27.8177 18.0329 27.817 17.758V16.4262L29.4024 18.2531Z" fill="black"/>
<path d="M30.3079 17.7706C30.2771 17.8774 30.24 17.9598 30.24 18.0161C30.24 18.1107 30.3688 18.1262 30.4691 18.1262H30.503V18.2208C30.3806 18.2143 30.2558 18.2086 30.1333 18.2086C30.0235 18.2086 29.9137 18.2143 29.8047 18.2208V18.1262H29.8229C29.9422 18.1262 30.0433 18.0536 30.0875 17.9215L30.5757 16.4771C30.6152 16.3604 30.6705 16.203 30.6887 16.0864C30.7866 16.0521 30.9083 15.9893 30.9668 15.951C30.9762 15.9477 30.981 15.9453 30.9912 15.9453C30.9999 15.9453 31.0063 15.9453 31.0126 15.9543C31.0213 15.9796 31.0307 16.0081 31.0402 16.0334L31.6011 17.6801C31.6374 17.7902 31.6738 17.9068 31.7133 18.0014C31.7504 18.0895 31.8144 18.1262 31.9147 18.1262H31.9329V18.2208C31.7962 18.2143 31.6588 18.2086 31.5126 18.2086C31.3633 18.2086 31.2109 18.2143 31.056 18.2208V18.1262H31.0892C31.1587 18.1262 31.278 18.1148 31.278 18.0357C31.278 17.9941 31.2511 17.9093 31.2164 17.8089L31.0979 17.4436H30.4059L30.3079 17.7706ZM30.7527 16.3759H30.7464L30.4628 17.2674H31.0331L30.7527 16.3759Z" fill="black"/>
<path d="M31.9331 18.2362C31.7964 18.2304 31.6597 18.2231 31.5136 18.2231C31.3643 18.2231 31.2126 18.2304 31.057 18.2362L31.0435 18.237V18.2223V18.1138H31.057H31.0902C31.1605 18.1138 31.2647 18.0975 31.2647 18.0372C31.2655 18.0013 31.2387 17.9148 31.2047 17.8153L31.0886 17.4589H30.4155L30.3207 17.7762C30.2899 17.8838 30.2536 17.967 30.2536 18.0184C30.2544 18.0951 30.3689 18.1138 30.47 18.1138H30.5166V18.1285V18.2378L30.5032 18.237C30.3808 18.2313 30.2567 18.2239 30.1351 18.2239C30.0261 18.2239 29.9155 18.2313 29.8065 18.237L29.793 18.2378V18.2231V18.1146H29.8057H29.8238C29.9376 18.1146 30.0316 18.0478 30.0758 17.9197L30.5648 16.4753C30.6051 16.3587 30.6596 16.2021 30.6857 16.0765C30.7813 16.0422 30.9037 15.9786 30.963 15.9411C30.9717 15.9378 30.9796 15.9337 30.9922 15.9337C30.9993 15.9329 31.0167 15.9362 31.0254 15.9525C31.0349 15.9786 31.0443 16.0063 31.053 16.0316L31.6147 17.6783C31.6502 17.7884 31.6866 17.905 31.7261 17.9972C31.7616 18.0812 31.8177 18.1146 31.9157 18.1146H31.9473V18.1293V18.2386L31.9331 18.2362ZM31.0696 18.2076C31.2197 18.2027 31.3682 18.1962 31.5136 18.1962C31.6558 18.1962 31.7877 18.2027 31.9204 18.2076V18.1424H31.9157C31.8114 18.1432 31.7395 18.1008 31.7016 18.0086C31.6621 17.9132 31.625 17.7966 31.5894 17.6864L31.0278 16.0398C31.0183 16.0145 31.0096 15.9859 31.0017 15.9639C30.9985 15.9606 30.9993 15.9606 30.9969 15.9606H30.9914C30.9851 15.9606 30.9819 15.9631 30.974 15.9647C30.9148 16.0039 30.7923 16.0659 30.7023 16.0911C30.6841 16.211 30.6288 16.3676 30.5893 16.4834L30.1019 17.9287C30.0553 18.0657 29.9487 18.1424 29.8238 18.1424H29.8191V18.2076C29.9234 18.2027 30.0292 18.1962 30.1351 18.1962C30.2528 18.1962 30.3737 18.2027 30.4898 18.2076V18.1424H30.4708C30.3713 18.1415 30.2323 18.1301 30.2291 18.0184C30.2291 17.9556 30.2662 17.8748 30.2962 17.7688L30.3966 17.4328H31.1067L31.2292 17.8063C31.264 17.9075 31.2916 17.9915 31.2916 18.0372C31.2869 18.1334 31.1589 18.1407 31.0902 18.1424H31.0696V18.2076ZM30.4455 17.2827L30.7378 16.3644H30.7481H30.7544H30.7639L31.053 17.2827H30.4455ZM30.4827 17.255H31.0159L30.7505 16.4109L30.4827 17.255Z" fill="black"/>
<path d="M32.0706 16.1811C31.8415 16.1811 31.8328 16.2382 31.787 16.4673H31.6953C31.708 16.3793 31.723 16.2912 31.7325 16.1998C31.7451 16.1117 31.7506 16.0237 31.7506 15.9323H31.8233C31.8478 16.0269 31.9244 16.0228 32.0066 16.0228H33.5802C33.6623 16.0228 33.7382 16.0204 33.7445 15.9258L33.818 15.9388C33.8061 16.0228 33.7943 16.1085 33.7848 16.1933C33.7777 16.2781 33.7777 16.3629 33.7777 16.4478L33.6868 16.4828C33.6813 16.3662 33.6655 16.1794 33.4617 16.1794H32.9616V17.8547C32.9616 18.0977 33.0683 18.1246 33.2144 18.1246H33.2721V18.2192C33.1536 18.2192 32.9403 18.207 32.776 18.207C32.5927 18.207 32.3786 18.2192 32.2601 18.2192V18.1246H32.3186C32.4869 18.1246 32.5722 18.1099 32.5722 17.8612V16.1794H32.0706V16.1811Z" fill="black"/>
<path d="M33.2684 18.2354C33.1491 18.2354 32.9358 18.2232 32.7723 18.2232C32.5898 18.2232 32.3765 18.2354 32.2565 18.2354H32.2438V18.2224V18.1147H32.2565H32.3149C32.4832 18.1106 32.5503 18.1082 32.5543 17.8643V16.1956H32.0684V16.1826V16.1695H32.5811V17.8643C32.5811 18.1164 32.4832 18.1408 32.3149 18.1425H32.2699V18.2093C32.3908 18.2077 32.5954 18.1963 32.7723 18.1963C32.9311 18.1963 33.1357 18.2077 33.2558 18.2093L33.255 18.1425H33.2099C33.063 18.1416 32.9445 18.1058 32.9445 17.8578V16.1695H33.458C33.6634 16.1703 33.6895 16.349 33.6958 16.4664L33.7621 16.4411C33.7621 16.3596 33.7621 16.2772 33.7685 16.194C33.7771 16.1133 33.789 16.0325 33.7993 15.9526L33.7534 15.9436C33.7392 16.035 33.6531 16.0398 33.5765 16.039H32.0029C31.9966 16.039 31.9918 16.039 31.9871 16.039C31.9152 16.0398 31.8378 16.035 31.8101 15.9469H31.7604C31.7596 16.035 31.754 16.119 31.7414 16.203C31.7327 16.2902 31.7177 16.3726 31.7066 16.455H31.7722C31.8125 16.2364 31.8386 16.1638 32.0669 16.1687V16.1818V16.1948C31.8401 16.1989 31.8457 16.238 31.7959 16.4713L31.7935 16.4819H31.7833H31.6758L31.6782 16.4656C31.6908 16.3775 31.7059 16.2894 31.7153 16.1989C31.728 16.11 31.7335 16.0227 31.7335 15.933V15.9191H31.7469H31.8299L31.8322 15.9289C31.8536 16.008 31.9097 16.0089 31.9871 16.0105C31.9926 16.0105 31.9973 16.0105 32.0029 16.0105H33.5765C33.661 16.0089 33.7226 16.0072 33.7274 15.9248L33.7282 15.9102L33.7424 15.9126L33.8293 15.9265L33.8269 15.9395C33.8143 16.0244 33.8024 16.1092 33.7937 16.1932C33.7882 16.2772 33.7882 16.3628 33.7882 16.4476V16.4574L33.7787 16.4615L33.6705 16.5023V16.4835C33.6626 16.3653 33.65 16.194 33.4572 16.194H32.9706V17.8554C32.9737 18.0927 33.0646 18.1098 33.2099 18.1131H33.281V18.1261V18.2346L33.2684 18.2354Z" fill="black"/>
<path d="M33.9297 18.1269H33.9724C34.083 18.1269 34.1983 18.1122 34.1983 17.9474V16.2983C34.1983 16.1344 34.083 16.1189 33.9724 16.1189H33.9297V16.0234C34.049 16.0234 34.2315 16.0365 34.3808 16.0365C34.5332 16.0365 34.7165 16.0234 34.8603 16.0234V16.1189H34.8176C34.707 16.1189 34.5909 16.1336 34.5909 16.2983V17.9474C34.5909 18.1114 34.707 18.1269 34.8176 18.1269H34.8603V18.2215C34.7134 18.2215 34.5309 18.2092 34.3784 18.2092C34.2283 18.2092 34.049 18.2215 33.9297 18.2215V18.1269Z" fill="black"/>
<path d="M34.8573 18.2359C34.7104 18.2359 34.5271 18.2228 34.3754 18.2228C34.2261 18.2228 34.046 18.2359 33.9267 18.2359H33.9141V18.2228V18.1282V18.1152H33.9267H33.9694C34.08 18.1127 34.1803 18.1029 34.1811 17.9488V16.2996C34.1803 16.1463 34.08 16.1357 33.9694 16.1333H33.9141V16.1202V16.0117H33.9267C34.046 16.0117 34.2285 16.024 34.3778 16.024C34.5303 16.024 34.7127 16.0117 34.8573 16.0117H34.8692V16.0248V16.1333H34.8573H34.8146C34.7033 16.1357 34.6029 16.1463 34.6014 16.2996V17.9488C34.6021 18.1029 34.7033 18.1127 34.8146 18.1152H34.8692V18.1282V18.2367L34.8573 18.2359ZM34.8439 18.2081V18.1413H34.8154C34.7064 18.1413 34.5761 18.1217 34.5761 17.948V16.2988C34.5761 16.1251 34.7056 16.1055 34.8154 16.1055H34.8439V16.0387C34.7033 16.0395 34.5271 16.0509 34.3786 16.0509C34.234 16.0509 34.0586 16.0395 33.9409 16.0387V16.1055H33.9702C34.0784 16.1055 34.2087 16.1251 34.2087 16.2988V17.948C34.2087 18.1217 34.0784 18.1413 33.9702 18.1413H33.9409V18.2081C34.0586 18.2065 34.2309 18.1959 34.3762 18.1959C34.5231 18.1959 34.7001 18.2073 34.8439 18.2081Z" fill="black"/>
<path d="M36.0733 15.9766C36.7234 15.9766 37.2417 16.3925 37.2417 17.0629C37.2417 17.7872 36.7385 18.2684 36.0891 18.2684C35.4421 18.2684 34.9492 17.8157 34.9492 17.138C34.9492 16.4839 35.4398 15.9766 36.0733 15.9766ZM36.1191 18.1297C36.7116 18.1297 36.8135 17.5914 36.8135 17.1323C36.8135 16.6723 36.5734 16.1152 36.067 16.1152C35.5338 16.1152 35.375 16.6062 35.375 17.027C35.3758 17.5914 35.6254 18.1297 36.1191 18.1297Z" fill="black"/>
<path d="M34.9336 17.1401C34.9351 16.4778 35.4312 15.9656 36.0719 15.9648V15.9787V15.9925C35.4447 15.9925 34.9596 16.4925 34.9596 17.1401C34.9604 17.8097 35.447 18.2558 36.0877 18.2566C36.7307 18.2558 37.226 17.7819 37.2276 17.0642C37.2268 16.4019 36.7165 15.9925 36.0719 15.9925V15.9787V15.9648C36.7268 15.9656 37.2513 16.3856 37.2529 17.0642C37.2521 17.7958 36.7434 18.2827 36.0877 18.2843C35.436 18.2827 34.9351 17.8243 34.9336 17.1401ZM35.3609 17.03C35.3617 16.6067 35.5229 16.1034 36.0664 16.1034C36.5846 16.1043 36.8255 16.6719 36.8263 17.1352C36.8255 17.5935 36.7212 18.1457 36.1177 18.1457V18.1326V18.1196C36.6983 18.1188 36.7979 17.5944 36.7995 17.136C36.7995 16.6793 36.5609 16.1328 36.0656 16.132C35.5426 16.1328 35.3878 16.6116 35.387 17.0308C35.3878 17.5919 35.635 18.118 36.1177 18.1196V18.1326V18.1457C35.6121 18.1441 35.3617 17.5968 35.3609 17.03Z" fill="black"/>
<path d="M39.2968 17.6008L39.3031 17.5943V16.4141C39.3031 16.1564 39.1293 16.1189 39.0369 16.1189H38.9713V16.0234C39.1135 16.0234 39.2541 16.0365 39.3971 16.0365C39.5227 16.0365 39.6476 16.0234 39.7724 16.0234V16.1189H39.7265C39.5986 16.1189 39.4548 16.1433 39.4548 16.5177V17.9507C39.4548 18.0608 39.4587 18.1709 39.473 18.2679H39.3568L37.7872 16.4614V17.7582C37.7872 18.0331 37.8385 18.126 38.0739 18.126H38.1253V18.2206C37.9942 18.2206 37.863 18.2084 37.7319 18.2084C37.5944 18.2084 37.4538 18.2206 37.3164 18.2206V18.126H37.3598C37.5707 18.126 37.6339 17.9792 37.6339 17.7272V16.4019C37.6339 16.2257 37.4941 16.1189 37.3567 16.1189H37.3172V16.0234C37.4333 16.0234 37.5518 16.0365 37.6679 16.0365C37.7587 16.0365 37.8472 16.0234 37.9389 16.0234L39.2968 17.6008Z" fill="black"/>
<path d="M39.4732 18.2832L39.3468 18.2783L37.8 16.4978V17.7587C37.804 18.0336 37.8443 18.1103 38.0734 18.1127H38.1397V18.1274V18.2351H38.1263C37.9944 18.2351 37.8632 18.2228 37.7329 18.2228C37.5962 18.2228 37.4564 18.2351 37.3174 18.2351H37.3047V18.222V18.1135H37.3174H37.3608C37.5623 18.1127 37.6199 17.9798 37.6215 17.7286V16.4032C37.6215 16.2352 37.4888 16.1341 37.3577 16.1333H37.3055V16.1202V16.0117H37.3182C37.4351 16.0117 37.5544 16.024 37.6689 16.024C37.759 16.024 37.8467 16.0117 37.9509 16.0166L39.2899 17.5736V16.4163C39.2891 16.1659 39.1272 16.1357 39.0371 16.1333H38.9573V16.1202V16.0117H38.9708C39.1145 16.0117 39.2552 16.024 39.3966 16.024C39.5222 16.024 39.6462 16.0117 39.7726 16.0117H39.7852V16.0248V16.1333H39.7726H39.7268C39.6012 16.1373 39.4716 16.1488 39.4685 16.5199V17.9529C39.4685 18.0621 39.4708 18.1723 39.485 18.2685L39.4874 18.2848H39.4732V18.2832ZM39.3571 18.2554H39.4582C39.4448 18.1608 39.4424 18.0556 39.4424 17.952V16.519C39.4424 16.1406 39.5964 16.1064 39.7268 16.1064H39.7599V16.0395C39.6391 16.0403 39.5182 16.0517 39.3966 16.0517C39.2591 16.0517 39.1225 16.0403 38.9842 16.0395V16.1064H39.0371C39.1319 16.1072 39.316 16.1496 39.316 16.4163L39.312 17.6062L39.3065 17.6119L39.297 17.6225L37.9391 16.0395C37.849 16.0395 37.7606 16.0517 37.6681 16.0517C37.5559 16.0517 37.4406 16.0403 37.33 16.0395V16.1064H37.3561C37.4999 16.1072 37.6468 16.2181 37.6468 16.4032V17.7286C37.6468 17.9806 37.5789 18.1413 37.3592 18.1421H37.3292V18.209C37.4619 18.2081 37.597 18.1967 37.7313 18.1967C37.8585 18.1967 37.9857 18.2081 38.1113 18.209V18.1421H38.0718C37.8324 18.1421 37.7724 18.0344 37.7724 17.7596V16.4277L39.3571 18.2554Z" fill="black"/>
<path d="M40.2633 17.7706C40.2341 17.8774 40.197 17.9598 40.197 18.0161C40.197 18.1107 40.3257 18.1262 40.4253 18.1262H40.4592V18.2208C40.3368 18.2143 40.2128 18.2086 40.0903 18.2086C39.9797 18.2086 39.8699 18.2143 39.7617 18.2208V18.1262H39.7783C39.8976 18.1262 39.9995 18.0536 40.0437 17.9215L40.5327 16.4771C40.5722 16.3604 40.6267 16.203 40.6449 16.0864C40.742 16.0521 40.8645 15.9893 40.9221 15.951C40.9316 15.9477 40.9379 15.9453 40.9466 15.9453C40.9553 15.9453 40.9609 15.9453 40.968 15.9543C40.9774 15.9796 40.9861 16.0081 40.9956 16.0334L41.5565 17.6801C41.592 17.7902 41.63 17.9068 41.6695 18.0014C41.7058 18.0895 41.7706 18.1262 41.8709 18.1262H41.8891V18.2208C41.7524 18.2143 41.6142 18.2086 41.4688 18.2086C41.3195 18.2086 41.1662 18.2143 41.0114 18.2208V18.1262H41.0454C41.1149 18.1262 41.235 18.1148 41.235 18.0357C41.235 17.9941 41.2073 17.9093 41.1734 17.8089L41.0549 17.4436H40.3636L40.2633 17.7706ZM40.7081 16.3759H40.7017L40.4181 17.2674H40.9893L40.7081 16.3759Z" fill="black"/>
<path d="M41.8861 18.2369C41.7487 18.2312 41.6112 18.2247 41.4666 18.2247C41.3181 18.2247 41.1649 18.232 41.0093 18.2369L40.9958 18.2377V18.2231V18.1154H41.0085H41.0416C41.1127 18.1154 41.2178 18.0983 41.2186 18.0379C41.2194 18.002 41.1917 17.9164 41.157 17.8161L41.0416 17.4597H40.3686L40.2746 17.7769C40.2446 17.8854 40.2074 17.9678 40.2082 18.0183C40.2082 18.0958 40.322 18.1154 40.4231 18.1154H40.4697V18.1284V18.2377L40.4563 18.2369C40.3346 18.2312 40.2098 18.2247 40.0882 18.2247C39.9784 18.2247 39.8693 18.232 39.7595 18.2369L39.7461 18.2377V18.2231V18.1154H39.7595H39.7761C39.8899 18.1146 39.9855 18.0469 40.0297 17.9197L40.5179 16.4752C40.5566 16.3586 40.6119 16.202 40.6388 16.0764C40.7351 16.0422 40.8576 15.9785 40.916 15.941C40.9239 15.9378 40.9334 15.9337 40.9453 15.9337C40.9532 15.9329 40.969 15.9353 40.9784 15.9524C40.9871 15.9769 40.9958 16.0054 41.0061 16.0307L41.567 17.6774C41.6033 17.7875 41.6404 17.9042 41.6799 17.9971C41.7155 18.0811 41.7708 18.1138 41.8687 18.1154H41.8995V18.1284V18.2377L41.8861 18.2369ZM41.0219 18.2084C41.172 18.2027 41.3213 18.197 41.4659 18.197C41.6073 18.197 41.74 18.2035 41.8727 18.2084V18.1431H41.8679C41.7645 18.1431 41.6926 18.1015 41.6547 18.0094C41.6144 17.9139 41.578 17.7973 41.5417 17.6872L40.9816 16.0405C40.9721 16.0152 40.9626 15.9867 40.9547 15.9655C40.9524 15.9614 40.9524 15.9614 40.95 15.9614C40.9492 15.9614 40.9468 15.9614 40.9445 15.9614C40.9382 15.9614 40.935 15.9639 40.9263 15.9655C40.8671 16.0038 40.7454 16.0674 40.6546 16.0919C40.6364 16.2118 40.5811 16.3684 40.5424 16.4842L40.0542 17.9294C40.0076 18.0665 39.9017 18.1431 39.7761 18.1431H39.7714V18.2084C39.8764 18.2035 39.9815 18.197 40.0882 18.197C40.2059 18.197 40.3259 18.2035 40.4444 18.2084V18.1431H40.4231C40.3244 18.1423 40.1853 18.1309 40.1814 18.0183C40.1822 17.9564 40.2201 17.8756 40.2501 17.7696L40.3504 17.4336H41.0614L41.183 17.8071C41.217 17.9082 41.2447 17.9922 41.2447 18.0379C41.2399 18.1342 41.1127 18.1415 41.0424 18.1431H41.0227L41.0219 18.2084ZM40.3986 17.2819L40.6925 16.3643H40.7012H40.7075H40.7178L41.0061 17.2819H40.3986ZM40.4357 17.2549H40.9698L40.7043 16.4124L40.4357 17.2549Z" fill="black"/>
<path d="M42.6542 17.9123C42.6542 18.0388 42.7387 18.0763 42.8367 18.0885C42.9623 18.0983 43.0989 18.0983 43.2396 18.082C43.3667 18.0673 43.4773 17.9906 43.5318 17.9123C43.58 17.8422 43.6077 17.7549 43.6266 17.6856H43.7151C43.6812 17.865 43.6385 18.042 43.6022 18.2206C43.3344 18.2206 43.0658 18.2084 42.798 18.2084C42.5294 18.2084 42.2608 18.2206 41.9922 18.2206V18.126H42.0341C42.1447 18.126 42.2632 18.1113 42.2632 17.9156V16.2983C42.2632 16.1343 42.1447 16.1189 42.0341 16.1189H41.9922V16.0234C42.1542 16.0234 42.3129 16.0365 42.4741 16.0365C42.6297 16.0365 42.7822 16.0234 42.9378 16.0234V16.1189H42.8612C42.7458 16.1189 42.655 16.1221 42.655 16.2885L42.6542 17.9123Z" fill="black"/>
<path d="M43.6039 18.2359C43.3353 18.2359 43.0675 18.2236 42.7997 18.2236C42.5311 18.2236 42.2625 18.2359 41.9931 18.2359H41.9805V18.2228V18.1152H41.9931H42.0358C42.1464 18.1127 42.2514 18.1046 42.2522 17.917V16.2988C42.2514 16.1463 42.1472 16.1349 42.0358 16.1333H41.9805V16.1202V16.0117H41.9931C42.1559 16.0117 42.3146 16.024 42.475 16.024C42.6298 16.024 42.7823 16.0117 42.9387 16.0117H42.9506V16.0248V16.1333H42.9387H42.8621C42.7444 16.1365 42.6701 16.1308 42.6678 16.2907V17.9145C42.6693 18.032 42.7436 18.063 42.8392 18.0776C42.8921 18.0817 42.9498 18.0834 43.0074 18.0834C43.0817 18.0834 43.1591 18.0793 43.2389 18.0711C43.3629 18.0556 43.4688 17.9822 43.5217 17.9072C43.5691 17.8395 43.5952 17.753 43.6133 17.6845L43.6165 17.6739H43.6268H43.731L43.7279 17.6911C43.6939 17.8705 43.652 18.0467 43.6149 18.2261L43.6118 18.2359H43.6039ZM43.5928 18.2081C43.6283 18.0377 43.6678 17.8705 43.7002 17.7H43.6378C43.6197 17.7694 43.592 17.8534 43.5438 17.9219C43.4869 18.0042 43.374 18.0809 43.2413 18.0972C43.1615 18.1062 43.0825 18.1103 43.0074 18.1103C42.949 18.1103 42.8905 18.1078 42.836 18.1037C42.7373 18.0923 42.6409 18.0483 42.6417 17.9137V16.2899C42.6417 16.1145 42.7483 16.1055 42.8621 16.1055H42.9253V16.0387C42.7752 16.0395 42.6259 16.0509 42.475 16.0509C42.3162 16.0509 42.1622 16.0395 42.0066 16.0387V16.1055H42.0358C42.1448 16.1055 42.2783 16.1251 42.2783 16.298V17.9162C42.2783 18.1201 42.1456 18.1413 42.0358 18.1413H42.0066V18.2081C42.2696 18.2073 42.5342 18.1959 42.7989 18.1959C43.0643 18.1959 43.3282 18.2073 43.5928 18.2081Z" fill="black"/>
<path d="M43.6762 15.9336C43.8603 15.9336 43.9969 16.0795 43.9969 16.2655C43.9969 16.4515 43.8595 16.5958 43.6762 16.5958C43.4929 16.5958 43.3555 16.4515 43.3555 16.2655C43.3555 16.0795 43.4929 15.9336 43.6762 15.9336ZM43.6762 16.5338C43.82 16.5338 43.9306 16.4074 43.9306 16.2647C43.9306 16.122 43.8223 15.9939 43.6762 15.9939C43.5316 15.9939 43.4218 16.122 43.4218 16.2647C43.4218 16.4074 43.5308 16.5338 43.6762 16.5338ZM43.5166 16.44V16.4237C43.5553 16.418 43.5632 16.4197 43.5632 16.3944V16.1489C43.5632 16.1138 43.5593 16.1024 43.5174 16.104V16.0869H43.6825C43.7386 16.0869 43.7907 16.1154 43.7907 16.175C43.7907 16.2247 43.7599 16.2606 43.7149 16.2753L43.7671 16.3511C43.7923 16.3846 43.82 16.418 43.8381 16.4286V16.4392H43.7757C43.7457 16.4392 43.7197 16.374 43.6604 16.2867H43.6249V16.396C43.6249 16.4188 43.632 16.4172 43.6715 16.4221V16.4384H43.5166V16.44ZM43.6249 16.2655H43.662C43.7039 16.2655 43.7228 16.2337 43.7228 16.1815C43.7228 16.1285 43.6928 16.1105 43.6596 16.1105H43.6241L43.6249 16.2655Z" fill="black"/>
<path d="M9.37334 19.9999C6.42598 20.0146 4 17.5491 4 14.5477C4 11.2682 6.42598 8.99918 9.37334 9H10.755C13.6676 8.99918 16.3258 11.2674 16.3258 14.5477C16.3258 17.5474 13.6676 19.9999 10.755 19.9999H9.37334ZM9.38519 9.45429C6.69141 9.4551 4.50953 11.7086 4.50874 14.4898C4.50953 17.2701 6.69141 19.5236 9.38519 19.5244C12.079 19.5236 14.2616 17.271 14.2624 14.4898C14.2624 11.7094 12.079 9.45592 9.38519 9.45429ZM8.27845 17.4683V11.512C7.11957 11.9728 6.29722 13.131 6.29406 14.4906C6.29722 15.8494 7.11957 17.0075 8.27845 17.4683ZM12.4771 14.4906C12.4747 13.131 11.6516 11.9712 10.4919 11.512V17.47C11.6516 17.0091 12.4747 15.8502 12.4771 14.4906Z" fill="#006AAA"/>
<path d="M44 0.5H4C2.067 0.5 0.5 2.067 0.5 4V24C0.5 25.933 2.067 27.5 4 27.5H44C45.933 27.5 47.5 25.933 47.5 24V4C47.5 2.067 45.933 0.5 44 0.5Z" stroke="#EBF0F5"/>
</g>
<defs>
<clipPath id="clip0_2702_52701">
<rect width="48" height="28" fill="white"/>
</clipPath>
</defs>
</svg>
