<svg width="15" height="14" viewBox="0 0 15 14" fill="none" xmlns="http://www.w3.org/2000/svg">
<path d="M7.98047 0C4.11451 0 0.980469 3.13404 0.980469 7C0.980469 10.2827 3.24063 13.0374 6.28955 13.7939V9.1392H4.84615V7H6.28955V6.07824C6.28955 3.69572 7.36783 2.5914 9.70695 2.5914C10.1505 2.5914 10.9157 2.67848 11.2287 2.76528V4.70428C11.0635 4.68692 10.7765 4.67824 10.4201 4.67824C9.27239 4.67824 8.82887 5.11308 8.82887 6.24344V7H11.1153L10.7225 9.1392H8.82887V13.9488C12.295 13.5302 14.9807 10.579 14.9807 7C14.9805 3.13404 11.8464 0 7.98047 0Z" fill="#0866FF"/>
</svg>
