<svg width="20" height="21" viewBox="0 0 20 21" fill="none" xmlns="http://www.w3.org/2000/svg">
<path d="M10 20.5C15.5228 20.5 20 16.0228 20 10.5C20 4.97715 15.5228 0.5 10 0.5C4.47715 0.5 0 4.97715 0 10.5C0 16.0228 4.47715 20.5 10 20.5Z" fill="#FFD15D"/>
<path d="M12.8625 20.0834C16.3446 19.0448 19.0305 16.1609 19.7857 12.5658L14.3433 7.12351L11.4839 8.06425L9.04731 5.62769L6.71141 7.25644L8.09492 10.9184L9.92125 12.7447L5.92578 13.1467L12.8625 20.0834Z" fill="#F9B54C"/>
<path d="M12.1741 9.35168L11.2217 10.3041L12.7175 11.7998H5.92578V13.1466H12.7175L11.2217 14.6425L12.1741 15.5948L15.2956 12.4732L12.1741 9.35168Z" fill="#324A5E"/>
<path d="M14.3435 7.12346H7.55168L9.0475 5.62768L8.09512 4.67529L4.97363 7.79686L8.09512 10.9184L9.0475 9.966L7.55168 8.47025H14.3435V7.12346Z" fill="#324A5E"/>
<path d="M12.1742 9.35168L11.2218 10.3041L12.7177 11.7998H9.97754V13.1466H12.7177L11.2218 14.6425L12.1742 15.5948L15.2957 12.4732L12.1742 9.35168Z" fill="#2B3B4E"/>
<path d="M14.3434 7.12354H9.97754V8.47033H14.3434V7.12354Z" fill="#2B3B4E"/>
</svg>
