<svg width="17" height="17" viewBox="0 0 17 17" fill="none" xmlns="http://www.w3.org/2000/svg">
<path fill-rule="evenodd" clip-rule="evenodd" d="M7.58125 16C7.19832 16 6.87164 15.7157 6.80929 15.3282C6.75186 15.0147 6.53179 14.7585 6.23576 14.6607C5.99455 14.5757 5.7587 14.4756 5.52958 14.3607C5.25695 14.2177 4.92988 14.2391 4.67715 14.4164C4.37131 14.642 3.95117 14.607 3.68474 14.3339L2.64846 13.2711C2.36956 12.985 2.33333 12.534 2.5628 12.205C2.73976 11.9398 2.76525 11.5979 2.62965 11.3082C2.54031 11.107 2.46149 10.901 2.39356 10.6911C2.29627 10.3603 2.02771 10.1126 1.69678 10.0482C1.29772 9.98286 1.00311 9.63132 1.00001 9.21679V7.88714C0.997889 7.40939 1.33434 7.00075 1.79394 6.92286C2.1426 6.85482 2.43374 6.60989 2.56697 6.2725C2.60667 6.1775 2.64846 6.08321 2.69233 5.98964C2.86952 5.63976 2.84505 5.21833 2.6286 4.8925C2.35793 4.50666 2.39949 3.97653 2.7268 3.64L3.48835 2.85893C3.86395 2.47356 4.45632 2.42368 4.88817 2.74107L4.91219 2.75821C5.23466 2.98081 5.645 3.02113 6.0028 2.86536C6.38559 2.72405 6.66775 2.38669 6.74554 1.97714L6.75604 1.94071C6.84196 1.39854 7.2985 1.00023 7.83411 1H8.75339C9.30336 0.999743 9.77275 1.40775 9.86275 1.96429L9.87946 2.03929C9.95329 2.43161 10.2208 2.75631 10.5856 2.89643C10.9373 3.05122 11.3416 3.01079 11.6575 2.78929L11.7097 2.75071C12.1527 2.42322 12.7619 2.47359 13.1482 2.86964L13.8491 3.58964C14.2004 3.95196 14.2446 4.52171 13.9536 4.93643C13.7256 5.28306 13.6965 5.72848 13.8773 6.10321L13.9223 6.21036C14.0686 6.57625 14.3855 6.84143 14.7642 6.91536C15.2593 6.99818 15.6234 7.43596 15.625 7.95036V9.14286C15.6249 9.5965 15.305 9.9835 14.8687 10.0579C14.5099 10.1285 14.2176 10.3949 14.1071 10.7521C14.0584 10.895 14.004 11.0379 13.9441 11.1807C13.8047 11.4946 13.8357 11.8604 14.0257 12.145C14.2763 12.5026 14.2374 12.9939 13.9337 13.3054L12.9612 14.3039C12.6831 14.5891 12.2444 14.6259 11.9249 14.3907C11.6581 14.2037 11.3126 14.1832 11.0265 14.3371C10.8226 14.4407 10.6134 14.5327 10.3997 14.6125C10.1009 14.7182 9.88064 14.9805 9.82311 15.2993C9.76214 15.7003 9.42689 15.997 9.03121 16H7.58125Z" fill="#FFD15D" stroke="#2B3B4E" stroke-width="1.5" stroke-linecap="round" stroke-linejoin="round"/>
<path fill-rule="evenodd" clip-rule="evenodd" d="M10.7503 8.49996C10.7503 9.88049 9.65916 10.9996 8.31312 10.9996C6.96709 10.9996 5.87598 9.88049 5.87598 8.49996C5.87598 7.11942 6.96709 6.00031 8.31312 6.00031C9.65916 6.00031 10.7503 7.11942 10.7503 8.49996Z" fill="#FFD15D" stroke="#2B3B4E" stroke-width="1.5" stroke-linecap="round" stroke-linejoin="round"/>
</svg>
