<svg width="15" height="14" viewBox="0 0 15 14" fill="none" xmlns="http://www.w3.org/2000/svg">
<path d="M7.98047 5.72656V8.43748H11.7477C11.5823 9.30929 11.0859 10.0475 10.3413 10.5439L12.6132 12.3066C13.9368 11.0848 14.7004 9.29026 14.7004 7.15845C14.7004 6.6621 14.6559 6.18478 14.5731 5.72664L7.98047 5.72656Z" fill="#4285F4"/>
<path d="M4.05651 8.33203L3.54413 8.72425L1.73047 10.137C2.88228 12.4215 5.24302 13.9997 7.97936 13.9997C9.86931 13.9997 11.4538 13.376 12.612 12.307L10.3402 10.5442C9.7166 10.9642 8.92114 11.2188 7.97936 11.2188C6.15937 11.2188 4.61305 9.99064 4.05938 8.33607L4.05651 8.33203Z" fill="#34A853"/>
<path d="M1.73132 3.86328C1.25408 4.80506 0.980469 5.8678 0.980469 7.00051C0.980469 8.13322 1.25408 9.19596 1.73132 10.1377C1.73132 10.1441 4.06045 8.33047 4.06045 8.33047C3.92045 7.91047 3.8377 7.46504 3.8377 7.00044C3.8377 6.53583 3.92045 6.09041 4.06045 5.67041L1.73132 3.86328Z" fill="#FBBC05"/>
<path d="M7.9795 2.78727C9.01043 2.78727 9.92677 3.14362 10.6586 3.83091L12.6631 1.82639C11.4477 0.69368 9.86953 0 7.9795 0C5.24316 0 2.88228 1.57182 1.73047 3.86273L4.05953 5.67001C4.61313 4.01544 6.15951 2.78727 7.9795 2.78727Z" fill="#EA4335"/>
</svg>
