<svg width="24" height="24" viewBox="0 0 24 24" fill="none" xmlns="http://www.w3.org/2000/svg">
<path d="M19.8419 13.3487V6.79104C19.8407 6.72596 19.818 6.66309 19.7775 6.61199C19.737 6.56089 19.6807 6.52438 19.6174 6.50802L13.0658 5.00433C13.0221 4.99856 12.9779 4.99856 12.9342 5.00433L6.38258 6.50802C6.31877 6.52349 6.262 6.55976 6.22131 6.61105C6.18062 6.66234 6.15836 6.7257 6.15806 6.79104V13.3487C4.80903 14.1554 4 15.2105 4 16.3792C4 18.9707 7.95419 21 13 21C18.0458 21 22 18.9707 22 16.3792C22 15.2105 21.191 14.1554 19.8419 13.3487ZM16.2013 15.8517V15.4858L16.8323 15.3453L17.8968 15.1104V15.4627L17.1787 15.6283L16.2013 15.8517ZM15.6206 15.9864L13.2981 16.5217V16.1366L14.5774 15.8536L15.6265 15.6206L15.6206 15.9864ZM10.3794 15.9864V15.6148L12.7019 16.1308V16.5159L10.3794 15.9864ZM8.83097 15.6283L8.1129 15.4627V15.1123L9.81032 15.4858V15.8536L8.83097 15.6283ZM6.73871 14.8101L7.5129 14.9833V15.328L6.73871 15.147V14.8101ZM19.2613 14.219L18.131 14.4693L17.0645 14.7061V10.9324C17.0641 10.8891 17.054 10.8464 17.0349 10.8074C17.0157 10.7684 16.9881 10.7342 16.9539 10.7073C16.9198 10.6803 16.88 10.6613 16.8375 10.6516C16.795 10.642 16.7509 10.6419 16.7084 10.6513L14.4439 11.1692C14.3799 11.184 14.3227 11.2197 14.2816 11.2707C14.2405 11.3217 14.2179 11.385 14.2174 11.4503V15.328L13.2903 15.5378V10.8381L19.2613 9.46533V14.219ZM16.4839 11.2944V14.8351L14.8019 15.2047V11.6814L16.4839 11.2944ZM19.2613 8.87233L13.2903 10.2451V9.55197L19.2613 8.18113V8.87233ZM18.4871 14.9833L19.2613 14.8101V15.1508L18.4871 15.3318V14.9833ZM19.2613 7.5862L13.2903 8.95704V8.52384L17.6258 7.53037L19.2555 7.15685L19.2613 7.5862ZM13 7.99823L9.73097 7.24157L13 6.49839L16.2671 7.24157L13 7.99823ZM12.7097 15.5378L10.1471 14.9718L7.86903 14.4693L6.73871 14.219V9.46533L12.7097 10.8381V15.5378ZM12.7097 10.2451L6.73871 8.87233V8.17921L12.7097 9.55197V10.2451ZM6.73871 15.7438L7.7529 15.9768L8.47097 16.1424V16.4832L6.72903 16.0846L6.73871 15.7438ZM9.06129 16.2752L10.029 16.5005L11.1594 16.7604V17.1012L9.05161 16.6179L9.06129 16.2752ZM11.7497 16.8933L12.7174 17.1166V17.4574L11.7497 17.234V16.8933ZM13.2981 17.1166L14.2658 16.8933V17.234L13.2981 17.4574V17.1166ZM14.8465 16.7604L15.9768 16.5005L16.9542 16.2752V16.6179L14.8406 17.1012L14.8465 16.7604ZM17.529 16.1424L18.2471 15.9768L19.2613 15.7438V16.0866L17.529 16.4832V16.1424ZM13 5.58386L18.2606 6.79104L17.5581 6.95084L13.0658 5.91887C13.0225 5.90924 12.9775 5.90924 12.9342 5.91887L8.44194 6.95277L7.73742 6.79104L13 5.58386ZM8.36839 7.52652L12.7039 8.51999V8.95319L6.73871 7.5862V7.153L8.36839 7.52652ZM13 20.4224C8.43613 20.4224 4.58065 18.5722 4.58065 16.3792C4.58065 15.5244 5.17097 14.7215 6.15806 14.0688V14.4539V16.3234C6.15802 16.3888 6.18015 16.4523 6.22089 16.5037C6.26164 16.555 6.3186 16.5912 6.38258 16.6064L8.70516 17.1378L11.3935 17.7558C13.0194 18.1736 12.9884 18.1717 14.6103 17.7558L17.2968 17.1301L19.6194 16.5987C19.6833 16.5835 19.7403 16.5473 19.781 16.496C19.8218 16.4446 19.8439 16.3811 19.8439 16.3157V14.4462V14.0611C20.831 14.7234 21.4213 15.5263 21.4213 16.3715C21.4194 18.5722 17.5639 20.4224 13 20.4224ZM15.9555 19.6523C15.5529 19.7254 15.1348 19.7851 14.709 19.8275H14.68C14.6075 19.8273 14.5377 19.8001 14.4843 19.7513C14.431 19.7025 14.3979 19.6355 14.3916 19.5637C14.3876 19.526 14.3911 19.4879 14.402 19.4515C14.4129 19.4152 14.431 19.3814 14.4551 19.352C14.4792 19.3226 14.5089 19.2983 14.5426 19.2805C14.5762 19.2626 14.613 19.2516 14.651 19.2479C15.0594 19.2056 15.4639 19.1498 15.851 19.0785C15.9272 19.0647 16.0058 19.0816 16.0695 19.1255C16.1332 19.1694 16.1768 19.2366 16.1906 19.3124C16.2045 19.3883 16.1875 19.4665 16.1434 19.5298C16.0993 19.5932 16.0317 19.6366 15.9555 19.6503V19.6523ZM20.08 17.4131C20.1092 17.4393 20.1327 17.4711 20.1491 17.5066C20.1656 17.542 20.1746 17.5805 20.1757 17.6195C20.1768 17.6586 20.1699 17.6975 20.1554 17.7338C20.141 17.7701 20.1193 17.8032 20.0916 17.8309C19.5632 18.3835 18.7213 18.8648 17.6529 19.2268C17.6229 19.2366 17.5916 19.2417 17.56 19.2422C17.4918 19.2407 17.4262 19.2155 17.3747 19.171C17.3232 19.1265 17.2889 19.0655 17.2779 18.9985C17.2669 18.9315 17.2797 18.8628 17.3143 18.8043C17.3489 18.7457 17.4029 18.7011 17.4671 18.678C18.4465 18.3488 19.209 17.9175 19.6697 17.4343C19.6951 17.4058 19.7259 17.3827 19.7603 17.3662C19.7948 17.3497 19.8322 17.3402 19.8704 17.3383C19.9086 17.3363 19.9468 17.3419 19.9827 17.3547C20.0187 17.3676 20.0518 17.3874 20.08 17.4131Z" fill="white"/>
</svg>
