<svg width="21" height="21" viewBox="0 0 21 21" fill="none" xmlns="http://www.w3.org/2000/svg">
<path d="M0.00125834 8.72869C-0.00313861 8.77876 0.00402262 8.82917 0.0221897 8.87603C0.0403569 8.9229 0.0690445 8.96496 0.10604 8.99898C0.254488 9.12366 0.442925 9.19062 0.636762 9.18756C0.681624 9.18752 0.726421 9.18415 0.770783 9.17746C1.17325 9.11706 1.56714 8.7963 1.94406 8.2232C2.06889 8.25553 2.19907 8.26164 2.32639 8.24115C2.4537 8.22066 2.57539 8.17402 2.68378 8.10415C2.97217 7.90709 3.12238 7.55156 3.13807 7.02396C3.32152 7.05878 3.51118 7.0382 3.68289 6.96484C4.02327 6.81647 4.25286 6.46672 4.3675 5.92325C4.42781 5.91916 4.48777 5.91096 4.54696 5.89871C4.14847 6.43543 3.9453 7.09218 3.97112 7.76016C4.05043 9.01132 5.0493 9.76755 5.09176 9.79927C5.14837 9.84132 5.21702 9.86402 5.28755 9.864C5.3118 9.86403 5.33599 9.86135 5.35964 9.85599C5.40575 9.84561 5.44907 9.82539 5.48664 9.79671C5.5242 9.76803 5.55513 9.73158 5.5773 9.68984C6.0932 8.71891 5.98369 7.96396 5.84318 7.55348C5.96333 7.49682 6.06769 7.41145 6.14703 7.3049C6.22637 7.19836 6.27826 7.07392 6.29812 6.94257C6.30251 6.82817 6.28164 6.71421 6.237 6.60879C6.19236 6.50337 6.12505 6.40907 6.03985 6.33261C6.07339 6.23709 6.1005 6.13944 6.12098 6.04029C6.54949 6.6565 6.91941 7.31145 7.22592 7.99657L7.62712 7.72732C7.67724 7.69448 7.73027 7.6663 7.78555 7.64315C7.49388 7.00162 7.14911 6.38558 6.75482 5.80149C7.23302 6.3558 7.66628 6.94734 8.05047 7.57051C8.0799 7.56672 8.1092 7.56214 8.13902 7.56101L8.80961 7.53603C8.37752 6.79658 7.88015 6.09727 7.32343 5.44646C7.34583 5.43231 7.36968 5.4186 7.39 5.40399C7.76715 5.75134 8.14454 5.90371 8.51537 5.85276C8.75029 5.8185 8.96835 5.71076 9.13829 5.54497C9.22641 5.65052 9.32815 5.74391 9.44085 5.82268C9.38232 5.68184 9.35814 5.52909 9.3703 5.37705C9.38247 5.22502 9.43062 5.07805 9.51079 4.9483C9.48561 4.9102 9.46051 4.87001 9.43558 4.82704C9.40678 4.77728 9.36541 4.73598 9.3156 4.70727C9.2658 4.67856 9.20932 4.66345 9.15184 4.66345C9.14799 4.66345 9.14407 4.66345 9.14022 4.66362C9.08082 4.66572 9.0231 4.6839 8.97323 4.71624C8.92335 4.74858 8.8832 4.79385 8.85704 4.84723C8.85552 4.85043 8.68929 5.16767 8.42862 5.20227C8.21505 5.23287 7.9446 5.06673 7.64716 4.72802C7.61469 4.69168 7.57458 4.66296 7.52971 4.64394C7.48484 4.62491 7.43631 4.61605 7.38761 4.61797C7.33891 4.6199 7.29124 4.63258 7.24801 4.65509C7.20479 4.67761 7.16708 4.7094 7.13758 4.7482C7.0657 4.83479 6.97296 4.90164 6.86808 4.94244C6.78399 4.85455 6.70612 4.77582 6.63375 4.70465C7.11589 4.31868 7.9723 3.78064 9.0118 3.76751C9.02478 3.76735 9.03776 3.76735 9.05066 3.76735C9.57211 3.77126 10.0852 3.89879 10.5478 4.13948L10.8968 3.90449C10.9941 3.83924 11.1023 3.7919 11.2163 3.76472C10.5544 3.33862 9.78393 3.11184 8.99675 3.11142C7.70195 3.13012 6.68191 3.80502 6.14192 4.25652L6.13222 4.24865C6.12597 4.24371 6.11907 4.24021 6.11257 4.23579C7.02674 3.61812 7.29124 2.90459 7.36397 2.48063C7.69674 2.46429 7.93178 2.35294 8.06492 2.14754C8.12167 2.05021 8.15655 1.94169 8.16714 1.82953C8.17774 1.71737 8.1638 1.60424 8.12628 1.49801C8.47323 1.18093 8.63545 0.879562 8.62087 0.581235C8.616 0.476273 8.58688 0.373868 8.53579 0.282052C8.48469 0.190236 8.41302 0.111506 8.3264 0.0520391C8.28709 0.0267436 8.24283 0.0101657 8.19657 0.00342216C8.15032 -0.00332137 8.10316 -7.38753e-05 8.05828 0.0129459C6.80954 0.373278 5.98337 0.98163 5.60278 1.82134C5.3859 2.31648 5.32075 2.86482 5.41559 3.397C5.04455 2.89418 4.53722 2.50818 3.95366 2.28469C2.96304 1.92244 1.81852 2.10556 0.551364 2.82879C0.505254 2.85513 0.466218 2.89226 0.437602 2.93699C0.408986 2.98172 0.391644 3.03272 0.387062 3.08562C0.38298 3.18017 0.400479 3.27441 0.438232 3.36118C0.475986 3.44796 0.533002 3.525 0.604958 3.58647C0.880533 3.83449 1.35838 3.90162 2.0615 3.79027C2.26565 4.02283 2.53206 4.19215 2.8293 4.27825C3.12654 4.36435 3.4422 4.36365 3.73905 4.27621C3.74536 4.28369 3.75382 4.29152 3.76056 4.2991C3.04408 4.37125 2.35868 4.62849 1.77166 5.04558C0.74587 5.79476 0.150181 7.0339 0.00125834 8.72869ZM5.29332 7.09077C5.24796 7.10878 5.20718 7.13665 5.17392 7.17237C5.14067 7.20809 5.11578 7.25077 5.10106 7.2973C5.08623 7.34405 5.08193 7.39351 5.08846 7.44213C5.095 7.49074 5.11222 7.5373 5.13887 7.57848C5.15481 7.60299 5.47717 8.11858 5.17788 8.97399C4.8614 8.62479 4.66752 8.18184 4.62569 7.71243C4.58788 7.08148 4.88028 6.42763 5.49552 5.76529C5.48037 5.95271 5.42978 6.13555 5.34643 6.3041C5.31492 6.37664 5.31067 6.45811 5.33446 6.53354C5.35824 6.60896 5.40847 6.67325 5.47589 6.71459C5.54237 6.75717 5.60012 6.81204 5.64604 6.87625C5.64564 6.8772 5.59966 6.97173 5.29332 7.09077ZM6.20047 2.09227C6.46643 1.5057 7.04242 1.05405 7.91488 0.747228C7.81052 0.901042 7.67999 1.03536 7.52924 1.14409C7.46702 1.19312 7.42465 1.26301 7.40996 1.34085C7.39526 1.41868 7.40923 1.49921 7.44929 1.56755C7.48757 1.63468 7.5109 1.70927 7.5177 1.78625C7.51698 1.78673 7.43223 1.8529 7.09633 1.81573C7.04833 1.81076 6.99982 1.81646 6.95427 1.83241C6.90872 1.84837 6.86726 1.87418 6.83285 1.90801C6.79818 1.94191 6.77134 1.98298 6.75421 2.02834C6.73708 2.0737 6.73007 2.12226 6.73367 2.17061C6.73583 2.19961 6.77108 2.80572 6.08743 3.42561C5.98121 2.98054 6.02084 2.5131 6.20047 2.09227ZM2.48687 3.26539C2.4526 3.2068 2.40093 3.16034 2.33904 3.13246C2.27715 3.10458 2.20811 3.09666 2.14152 3.10982C1.86546 3.17365 1.58149 3.19643 1.29878 3.17743C2.2145 2.74099 3.02832 2.6471 3.72295 2.89913C4.31775 3.14042 4.81234 3.57758 5.12485 4.13826C4.506 4.1357 4.24558 3.92293 4.19615 3.79603C4.18369 3.75193 4.16213 3.71093 4.13285 3.67567C4.10358 3.64041 4.06724 3.61167 4.02619 3.59131C3.98513 3.57095 3.94027 3.55941 3.89448 3.55745C3.8487 3.55548 3.80301 3.56313 3.76036 3.5799C2.91553 3.91219 2.52677 3.33028 2.48687 3.26539ZM2.15418 5.57879C2.80488 5.13297 3.57963 4.90377 4.36815 4.92381C4.5383 4.92381 4.68962 4.93279 4.81411 4.94432C4.76618 5.0409 4.69393 5.12334 4.60447 5.18353C4.4746 5.2591 4.32198 5.2857 4.1742 5.2585C4.12891 5.24678 4.08163 5.24487 4.03554 5.25291C3.98945 5.26095 3.94562 5.27875 3.90697 5.30512C3.86832 5.33149 3.83576 5.36582 3.81147 5.40581C3.78718 5.4458 3.77172 5.49051 3.76613 5.53697C3.71182 5.98862 3.58645 6.28951 3.4223 6.36241C3.2713 6.43035 3.04691 6.31082 2.98219 6.26532C2.93091 6.22801 2.86992 6.20635 2.80659 6.20297C2.74326 6.19959 2.68031 6.21463 2.62535 6.24627C2.57039 6.27792 2.52578 6.32481 2.49691 6.38128C2.46804 6.43774 2.45615 6.50137 2.46268 6.56445C2.54271 7.33831 2.36968 7.5232 2.31472 7.56133C2.20649 7.63647 1.99933 7.561 1.95223 7.53778C1.87758 7.49933 1.79102 7.49097 1.7104 7.51442C1.62977 7.53788 1.56121 7.59137 1.51884 7.66387C1.10444 8.37204 0.801627 8.5023 0.690676 8.52537C0.687711 8.52601 0.684829 8.52649 0.681945 8.52697C0.846887 7.16576 1.34148 6.1748 2.15418 5.57879Z" fill="white"/>
<path d="M6.20741 15.8268C6.03633 15.9012 5.85356 15.9637 5.66214 16.0132C5.53272 16.04 5.40056 16.0611 5.26664 16.0761C5.17448 16.0879 5.08233 16.0999 4.99123 16.1146C4.31991 16.2229 2.62527 16.9673 2.40291 17.1511C2.36437 17.183 2.34045 17.2212 2.33388 17.2615C2.32731 17.3017 2.33836 17.3423 2.36576 17.3787C2.39316 17.4151 2.43582 17.4457 2.48887 17.4672C2.54191 17.4886 2.60321 17.5 2.66577 17.5L15.9951 17.4933C16.0744 17.4932 16.1512 17.4748 16.2116 17.4415C16.2719 17.4081 16.3119 17.3619 16.3244 17.3112C16.386 17.0593 16.065 16.8646 15.7213 16.8035C15.4722 16.7121 15.2327 16.6102 15.0044 16.4984C14.9211 16.4598 14.8545 16.429 14.8185 16.4136C14.6392 16.3461 14.437 16.3081 14.2297 16.3029C14.1282 16.302 14.0281 16.2874 13.9359 16.2599C13.892 16.2352 13.8531 16.2071 13.8198 16.1762C13.7463 16.1097 13.6572 16.051 13.5557 16.0023C13.3323 15.9176 13.0735 15.8804 12.8157 15.896C12.3859 15.8995 11.9787 15.8914 11.7023 15.7566C11.679 15.7451 11.6564 15.7329 11.6337 15.7207C11.5449 15.6687 11.4441 15.6259 11.335 15.594C11.1505 15.5523 10.9538 15.5385 10.7598 15.5536C10.6797 15.5596 10.5988 15.5588 10.5191 15.5513C10.5145 15.5476 10.504 15.5404 10.4886 15.5308C10.8885 13.9452 10.7349 12.3218 10.0391 10.7795L9.28712 10.6887C10.0244 12.1752 10.2226 13.7515 9.86618 15.2955C9.82897 15.2914 9.79107 15.2907 9.75354 15.2932L8.59766 15.3843C9.0616 13.8008 9.03735 12.1736 8.52631 10.5961L7.80971 10.5C8.38018 12.1088 8.41468 13.7778 7.91093 15.3959C7.9054 15.4107 7.9023 15.4259 7.90169 15.4411C7.46501 15.473 7.03883 15.5492 6.63885 15.6669C6.48551 15.7157 6.34414 15.7722 6.20741 15.8268ZM8.38018 15.8364L9.77921 15.7261C9.85838 15.7532 9.93272 15.7859 10.0009 15.8234C10.2287 16.0047 10.5701 15.9927 10.7961 15.9847C10.8903 15.9766 10.9859 15.9793 11.0787 15.9926C11.125 16.0092 11.168 16.0293 11.2068 16.0526C11.2376 16.0691 11.2683 16.0856 11.3003 16.1012C11.7447 16.3179 12.2961 16.3317 12.8241 16.3277C12.9435 16.3187 13.0645 16.329 13.1763 16.3575C13.2206 16.3823 13.2599 16.4105 13.2933 16.4416C13.3879 16.5333 13.5168 16.608 13.6681 16.6588C13.8193 16.7096 13.988 16.7348 14.1583 16.7321C14.2593 16.7334 14.3588 16.7477 14.4512 16.7741C14.4829 16.7877 14.5418 16.815 14.6154 16.8492C14.8015 16.9356 14.9567 17.0062 15.087 17.0619L3.65723 17.0677C4.1774 16.8413 4.83332 16.585 5.15289 16.5334C5.23347 16.5205 5.3152 16.51 5.39684 16.4995C5.5619 16.4808 5.72464 16.4544 5.88378 16.4204C6.12077 16.3612 6.34696 16.2853 6.55828 16.194C6.68718 16.1426 6.80892 16.0939 6.93333 16.0544C7.36811 15.9162 7.88266 15.8756 8.38018 15.8364Z" fill="white"/>
<path d="M17.2684 3.5698L15.4521 4.79246L11.4794 4.39349C11.4033 4.38579 11.3268 4.405 11.2633 4.4478L10.1693 5.18433C10.1177 5.21912 10.077 5.2679 10.052 5.32496C10.027 5.38202 10.0188 5.44502 10.0283 5.50658C10.0378 5.56815 10.0646 5.62574 10.1056 5.67263C10.1466 5.71952 10.2001 5.75377 10.2599 5.77137L12.8602 6.53726L10.4959 8.12883L8.16349 8.21567C8.10258 8.21799 8.04351 8.23718 7.99286 8.2711L7.03596 8.91326C6.9823 8.94926 6.94046 9.0003 6.91569 9.05998C6.89092 9.11966 6.88432 9.18533 6.89673 9.24875C6.90913 9.31216 6.93999 9.37051 6.98542 9.41645C7.03085 9.4624 7.08884 9.49391 7.15212 9.50703L8.91259 9.87217L11.1229 10.2847C11.2967 10.3173 11.4731 10.3337 11.6499 10.3338C12.2115 10.3338 12.7602 10.1658 13.2255 9.85135L13.9875 9.33838L13.8492 10.9634C13.844 11.0251 13.8563 11.087 13.8847 11.142C13.9131 11.1969 13.9565 11.2428 14.0099 11.2741C14.0632 11.3055 14.1243 11.3212 14.1862 11.3193C14.2481 11.3174 14.3081 11.2981 14.3595 11.2635L15.4535 10.527C15.5178 10.4836 15.5648 10.4189 15.586 10.3442L16.3138 7.77242L20.8552 4.71537C20.8912 4.6911 20.922 4.65993 20.9459 4.62367C20.9698 4.58741 20.9862 4.54677 20.9943 4.5041C21.0023 4.46144 21.0019 4.41761 20.9929 4.37513C20.9839 4.33266 20.9665 4.29239 20.9419 4.25666C20.5415 3.6839 19.9324 3.29109 19.2455 3.16265C18.5586 3.03421 17.8487 3.1804 17.2684 3.5698ZM11.1148 5.33894L11.5317 5.05839L14.5994 5.36648L13.5674 6.06122L11.1148 5.33894ZM18.9998 3.78868L17.3742 4.88295C17.3021 4.93162 17.2523 5.0069 17.2357 5.09226C17.2191 5.17761 17.2371 5.26607 17.2856 5.33819C17.3342 5.41032 17.4094 5.46022 17.4947 5.47695C17.5801 5.49367 17.6685 5.47584 17.7407 5.42738L19.6553 4.13858C19.6946 4.11189 19.7276 4.07694 19.7519 4.03617C19.9129 4.12704 20.0604 4.24015 20.1898 4.37217L16.5904 6.79516L16.6923 6.43516C16.716 6.3514 16.7054 6.26166 16.663 6.18567C16.6205 6.10968 16.5496 6.05367 16.4659 6.02996C16.3821 6.00625 16.2924 6.01678 16.2164 6.05924C16.1404 6.1017 16.0844 6.1726 16.0607 6.25635L14.9872 10.0497L14.5612 10.3365L14.7889 7.66244C14.7925 7.61949 14.7877 7.57625 14.7747 7.53518C14.7616 7.4941 14.7406 7.456 14.7128 7.42304C14.685 7.39009 14.651 7.36293 14.6128 7.34311C14.5745 7.3233 14.5327 7.31121 14.4898 7.30755C14.4468 7.30389 14.4036 7.30873 14.3625 7.32178C14.3214 7.33483 14.2833 7.35584 14.2504 7.38362C14.2174 7.4114 14.1903 7.44539 14.1704 7.48366C14.1506 7.52194 14.1385 7.56374 14.1349 7.60668L14.0589 8.49923L12.8591 9.30692C12.3855 9.62658 11.8048 9.74618 11.2434 9.6397L9.03948 9.22841L8.05006 9.02317L8.28109 8.86808L10.6138 8.78124C10.6749 8.77886 10.7341 8.75956 10.7849 8.72548L17.635 4.11422C18.0358 3.84472 18.5205 3.72911 18.9998 3.78868Z" fill="white"/>
</svg>
