<svg width="24" height="24" viewBox="0 0 24 24" fill="none" xmlns="http://www.w3.org/2000/svg">
<path d="M4.64426 17.3643C4.70557 17.4257 4.77697 17.478 4.85509 17.5159C4.96009 17.5673 5.07853 17.5959 5.20536 17.5959C5.42459 17.5959 5.62283 17.5066 5.76647 17.3626C5.91012 17.2185 5.99914 17.0197 5.99914 16.7999C5.99914 16.5825 5.91263 16.3854 5.77318 16.2431C5.63207 16.099 5.43719 16.0081 5.22216 16.0038C5.04492 16.0013 4.90296 15.8547 4.90631 15.6762C4.90715 15.6079 4.92983 15.5448 4.96679 15.4934C5.01383 15.4277 5.05247 15.3527 5.07767 15.2727C5.10203 15.1977 5.11463 15.1152 5.11463 15.0284C5.11463 14.8086 5.02559 14.6098 4.88196 14.4657L4.86852 14.4514C4.72656 14.3166 4.53337 14.2332 4.32085 14.2332C4.10162 14.2332 3.90254 14.3225 3.75973 14.4657C3.61694 14.6098 3.5279 14.8094 3.5279 15.0284C3.5279 15.1152 3.54134 15.1977 3.56486 15.2727C3.5909 15.3527 3.6287 15.4277 3.67574 15.4934C3.77906 15.6374 3.7463 15.8396 3.60266 15.9432C3.54723 15.9828 3.48339 16.003 3.42039 16.0038C3.20619 16.0081 3.01133 16.099 2.86936 16.2431C2.72992 16.3854 2.6434 16.5825 2.6434 16.8007C2.6434 17.0206 2.73244 17.2194 2.87607 17.3634L2.88951 17.3777C3.03147 17.5125 3.22466 17.5959 3.43718 17.5959C3.56402 17.5959 3.68245 17.5673 3.78661 17.5159L3.80173 17.5091C3.87397 17.4721 3.94033 17.4224 3.99829 17.3651V16.8015C3.99829 16.623 4.14277 16.4781 4.32084 16.4781C4.49892 16.4781 4.64339 16.623 4.64339 16.8015V17.3651L4.64426 17.3643ZM4.64426 18.1274V19.6765C4.64426 19.8551 4.49978 20 4.3217 20C4.14363 20 3.99915 19.8551 3.99915 19.6765V18.1283C3.82527 18.2024 3.63544 18.2428 3.43804 18.2428C3.05164 18.2428 2.69969 18.0887 2.44182 17.8393L2.42166 17.8208C2.16128 17.5597 2 17.1992 2 16.8007C2 16.4082 2.15708 16.0518 2.41244 15.7907C2.56111 15.6391 2.74256 15.5203 2.94667 15.4462C2.90635 15.3131 2.88451 15.1724 2.88451 15.0284C2.88451 14.6299 3.04579 14.2694 3.30618 14.0083C3.5674 13.748 3.92692 13.5863 4.3234 13.5863C4.67451 13.5863 4.9979 13.7135 5.24738 13.9249V7.19939H4.64092C4.46285 7.19939 4.31837 7.05451 4.31837 6.87593V5.32347C4.31837 5.14489 4.46285 5 4.64092 5H17.8647C18.0428 5 18.1873 5.14489 18.1873 5.32347V6.87593C18.1873 7.05451 18.0428 7.19939 17.8647 7.19939H17.2583V12.0093H21.6774C21.8555 12.0093 22 12.1542 22 12.3328V13.8853C22 14.0638 21.8555 14.2087 21.6774 14.2087H21.071V19.6764C21.071 19.8549 20.9265 19.9998 20.7484 19.9998H5.56996C5.39188 19.9998 5.24741 19.8549 5.24741 19.6764V18.2418L5.20709 18.2427C5.00885 18.2427 4.81901 18.2014 4.64597 18.1273L4.64426 18.1274ZM5.89079 18.0685V19.3531H8.45788V15.4234C8.45788 15.2448 8.60236 15.0999 8.78044 15.0999H13.7213C13.8994 15.0999 14.0439 15.2448 14.0439 15.4234V19.3531H16.6116V7.19873H5.89101V15.5329C6.01701 15.602 6.13208 15.6888 6.23119 15.7907C6.48571 16.051 6.64363 16.4081 6.64363 16.7998C6.64363 17.1983 6.48235 17.5588 6.22197 17.8199C6.12453 17.9177 6.01281 18.0019 5.89101 18.0684L5.89079 18.0685ZM20.4242 14.2089H17.2567V19.3531H20.4242V14.2089ZM17.2567 12.6564V13.5619H21.3533V12.6564H17.2567ZM11.5742 15.747V19.3532H13.3995V15.747H11.5742ZM10.9291 19.3532V15.747H9.10378V19.3532H10.9291ZM13.6271 13.3439H14.8854V12.0138H13.6271V13.3439ZM15.208 13.9908H13.3046C13.1265 13.9908 12.982 13.8459 12.982 13.6674V11.6903C12.982 11.5118 13.1265 11.3669 13.3046 11.3669H15.208C15.386 11.3669 15.5305 11.5118 15.5305 11.6903V13.6674C15.5305 13.8459 15.386 13.9908 15.208 13.9908ZM12.2033 13.9908H10.3007C10.1226 13.9908 9.97816 13.8459 9.97816 13.6674V11.6903C9.97816 11.5118 10.1226 11.3669 10.3007 11.3669H12.2033C12.3814 11.3669 12.5258 11.5118 12.5258 11.6903V13.6674C12.5258 13.8459 12.3814 13.9908 12.2033 13.9908ZM10.6233 13.3439H11.8807V12.0138H10.6233V13.3439ZM7.61858 13.3439H8.87688V12.0138H7.61858V13.3439ZM9.19943 13.9908H7.29603C7.11795 13.9908 6.97347 13.8459 6.97347 13.6674V11.6903C6.97347 11.5118 7.11795 11.3669 7.29603 11.3669H9.19943C9.37751 11.3669 9.52199 11.5118 9.52199 11.6903V13.6674C9.52199 13.8459 9.37751 13.9908 9.19943 13.9908ZM13.3053 8.11626H15.2087C15.3868 8.11626 15.5313 8.26114 15.5313 8.43972V10.4167C15.5313 10.5953 15.3868 10.7402 15.2087 10.7402H13.3053C13.1272 10.7402 12.9828 10.5953 12.9828 10.4167V8.43972C12.9828 8.26114 13.1272 8.11626 13.3053 8.11626ZM14.8862 8.76319H13.6279V10.0933H14.8862V8.76319ZM11.8815 8.76319H10.624V10.0933H11.8815V8.76319ZM10.3015 8.11626H12.204C12.3821 8.11626 12.5266 8.26114 12.5266 8.43972V10.4167C12.5266 10.5953 12.3821 10.7402 12.204 10.7402H10.3015C10.1234 10.7402 9.97891 10.5953 9.97891 10.4167V8.43972C9.97891 8.26114 10.1234 8.11626 10.3015 8.11626ZM7.29678 8.11626H9.20018C9.37826 8.11626 9.52274 8.26114 9.52274 8.43972V10.4167C9.52274 10.5953 9.37826 10.7402 9.20018 10.7402H7.29678C7.1187 10.7402 6.97423 10.5953 6.97423 10.4167V8.43972C6.97423 8.26114 7.1187 8.11626 7.29678 8.11626ZM8.87763 8.76319H7.61933V10.0933H8.87763V8.76319ZM17.542 5.64735H4.96335V6.55288H17.542V5.64735Z" fill="white"/>
</svg>
