<svg width="16" height="18" viewBox="0 0 16 18" fill="none" xmlns="http://www.w3.org/2000/svg">
<g clip-path="url(#clip0_3245_62628)">
<path d="M8.00234 4.95537C5.73091 4.95537 3.89877 6.75888 3.89877 8.99482C3.89877 11.2308 5.73091 13.0343 8.00234 13.0343C10.2738 13.0343 12.1059 11.2308 12.1059 8.99482C12.1059 6.75888 10.2738 4.95537 8.00234 4.95537ZM8.00234 11.621C6.53448 11.621 5.33448 10.4433 5.33448 8.99482C5.33448 7.54638 6.53091 6.36865 8.00234 6.36865C9.47377 6.36865 10.6702 7.54638 10.6702 8.99482C10.6702 10.4433 9.47019 11.621 8.00234 11.621ZM13.2309 4.79013C13.2309 5.31396 12.8023 5.73232 12.2738 5.73232C11.7416 5.73232 11.3166 5.31045 11.3166 4.79013C11.3166 4.26982 11.7452 3.84795 12.2738 3.84795C12.8023 3.84795 13.2309 4.26982 13.2309 4.79013ZM15.9488 5.74638C15.888 4.48428 15.5952 3.36631 14.6559 2.44521C13.7202 1.52412 12.5845 1.23584 11.3023 1.17256C9.98091 1.09873 6.0202 1.09873 4.69877 1.17256C3.4202 1.23232 2.28449 1.52061 1.3452 2.4417C0.405915 3.36279 0.116629 4.48076 0.0523437 5.74287C-0.0226562 7.04365 -0.0226562 10.9425 0.0523437 12.2433C0.113058 13.5054 0.405915 14.6233 1.3452 15.5444C2.28449 16.4655 3.41663 16.7538 4.69877 16.8171C6.0202 16.8909 9.98091 16.8909 11.3023 16.8171C12.5845 16.7573 13.7202 16.469 14.6559 15.5444C15.5916 14.6233 15.8845 13.5054 15.9488 12.2433C16.0238 10.9425 16.0238 7.04716 15.9488 5.74638ZM14.2416 13.639C13.963 14.328 13.4238 14.8589 12.7202 15.1366C11.6666 15.5479 9.16662 15.453 8.00234 15.453C6.83805 15.453 4.33448 15.5444 3.28448 15.1366C2.58448 14.8624 2.0452 14.3315 1.76306 13.639C1.3452 12.6018 1.44163 10.1409 1.44163 8.99482C1.44163 7.84873 1.34877 5.38427 1.76306 4.35068C2.04163 3.66162 2.58091 3.13076 3.28448 2.85303C4.33806 2.4417 6.83805 2.53662 8.00234 2.53662C9.16662 2.53662 11.6702 2.44521 12.7202 2.85303C13.4202 3.12724 13.9595 3.6581 14.2416 4.35068C14.6595 5.38779 14.563 7.84873 14.563 8.99482C14.563 10.1409 14.6595 12.6054 14.2416 13.639Z" fill="white"/>
</g>
<defs>
<clipPath id="clip0_3245_62628">
<rect width="16" height="18" fill="white"/>
</clipPath>
</defs>
</svg>
