<svg width="15" height="14" viewBox="0 0 15 14" fill="none" xmlns="http://www.w3.org/2000/svg">
<path d="M12.5566 3.26229C12.5566 2.79701 12.1796 2.42131 11.716 2.42131C11.2524 2.42131 10.875 2.79701 10.875 3.26229C10.875 3.72587 11.2524 4.10156 11.716 4.10156C12.1796 4.10156 12.5566 3.72587 12.5566 3.26229Z" fill="url(#paint0_linear_2702_30458)"/>
<path d="M13.6776 9.82826C13.6465 10.5108 13.5323 10.8817 13.4375 11.128C13.3102 11.4545 13.1584 11.6881 12.9121 11.933C12.6685 12.1779 12.435 12.3294 12.1084 12.4553C11.8621 12.5515 11.4899 12.666 10.8073 12.6986C10.0695 12.7311 9.85081 12.738 7.9796 12.738C6.11013 12.738 5.88974 12.7311 5.15185 12.6986C4.46932 12.666 4.09881 12.5515 3.85248 12.4553C3.52419 12.3294 3.29242 12.1779 3.04749 11.933C2.80082 11.6881 2.64896 11.4545 2.52339 11.128C2.42858 10.8817 2.31271 10.5108 2.28328 9.82826C2.24732 9.09036 2.24073 8.86826 2.24073 7.00087C2.24073 5.12966 2.24732 4.90928 2.28328 4.17138C2.31271 3.48885 2.42858 3.11835 2.52339 2.86994C2.64896 2.54372 2.80082 2.31159 3.04749 2.06666C3.29242 1.82209 3.52419 1.67021 3.85248 1.54292C4.09881 1.4464 4.46932 1.33361 5.15185 1.3011C5.88974 1.26857 6.11013 1.26026 7.9796 1.26026C9.85081 1.26026 10.0695 1.26857 10.8073 1.3011C11.4899 1.33361 11.8621 1.4464 12.1084 1.54292C12.435 1.67021 12.6685 1.82209 12.9121 2.06666C13.1584 2.31159 13.3102 2.54372 13.4375 2.86994C13.5323 3.11835 13.6465 3.48885 13.6776 4.17138C13.7119 4.90928 13.7202 5.12966 13.7202 7.00087C13.7202 8.86826 13.7119 9.09036 13.6776 9.82826ZM14.9379 4.11396C14.9037 3.3681 14.786 2.85852 14.6113 2.4147C14.4335 1.95424 14.1952 1.56401 13.8049 1.17379C13.4165 0.785302 13.0262 0.546939 12.5658 0.367057C12.1202 0.194077 11.6123 0.0750628 10.8661 0.042552C10.1199 0.00656605 9.8816 0 7.9796 0C6.07933 0 5.83925 0.00656605 5.09305 0.042552C4.34857 0.0750628 3.84107 0.194077 3.39342 0.367057C2.9347 0.546939 2.54448 0.785302 2.15599 1.17379C1.76577 1.56401 1.52741 1.95424 1.34786 2.4147C1.17488 2.85852 1.05727 3.3681 1.02128 4.11396C0.988771 4.86016 0.980469 5.09886 0.980469 7.00087C0.980469 8.90114 0.988771 9.13948 1.02128 9.88568C1.05727 10.6302 1.17488 11.1394 1.34786 11.5853C1.52741 12.044 1.76577 12.436 2.15599 12.8245C2.54448 13.213 2.9347 13.4531 3.39342 13.6326C3.84107 13.8056 4.34857 13.9232 5.09305 13.9574C5.83925 13.9917 6.07933 14 7.9796 14C9.8816 14 10.1199 13.9917 10.8661 13.9574C11.6123 13.9232 12.1202 13.8056 12.5658 13.6326C13.0262 13.4531 13.4165 13.213 13.8049 12.8245C14.1952 12.436 14.4335 12.044 14.6113 11.5853C14.786 11.1394 14.9037 10.6302 14.9379 9.88568C14.9722 9.13948 14.9805 8.90114 14.9805 7.00087C14.9805 5.09886 14.9722 4.86016 14.9379 4.11396Z" fill="url(#paint1_linear_2702_30458)"/>
<path d="M7.98003 9.33175C6.69208 9.33175 5.64698 8.28836 5.64698 7.00042C5.64698 5.71039 6.69208 4.66566 7.98003 4.66566C9.26834 4.66566 10.3148 5.71039 10.3148 7.00042C10.3148 8.28836 9.26834 9.33175 7.98003 9.33175ZM7.98003 3.40366C5.99466 3.40366 4.38672 5.01505 4.38672 7.00042C4.38672 8.98407 5.99466 10.5938 7.98003 10.5938C9.9654 10.5938 11.5751 8.98407 11.5751 7.00042C11.5751 5.01505 9.9654 3.40366 7.98003 3.40366Z" fill="url(#paint2_linear_2702_30458)"/>
<defs>
<linearGradient id="paint0_linear_2702_30458" x1="1.10592" y1="13.8539" x2="13.8136" y2="1.14629" gradientUnits="userSpaceOnUse">
<stop stop-color="#FFD521"/>
<stop offset="0.05" stop-color="#FFD521"/>
<stop offset="0.501119" stop-color="#F50000"/>
<stop offset="0.95" stop-color="#B900B4"/>
<stop offset="0.950079" stop-color="#B900B4"/>
<stop offset="1" stop-color="#B900B4"/>
</linearGradient>
<linearGradient id="paint1_linear_2702_30458" x1="1.10675" y1="13.8727" x2="13.8248" y2="1.15459" gradientUnits="userSpaceOnUse">
<stop stop-color="#FFD521"/>
<stop offset="0.05" stop-color="#FFD521"/>
<stop offset="0.501119" stop-color="#F50000"/>
<stop offset="0.95" stop-color="#B900B4"/>
<stop offset="0.950079" stop-color="#B900B4"/>
<stop offset="1" stop-color="#B900B4"/>
</linearGradient>
<linearGradient id="paint2_linear_2702_30458" x1="1.11047" y1="13.8726" x2="13.8255" y2="1.15756" gradientUnits="userSpaceOnUse">
<stop stop-color="#FFD521"/>
<stop offset="0.05" stop-color="#FFD521"/>
<stop offset="0.501119" stop-color="#F50000"/>
<stop offset="0.95" stop-color="#B900B4"/>
<stop offset="0.950079" stop-color="#B900B4"/>
<stop offset="1" stop-color="#B900B4"/>
</linearGradient>
</defs>
</svg>
