<svg width="17" height="16" viewBox="0 0 17 16" fill="none" xmlns="http://www.w3.org/2000/svg">
<g clip-path="url(#clip0_2702_30465)">
<path d="M8.98047 16C13.3987 16 16.9805 12.4183 16.9805 8C16.9805 3.58172 13.3987 0 8.98047 0C4.56219 0 0.980469 3.58172 0.980469 8C0.980469 12.4183 4.56219 16 8.98047 16Z" fill="#F0F0F0"/>
<path d="M2.63597 3.13281C2.00756 3.95041 1.53372 4.89275 1.25781 5.91647H5.41962L2.63597 3.13281Z" fill="#0052B4"/>
<path d="M16.7047 5.91644C16.4288 4.89275 15.9549 3.95041 15.3266 3.13281L12.543 5.91644H16.7047Z" fill="#0052B4"/>
<path d="M1.25781 10.0898C1.53375 11.1135 2.00759 12.0559 2.63597 12.8734L5.41953 10.0898H1.25781Z" fill="#0052B4"/>
<path d="M13.8539 1.65553C13.0363 1.02713 12.094 0.553281 11.0703 0.277344V4.43913L13.8539 1.65553Z" fill="#0052B4"/>
<path d="M4.11328 14.3461C4.93088 14.9745 5.87322 15.4483 6.89691 15.7242V11.5625L4.11328 14.3461Z" fill="#0052B4"/>
<path d="M6.89687 0.277344C5.87319 0.553281 4.93084 1.02712 4.11328 1.6555L6.89687 4.43909V0.277344Z" fill="#0052B4"/>
<path d="M11.0703 15.7242C12.094 15.4483 13.0363 14.9745 13.8539 14.3461L11.0703 11.5625V15.7242Z" fill="#0052B4"/>
<path d="M12.543 10.0898L15.3266 12.8735C15.9549 12.0559 16.4288 11.1135 16.7047 10.0898H12.543Z" fill="#0052B4"/>
<path d="M16.9128 6.95653H10.024H10.024V0.0677188C9.68237 0.02325 9.33412 0 8.98047 0C8.62675 0 8.27856 0.02325 7.937 0.0677188V6.95647V6.9565H1.04819C1.00372 7.29809 0.980469 7.64634 0.980469 8C0.980469 8.35372 1.00372 8.70191 1.04819 9.04347H7.93694H7.93697V15.9323C8.27856 15.9768 8.62675 16 8.98047 16C9.33412 16 9.68237 15.9768 10.0239 15.9323V9.04353V9.0435H16.9128C16.9572 8.70191 16.9805 8.35372 16.9805 8C16.9805 7.64634 16.9572 7.29809 16.9128 6.95653Z" fill="#D80027"/>
<path d="M11.0664 10.086L14.6363 13.6558C14.8005 13.4917 14.9571 13.3201 15.1065 13.1423L12.0502 10.0859H11.0664V10.086Z" fill="#D80027"/>
<path d="M6.89412 10.0859H6.89406L3.32422 13.6558C3.48834 13.82 3.65994 13.9766 3.83781 14.126L6.89412 11.0697V10.0859Z" fill="#D80027"/>
<path d="M6.89169 5.91372V5.91366L3.32181 2.34375C3.15763 2.50787 3.001 2.67947 2.85156 2.85734L5.90791 5.91369H6.89169V5.91372Z" fill="#D80027"/>
<path d="M11.0664 5.91125L14.6363 2.34131C14.4722 2.17713 14.3006 2.0205 14.1227 1.87109L11.0664 4.92744V5.91125Z" fill="#D80027"/>
</g>
<defs>
<clipPath id="clip0_2702_30465">
<rect width="16" height="16" fill="white" transform="translate(0.980469)"/>
</clipPath>
</defs>
</svg>
