<svg width="15" height="14" viewBox="0 0 15 14" fill="none" xmlns="http://www.w3.org/2000/svg">
<path d="M13.9441 0H2.01406C1.44258 0 0.980469 0.451172 0.980469 1.00898V12.9883C0.980469 13.5461 1.44258 14 2.01406 14H13.9441C14.5156 14 14.9805 13.5461 14.9805 12.991V1.00898C14.9805 0.451172 14.5156 0 13.9441 0ZM5.13398 11.9301H3.05586V5.24726H5.13398V11.9301ZM4.09492 4.33672C3.42773 4.33672 2.88906 3.79805 2.88906 3.13359C2.88906 2.46914 3.42773 1.93047 4.09492 1.93047C4.75937 1.93047 5.29805 2.46914 5.29805 3.13359C5.29805 3.79531 4.75937 4.33672 4.09492 4.33672ZM12.9105 11.9301H10.8352V8.68164C10.8352 7.90781 10.8215 6.90977 9.75508 6.90977C8.675 6.90977 8.51094 7.75469 8.51094 8.62695V11.9301H6.43828V5.24726H8.42891V6.16055H8.45625C8.73242 5.63555 9.41055 5.08047 10.4195 5.08047C12.5223 5.08047 12.9105 6.46406 12.9105 8.26328V11.9301Z" fill="#0A66C2"/>
</svg>
