<svg width="9" height="14" viewBox="0 0 9 14" fill="none" xmlns="http://www.w3.org/2000/svg">
<path d="M4.5013 10.1513C5.59708 9.22819 6.42658 8.3363 6.9898 7.47564C7.55302 6.61497 7.83464 5.80858 7.83464 5.05647C7.83464 4.06502 7.52352 3.25241 6.9013 2.61864C6.27908 1.98486 5.47908 1.66797 4.5013 1.66797C3.52352 1.66797 2.72352 1.98486 2.1013 2.61864C1.47908 3.25241 1.16797 4.06502 1.16797 5.05647C1.16797 5.80858 1.44958 6.61497 2.0128 7.47564C2.57602 8.3363 3.40552 9.22819 4.5013 10.1513ZM4.5013 11.1076C4.37652 11.1076 4.25352 11.0865 4.1323 11.0443C4.01097 11.002 3.8998 10.9385 3.7988 10.8538C2.59025 9.83936 1.68297 8.84664 1.07697 7.87564C0.470969 6.90475 0.167969 5.96502 0.167969 5.05647C0.167969 3.77436 0.571413 2.72241 1.3783 1.90064C2.18508 1.07886 3.22608 0.667969 4.5013 0.667969C5.77652 0.667969 6.81752 1.07886 7.6243 1.90064C8.43119 2.72241 8.83464 3.77436 8.83464 5.05647C8.83464 5.96502 8.53164 6.90369 7.92564 7.87247C7.31964 8.84125 6.4123 9.83408 5.20364 10.851C5.10119 10.9375 4.98975 11.002 4.8693 11.0443C4.74875 11.0865 4.62608 11.1076 4.5013 11.1076ZM4.50247 6.20647C4.83414 6.20647 5.11769 6.08836 5.35314 5.85214C5.58869 5.61591 5.70647 5.33191 5.70647 5.00014C5.70647 4.66847 5.58836 4.38491 5.35214 4.14947C5.11591 3.91391 4.83191 3.79614 4.50014 3.79614C4.16847 3.79614 3.88491 3.91425 3.64947 4.15047C3.41391 4.38669 3.29614 4.67069 3.29614 5.00247C3.29614 5.33414 3.41425 5.61769 3.65047 5.85314C3.88669 6.08869 4.17069 6.20647 4.50247 6.20647ZM0.667969 13.3346C0.526302 13.3346 0.40758 13.2867 0.311802 13.1908C0.215913 13.0949 0.167969 12.9761 0.167969 12.8345C0.167969 12.6927 0.215913 12.574 0.311802 12.4783C0.40758 12.3825 0.526302 12.3346 0.667969 12.3346H8.33464C8.4763 12.3346 8.59503 12.3826 8.6908 12.4785C8.78669 12.5744 8.83464 12.6931 8.83464 12.8348C8.83464 12.9766 8.78669 13.0953 8.6908 13.191C8.59503 13.2867 8.4763 13.3346 8.33464 13.3346H0.667969Z" fill="url(#paint0_linear_2702_33786)"/>
<defs>
<linearGradient id="paint0_linear_2702_33786" x1="4.50108" y1="13.334" x2="4.50108" y2="0.667526" gradientUnits="userSpaceOnUse">
<stop stop-color="#1768D0"/>
<stop offset="1" stop-color="#0070FF"/>
</linearGradient>
</defs>
</svg>
