<svg width="10" height="14" viewBox="0 0 10 14" fill="none" xmlns="http://www.w3.org/2000/svg">
<path d="M5.0013 11.1076C4.87652 11.1076 4.75352 11.0865 4.6323 11.0443C4.51097 11.002 4.3998 10.9385 4.2988 10.8538C3.09025 9.83936 2.18297 8.84664 1.57697 7.87564C0.970969 6.90475 0.667969 5.96502 0.667969 5.05647C0.667969 3.77436 1.07141 2.72241 1.8783 1.90064C2.68508 1.07886 3.72608 0.667969 5.0013 0.667969C6.27652 0.667969 7.31752 1.07886 8.1243 1.90064C8.93119 2.72241 9.33464 3.77436 9.33464 5.05647C9.33464 5.96502 9.03164 6.90369 8.42564 7.87247C7.81964 8.84125 6.9123 9.83408 5.70364 10.851C5.60119 10.9375 5.48975 11.002 5.3693 11.0443C5.24875 11.0865 5.12608 11.1076 5.0013 11.1076ZM5.00247 6.20647C5.33414 6.20647 5.61769 6.08836 5.85314 5.85214C6.08869 5.61591 6.20647 5.33191 6.20647 5.00014C6.20647 4.66847 6.08836 4.38491 5.85214 4.14947C5.61591 3.91391 5.33191 3.79614 5.00014 3.79614C4.66847 3.79614 4.38491 3.91425 4.14947 4.15047C3.91391 4.38669 3.79614 4.67069 3.79614 5.00247C3.79614 5.33414 3.91425 5.61769 4.15047 5.85314C4.38669 6.08869 4.67069 6.20647 5.00247 6.20647ZM1.16797 13.3346C1.0263 13.3346 0.90758 13.2867 0.811802 13.1908C0.715913 13.0949 0.667969 12.9761 0.667969 12.8345C0.667969 12.6927 0.715913 12.574 0.811802 12.4783C0.90758 12.3825 1.0263 12.3346 1.16797 12.3346H8.83464C8.9763 12.3346 9.09503 12.3826 9.1908 12.4785C9.28669 12.5744 9.33464 12.6931 9.33464 12.8348C9.33464 12.9766 9.28669 13.0953 9.1908 13.191C9.09503 13.2867 8.9763 13.3346 8.83464 13.3346H1.16797Z" fill="white"/>
</svg>
