<svg width="48" height="28" viewBox="0 0 48 28" fill="none" xmlns="http://www.w3.org/2000/svg">
<g clip-path="url(#clip0_2702_52543)">
<path d="M44 0.5H4C2.067 0.5 0.5 2.067 0.5 4V24C0.5 25.933 2.067 27.5 4 27.5H44C45.933 27.5 47.5 25.933 47.5 24V4C47.5 2.067 45.933 0.5 44 0.5Z" fill="white"/>
<path d="M27.9148 7.71094H20.7148V20.2887H27.9148V7.71094Z" fill="#FF5F00"/>
<path d="M21.1714 14C21.1714 11.4444 22.4057 9.17778 24.3029 7.71111C22.9086 6.64444 21.1486 6 19.2286 6C14.68 6 11 9.57778 11 14C11 18.4222 14.68 22 19.2286 22C21.1486 22 22.9086 21.3556 24.3029 20.2889C22.4057 18.8444 21.1714 16.5556 21.1714 14Z" fill="#EB001B"/>
<path d="M37.6271 14C37.6271 18.4222 33.9471 22 29.3985 22C27.4785 22 25.7185 21.3556 24.3242 20.2889C26.2442 18.8222 27.4556 16.5556 27.4556 14C27.4556 11.4444 26.2213 9.17778 24.3242 7.71111C25.7185 6.64444 27.4785 6 29.3985 6C33.9471 6 37.6271 9.6 37.6271 14Z" fill="#F79E1B"/>
<path d="M44 0.5H4C2.067 0.5 0.5 2.067 0.5 4V24C0.5 25.933 2.067 27.5 4 27.5H44C45.933 27.5 47.5 25.933 47.5 24V4C47.5 2.067 45.933 0.5 44 0.5Z" stroke="#EBF0F5"/>
</g>
<defs>
<clipPath id="clip0_2702_52543">
<rect width="48" height="28" fill="white"/>
</clipPath>
</defs>
</svg>
