<svg width="48" height="28" viewBox="0 0 48 28" fill="none" xmlns="http://www.w3.org/2000/svg">
<g clip-path="url(#clip0_2702_52579)">
<path d="M44 0.5H4C2.067 0.5 0.5 2.067 0.5 4V24C0.5 25.933 2.067 27.5 4 27.5H44C45.933 27.5 47.5 25.933 47.5 24V4C47.5 2.067 45.933 0.5 44 0.5Z" fill="white"/>
<path d="M20.4328 14.4664C20.4328 14.6443 20.4255 14.8223 20.4099 15.0002C20.3131 16.1366 19.9119 17.2286 19.2462 18.1675C18.5806 19.1063 17.6736 19.8593 16.6156 20.3515C15.5576 20.8438 14.3855 21.0581 13.2158 20.9731C12.0462 20.8881 10.9198 20.5068 9.94887 19.8671C8.97788 19.2275 8.19612 18.3518 7.68137 17.3272C7.16662 16.3025 6.93684 15.1647 7.01489 14.0269C7.09293 12.8891 7.47608 11.791 8.12621 10.8419C8.77634 9.89285 9.67078 9.12583 10.7205 8.61719C10.5418 8.83929 10.3806 9.07421 10.2383 9.31998C10.2264 9.33955 10.2154 9.36003 10.2035 9.38049L10.1971 9.38581C10.1081 9.45639 10.0211 9.52964 9.93634 9.60556C9.83264 9.69808 9.73259 9.79416 9.6362 9.8938C9.61424 9.91604 9.59228 9.93827 9.57215 9.9614C9.55201 9.98453 9.52915 10.0067 9.5081 10.0299C9.47241 10.0681 9.43764 10.1073 9.40469 10.1473C9.33515 10.2265 9.26927 10.3074 9.20521 10.3911C8.92727 10.7508 8.69443 11.1414 8.51162 11.5547C8.49332 11.5956 8.47502 11.6365 8.45854 11.6775C8.44207 11.7184 8.4192 11.7753 8.39999 11.8251C8.38992 11.85 8.38077 11.8741 8.37254 11.8999C8.34417 11.9755 8.31946 12.052 8.29475 12.1285C8.27828 12.1783 8.26364 12.229 8.249 12.2789C8.24076 12.3055 8.23345 12.3331 8.22613 12.3589C8.21332 12.4096 8.19958 12.4603 8.18769 12.5119C8.14834 12.6756 8.11632 12.842 8.09619 13.011C8.08979 13.0528 8.0843 13.1 8.07881 13.1391C8.07332 13.1783 8.07057 13.2058 8.06782 13.2396C8.06233 13.2895 8.05868 13.3393 8.05502 13.3891C8.05545 13.3932 8.05545 13.3974 8.05502 13.4015C8.05502 13.4531 8.0486 13.5047 8.04586 13.5572C8.04586 13.6417 8.04037 13.7263 8.04037 13.8117C8.04312 15.0756 8.47763 16.3028 9.27564 17.3006C10.0737 18.2983 11.19 19.0101 12.4492 19.3241C13.7085 19.6381 15.0394 19.5366 16.2328 19.0354C17.4263 18.5343 18.4147 17.6619 19.0428 16.5553C19.0977 16.4574 19.1508 16.3578 19.1993 16.2572V16.2492C19.541 15.5458 19.7301 14.7814 19.7547 14.0038C19.7547 13.9424 19.7547 13.8802 19.7547 13.8179C19.7547 13.6317 19.7456 13.4478 19.7273 13.2663L19.7556 13.2895C19.8472 13.3624 19.9386 13.438 20.0201 13.5163C20.1024 13.3829 20.1894 13.2539 20.2827 13.1284C20.3366 13.3807 20.3751 13.6359 20.398 13.8926C20.4151 14.0824 20.4236 14.2749 20.4236 14.47" fill="#EA2227"/>
<path d="M19.7637 13.8159C19.7637 13.8781 19.7637 13.9404 19.7637 14.0018C19.7528 14.7811 19.563 15.5482 19.2083 16.2472V16.2552C19.1598 16.3566 19.1067 16.4562 19.0518 16.5532C18.6303 17.2972 18.0444 17.941 17.3361 18.4383C16.4602 19.052 15.4271 19.4187 14.3505 19.498C13.274 19.5773 12.1958 19.3661 11.2348 18.8877C10.2738 18.4093 9.46721 17.6823 8.90403 16.7868C8.34086 15.8912 8.04289 14.862 8.04297 13.8123C8.04297 13.7233 8.04298 13.6424 8.04847 13.5579C8.04847 13.5063 8.05396 13.4538 8.05762 13.4022C8.05762 13.4022 8.05762 13.3942 8.05762 13.3906C8.05762 13.3408 8.06493 13.2901 8.07042 13.2412C8.07042 13.2074 8.07775 13.1744 8.08141 13.1406C8.08507 13.1068 8.09239 13.0517 8.09879 13.0125C8.12319 12.8441 8.1537 12.6777 8.1903 12.5134C8.2022 12.4618 8.21592 12.4111 8.22873 12.3604C8.23605 12.3337 8.24429 12.307 8.25161 12.2804C8.26625 12.2305 8.28088 12.1798 8.29735 12.13C8.32114 12.0535 8.34769 11.977 8.37514 11.9014C8.38337 11.8765 8.39253 11.8515 8.40351 11.8266C8.42272 11.7768 8.44193 11.7279 8.46114 11.6799C8.48036 11.6318 8.49683 11.598 8.51422 11.5571C8.69702 11.1438 8.92987 10.7532 9.20783 10.3935C9.27188 10.3098 9.33776 10.2289 9.40731 10.1497C9.44116 10.1097 9.47593 10.0705 9.5107 10.0323C9.53175 10.0091 9.55188 9.98596 9.57476 9.96372C9.59764 9.94148 9.61684 9.91836 9.6388 9.89612C9.73519 9.79648 9.83553 9.7004 9.93985 9.60788C10.024 9.53137 10.1119 9.45841 10.2006 9.38813L10.2061 9.38281L10.1723 9.44509C10.1595 9.46733 10.1476 9.49046 10.1357 9.51359C9.78285 10.2376 9.56593 11.0169 9.49515 11.8151C9.4741 12.041 9.46221 12.2714 9.46221 12.5054C9.46221 15.4865 11.263 17.9019 13.4884 17.9019H13.5158C13.5845 17.9019 13.6531 17.9081 13.7226 17.9081C14.1883 17.9082 14.6495 17.8191 15.0797 17.6459C15.51 17.4727 15.9009 17.2188 16.2302 16.8987C16.5594 16.5786 16.8206 16.1985 16.9988 15.7802C17.1769 15.3619 17.2685 14.9136 17.2684 14.4608C17.2684 14.4288 17.2684 14.3976 17.2684 14.3656C17.2441 13.4592 16.852 12.5989 16.1777 11.9725C17.4687 12.0033 18.713 12.4481 19.7171 13.2376L19.7473 13.2598C19.7656 13.4378 19.7756 13.6255 19.7756 13.8123" fill="#F69220"/>
<path d="M19.7955 13.8133C19.7955 13.8755 19.7955 13.9378 19.7955 14.0001C19.7829 14.7876 19.59 15.5626 19.2309 16.2686C19.1833 16.3682 19.1293 16.4697 19.0744 16.5666C18.6501 17.3136 18.0615 17.9603 17.3505 18.4606C16.107 19.3332 14.5626 19.7 13.0454 19.483C11.5282 19.266 10.1578 18.4824 9.2255 17.2986C8.29317 16.1149 7.87237 14.6243 8.05253 13.1437C8.23269 11.6631 8.99961 10.3092 10.1903 9.36961L10.2479 9.32422C10.2361 9.34468 10.2251 9.36427 10.2132 9.38473C10.2013 9.40519 10.1903 9.42652 10.1784 9.44698C9.0248 10.3899 8.29098 11.73 8.13049 13.187C7.96999 14.6439 8.39526 16.1048 9.31732 17.2638C10.2394 18.4229 11.5867 19.1903 13.0775 19.4056C14.5683 19.6209 16.087 19.2673 17.3157 18.4188C18.0201 17.923 18.6031 17.282 19.0232 16.5417C19.0781 16.4447 19.1312 16.3451 19.1796 16.2455C19.5347 15.5465 19.7257 14.7795 19.7387 14.0001C19.7387 13.9369 19.7387 13.8746 19.7387 13.8133C19.7387 13.6353 19.7296 13.4467 19.7104 13.2644V13.2394L19.7406 13.2617L19.7689 13.2848C19.7854 13.4627 19.7955 13.6407 19.7955 13.8133Z" fill="#F69220"/>
<path d="M18.1917 10.2645C18.1917 10.2645 13.4024 9.38643 11.1523 13.4333C11.3708 12.4906 11.8379 11.6195 12.5077 10.9055C13.1776 10.1916 14.0271 9.65945 14.9726 9.36153L14.2946 8.13118C14.8282 7.73945 15.4389 7.45838 16.0888 7.30536C16.7386 7.15234 17.4139 7.13062 18.0728 7.24156L18.1917 10.2645Z" fill="#EA2227"/>
<path d="M12.2516 12.423C12.2516 12.423 14.164 9.99166 18.5379 10.6242L18.4848 9.20703C19.6922 9.22232 20.8576 9.63997 21.7863 10.3903L19.9654 13.0591C19.4572 12.5798 18.8552 12.2045 18.195 11.9555C17.5348 11.7066 16.8299 11.5891 16.1222 11.6099C14.7826 11.5805 13.4548 11.8582 12.2461 12.4204" fill="#F69220"/>
<path d="M10.3662 14.6205C10.3662 14.6205 8.18018 9.98469 13.2596 7L14.4702 9.16802C13.8452 9.40606 13.2686 9.75005 12.7673 10.184C11.4526 11.3405 10.6026 12.9122 10.3662 14.6205Z" fill="#F69220"/>
<path d="M29.5628 10.5859H23.8236C23.7996 10.5859 23.7758 10.5904 23.7536 10.5994C23.7313 10.6083 23.7112 10.6215 23.6942 10.638C23.6772 10.6545 23.6637 10.6741 23.6545 10.6957C23.6453 10.7173 23.6406 10.7404 23.6406 10.7638V11.1944C23.6406 11.2177 23.6453 11.2409 23.6545 11.2625C23.6637 11.2841 23.6772 11.3037 23.6942 11.3202C23.7112 11.3367 23.7313 11.3498 23.7536 11.3587C23.7758 11.3677 23.7996 11.3723 23.8236 11.3723H28.0987V13.6755C27.9763 13.504 27.8401 13.3422 27.6915 13.1916C27.4911 12.9657 27.2452 12.782 26.969 12.652C26.6928 12.5219 26.3922 12.4482 26.0856 12.4354C25.8584 12.4398 25.6358 12.499 25.4379 12.6077C25.24 12.7164 25.073 12.8712 24.9519 13.0581C24.7114 13.3668 24.5723 13.7389 24.5529 14.1257C24.5347 14.5692 24.6556 15.0076 24.8997 15.3827C25.0555 15.6046 25.2672 15.7839 25.5145 15.9037C25.7618 16.0234 26.0365 16.0796 26.3125 16.0668C26.6088 16.0863 26.9009 15.9914 27.1258 15.8029C27.3506 15.6145 27.4901 15.3475 27.514 15.0598C27.5154 14.8968 27.4698 14.7367 27.3823 14.5976C27.2948 14.4586 27.1689 14.3463 27.0189 14.2734L26.7041 14.0999V14.4557C26.7033 14.4794 26.6999 14.503 26.6941 14.526C26.6905 14.5407 26.6878 14.5555 26.6859 14.5705C26.6397 14.6658 26.5671 14.7467 26.4763 14.804C26.3854 14.8614 26.2799 14.893 26.1716 14.8952C25.9647 14.897 25.7654 14.8193 25.6171 14.679C25.5285 14.5767 25.4842 14.445 25.4935 14.3116C25.5014 14.1449 25.5658 13.9854 25.6766 13.8579C25.7335 13.7818 25.8085 13.7204 25.8952 13.6787C25.9819 13.637 26.0777 13.6164 26.1744 13.6186C26.467 13.6174 26.7547 13.692 27.0079 13.8347C27.261 13.9775 27.4704 14.1833 27.6146 14.4308C27.9108 14.8401 28.0754 15.3255 28.0877 15.8258L28.1005 16.9876L28.9442 17.492C28.972 17.5087 29.0039 17.5178 29.0367 17.5184C29.0694 17.5191 29.1016 17.5112 29.1301 17.4955C29.1586 17.4799 29.1824 17.4572 29.1987 17.4296C29.2151 17.4021 29.2235 17.3708 29.2232 17.339V11.3785H29.5628C29.6113 11.3785 29.6578 11.3597 29.6922 11.3264C29.7265 11.293 29.7458 11.2478 29.7458 11.2006V10.77C29.7466 10.7462 29.7425 10.7223 29.7337 10.7C29.7249 10.6777 29.7115 10.6573 29.6944 10.6402C29.6774 10.623 29.6569 10.6093 29.6343 10.6C29.6117 10.5907 29.5873 10.5858 29.5628 10.5859Z" fill="#EA2227"/>
<path d="M41.0355 10.5869H33.7554C33.7069 10.5869 33.6603 10.6057 33.626 10.639C33.5917 10.6724 33.5724 10.7177 33.5724 10.7648V11.5477C33.3436 11.2528 33.0565 11.0053 32.7279 10.8199C32.3993 10.6344 32.0359 10.5146 31.659 10.4677C31.1652 10.4423 30.6776 10.5848 30.28 10.8707C30.104 10.9875 29.9591 11.1434 29.8574 11.3255C29.7557 11.5076 29.7002 11.7106 29.6953 11.9178C29.6953 13.1579 31.121 13.1437 31.4733 12.9569C31.543 12.91 31.6247 12.8829 31.7093 12.8786C31.7642 12.8768 31.8187 12.8866 31.8693 12.9072C31.9199 12.9278 31.9654 12.9587 32.0026 12.9978C32.0398 13.037 32.068 13.0834 32.0851 13.1341C32.1022 13.1848 32.108 13.2384 32.1019 13.2913C32.1019 13.5796 31.6791 13.8252 31.1786 13.8252C31.0707 13.8372 30.9615 13.8218 30.8615 13.7805C30.7616 13.7392 30.6744 13.6733 30.6085 13.5894L30.3862 13.262L30.2361 13.6267C30.1871 13.7302 30.1594 13.8421 30.1547 13.9559C30.161 14.1095 30.2024 14.2599 30.2758 14.396C30.3493 14.5322 30.4529 14.6508 30.5793 14.7432C30.8367 14.9547 31.1638 15.069 31.5007 15.0653C31.7457 15.075 31.9896 15.028 32.2123 14.9282C32.435 14.8285 32.6301 14.6788 32.7818 14.4914C33.0268 14.1812 33.1559 13.799 33.1478 13.4079C33.1368 13.141 33.0409 12.8839 32.8733 12.6722C32.7881 12.5295 32.6672 12.41 32.5217 12.3249C32.3763 12.2399 32.2111 12.1919 32.0415 12.1856C31.904 12.1956 31.7681 12.2219 31.6371 12.2639C31.573 12.2808 31.4751 12.3074 31.4541 12.3092C31.3739 12.3011 31.2999 12.2635 31.2472 12.2042C31.1744 12.1334 31.1333 12.0375 31.1329 11.9374C31.1436 11.8455 31.173 11.7566 31.2193 11.6759C31.2656 11.5952 31.328 11.5242 31.4027 11.467C31.4774 11.4099 31.563 11.3677 31.6546 11.3429C31.7462 11.3181 31.8419 11.3112 31.9363 11.3226H31.9592C32.3444 11.3488 32.7046 11.5175 32.9657 11.7941C33.2116 12.0138 33.419 12.271 33.5797 12.5557V16.9521L34.4261 17.4388C34.4538 17.4548 34.4854 17.4634 34.5176 17.4637C34.5417 17.4637 34.5655 17.4591 34.5877 17.4502C34.6099 17.4412 34.63 17.4281 34.647 17.4116C34.664 17.395 34.6775 17.3754 34.6867 17.3538C34.6959 17.3323 34.7006 17.3091 34.7006 17.2857V11.3778H35.9981V15.2031L37.0313 15.6061C37.053 15.6148 37.0763 15.6194 37.0998 15.6195C37.1447 15.6198 37.1881 15.6042 37.2218 15.5755C37.2555 15.5468 37.2773 15.5071 37.2829 15.4638L37.2874 15.4344C37.329 14.9479 37.4903 14.4783 37.7576 14.065C38.025 13.6518 38.3907 13.3071 38.8238 13.06C38.8238 13.1241 38.8238 13.1935 38.8238 13.2682C38.8238 13.423 38.8348 13.8394 38.8458 14.0689C38.8484 14.1698 38.8564 14.2704 38.8695 14.3705C38.8719 14.9107 38.9432 15.4486 39.0818 15.9718C39.3563 16.9228 39.8413 17.1336 40.2 17.1434H40.2229C40.3086 17.1493 40.3947 17.1386 40.4762 17.112C40.5577 17.0855 40.633 17.0435 40.6978 16.9886C40.7453 16.9419 40.7825 16.8863 40.807 16.8251C40.8316 16.7639 40.843 16.6985 40.8405 16.6328C40.848 16.4917 40.8201 16.3509 40.7591 16.2227L40.6813 16.0848L40.5249 16.1213C40.4414 16.1469 40.3543 16.1601 40.2668 16.1604H40.2366C40.2067 16.1626 40.1769 16.1554 40.1515 16.1399C40.0957 16.1115 39.9896 16.0181 39.9063 15.7165C39.8555 15.4895 39.8276 15.2583 39.823 15.0261C39.823 13.7931 40.0856 12.859 40.4919 12.6464L40.513 12.6366C40.5349 12.6259 40.5543 12.611 40.5702 12.5929C40.586 12.5747 40.598 12.5536 40.6054 12.5309C40.6127 12.5082 40.6153 12.4842 40.6129 12.4605C40.6105 12.4368 40.6034 12.4138 40.5917 12.3928L40.5798 12.3706C40.4492 12.163 40.2755 11.984 40.0699 11.8451C39.8644 11.7062 39.6314 11.6104 39.3857 11.5637L39.3408 11.5522L39.296 11.5602C38.6654 11.7251 38.0863 12.0383 37.6095 12.472C37.4338 12.6153 37.271 12.7549 37.1209 12.8937V11.3707H41.0363C41.0604 11.3707 41.0842 11.3661 41.1064 11.3571C41.1286 11.3482 41.1488 11.335 41.1658 11.3185C41.1827 11.302 41.1963 11.2824 41.2055 11.2608C41.2147 11.2392 41.2194 11.2161 41.2194 11.1927V10.7631C41.2189 10.716 41.1993 10.6711 41.1648 10.6381C41.1303 10.6051 41.0838 10.5867 41.0355 10.5869Z" fill="#EA2227"/>
<path d="M24.2194 19.1124V19.4549L24.5205 19.3374L24.6119 19.4202C24.6168 19.4526 24.6195 19.4853 24.6201 19.518C24.626 19.6208 24.5909 19.7218 24.5222 19.8001C24.4858 19.8369 24.4416 19.8656 24.3926 19.8844C24.3437 19.9031 24.2911 19.9114 24.2386 19.9086C24.1749 19.9075 24.1122 19.8931 24.0548 19.8664C23.9973 19.8396 23.9464 19.8013 23.9055 19.7538C23.8204 19.6606 23.7553 19.5517 23.7143 19.4335L23.7975 19.3802C23.9031 19.6654 24.0531 19.8078 24.2477 19.8072C24.2822 19.807 24.3163 19.7998 24.3478 19.7862C24.3793 19.7726 24.4075 19.7528 24.4308 19.728C24.4559 19.7038 24.4758 19.675 24.4893 19.6432C24.5029 19.6114 24.5097 19.5773 24.5095 19.543C24.5096 19.5125 24.5037 19.4822 24.4921 19.454L24.2175 19.5696L24.1114 19.4878V19.1124H23.6328V19.0234H24.6906V19.1124H24.2194Z" fill="#231F20"/>
<path d="M24.896 19.1124V19.9059H24.7889V19.1124H24.6562V19.0234H25.0224V19.1124H24.896Z" fill="#231F20"/>
<path d="M25.6002 19.1128V19.1679C25.6841 19.168 25.7662 19.1919 25.8364 19.2364C25.873 19.2551 25.9039 19.2829 25.926 19.317C25.948 19.351 25.9603 19.3901 25.9617 19.4303C25.9624 19.4602 25.9559 19.4899 25.9425 19.5168C25.9291 19.5437 25.9094 19.5671 25.8849 19.5852C25.8365 19.6223 25.7762 19.6418 25.7146 19.6403H25.6899V19.5407H25.7448C25.7606 19.5432 25.7767 19.542 25.792 19.5374C25.8072 19.5327 25.8211 19.5247 25.8326 19.5139C25.844 19.5031 25.8527 19.4899 25.858 19.4752C25.8632 19.4605 25.865 19.4449 25.8629 19.4295C25.8629 19.3405 25.7714 19.2871 25.6012 19.272V19.9116H25.5014C25.4557 19.8242 25.3936 19.7458 25.3184 19.6803C25.2486 19.6113 25.1552 19.5695 25.0558 19.5629L25.0229 19.441C25.086 19.3975 25.2407 19.3067 25.4895 19.1679V19.1163H24.9844V19.0273H26.0294V19.1163H25.5957L25.6002 19.1128ZM25.4932 19.28C25.4383 19.3015 25.3873 19.3316 25.3422 19.369L25.205 19.4811C25.2617 19.5132 25.3124 19.5545 25.3551 19.603C25.3789 19.6296 25.4246 19.6812 25.4941 19.7568V19.2791L25.4932 19.28Z" fill="#231F20"/>
<path d="M27.4443 18.8705C27.3103 18.7756 27.152 18.7187 26.9867 18.706C26.8923 18.7011 26.7991 18.7284 26.7233 18.7833C26.6869 18.8125 26.6582 18.8497 26.6394 18.8917C26.6207 18.9338 26.6124 18.9795 26.6152 19.0253H26.7269V19.1143H26.6208V19.9051H26.5119V19.1143H26.3984V19.0253H26.5119C26.5088 18.9663 26.5199 18.9074 26.5444 18.8534C26.5688 18.7993 26.6059 18.7516 26.6528 18.7139C26.75 18.6412 26.8706 18.6043 26.9932 18.6099C27.0853 18.6104 27.1762 18.6295 27.2604 18.6659C27.3448 18.7039 27.4259 18.7485 27.5029 18.7994L27.4443 18.8705Z" fill="#231F20"/>
<path d="M27.53 19.1124V19.9077H27.4321C27.3583 19.8093 27.26 19.7306 27.1466 19.6791C27.0382 19.6147 26.9161 19.5752 26.7897 19.5635L26.7558 19.4407C26.8561 19.3759 26.9639 19.3231 27.077 19.2832L27.4265 19.1542V19.1124H26.6836V19.0234H27.6425V19.1124H27.53ZM27.4265 19.2707C27.2583 19.3313 27.0934 19.4002 26.9324 19.4771C27.1135 19.5381 27.2811 19.6317 27.4265 19.7529V19.2707Z" fill="#231F20"/>
<path d="M27.6016 19.0234H28.6264V19.1124H27.6016V19.0234ZM28.1845 19.9015C28.1226 19.8998 28.0617 19.8852 28.006 19.8589C27.9503 19.8325 27.901 19.7948 27.8615 19.7485C27.7763 19.6583 27.7136 19.5502 27.6784 19.4326L27.7425 19.3677C27.776 19.4718 27.8287 19.5692 27.8981 19.655C27.9293 19.6998 27.9707 19.7369 28.0191 19.7635C28.0676 19.79 28.1217 19.8052 28.1772 19.808C28.2133 19.8093 28.2493 19.8022 28.2822 19.7876C28.3151 19.7729 28.3439 19.751 28.3666 19.7235C28.4131 19.6685 28.4378 19.599 28.4361 19.5278C28.3759 19.5731 28.3026 19.5986 28.2266 19.6008C28.161 19.6021 28.0975 19.5788 28.0491 19.5358C28.0241 19.5159 28.004 19.4908 27.9904 19.4623C27.9767 19.4338 27.9699 19.4027 27.9704 19.3713C27.9676 19.3144 27.988 19.2588 28.0271 19.2165C28.0479 19.1969 28.0726 19.1817 28.0997 19.1719C28.1268 19.1621 28.1556 19.1579 28.1845 19.1595C28.228 19.1579 28.2708 19.1704 28.3062 19.1951C28.3222 19.2074 28.3349 19.2233 28.3432 19.2414C28.3515 19.2596 28.3552 19.2794 28.3538 19.2992C28.3522 19.3193 28.3462 19.3387 28.3363 19.3564C28.3264 19.374 28.3127 19.3894 28.2961 19.4015L28.2238 19.349C28.235 19.3436 28.2444 19.3352 28.2509 19.3248C28.2574 19.3144 28.2607 19.3025 28.2605 19.2903C28.2605 19.2565 28.2385 19.2396 28.1946 19.2396C28.1786 19.2391 28.1627 19.2419 28.1479 19.2477C28.1331 19.2535 28.1197 19.2623 28.1085 19.2734C28.0968 19.2851 28.0878 19.2991 28.082 19.3144C28.0761 19.3297 28.0737 19.3461 28.0747 19.3624C28.0741 19.382 28.078 19.4015 28.086 19.4195C28.0941 19.4375 28.1062 19.4535 28.1213 19.4664C28.1515 19.4933 28.1912 19.508 28.2321 19.5073C28.2751 19.5068 28.3174 19.4974 28.3564 19.4798C28.3953 19.4622 28.43 19.4367 28.4581 19.405L28.5569 19.5047C28.5595 19.6066 28.5245 19.706 28.4581 19.7849C28.425 19.8243 28.383 19.8557 28.3354 19.8767C28.2878 19.8977 28.2358 19.9077 28.1836 19.9059" fill="#231F20"/>
<path d="M28.8404 19.1124V19.9059H28.7343V19.1124H28.6016V19.0234H28.9676V19.1124H28.8404Z" fill="#231F20"/>
<path d="M29.369 19.9646C29.2847 19.9752 29.1994 19.9545 29.1301 19.9068C29.0555 19.8306 29.0094 19.7323 28.9991 19.6277C28.9888 19.523 29.015 19.418 29.0733 19.3295C29.1254 19.2524 29.1842 19.1797 29.249 19.1124H28.9297V19.0234H29.4421V19.1124C29.3499 19.1503 29.2699 19.2118 29.2106 19.2903C29.1444 19.3647 29.1063 19.4588 29.1027 19.5572C29.1027 19.7707 29.1942 19.8774 29.3772 19.8774C29.4072 19.8757 29.4358 19.8644 29.4586 19.8454V19.9486C29.4304 19.9627 29.3988 19.9695 29.3671 19.9682" fill="#231F20"/>
<path d="M30.0586 19.1124V19.8952H29.9525V19.3731C29.9438 19.3392 29.9282 19.3074 29.9067 19.2796C29.8829 19.2336 29.8469 19.1947 29.8023 19.1669C29.7577 19.1392 29.7061 19.1237 29.6532 19.1221C29.6106 19.125 29.5707 19.1434 29.5416 19.1737C29.5315 19.1835 29.5096 19.204 29.4739 19.2343C29.5102 19.2195 29.5489 19.2111 29.5883 19.2093C29.6348 19.2083 29.6805 19.2213 29.7191 19.2467C29.738 19.2593 29.7533 19.2764 29.7637 19.2963C29.7741 19.3162 29.7793 19.3383 29.7786 19.3606C29.7782 19.4264 29.7528 19.4898 29.7072 19.5385C29.6649 19.5913 29.6081 19.6313 29.5434 19.6542L29.4748 19.5652C29.5231 19.5474 29.5669 19.5194 29.6029 19.4833C29.6229 19.4683 29.6396 19.4496 29.652 19.4282C29.6645 19.4068 29.6723 19.3832 29.6752 19.3588C29.6752 19.3339 29.6459 19.3143 29.5837 19.2992C29.5453 19.2884 29.5056 19.2827 29.4656 19.2823C29.4528 19.2823 29.4401 19.2847 29.4281 19.2894L29.375 19.1915C29.4113 19.1518 29.4504 19.1146 29.4921 19.0803C29.5353 19.0476 29.5884 19.0297 29.6432 19.0296C29.7059 19.0312 29.767 19.0489 29.8203 19.081C29.8737 19.113 29.9174 19.1582 29.9469 19.212V19.0234H30.1693V19.1124H30.0586Z" fill="#231F20"/>
<path d="M30.9706 19.1124V19.9077H30.8727C30.8019 19.8112 30.7075 19.7333 30.5982 19.6808C30.4918 19.618 30.3718 19.5799 30.2477 19.5696L30.2139 19.4478C30.419 19.3271 30.6372 19.2286 30.8645 19.1542V19.1124H30.1406V19.0234H31.0685V19.1124H30.977H30.9706ZM30.8663 19.2707C30.6997 19.3266 30.5392 19.3981 30.3868 19.4842C30.5633 19.5413 30.7263 19.6321 30.8663 19.7512V19.2707ZM30.5918 19.9362C30.5462 19.8947 30.494 19.8608 30.4372 19.8357L30.4829 19.752C30.548 19.7795 30.6061 19.8205 30.6531 19.8721L30.5918 19.9362Z" fill="#231F20"/>
<path d="M32.4891 18.8706C32.3552 18.7756 32.1968 18.7186 32.0316 18.706C31.9369 18.7009 31.8433 18.7283 31.7672 18.7833C31.7308 18.8126 31.702 18.8497 31.683 18.8917C31.6641 18.9338 31.6556 18.9795 31.6582 19.0253H31.7699V19.1143H31.6582V19.9052H31.5494V19.1143H31.4414V19.0253H31.5549C31.5519 18.9663 31.563 18.9075 31.5875 18.8534C31.6119 18.7994 31.649 18.7516 31.6958 18.714C31.793 18.6412 31.9136 18.6043 32.0362 18.6099C32.1286 18.6104 32.2198 18.6295 32.3043 18.6659C32.3883 18.7041 32.4691 18.7487 32.5459 18.7994L32.4891 18.8706Z" fill="#231F20"/>
<path d="M32.3014 19.1124V19.4549L32.6015 19.3374L32.693 19.4202C32.698 19.4526 32.7007 19.4853 32.7012 19.518C32.7069 19.6208 32.6719 19.7217 32.6033 19.8001C32.5668 19.8369 32.5226 19.8656 32.4737 19.8844C32.4247 19.9031 32.3721 19.9114 32.3196 19.9086C32.2561 19.9075 32.1935 19.8931 32.1362 19.8664C32.0789 19.8396 32.0282 19.8013 31.9875 19.7538C31.902 19.6608 31.837 19.5518 31.7963 19.4335L31.8795 19.3802C31.9851 19.6654 32.1351 19.8078 32.3297 19.8072C32.3642 19.8069 32.3982 19.7997 32.4297 19.7861C32.4612 19.7725 32.4894 19.7527 32.5127 19.728C32.5378 19.7038 32.5578 19.675 32.5713 19.6432C32.5848 19.6114 32.5916 19.5773 32.5914 19.543C32.5913 19.5124 32.5851 19.4822 32.5731 19.454L32.2986 19.5696L32.1924 19.4878V19.1124H31.7148V19.0234H32.768V19.1124H32.3014Z" fill="#231F20"/>
<path d="M33.7837 18.8706C33.6497 18.7757 33.4914 18.7187 33.3262 18.706C33.2314 18.701 33.1379 18.7283 33.0617 18.7834C33.0253 18.8125 32.9964 18.8497 32.9775 18.8918C32.9586 18.9338 32.9501 18.9795 32.9528 19.0253H33.0644V19.1143H32.9528V19.9052H32.8439V19.1143H32.7305V19.0253H32.8439C32.8409 18.9663 32.8521 18.9075 32.8766 18.8535C32.901 18.7994 32.9381 18.7517 32.9849 18.7141C33.0824 18.6412 33.2033 18.6042 33.3262 18.6099C33.4182 18.6105 33.5092 18.6295 33.5933 18.6659C33.6774 18.704 33.7582 18.7487 33.8349 18.7994L33.7837 18.8706Z" fill="#231F20"/>
<path d="M33.7016 19.1115C33.7153 19.1611 33.7468 19.2043 33.7905 19.2332C33.8341 19.2621 33.8871 19.2747 33.9395 19.2689C33.9557 19.2699 33.9719 19.2699 33.988 19.2689L34.0686 19.3641C34.0189 19.4502 33.9877 19.5453 33.977 19.6435C33.968 19.7353 33.9855 19.8277 34.0274 19.9104L33.9551 19.9477C33.9043 19.8751 33.8781 19.789 33.8801 19.7013C33.88 19.6469 33.8861 19.5925 33.8983 19.5394C33.9038 19.5169 33.92 19.4605 33.9469 19.3704C33.8676 19.3623 33.7915 19.3354 33.7254 19.2921C33.6919 19.2718 33.6629 19.2452 33.6401 19.2139C33.6173 19.1826 33.6012 19.1471 33.5927 19.1097C33.5453 19.1359 33.5051 19.1729 33.4756 19.2175C33.4461 19.2622 33.4282 19.3131 33.4234 19.3659C33.4234 19.4255 33.4482 19.4549 33.4985 19.4549C33.5279 19.4539 33.5565 19.4457 33.5817 19.4309C33.6075 19.4183 33.6292 19.3989 33.644 19.3748H33.7528C33.7803 19.4276 33.7923 19.4866 33.7876 19.5456C33.7876 19.7472 33.6787 19.8481 33.461 19.8481C33.4173 19.8473 33.3743 19.8366 33.3356 19.817C33.3182 19.809 33.2807 19.7876 33.2249 19.7529C33.1892 19.6986 33.1435 19.6141 33.084 19.4993L33.1443 19.4433C33.1813 19.5364 33.2329 19.6235 33.2972 19.7013L33.3026 19.6942L33.3758 19.7298C33.3997 19.7428 33.4263 19.7501 33.4536 19.7511C33.511 19.7535 33.5674 19.7369 33.6138 19.704C33.6363 19.6871 33.6543 19.6652 33.6663 19.6401C33.6782 19.615 33.6837 19.5875 33.6824 19.5599C33.6831 19.5281 33.6734 19.497 33.6549 19.4709C33.6348 19.4953 33.6095 19.5152 33.5808 19.5294C33.5521 19.5435 33.5205 19.5514 33.4884 19.5527C33.4639 19.5541 33.4395 19.5499 33.4171 19.5403C33.3946 19.5307 33.3748 19.5161 33.3594 19.4976C33.3283 19.4581 33.3124 19.4093 33.3145 19.3597C33.3225 19.2678 33.361 19.181 33.4243 19.1123H33.0117V19.0234H34.1463V19.1123L33.7016 19.1115Z" fill="#231F20"/>
<path d="M34.3158 19.1138V19.8068H34.3743C34.4687 19.8081 34.5617 19.7844 34.6433 19.7383C34.6871 19.7224 34.7254 19.6947 34.7538 19.6585C34.7821 19.6223 34.7993 19.579 34.8034 19.5337C34.8034 19.4448 34.7586 19.3958 34.6689 19.3958C34.6203 19.4045 34.5739 19.4226 34.5326 19.4492L34.4905 19.3602C34.5553 19.3162 34.633 19.2937 34.712 19.2962C34.7414 19.2952 34.7707 19.3012 34.7973 19.3135C34.824 19.3259 34.8471 19.3444 34.8648 19.3674C34.8985 19.4148 34.9155 19.4716 34.9132 19.5293C34.9118 19.5763 34.8992 19.6223 34.8765 19.6638C34.8539 19.7053 34.8217 19.7411 34.7824 19.7686C34.7074 19.8281 34.6185 19.8687 34.5235 19.8869C34.4195 19.9036 34.3141 19.9107 34.2087 19.9082V19.1147H34.1172V19.0257H34.7577V18.9981C34.7578 18.9698 34.751 18.942 34.7378 18.9167C34.7245 18.8915 34.7053 18.8697 34.6817 18.8532C34.6351 18.8184 34.5776 18.8002 34.5189 18.8016C34.4065 18.8122 34.2982 18.8478 34.2023 18.9056L34.1703 18.8327C34.2768 18.7628 34.4014 18.7234 34.5299 18.7188C34.6175 18.7174 34.7022 18.7493 34.766 18.8078C34.798 18.8353 34.8233 18.8693 34.8404 18.9075C34.8575 18.9456 34.8658 18.9868 34.8648 19.0284H34.9865V19.1174L34.3158 19.1138Z" fill="#231F20"/>
<path d="M35.2045 19.1124V19.9059H35.0975V19.1124H34.9648V19.0234H35.3262V19.1124H35.2045Z" fill="#231F20"/>
<path d="M36.27 19.1145V19.908H36.1703C36.1703 19.8893 36.1703 19.8617 36.1703 19.8262C36.1703 19.7906 36.1703 19.763 36.1703 19.7443C36.1703 19.5575 36.1218 19.464 36.0239 19.464C36.0056 19.4647 35.9877 19.4698 35.9718 19.4786C35.9559 19.4874 35.9424 19.4998 35.9324 19.5148C35.9097 19.5432 35.896 19.5776 35.893 19.6135H35.7704C35.7683 19.575 35.7546 19.5379 35.7311 19.5068C35.7202 19.4901 35.7051 19.4763 35.6873 19.4668C35.6694 19.4572 35.6494 19.4522 35.629 19.4522C35.6087 19.4522 35.5887 19.4572 35.5708 19.4668C35.553 19.4763 35.5379 19.4901 35.527 19.5068C35.5033 19.5415 35.4915 19.5826 35.4931 19.6242C35.4931 19.7221 35.5542 19.771 35.6762 19.771H35.7146L35.6789 19.8742H35.6377C35.6025 19.8752 35.5674 19.8691 35.5348 19.856C35.5021 19.843 35.4726 19.8234 35.4483 19.7986C35.3989 19.7473 35.3723 19.6793 35.3742 19.6091C35.3713 19.539 35.397 19.4706 35.4456 19.4187C35.4705 19.394 35.5005 19.3748 35.5336 19.3622C35.5668 19.3496 35.6022 19.344 35.6377 19.3457C35.6808 19.3486 35.7223 19.3626 35.7579 19.3864C35.7935 19.4102 35.8218 19.4429 35.84 19.481C35.9022 19.392 35.9653 19.3457 36.0303 19.3457C36.0953 19.3457 36.13 19.3876 36.1666 19.4721V19.1162H35.2891V19.0273H36.3707V19.1162H36.2654L36.27 19.1145Z" fill="#231F20"/>
<path d="M36.9157 19.5536C36.9159 19.6114 36.9291 19.6684 36.9542 19.7208C36.9627 19.7487 36.9798 19.7734 37.0032 19.7915C37.0266 19.8097 37.0552 19.8204 37.085 19.8223C37.1131 19.8217 37.1405 19.814 37.1646 19.8L37.1976 19.889C37.1653 19.9073 37.1287 19.9171 37.0914 19.9174C36.9133 19.9174 36.8242 19.7813 36.8242 19.5091C36.8371 19.4126 36.8703 19.3197 36.9216 19.2362C36.9729 19.1526 37.0413 19.0802 37.1225 19.0234H37.2771V19.1123C37.2253 19.1204 37.1757 19.1385 37.1313 19.1656C37.0868 19.1926 37.0484 19.228 37.0182 19.2698C36.952 19.35 36.9158 19.4507 36.9157 19.5536Z" fill="#231F20"/>
<path d="M38.1758 19.1124V19.9059H38.0761C38.0761 19.8872 38.0761 19.8597 38.0761 19.8241C38.0761 19.7885 38.0761 19.7609 38.0761 19.7422C38.0761 19.5554 38.0272 19.462 37.9296 19.462C37.9113 19.4627 37.8935 19.4677 37.8775 19.4765C37.8616 19.4853 37.8481 19.4977 37.8382 19.5127C37.8156 19.5412 37.8019 19.5755 37.7988 19.6115H37.6835C37.6817 19.5728 37.668 19.5356 37.6441 19.5047C37.6337 19.4884 37.6194 19.4748 37.6023 19.4652C37.5852 19.4556 37.566 19.4502 37.5462 19.4495C37.5252 19.4488 37.5043 19.4533 37.4856 19.4627C37.4668 19.472 37.4509 19.4859 37.4392 19.5029C37.4161 19.5379 37.4047 19.5789 37.4063 19.6204C37.4063 19.7182 37.4666 19.7671 37.5892 19.7671H37.6277L37.592 19.8703H37.5508C37.5155 19.8715 37.4804 19.8654 37.4478 19.8523C37.4151 19.8393 37.3857 19.8197 37.3614 19.7947C37.3148 19.7418 37.2892 19.6744 37.2892 19.6048C37.2892 19.5351 37.3148 19.4677 37.3614 19.4148C37.3863 19.3903 37.4161 19.3712 37.4491 19.3586C37.482 19.346 37.5173 19.3404 37.5527 19.3419C37.5956 19.3448 37.637 19.3588 37.6724 19.3826C37.7078 19.4064 37.736 19.4391 37.754 19.4771C37.8153 19.3882 37.8793 19.3419 37.9452 19.3419C38.0111 19.3419 38.0441 19.3837 38.0807 19.4682V19.1124H37.2031V19.0234H38.2856V19.1124H38.1804H38.1758Z" fill="#231F20"/>
<path d="M39.0943 19.1124V19.9059H38.9881V19.8454C38.9837 19.797 38.9692 19.7501 38.9455 19.7074C38.9217 19.6647 38.8892 19.6272 38.85 19.5972C38.783 19.5231 38.6894 19.4769 38.5883 19.4682C38.5509 19.468 38.5146 19.4813 38.4867 19.5056C38.4735 19.5166 38.4627 19.5302 38.4553 19.5456C38.4479 19.5609 38.444 19.5776 38.4437 19.5945C38.4433 19.612 38.4466 19.6293 38.4535 19.6454C38.4605 19.6615 38.4709 19.676 38.484 19.6879C38.5107 19.7124 38.5461 19.7259 38.5828 19.7253C38.6067 19.7251 38.6303 19.7202 38.6523 19.7111L38.6853 19.809C38.6433 19.8258 38.598 19.8333 38.5526 19.8312C38.5229 19.8316 38.4934 19.8256 38.4663 19.8136C38.4393 19.8016 38.4153 19.7839 38.3961 19.7618C38.3554 19.7172 38.3333 19.6595 38.3339 19.5999C38.3329 19.5686 38.3385 19.5375 38.3503 19.5085C38.3621 19.4794 38.3799 19.453 38.4026 19.4308C38.4244 19.4082 38.451 19.3903 38.4805 19.3784C38.5099 19.3664 38.5417 19.3607 38.5736 19.3615C38.6606 19.3671 38.7446 19.3947 38.8173 19.4415C38.89 19.4883 38.9489 19.5527 38.9881 19.6284V19.1124H38.2461V19.0234H39.1858V19.1124H39.0943Z" fill="#231F20"/>
<path d="M39.5925 19.9637C39.5082 19.9743 39.423 19.9536 39.3537 19.9059C39.3099 19.8612 39.2757 19.8086 39.2529 19.7511C39.2301 19.6935 39.2193 19.6322 39.221 19.5705C39.2229 19.4845 39.2495 19.4007 39.2978 19.3286C39.3494 19.2519 39.4076 19.1795 39.4717 19.1123H39.1523V19.0234H39.6647V19.1123C39.5723 19.1504 39.4921 19.2119 39.4324 19.2903C39.3664 19.3649 39.3283 19.4589 39.3243 19.5572C39.3243 19.7707 39.4158 19.8775 39.5988 19.8775C39.6291 19.8756 39.658 19.8644 39.6812 19.8454V19.9486C39.653 19.9627 39.6215 19.9695 39.5897 19.9682" fill="#231F20"/>
<path d="M39.7087 19.1127V19.4685C39.8419 19.3812 39.9838 19.3073 40.1324 19.2479L40.2367 19.3805C40.1922 19.4741 40.1652 19.5748 40.1571 19.6777C40.1597 19.755 40.1758 19.8314 40.2047 19.9036L40.1259 19.9392C40.0946 19.87 40.0746 19.7964 40.0665 19.7212C40.067 19.6107 40.0783 19.5005 40.1003 19.392C39.9507 19.4588 39.8122 19.5469 39.6895 19.6536L39.598 19.5718V19.1163H39.5156V19.0273H40.3081V19.1163H39.705L39.7087 19.1127Z" fill="#231F20"/>
<path d="M41.1178 19.1124V19.9059H41.0115V19.8454C41.0071 19.797 40.9926 19.7501 40.9689 19.7074C40.9451 19.6647 40.9126 19.6272 40.8734 19.5972C40.8064 19.5231 40.7127 19.477 40.6116 19.4682C40.5742 19.4679 40.538 19.4812 40.5101 19.5056C40.4968 19.5166 40.486 19.5302 40.4786 19.5455C40.4712 19.5609 40.4673 19.5776 40.4671 19.5945C40.4667 19.6119 40.4701 19.6292 40.4768 19.6452C40.4836 19.6613 40.4936 19.6758 40.5064 19.6879C40.5333 19.7126 40.5692 19.7261 40.6062 19.7253C40.6304 19.7252 40.6544 19.7203 40.6767 19.7111L40.7078 19.809C40.6658 19.8258 40.6205 19.8334 40.5751 19.8312C40.5455 19.8315 40.5161 19.8255 40.4892 19.8135C40.4623 19.8015 40.4385 19.7838 40.4195 19.7618C40.3785 19.7173 40.356 19.6596 40.3564 19.5999C40.3555 19.5686 40.3611 19.5376 40.3729 19.5085C40.3847 19.4795 40.4024 19.453 40.425 19.4308C40.4469 19.4082 40.4735 19.3904 40.503 19.3785C40.5324 19.3665 40.5642 19.3607 40.5961 19.3615C40.6832 19.367 40.7674 19.3946 40.8403 19.4414C40.9131 19.4882 40.9721 19.5526 41.0115 19.6284V19.1124H40.2695V19.0234H41.211V19.1124H41.1178Z" fill="#231F20"/>
<path d="M13.2577 13.3699C13.2577 13.3699 12.8486 13.4589 12.8596 13.2552C12.8651 13.1867 12.9072 13.1608 12.9511 13.1662C12.9511 13.1288 12.8715 13.0212 13.05 12.9794C13.1027 12.9181 13.1467 12.8502 13.1808 12.7774C13.1982 12.7258 13.2476 12.6546 13.4096 12.6885C13.5529 12.7267 13.6806 12.8068 13.7756 12.918C13.8671 12.918 13.9696 12.9349 13.9339 12.9536C13.8982 12.9723 13.8771 13.0069 13.8845 13.0123C13.8918 13.0176 13.9431 13.0461 13.7774 13.0496C13.7829 13.0834 13.8149 13.0923 13.8433 13.1083C13.8717 13.1244 13.8351 13.1457 13.8433 13.1529C13.8515 13.16 13.8662 13.2418 13.7829 13.2062C13.6996 13.1707 13.6914 13.1475 13.6704 13.1511C13.6493 13.1546 13.5871 13.1635 13.5962 13.1858C13.6054 13.208 13.6878 13.2596 13.5834 13.2747C13.5624 13.2934 13.6164 13.3227 13.5761 13.3379C13.5359 13.353 13.3611 13.4864 13.2769 13.5158C13.1945 13.5158 13.168 13.4935 13.1753 13.4606C13.1826 13.4277 13.2193 13.4028 13.2723 13.3975C13.2723 13.3752 13.2787 13.3583 13.265 13.3601" fill="#EC1C24"/>
<path d="M13.2202 13.7972C13.1799 13.7972 13.0637 13.7216 13.1287 13.6789C13.2547 13.5924 13.3871 13.5151 13.5249 13.4476C13.5853 13.4307 13.6658 13.509 13.5917 13.5686C13.5175 13.6282 13.2256 13.7981 13.2256 13.7981" fill="#EC1C24"/>
<path d="M13.6445 13.6048C13.6539 13.5217 13.6692 13.4394 13.6903 13.3584C13.6903 13.3246 13.8294 13.3104 13.7973 13.4545C13.7653 13.5986 13.6519 13.6493 13.6445 13.6048Z" fill="#EC1C24"/>
<path d="M13.8388 13.2935C14.1131 13.2771 14.3881 13.2771 14.6623 13.2935C14.7583 13.3984 14.831 13.5213 14.8759 13.6546C14.9207 13.788 14.9368 13.9289 14.9231 14.0685C14.86 14.4163 14.7493 14.5053 14.257 14.5622C14.2537 14.3991 14.2288 14.2369 14.1828 14.08C14.1344 14.0008 13.9697 13.8185 13.8937 13.8212C13.8937 13.9021 13.8782 14.1441 13.8782 14.1441C13.8782 14.1441 13.6347 14.161 13.6036 14.1121C13.5991 14.0231 13.6036 13.7491 13.6036 13.7491C13.6912 13.6785 13.7709 13.5992 13.8416 13.5125C13.8782 13.5321 13.8836 13.6449 14.1572 13.62C14.1518 13.5942 13.8324 13.6264 13.8416 13.2945" fill="#EC1C24"/>
<path d="M13.5458 13.6172C13.5458 13.6172 13.3042 13.8156 13.2566 13.8529C13.231 13.917 13.2035 14.1198 13.5183 14.1198C13.5384 13.9961 13.5458 13.6172 13.5458 13.6172Z" fill="#EC1C24"/>
<path d="M12.9656 13.92C12.8924 13.92 12.8284 13.9014 12.8366 13.8418C12.8503 13.8066 12.8759 13.777 12.9091 13.7578C12.9423 13.7385 12.9813 13.7308 13.0196 13.7359C13.0882 13.7501 13.2026 13.7804 13.2026 14.0348C13.3068 14.1331 13.4438 14.1918 13.5888 14.2002C13.7718 14.21 13.8852 14.1878 13.8852 14.242V14.5872C13.6002 14.5219 13.3355 14.3907 13.1138 14.2047C13.0893 14.1804 13.0704 14.1514 13.0583 14.1195C13.0461 14.0876 13.041 14.0536 13.0434 14.0196C13.0388 13.9627 12.9976 13.92 12.972 13.9191" fill="#EC1C24"/>
<path d="M12.7982 13.9609C12.7067 13.9609 12.4404 14.1762 12.6371 14.2661C12.6746 14.2337 12.7095 14.1986 12.7414 14.1611C12.7414 14.1611 12.6929 14.2856 12.7973 14.3168C12.9016 14.3479 12.8613 14.2545 12.9181 14.2581C12.9501 14.3088 12.9583 14.3399 13.0095 14.3399C13.0608 14.3399 13.0773 14.1878 13.0095 14.1015C12.9418 14.0152 12.897 13.9645 12.7963 13.9609" fill="#EC1C24"/>
<path d="M13.9336 13.9883V14.6706C13.9336 14.6706 14.1679 14.6003 14.1908 14.5434C14.1816 14.425 14.1432 13.9839 13.9336 13.9883Z" fill="#EC1C24"/>
<path d="M13.3729 14.4384C13.5148 14.5326 13.6642 14.6159 13.8195 14.6875C13.7947 14.7177 13.6785 14.8654 13.6364 14.8521C13.5134 14.7379 13.4221 14.5953 13.3711 14.4375" fill="#EC1C24"/>
<path d="M12.4052 14.8308H12.0511L12.0273 14.6992H12.4052V14.8308Z" fill="#EC1C24"/>
<path d="M14.8077 14.8211H16.1171V14.6289H14.5469L14.8077 14.8211Z" fill="#EC1C24"/>
<path d="M14.2518 14.617C14.2802 14.5885 14.4595 14.7317 14.4083 14.7584C14.2199 14.846 14.0236 14.9163 13.8218 14.9683C13.7742 14.9523 13.7897 14.8322 13.8373 14.8082C13.9839 14.7634 14.1234 14.699 14.2518 14.617Z" fill="#EC1C24"/>
<path d="M13.7071 14.9391C13.6485 14.9097 13.3347 15.206 13.4719 15.2273C13.6607 15.2556 13.8472 15.2967 14.0301 15.3501C14.1079 15.3163 14.1811 15.2531 14.1674 15.2166C14.2213 15.2166 14.3129 15.3003 14.3824 15.2691C14.5542 15.169 14.7157 15.0531 14.8646 14.923C14.7735 14.8458 14.6641 14.7917 14.5462 14.7656C14.4766 14.7656 13.9588 15.0654 13.7053 14.9435" fill="#EC1C24"/>
<path d="M13.5425 15.313C13.7147 15.3724 13.8924 15.4153 14.0732 15.4411C14.173 15.4224 14.1922 15.3281 14.248 15.3335C14.3038 15.3388 14.3313 15.3886 14.4255 15.3335C14.5302 15.2643 14.6276 15.1853 14.7165 15.0977C14.722 15.1582 14.7165 15.3228 14.3505 15.4829C13.9845 15.643 13.138 15.8788 13.1161 15.9918C13.1901 15.9916 13.2626 15.9716 13.3256 15.9339C13.3697 15.9747 13.4027 16.0255 13.4216 16.0817C13.4404 16.1379 13.4446 16.1978 13.4336 16.256C13.4117 16.4339 13.2717 16.7409 13.2717 16.8271C13.2717 16.9134 13.2634 17.2933 13.2717 17.3324C13.2799 17.3716 13.3449 17.5895 13.2369 17.5735C13.1662 17.5592 13.0937 17.5556 13.0218 17.5628C12.9788 17.5708 12.8928 17.6385 12.8169 17.6287C12.7409 17.6189 12.6119 17.5816 12.6174 17.5451C12.6229 17.5086 12.7089 17.5086 12.7794 17.4819C12.8498 17.4552 12.901 17.3769 13.041 17.3271C13.0356 17.2381 12.9944 16.5762 12.9944 16.4374C12.9675 16.2547 12.9725 16.0688 13.009 15.8877C13.0722 15.7649 13.3961 15.3112 13.5462 15.3174" fill="#EC1C24"/>
<path d="M14.0589 15.7096C14.0488 15.7523 14.3041 16.3519 14.413 16.3617C14.8486 16.2861 15.2887 16.2376 15.7307 16.2167C15.7883 16.2923 15.9137 16.4373 15.9045 16.5174C15.916 16.5856 15.9194 16.6548 15.9146 16.7238C15.9429 16.7255 15.9712 16.7194 15.996 16.706C16.0208 16.6925 16.0412 16.6725 16.0546 16.6482C16.0653 16.5266 16.0696 16.4045 16.0674 16.2825C16.0747 16.2363 16.1955 15.9996 16.0317 16.0041C15.7685 16.0143 15.5049 16.0021 15.2439 15.9676C15.056 15.91 14.858 15.89 14.6619 15.9089C14.5781 15.9598 14.5137 16.036 14.4789 16.1259C14.4432 16.1339 14.4322 16.0993 14.4679 15.997C14.5475 15.8153 14.5969 15.6225 14.6143 15.4258C14.4899 15.4685 14.0653 15.7096 14.0653 15.7096" fill="#EC1C24"/>
<path d="M13.4815 14.7626C13.4921 14.8 13.5115 14.8344 13.5382 14.8631L12.7248 14.8124C12.7248 14.8124 12.6333 14.7555 12.668 14.7422L13.4815 14.7626Z" fill="#EC1C24"/>
<path d="M12.5921 14.6985H13.4056C13.3711 14.6532 13.3431 14.6035 13.3223 14.5508C13.1796 14.5508 12.572 14.5624 12.572 14.5624C12.572 14.5624 12.4805 14.5562 12.4805 14.711C12.4805 14.7528 12.5455 14.8151 12.5885 14.6994" fill="#EC1C24"/>
<path d="M11.8093 14.8303H11.9758C11.9758 14.8303 12.0298 14.808 11.9758 14.7413C11.9218 14.6745 11.8166 14.6443 11.8925 14.5349C11.8138 14.5215 11.6985 14.4984 11.7177 14.7413H11.6372C11.624 14.6972 11.5951 14.6591 11.5558 14.6337C11.5164 14.6084 11.4691 14.5973 11.4222 14.6025C11.199 14.6387 10.9812 14.7012 10.7734 14.7884C10.9873 14.8483 11.2049 14.8946 11.425 14.9272C11.4685 14.9231 11.5105 14.9097 11.5482 14.888C11.5858 14.8663 11.6181 14.8369 11.6427 14.8017H11.7077C11.7225 14.8495 11.7434 14.8952 11.7699 14.9379C11.7699 15.0037 11.7699 15.0918 11.7699 15.0918C11.7466 15.1012 11.7273 15.1181 11.715 15.1395C11.7027 15.161 11.6982 15.1859 11.7022 15.2101C11.7132 15.2991 11.7644 15.2991 11.78 15.2991C11.7955 15.2991 11.8175 15.2706 11.8825 15.2706C11.897 15.2416 11.8998 15.2082 11.8903 15.1773C11.8809 15.1463 11.8598 15.1199 11.8312 15.1033C11.8312 15.0508 11.8257 14.993 11.8257 14.993C11.8257 14.993 11.8934 14.9512 11.8852 14.9139C11.877 14.8765 11.8074 14.8783 11.8074 14.8249" fill="#EC1C24"/>
<path d="M12.7962 15.5951H12.8007C12.8376 15.5673 12.8639 15.5285 12.8758 15.4847V15.4785C12.8758 15.4785 12.8685 15.1173 12.8685 15.0133C12.8685 14.894 12.6616 14.8166 12.6534 14.8131L12.6406 14.8086L12.6305 14.8175C12.5991 14.8467 12.5597 14.8664 12.5171 14.8745C12.4922 14.8759 12.4673 14.8715 12.4445 14.8615C12.4217 14.8516 12.4017 14.8365 12.3862 14.8175L12.3798 14.8113H12.3707C12.2041 14.8113 12.1236 15.0061 12.1199 15.0141V15.0212C12.1116 15.1646 12.1116 15.3084 12.1199 15.4518C12.1357 15.4965 12.1606 15.5377 12.1931 15.5728C12.1602 15.6867 11.9909 16.3041 12.2178 16.3824V16.4882H12.7669V16.377C12.9737 16.288 12.8419 15.7543 12.798 15.5977M12.1666 15.0266C12.1767 15.0034 12.2453 14.8602 12.3661 14.854C12.3854 14.8749 12.4094 14.8914 12.4361 14.9022C12.4629 14.9129 12.4918 14.9178 12.5207 14.9163C12.5699 14.9099 12.6158 14.8891 12.6525 14.8567C12.7101 14.8807 12.8282 14.9456 12.8282 15.0123C12.8282 15.112 12.8346 15.4402 12.8355 15.4758C12.8267 15.5063 12.8092 15.5338 12.7852 15.555H12.6772V15.3531H12.3112V15.5497H12.2362C12.2073 15.5189 12.1849 15.483 12.1703 15.4438C12.1623 15.3055 12.1623 15.1667 12.1703 15.0284M12.55 16.2952H12.4512C12.4396 16.2952 12.4286 16.2907 12.4205 16.2828C12.4123 16.2749 12.4077 16.2641 12.4077 16.2529C12.4077 16.2417 12.4123 16.231 12.4205 16.2231C12.4286 16.2152 12.4396 16.2107 12.4512 16.2107H12.55C12.5615 16.2107 12.5726 16.2152 12.5807 16.2231C12.5889 16.231 12.5935 16.2417 12.5935 16.2529C12.5935 16.2641 12.5889 16.2749 12.5807 16.2828C12.5726 16.2907 12.5615 16.2952 12.55 16.2952ZM12.755 16.3388L12.4869 16.0479L12.2407 16.345C12.0751 16.2925 12.1803 15.797 12.2407 15.5906L12.7559 15.5986C12.8145 15.8032 12.9087 16.2649 12.755 16.3388Z" fill="#EC1C24"/>
<path d="M12.6779 15.8013C12.6953 15.7799 12.7033 15.7526 12.7002 15.7255C12.6971 15.6984 12.6832 15.6735 12.6615 15.6562H12.3403C12.2378 15.6562 12.2707 15.7951 12.2707 15.7951L12.4739 15.9641C12.5517 15.9227 12.6209 15.8675 12.6779 15.8013Z" fill="#EC1C24"/>
<path d="M12.5469 15.994L12.739 16.2191C12.739 16.2191 12.7189 15.9522 12.7116 15.8633C12.6658 15.8704 12.5469 15.9913 12.5469 15.9913" fill="#EC1C24"/>
<path d="M12.2619 15.8672C12.2545 15.9562 12.2344 16.2231 12.2344 16.2231L12.4266 15.998C12.4266 15.998 12.3076 15.877 12.2619 15.8699" fill="#EC1C24"/>
<path d="M12.6414 15.2837H12.6753V15.2516C12.6753 15.2429 12.6717 15.2346 12.6654 15.2284C12.659 15.2222 12.6504 15.2188 12.6414 15.2188H12.3386C12.3296 15.2188 12.321 15.2222 12.3146 15.2284C12.3083 15.2346 12.3047 15.2429 12.3047 15.2516V15.2837H12.6414Z" fill="#EC1C24"/>
<path d="M12.2036 16.5156H12.168V16.5512C12.168 16.5605 12.1717 16.5694 12.1783 16.576C12.185 16.5827 12.1941 16.5866 12.2036 16.5868H12.7691C12.7788 16.5868 12.7881 16.583 12.795 16.5764C12.8019 16.5697 12.8057 16.5607 12.8057 16.5512V16.5156H12.2036Z" fill="#EC1C24"/>
<path d="M44 0.5H4C2.067 0.5 0.5 2.067 0.5 4V24C0.5 25.933 2.067 27.5 4 27.5H44C45.933 27.5 47.5 25.933 47.5 24V4C47.5 2.067 45.933 0.5 44 0.5Z" stroke="#EBF0F5"/>
</g>
<defs>
<clipPath id="clip0_2702_52579">
<rect width="48" height="28" fill="white"/>
</clipPath>
</defs>
</svg>
