<svg width="48" height="28" viewBox="0 0 48 28" fill="none" xmlns="http://www.w3.org/2000/svg">
<g clip-path="url(#clip0_2702_52684)">
<path d="M44 0.5H4C2.067 0.5 0.5 2.067 0.5 4V24C0.5 25.933 2.067 27.5 4 27.5H44C45.933 27.5 47.5 25.933 47.5 24V4C47.5 2.067 45.933 0.5 44 0.5Z" fill="white"/>
<mask id="mask0_2702_52684" style="mask-type:luminance" maskUnits="userSpaceOnUse" x="8" y="4" width="32" height="20">
<path d="M39.2204 4H8.77734V24H39.2204V4Z" fill="white"/>
</mask>
<g mask="url(#mask0_2702_52684)">
<path d="M26.0963 4.21466C26.5993 3.92723 27.246 4.16675 27.5334 4.62184C28.0125 5.38831 28.4436 6.17873 28.8987 6.96915C29.4496 6.4422 30.1921 6.08292 30.9825 6.13082C31.5813 6.10687 32.1322 6.68172 32.1083 7.28052C32.1083 8.47813 32.1322 9.67573 32.1083 10.8733C32.6352 10.6098 33.234 10.5619 33.8089 10.7057C34.3837 10.9452 34.767 11.4961 34.9346 12.0709C35.4616 11.6158 35.9406 11.0889 36.5394 10.7057C37.3298 10.4901 38.2879 10.7057 38.767 11.4242C39.27 12.1428 39.1023 13.2206 38.4795 13.8194C37.9286 14.3943 37.3298 14.9452 36.7789 15.52C37.4017 16.1188 38.0005 16.7416 38.5993 17.3643C39.2939 18.0829 39.1742 19.3763 38.3837 19.9751C37.7849 20.4781 36.8508 20.5021 36.1801 20.1188C35.7251 19.7835 35.3658 19.3524 34.9346 18.9691C34.767 19.5919 34.3119 20.1907 33.6652 20.3584C32.8508 20.4063 32.0604 20.3823 31.246 20.3823C31.246 19.8075 31.246 19.2326 31.246 18.6817C30.5514 19.4961 29.5933 20.1428 28.5634 20.4302C27.6532 20.4781 26.743 20.4542 25.8328 20.4542C25.1382 20.4542 24.6113 19.9272 24.1801 19.4482C23.0544 21.6518 20.8748 23.3045 18.4316 23.7116C16.3957 24.0949 14.2161 23.6398 12.5155 22.4422C10.7191 21.2685 9.47358 19.3524 9.1143 17.2685C8.73107 15.2326 9.21011 13.053 10.3598 11.3524C11.6292 9.46016 13.737 8.16675 15.9885 7.90328C19.1262 7.44819 22.4077 9.10088 23.9646 11.8554C24.1801 11.6398 24.3957 11.4482 24.6113 11.2326C23.9167 10.5859 23.2221 9.91525 22.5993 9.17274C22.2161 8.43022 22.1442 7.49609 22.5993 6.75358C22.8388 6.3943 23.1023 5.93921 23.5813 5.86735C23.9885 5.74759 24.3718 5.8913 24.731 6.05897C24.8748 5.2446 25.4017 4.57394 26.0963 4.21466ZM25.5454 6.68172C25.9526 7.80747 26.7191 8.7416 27.1981 9.81945C26.264 8.83741 25.3059 7.90328 24.3718 6.92124C24.2041 6.75358 23.9885 6.49011 23.7251 6.65777C23.0544 7.16076 22.8867 8.23861 23.4616 8.88531C24.252 9.74759 25.1143 10.5619 25.9286 11.4003C25.0664 11.6398 24.5634 12.4302 23.9406 12.9811C23.6053 13.3643 23.0544 13.6757 23.1023 14.2506C23.1023 15.3524 23.1023 16.4302 23.1023 17.532C23.8448 17.3883 24.7071 17.1248 25.0664 16.3823C25.2101 15.8314 25.1143 15.2566 25.1382 14.6817C25.6652 14.1548 26.2161 13.5081 27.0304 13.5081C28.1083 13.3883 29.0903 14.2745 29.234 15.3045C29.3777 16.2386 28.6831 17.1488 27.8448 17.4841C27.2221 17.556 26.5035 17.6518 25.9526 17.3164C25.1861 16.9092 24.3239 17.3164 23.6532 17.7476C24.0843 18.1787 24.5394 18.6338 24.9706 19.0649C25.234 19.3045 25.4736 19.6158 25.8568 19.6158C26.6233 19.6398 27.3658 19.6158 28.1322 19.6398C28.731 19.6877 29.234 19.3524 29.7131 19.041C30.743 18.3943 31.3179 17.2446 31.5334 16.0709C31.6532 15.4003 31.3897 14.7536 31.2939 14.1069C31.246 11.7595 31.3179 9.38831 31.27 7.041C30.6472 6.92124 29.9286 7.11286 29.5454 7.66376C29.1861 8.16675 29.234 8.86136 29.4975 9.38831C29.5694 9.55597 29.6412 9.69969 29.6891 9.86735C29.5694 9.79549 29.3538 9.62783 29.234 9.55597L29.4736 9.50807C28.5394 7.99909 27.7251 6.41825 26.8149 4.88531C25.9765 5.05298 25.3777 5.86735 25.5454 6.68172ZM15.4855 8.81346C13.3538 9.2446 11.4376 10.7296 10.5274 12.7176C9.80891 14.1069 9.68915 15.6877 9.92867 17.1967C10.2879 18.9212 11.246 20.5021 12.6352 21.556C14.4795 22.9691 17.0424 23.4242 19.246 22.6817C21.1382 22.0829 22.743 20.6218 23.5574 18.8254C23.3658 18.6578 23.1981 18.4901 23.0065 18.3224C22.767 18.3703 22.5274 18.4182 22.2879 18.4422C22.2879 17.0051 22.24 15.544 22.2879 14.1069C22.2879 13.3883 22.8867 12.9092 23.3418 12.4542C22.7191 11.3763 21.8568 10.4182 20.8029 9.74759C19.246 8.7416 17.2819 8.43022 15.4855 8.81346ZM32.1083 12.023C32.1322 12.9572 32.0364 13.9152 32.228 14.8494C32.3478 15.5679 32.252 16.3104 32.1083 17.0051C32.0604 17.8673 32.1083 18.7536 32.0843 19.6158C32.755 19.6158 33.7131 19.7835 34.0963 19.017C34.1921 18.3224 34.1203 17.6278 34.1442 16.9092C34.9346 17.6997 35.7251 18.4901 36.5155 19.2805C36.755 19.5679 37.1622 19.5919 37.4975 19.52C38.1921 19.4482 38.4795 18.4182 38.0005 17.9392C37.234 17.0769 36.3957 16.3104 35.6053 15.4721C36.3957 14.6817 37.1861 13.9152 37.9526 13.1248C38.2879 12.8134 38.3119 12.3104 38.0963 11.9272C37.7849 11.4003 36.9706 11.2566 36.5394 11.6877C35.7251 12.4542 34.9346 13.2446 34.1442 14.035C34.1203 13.3883 34.1921 12.7416 34.0963 12.1188C33.9526 11.7116 33.5454 11.3763 33.1143 11.4242C32.6831 11.4482 32.3718 11.7595 32.1083 12.023ZM26.0245 14.9691C26.0245 15.4482 26.0005 15.9033 25.8807 16.3583C26.1442 16.4302 26.3837 16.55 26.5754 16.7176C27.0065 16.7176 27.4855 16.8134 27.8448 16.526C28.755 15.9991 28.4197 14.2985 27.3418 14.2745C26.7909 14.2027 26.4077 14.6578 26.0245 14.9691Z" fill="#212124"/>
<path d="M14.3833 13.1234C14.9581 12.9078 15.6767 13.4348 15.5569 14.0575C15.4851 14.7042 14.5989 15.0875 14.1198 14.6084C13.5929 14.2012 13.7845 13.315 14.3833 13.1234Z" fill="#212124"/>
<path d="M18.9336 13.1492C19.4845 12.9097 20.227 13.3408 20.1552 13.9636C20.227 14.6342 19.2689 15.1133 18.766 14.6342C18.239 14.251 18.3588 13.3887 18.9336 13.1492Z" fill="#212124"/>
<path d="M21.1395 15.832C21.4509 15.832 21.7623 15.832 22.0737 15.832C22.0737 17.6524 20.9958 19.4009 19.391 20.2392C17.7383 21.1254 15.6306 20.9817 14.0976 19.9278C12.7803 19.0176 11.918 17.4608 11.9419 15.832C12.3012 15.832 12.6366 15.832 12.9958 15.832C13.0198 17.341 13.9779 18.8021 15.3671 19.4009C16.8761 20.1194 18.8162 19.7602 19.9898 18.5626C20.7324 17.844 21.1156 16.838 21.1395 15.832Z" fill="#212124"/>
<path d="M25.5474 6.68313C25.3798 5.89271 25.9786 5.05439 26.769 4.88672C27.6313 6.3478 28.3977 7.85678 29.3079 9.29391C29.4037 9.43762 29.4995 9.55738 29.6433 9.65319L29.9067 9.82085C30.0265 9.89271 29.8828 9.94061 29.6672 9.89271C29.6193 9.72504 29.5474 9.55738 29.4756 9.41367C29.2121 8.86277 29.1642 8.19211 29.5235 7.68912C29.9067 7.16217 30.6013 6.9466 31.248 7.06636C31.3199 9.41367 31.248 11.7849 31.272 14.1322C31.3678 14.7789 31.6313 15.4257 31.5115 16.0963C31.3199 17.246 30.7451 18.4197 29.6912 19.0664C29.2121 19.3777 28.6852 19.7131 28.1103 19.6652C27.3439 19.6412 26.6013 19.6891 25.8349 19.6412C25.4516 19.6173 25.2121 19.3298 24.9486 19.0903C24.5175 18.6592 24.0624 18.2041 23.6313 17.773C24.3019 17.3418 25.1642 16.9346 25.9307 17.3418C26.5055 17.6771 27.2001 17.5813 27.8229 17.5095C28.6612 17.1742 29.3558 16.264 29.2121 15.3298C29.0924 14.2999 28.0864 13.4137 27.0085 13.5334C26.1942 13.5334 25.6433 14.1801 25.1163 14.7071C25.0924 15.258 25.1882 15.8568 25.0445 16.4077C24.7091 17.1502 23.8229 17.4137 23.0804 17.5574C23.0804 16.4556 23.0804 15.3777 23.0804 14.276C23.0085 13.7011 23.5834 13.3658 23.9187 13.0065C24.5654 12.4556 25.0445 11.6652 25.9067 11.4257C25.0924 10.5873 24.2301 9.77295 23.4397 8.91067C22.8648 8.28792 23.0325 7.21007 23.7031 6.68313C23.9666 6.51546 24.1582 6.80289 24.3498 6.9466C25.284 7.90468 26.2421 8.86277 27.1762 9.8448C26.7211 8.74301 25.9546 7.80888 25.5474 6.68313Z" fill="#FEE700"/>
<path d="M15.4848 8.81483C17.2812 8.4316 19.2453 8.74297 20.8022 9.74896C21.88 10.3957 22.7423 11.3538 23.3411 12.4556C22.886 12.9106 22.2872 13.3897 22.2872 14.1083C22.2393 15.5454 22.2872 17.0065 22.2872 18.4436C22.5267 18.3957 22.7663 18.3717 23.0058 18.3238C23.1974 18.4915 23.3651 18.6592 23.5567 18.8268C22.7423 20.6472 21.1375 22.1083 19.2453 22.6831C17.0417 23.4256 14.4788 22.9945 12.6345 21.5574C11.2213 20.5035 10.2633 18.8987 9.92793 17.1981C9.68841 15.6891 9.83213 14.0843 10.5267 12.719C11.4369 10.731 13.3531 9.24597 15.4848 8.81483ZM14.383 13.1262C13.7842 13.3178 13.5926 14.228 14.1196 14.6112C14.5986 15.0903 15.4609 14.7071 15.5567 14.0603C15.6764 13.4136 14.9579 12.8867 14.383 13.1262ZM18.9339 13.1502C18.3591 13.4136 18.2393 14.2759 18.7663 14.6352C19.2693 15.1142 20.2034 14.6352 20.1555 13.9645C20.2273 13.3178 19.4848 12.8867 18.9339 13.1502ZM21.1375 15.8328C21.0896 16.8388 20.7064 17.8448 19.9878 18.5633C18.8142 19.7609 16.874 20.1202 15.3651 19.4017C13.9519 18.8029 13.0178 17.3657 12.9938 15.8328C12.6345 15.8328 12.2992 15.8328 11.9399 15.8328C11.916 17.4376 12.7543 19.0184 14.0956 19.9286C15.6285 21.0065 17.7363 21.1262 19.389 20.24C20.9938 19.4017 22.0956 17.6532 22.0956 15.8328C21.7603 15.8328 21.4489 15.8328 21.1375 15.8328Z" fill="#FEE700"/>
<path d="M32.1065 12.0245C32.3699 11.7371 32.6813 11.4496 33.0885 11.4496C33.5196 11.4017 33.9268 11.761 34.0705 12.1442C34.1664 12.767 34.0945 13.4377 34.1185 14.0604C34.9089 13.2939 35.6993 12.4796 36.5137 11.7131C36.9688 11.282 37.7831 11.4257 38.0705 11.9526C38.2861 12.3359 38.2382 12.8389 37.9268 13.1502C37.1604 13.9407 36.3699 14.7071 35.5795 15.4975C36.3699 16.3119 37.2083 17.1023 37.9747 17.9646C38.4538 18.4436 38.1664 19.4736 37.4717 19.5454C37.1364 19.6173 36.7292 19.5694 36.4897 19.3059C35.6993 18.5155 34.9089 17.7251 34.1185 16.9347C34.0945 17.6293 34.1664 18.3478 34.0705 19.0424C33.7113 19.785 32.7532 19.6173 32.0586 19.6412C32.0825 18.779 32.0346 17.8927 32.0825 17.0305C32.2262 16.3119 32.322 15.5933 32.2023 14.8748C32.0107 13.9407 32.1304 12.9826 32.1065 12.0245Z" fill="#FEE700"/>
</g>
<path d="M44 0.5H4C2.067 0.5 0.5 2.067 0.5 4V24C0.5 25.933 2.067 27.5 4 27.5H44C45.933 27.5 47.5 25.933 47.5 24V4C47.5 2.067 45.933 0.5 44 0.5Z" stroke="#EBF0F5"/>
</g>
<defs>
<clipPath id="clip0_2702_52684">
<rect width="48" height="28" fill="white"/>
</clipPath>
</defs>
</svg>
