<svg width="16" height="17" viewBox="0 0 16 17" fill="none" xmlns="http://www.w3.org/2000/svg">
<mask id="mask0_2702_33124" style="mask-type:alpha" maskUnits="userSpaceOnUse" x="0" y="0" width="16" height="17">
<rect y="0.5" width="16" height="16" fill="#D9D9D9"/>
</mask>
<g mask="url(#mask0_2702_33124)">
<path d="M8.15785 8.74732C7.36759 8.74732 6.69112 8.46598 6.12843 7.90329C5.5656 7.34046 5.28418 6.66392 5.28418 5.87366C5.28418 5.0834 5.5656 4.40693 6.12843 3.84424C6.69112 3.28141 7.36759 3 8.15785 3C8.9481 3 9.62458 3.28141 10.1873 3.84424C10.7501 4.40693 11.0315 5.0834 11.0315 5.87366C11.0315 6.66392 10.7501 7.34046 10.1873 7.90329C9.62458 8.46598 8.9481 8.74732 8.15785 8.74732ZM2 13.7526V13.1746C2 12.7726 2.1092 12.4002 2.3276 12.0576C2.546 11.7149 2.83788 11.4515 3.20324 11.2673C4.01471 10.8695 4.83336 10.5711 5.6592 10.3722C6.48503 10.1732 7.31792 10.0737 8.15785 10.0737C8.99778 10.0737 9.83066 10.1732 10.6565 10.3722C11.4823 10.5711 12.301 10.8695 13.1124 11.2673C13.4778 11.4515 13.7697 11.7149 13.9881 12.0576C14.2065 12.4002 14.3157 12.7726 14.3157 13.1746V13.7526C14.3157 14.0988 14.1944 14.3933 13.9518 14.6361C13.7091 14.8787 13.4147 15 13.0683 15H3.24737C2.90103 15 2.60655 14.8787 2.36393 14.6361C2.12131 14.3933 2 14.0988 2 13.7526ZM3.23157 13.7684H13.0841V13.1746C13.0841 13.0083 13.036 12.8544 12.9396 12.7128C12.8433 12.5713 12.7125 12.4558 12.5474 12.3663C11.8399 12.0179 11.1186 11.7539 10.3835 11.5744C9.64825 11.395 8.90637 11.3053 8.15785 11.3053C7.40933 11.3053 6.66744 11.395 5.9322 11.5744C5.19709 11.7539 4.4758 12.0179 3.76833 12.3663C3.60316 12.4558 3.47241 12.5713 3.37607 12.7128C3.27974 12.8544 3.23157 13.0083 3.23157 13.1746V13.7684ZM8.15785 7.51575C8.60942 7.51575 8.996 7.35497 9.31757 7.03339C9.63915 6.71181 9.79994 6.32524 9.79994 5.87366C9.79994 5.42209 9.63915 5.03551 9.31757 4.71393C8.996 4.39236 8.60942 4.23157 8.15785 4.23157C7.70627 4.23157 7.31969 4.39236 6.99812 4.71393C6.67654 5.03551 6.51575 5.42209 6.51575 5.87366C6.51575 6.32524 6.67654 6.71181 6.99812 7.03339C7.31969 7.35497 7.70627 7.51575 8.15785 7.51575Z" fill="url(#paint0_linear_2702_33124)"/>
</g>
<defs>
<linearGradient id="paint0_linear_2702_33124" x1="8.15753" y1="14.9994" x2="8.15753" y2="2.99958" gradientUnits="userSpaceOnUse">
<stop stopColor="#1768D0"/>
<stop offset="1" stopcolor="#0070FF"/>
</linearGradient>
</defs>
</svg>
