<svg width="13" height="13" viewBox="0 0 13 13" fill="none" xmlns="http://www.w3.org/2000/svg">
<path d="M12.4722 9.94147C12.3637 10.7859 11.9514 11.562 11.3124 12.1247C10.6734 12.6874 9.85142 12.9982 9 12.999C4.03735 12.999 0 8.96167 0 3.99902C0.000863082 3.14761 0.311657 2.32564 0.874323 1.68665C1.43699 1.04766 2.21304 0.63537 3.0575 0.526795C3.2724 0.500776 3.48994 0.545069 3.67757 0.65304C3.86519 0.761012 4.01279 0.926853 4.09827 1.12573L5.354 4.0556C5.41914 4.20716 5.44569 4.37249 5.43129 4.53682C5.41689 4.70114 5.36198 4.85934 5.27148 4.99725L4.23181 6.58588L4.23169 6.586C4.70117 7.54053 5.47541 8.31135 6.43201 8.77661L7.9972 7.73328C8.13549 7.64073 8.29474 7.58428 8.46045 7.56905C8.62615 7.55383 8.79303 7.58032 8.94586 7.64612L11.8732 8.9007C12.0721 8.98622 12.2379 9.13382 12.3459 9.32143C12.4538 9.50904 12.4982 9.72657 12.4722 9.94147ZM7.83447 1.98206C8.59728 2.18716 9.2928 2.58913 9.85135 3.14767C10.4099 3.70622 10.8119 4.40174 11.017 5.16455C11.0514 5.29241 11.1352 5.40138 11.2499 5.46754C11.3646 5.5337 11.5009 5.55166 11.6288 5.51747C11.7567 5.48328 11.8659 5.39974 11.9323 5.28517C11.9987 5.17061 12.0169 5.03438 11.983 4.90637C11.7323 3.97389 11.2409 3.12367 10.5581 2.44089C9.87535 1.7581 9.02513 1.26673 8.09265 1.01599C7.96465 0.982073 7.82842 1.00032 7.71385 1.06673C7.59928 1.13313 7.51574 1.24228 7.48155 1.37021C7.44736 1.49814 7.46532 1.63441 7.53148 1.74911C7.59765 1.86382 7.70661 1.9476 7.83447 1.98206ZM7.31671 3.91437C7.74046 4.02832 8.12683 4.25162 8.43712 4.56191C8.7474 4.87219 8.9707 5.25856 9.08466 5.68231C9.11912 5.81017 9.20289 5.91914 9.3176 5.9853C9.4323 6.05147 9.56857 6.06942 9.6965 6.03523C9.82443 6.00104 9.93358 5.9175 9.99998 5.80293C10.0664 5.68837 10.0846 5.55214 10.0507 5.42413C9.89116 4.8307 9.57845 4.28962 9.14393 3.8551C8.7094 3.42057 8.16832 3.10787 7.57489 2.9483C7.44689 2.91439 7.31065 2.93263 7.19609 2.99904C7.08152 3.06545 6.99798 3.17459 6.96379 3.30252C6.9296 3.43045 6.94756 3.56672 7.01372 3.68143C7.07988 3.79613 7.18885 3.87991 7.31671 3.91437Z" fill="url(#paint0_linear_2702_30447)"/>
<defs>
<linearGradient id="paint0_linear_2702_30447" x1="6.2394" y1="12.9984" x2="6.2394" y2="0.519095" gradientUnits="userSpaceOnUse">
<stop stop-color="#1768D0"/>
<stop offset="1" stop-color="#0070FF"/>
</linearGradient>
</defs>
</svg>
