<svg width="15" height="14" viewBox="0 0 15 14" fill="none" xmlns="http://www.w3.org/2000/svg">
<path d="M7.98047 0C4.11463 0 0.980469 3.13416 0.980469 7C0.980469 9.96708 2.82409 12.5021 5.42821 13.5218C5.36483 12.9687 5.31298 12.116 5.45125 11.5111C5.578 10.9638 6.26936 8.03127 6.26936 8.03127C6.26936 8.03127 6.06195 7.6107 6.06195 6.99424C6.06195 6.02058 6.62656 5.29465 7.32944 5.29465C7.92862 5.29465 8.21668 5.74403 8.21668 6.27984C8.21668 6.87901 7.83644 7.77778 7.63479 8.61317C7.46771 9.31029 7.98623 9.88066 8.67183 9.88066C9.91627 9.88066 10.8727 8.56708 10.8727 6.67737C10.8727 5.00082 9.66854 3.83128 7.9459 3.83128C5.95249 3.83128 4.78294 5.32346 4.78294 6.86749C4.78294 7.46667 5.01339 8.11193 5.30146 8.46337C5.35907 8.53251 5.36483 8.59588 5.34755 8.66502C5.2957 8.88395 5.17471 9.36214 5.15166 9.46008C5.12286 9.58683 5.04796 9.61564 4.91545 9.55226C4.03973 9.14321 3.4924 7.86996 3.4924 6.83868C3.4924 4.6321 5.09405 2.60412 8.11874 2.60412C10.5443 2.60412 12.434 4.33251 12.434 6.64856C12.434 9.06255 10.913 11.0041 8.80434 11.0041C8.0957 11.0041 7.42738 10.6354 7.20269 10.1975C7.20269 10.1975 6.85125 11.5342 6.76483 11.8626C6.60928 12.4733 6.18294 13.2337 5.89487 13.7004C6.55166 13.9021 7.24302 14.0115 7.96895 14.0115C11.8348 14.0115 14.9689 10.8774 14.9689 7.01152C14.9805 3.13416 11.8463 0 7.98047 0Z" fill="#E60019"/>
</svg>
