<svg width="87" height="27" viewBox="0 0 87 27" fill="none" xmlns="http://www.w3.org/2000/svg">
<g clip-path="url(#clip0_2702_32953)">
<g clip-path="url(#clip1_2702_32953)">
<g clip-path="url(#clip2_2702_32953)">
<path d="M81.0104 0H5.78646C2.59069 0 0 2.59069 0 5.78646V20.2526C0 23.4484 2.59069 26.0391 5.78646 26.0391H81.0104C84.2062 26.0391 86.7969 23.4484 86.7969 20.2526V5.78646C86.7969 2.59069 84.2062 0 81.0104 0Z" fill="black"/>
<path d="M9.04974 5.35318C8.84244 5.54049 8.71875 5.85294 8.71875 6.26767V6.17391V19.8597V19.7695C8.71875 20.1525 8.82486 20.4484 9.0046 20.6388L9.05046 20.6828C9.19592 20.8143 9.38246 20.8843 9.59627 20.8841C9.80516 20.8841 10.0402 20.8174 10.2883 20.6765L19.2539 15.5741L22.3336 13.8213C22.7247 13.5987 22.9443 13.3116 22.981 13.0192V13.018C22.9443 12.7249 22.7247 12.438 22.3336 12.2154L19.2537 10.4628L10.2883 5.3604C10.0397 5.21929 9.80451 5.15234 9.59504 5.15234C9.38152 5.15234 9.19512 5.22193 9.04974 5.35318Z" fill="#00C1FF"/>
<path d="M9.05046 20.6851L9.0046 20.6411C8.82486 20.4507 8.71875 20.1548 8.71875 19.7718V19.862V6.17961V6.26997C8.71875 5.85523 8.84244 5.54279 9.04974 5.35547L16.7026 13.0206L9.05046 20.6851Z" fill="url(#paint0_linear_2702_32953)"/>
<path d="M19.2505 15.5762L16.6992 13.0203L19.2503 10.4648L22.3302 12.2174C22.7213 12.4401 22.9409 12.7269 22.9776 13.0201V13.0212C22.9409 13.3137 22.7213 13.6008 22.3302 13.8233L19.2505 15.5762Z" fill="url(#paint1_linear_2702_32953)"/>
<path d="M9.59268 20.8815C9.37887 20.8817 9.19233 20.8119 9.04688 20.6804L16.699 13.0156L19.2504 15.5715L10.2846 20.6739C10.0366 20.8148 9.80157 20.8815 9.59268 20.8815Z" fill="url(#paint2_linear_2702_32953)"/>
<path d="M16.6998 13.0182L9.04688 5.35318C9.1924 5.22194 9.37866 5.15234 9.59218 5.15234C9.80165 5.15234 10.0369 5.21927 10.2854 5.36041L19.2509 10.4628L16.6998 13.0182Z" fill="url(#paint3_linear_2702_32953)"/>
<path d="M9.59579 20.9709C9.38205 20.9709 9.19529 20.901 9.04976 20.7696C9.04919 20.769 9.04832 20.7686 9.04759 20.7681L9.00781 20.7292C9.00658 20.728 9.00543 20.7266 9.00391 20.7252L9.04984 20.6792C9.19529 20.8107 9.38183 20.8805 9.59564 20.8803C9.80446 20.8803 10.0395 20.8136 10.2876 20.6727L19.2532 15.5703L19.3107 15.6278L19.2525 15.6609L10.2876 20.7631C10.0615 20.8914 9.84649 20.9583 9.65228 20.9694C9.63347 20.9704 9.61467 20.9709 9.59579 20.9709Z" fill="url(#paint4_linear_2702_32953)"/>
<path d="M9.0046 20.7289C8.82486 20.5385 8.71875 20.2429 8.71875 19.8597V19.7695C8.71875 20.1525 8.82486 20.4484 9.0046 20.6388L9.05046 20.6828L9.0046 20.7289Z" fill="url(#paint5_linear_2702_32953)"/>
<path d="M19.3074 15.6281L19.25 15.5706L22.3296 13.8178C22.7208 13.5953 22.9403 13.3081 22.9771 13.0156C22.9771 13.123 22.9531 13.2303 22.9057 13.3347C22.8098 13.5452 22.6178 13.7441 22.3297 13.9082L19.3074 15.6281Z" fill="url(#paint6_linear_2702_32953)"/>
<path d="M22.9773 13.0151C22.9406 12.722 22.721 12.4351 22.3299 12.2125L19.25 10.4599L19.3074 10.4023L22.3299 12.1224C22.7611 12.3679 22.9771 12.6915 22.9773 13.0151Z" fill="url(#paint7_linear_2702_32953)"/>
<path d="M8.71875 6.26852V6.17399C8.71875 6.1399 8.71962 6.10656 8.72143 6.0742V6.07272L8.72157 6.07131V6.06766C8.74016 5.73776 8.84244 5.48043 9.0046 5.30859L9.04974 5.354C8.84244 5.54135 8.71875 5.85379 8.71875 6.26852Z" fill="url(#paint8_linear_2702_32953)"/>
<path d="M19.253 10.4633L10.2876 5.36093C10.039 5.21982 9.80381 5.1529 9.59434 5.1529C9.38082 5.1529 9.19457 5.22249 9.04911 5.35373L9.00391 5.30829C9.01801 5.29334 9.03269 5.27892 9.04788 5.26506C9.04832 5.26456 9.04911 5.26406 9.04955 5.26359C9.19385 5.13335 9.37822 5.06375 9.58979 5.0625H9.59434C9.80381 5.0625 10.039 5.12946 10.2876 5.27062L19.3107 10.4056L19.253 10.4633Z" fill="url(#paint9_linear_2702_32953)"/>
<path d="M48.8545 9.42141H48.9127V5.98372H49.3681L51.0644 8.70331H51.1757L51.1548 7.97046V5.98375H51.4872V9.36318H51.1096L49.3349 6.51173H49.2236L49.2445 7.24491V9.36318H48.8545V9.42141V9.47971H49.3608V7.24303L49.3415 6.56843L49.2833 6.57V6.62827H49.3026V6.57L49.2533 6.60098L51.0451 9.47971H51.6036V5.86719H51.0385V7.97205L51.0578 8.64668L51.116 8.64509V8.58679H51.0967V8.64509L51.146 8.61413L49.4325 5.86719H48.7964V9.47971H48.8545V9.42141ZM67.0977 19.3267H68.1831V12.0427H67.0976L67.0977 19.3267ZM76.8747 14.6665L75.6306 17.8245H75.593L74.3019 14.6665H73.1323L75.0686 19.0804L73.9648 21.5355H75.0975L78.0819 14.6665H76.8747ZM70.7188 18.4994C70.3628 18.4994 69.8672 18.3213 69.8672 17.8807C69.8672 17.3185 70.485 17.103 71.0178 17.103C71.4954 17.103 71.7194 17.2061 72.0097 17.3468C71.9253 18.0214 71.3454 18.4994 70.7188 18.4994ZM70.8497 14.5072C70.0638 14.5072 69.25 14.854 68.9132 15.6225L69.8765 16.0253C70.0825 15.6225 70.4658 15.4911 70.8683 15.4911C71.4297 15.4911 72.0004 15.8287 72.0097 16.4284V16.5033C71.813 16.3908 71.3924 16.2222 70.8777 16.2222C69.8393 16.2222 68.7817 16.7936 68.7817 17.862C68.7817 18.8366 69.6334 19.4646 70.5874 19.4646C71.3174 19.4646 71.7194 19.1366 71.9725 18.7524H72.0097V19.3146H73.0571V16.5219C73.0571 15.2289 72.094 14.5072 70.8497 14.5072ZM64.1414 15.5532H62.5975V13.0565H64.1414C64.9528 13.0565 65.4136 13.7294 65.4136 14.3048C65.4136 14.8693 64.9528 15.5532 64.1414 15.5532ZM64.1134 12.0427H61.5125V19.3267H62.5974V16.567H64.1134C65.3164 16.567 66.499 15.6946 66.499 14.3048C66.499 12.9151 65.3164 12.0427 64.1134 12.0427ZM49.9305 18.5007C49.1806 18.5007 48.5527 17.8718 48.5527 17.0081C48.5527 16.1353 49.1806 15.4968 49.9305 15.4968C50.6708 15.4968 51.2519 16.1352 51.2519 17.0081C51.2519 17.8718 50.6708 18.5007 49.9305 18.5007ZM51.1769 15.0744H51.1394C50.8958 14.7835 50.4269 14.5207 49.8367 14.5207C48.5996 14.5207 47.4657 15.6094 47.4657 17.0081C47.4657 18.3974 48.5995 19.4769 49.8367 19.4769C50.4269 19.4769 50.8958 19.214 51.1394 18.9138H51.1769V19.2704C51.1769 20.2187 50.6708 20.7255 49.8555 20.7255C49.1901 20.7255 48.7777 20.2466 48.6088 19.843L47.6625 20.2373C47.9343 20.8944 48.6559 21.7017 49.8555 21.7017C51.1301 21.7017 52.2078 20.9506 52.2078 19.1202V14.6709H51.1769V15.0744ZM52.9575 19.3267H54.0446V12.0425H52.9575V19.3267ZM55.6472 16.9236C55.6191 15.9661 56.3876 15.4781 56.9405 15.4781C57.3718 15.4781 57.7372 15.6939 57.8587 16.0039L55.6472 16.9236ZM59.0211 16.0977C58.8151 15.5437 58.1868 14.5207 56.9029 14.5207C55.6284 14.5207 54.5695 15.525 54.5695 16.9988C54.5695 18.388 55.6191 19.4769 57.0247 19.4769C58.1589 19.4769 58.8151 18.7822 59.0867 18.3786L58.2433 17.8153C57.9623 18.2285 57.5778 18.5007 57.0247 18.5007C56.4718 18.5007 56.0784 18.2471 55.8251 17.7498L59.1333 16.3792L59.0211 16.0977ZM32.6643 15.281V16.3323H35.1759C35.1009 16.9236 34.9041 17.3554 34.6042 17.6558C34.2388 18.022 33.6671 18.4256 32.6643 18.4256C31.118 18.4256 29.9091 17.1771 29.9091 15.6283C29.9091 14.0795 31.118 12.8309 32.6643 12.8309C33.4984 12.8309 34.1075 13.1595 34.5574 13.5819L35.2977 12.8405C34.6699 12.2396 33.8357 11.7796 32.6643 11.7796C30.5463 11.7796 28.7656 13.5069 28.7656 15.6283C28.7656 17.7498 30.5463 19.4769 32.6643 19.4769C33.8077 19.4769 34.6699 19.1016 35.3445 18.3974C36.038 17.7027 36.2537 16.7265 36.2537 15.9381C36.2537 15.6939 36.2351 15.4688 36.1973 15.281H32.6643ZM39.1091 18.5007C38.3593 18.5007 37.7126 17.8811 37.7126 16.9988C37.7126 16.107 38.3593 15.4968 39.1091 15.4968C39.8588 15.4968 40.5054 16.107 40.5054 16.9988C40.5054 17.8811 39.8588 18.5007 39.1091 18.5007ZM39.1091 14.5207C37.7407 14.5207 36.6254 15.5626 36.6254 16.9988C36.6254 18.4256 37.7407 19.4769 39.1091 19.4769C40.4773 19.4769 41.5925 18.4256 41.5925 16.9988C41.5925 15.5626 40.4773 14.5207 39.1091 14.5207ZM44.5268 18.5007C43.7772 18.5007 43.1304 17.8811 43.1304 16.9988C43.1304 16.107 43.7772 15.4968 44.5269 15.4968C45.2765 15.4968 45.9232 16.107 45.9232 16.9988C45.9232 17.8811 45.2765 18.5007 44.5268 18.5007ZM44.5268 14.5207C43.1584 14.5207 42.0434 15.5626 42.0434 16.9988C42.0434 18.4256 43.1584 19.4769 44.5269 19.4769C45.8951 19.4769 47.0103 18.4256 47.0103 16.9988C47.0103 15.5626 45.895 14.5207 44.5268 14.5207Z" fill="white"/>
<path d="M32.4739 7.81157H32.4157C32.4152 8.2886 32.2761 8.65907 31.9993 8.93726L31.9985 8.9382C31.6806 9.27114 31.2719 9.43685 30.7581 9.4375C30.2678 9.43685 29.8574 9.26933 29.5147 8.92974C29.1728 8.58949 29.0037 8.1741 29.003 7.66973C29.0037 7.16514 29.1728 6.74999 29.5147 6.40996C29.8574 6.07014 30.2678 5.90239 30.7581 5.90169C31.0007 5.90169 31.2315 5.94908 31.4517 6.04351C31.6721 6.13867 31.8462 6.26337 31.976 6.41818L32.0204 6.38058L31.9794 6.33939L31.6725 6.64708L31.7137 6.68805L31.7585 6.65077C31.5167 6.36055 31.1772 6.21424 30.7581 6.21511C30.3772 6.21464 30.042 6.35101 29.7647 6.61961C29.4847 6.88906 29.3441 7.24385 29.3446 7.66973C29.3441 8.09562 29.4847 8.4504 29.7647 8.7199C30.042 8.98847 30.3772 9.12481 30.7581 9.1243C31.1608 9.12503 31.504 8.98825 31.7742 8.71694C31.9546 8.53575 32.0568 8.28476 32.0837 7.97266L32.0891 7.90937H30.8164V7.60601H32.4495V7.54771L32.3922 7.55798C32.4081 7.6463 32.4157 7.73028 32.4157 7.81157H32.532C32.532 7.72297 32.5238 7.63198 32.5067 7.5373L32.4981 7.48949H30.7V8.02589H32.0257V7.96766L31.9678 7.96267C31.9421 8.25583 31.8489 8.47658 31.6919 8.63455C31.4419 8.88402 31.1352 9.00713 30.7581 9.00778C30.4044 9.00735 30.1042 8.88532 29.8454 8.63614C29.5891 8.38783 29.4616 8.07074 29.461 7.66973C29.4616 7.26866 29.5891 6.95165 29.8454 6.70332C30.1042 6.45411 30.4044 6.33211 30.7581 6.33164C31.1515 6.33258 31.4486 6.46275 31.6692 6.72564L31.7101 6.77434L32.0616 6.4218L32.0994 6.38403L32.065 6.34324C31.9221 6.17258 31.7316 6.03712 31.4976 5.93657C31.2631 5.83569 31.0156 5.78516 30.7581 5.78516C30.241 5.78472 29.7948 5.96679 29.4327 6.32711C29.0694 6.68672 28.8863 7.13875 28.8867 7.66973C28.8863 8.2005 29.0694 8.65278 29.433 9.01255C29.7948 9.37269 30.241 9.55453 30.7581 9.55402C31.2967 9.55453 31.7435 9.37536 32.0825 9.0187L32.0405 8.97841L32.0816 9.01964C32.3829 8.7181 32.5323 8.31066 32.532 7.81157H32.4739ZM35.1552 6.35122H33.5656V7.45969H34.9991V7.87978H33.5656V8.98825H35.1552V9.41768H33.1176V5.92175H35.1552V6.35122Z" fill="white"/>
<path d="M32.4743 7.80408C32.4743 8.29224 32.33 8.68094 32.0409 8.97092C31.7125 9.31579 31.2846 9.4883 30.7586 9.4883C30.2548 9.4883 29.8265 9.31348 29.4743 8.9634C29.1214 8.6136 28.9453 8.17984 28.9453 7.66224C28.9453 7.14443 29.1214 6.71089 29.4743 6.36078C29.8265 6.01099 30.2548 5.83594 30.7586 5.83594C31.0085 5.83594 31.2479 5.88491 31.4751 5.98255C31.7023 6.08044 31.8845 6.21037 32.0209 6.37309L31.7141 6.68057C31.483 6.40404 31.1649 6.26589 30.7586 6.26589C30.3912 6.26589 30.0735 6.39519 29.8054 6.65396C29.5372 6.913 29.4032 7.24894 29.4032 7.66224C29.4032 8.07561 29.5372 8.41151 29.8054 8.67053C30.0735 8.92933 30.3911 9.05858 30.7586 9.05858C31.1484 9.05858 31.4733 8.9286 31.7334 8.66829C31.9023 8.49867 32 8.26287 32.0261 7.96017H30.7586V7.54022H32.45C32.4662 7.63157 32.4743 7.71916 32.4743 7.80408Z" fill="white"/>
<path d="M35.1583 6.35494V6.29667H33.5106V7.52164H34.944V7.82507L33.5106 7.82522V9.05021H35.1001V9.36318H33.1788V5.98372H35.1001V6.35494H35.1583H35.2164V5.86719H33.0625V9.47971H35.2164V8.93369H33.6269V7.94174H35.0603V7.40512H33.6269V6.4132H35.2164V6.35494H35.1583ZM37.0495 9.42141H36.6008V6.35491H35.6259V5.92543H38.0244V6.35491H37.0495V9.42141Z" fill="white"/>
<path d="M37.0482 9.42141V9.36318H36.6576V6.29667H35.6828V5.98375H37.9649V6.29667H36.99V9.42141H37.0482H37.1064V6.4132H38.0812V5.86719H35.5664V6.41318H36.5412V9.47964H37.1064V9.42141H37.0482ZM39.7585 9.42141V5.92543H40.2068V9.42141H39.7585Z" fill="white"/>
<path d="M39.7535 9.42141H39.8116V5.98372H40.1436V9.36318H39.7535V9.42141V9.47971H40.2599V5.86719H39.6953V9.47971H39.7535V9.42141ZM42.1912 9.42141H41.7424V6.35491H40.7676V5.92543H43.166V6.35491H42.1912V9.42141Z" fill="white"/>
<path d="M42.1966 9.41025V9.35196H41.806V6.28547H40.8312V5.97255H43.1133V6.28547H42.1385V9.41018L42.1966 9.41025L42.2548 9.41018V6.402H43.2296V5.85599H40.7148V6.40198H41.6896V9.46848H42.2548V9.41018L42.1966 9.41025ZM45.4838 8.66575C45.7421 8.92774 46.0583 9.05858 46.4321 9.05858C46.8059 9.05858 47.1221 8.92774 47.3801 8.66575C47.6386 8.40377 47.7682 8.06895 47.7682 7.66224C47.7682 7.25559 47.6386 6.9207 47.3801 6.65873C47.1221 6.39676 46.8059 6.26589 46.4321 6.26589C46.0583 6.26589 45.7421 6.39676 45.4838 6.65873C45.2259 6.9207 45.0964 7.25552 45.0964 7.66224C45.0964 8.06895 45.2259 8.40377 45.4838 8.66575ZM47.7118 8.9584C47.3687 9.31188 46.9419 9.4883 46.4321 9.4883C45.9216 9.4883 45.4951 9.31188 45.1527 8.9584C44.8093 8.60536 44.6385 8.17325 44.6385 7.66224C44.6385 7.15124 44.8093 6.71901 45.1527 6.36605C45.4951 6.01253 45.9216 5.83594 46.4321 5.83594C46.9393 5.83594 47.3649 6.01348 47.7096 6.36833C48.0538 6.72315 48.2261 7.15443 48.2261 7.66224C48.2261 8.17325 48.0542 8.60536 47.7118 8.9584Z" fill="white"/>
<path d="M45.4815 8.67325L45.4402 8.71419C45.7081 8.98666 46.0424 9.12503 46.4298 9.12438C46.817 9.12503 47.1517 8.98666 47.4192 8.71419C47.6889 8.4415 47.8245 8.08875 47.8241 7.66974C47.8245 7.25072 47.6889 6.89794 47.4192 6.62524C47.1517 6.35279 46.817 6.21443 46.4298 6.21511C46.0424 6.21443 45.7081 6.35279 45.4402 6.62524C45.1712 6.89794 45.0353 7.25072 45.036 7.66974C45.0353 8.08867 45.1712 8.4415 45.4402 8.71419L45.4815 8.67325L45.5229 8.63231C45.2762 8.38075 45.1528 8.06437 45.1523 7.66974C45.1528 7.2751 45.2762 6.95872 45.5229 6.70717C45.7719 6.45571 46.0694 6.33235 46.4298 6.33167C46.7899 6.33235 47.0881 6.45571 47.3365 6.70717C47.5837 6.95872 47.7071 7.2751 47.7075 7.66974C47.7071 8.06437 47.5837 8.38075 47.3365 8.63231C47.0881 8.88381 46.79 9.00713 46.4298 9.00778C46.0694 9.00713 45.7719 8.88381 45.5229 8.63231L45.4815 8.67325ZM47.7096 8.9659L47.668 8.92547C47.3344 9.26774 46.9266 9.43685 46.4298 9.4375C45.9329 9.43685 45.5249 9.26774 45.192 8.92547C44.8592 8.58197 44.6949 8.16773 44.6944 7.66974C44.6949 7.17172 44.8592 6.75751 45.192 6.41404C45.5249 6.07172 45.9328 5.90239 46.4298 5.90171C46.9234 5.90239 47.3303 6.07242 47.6657 6.41653C47.9997 6.76159 48.165 7.17515 48.1657 7.66974C48.165 8.16773 48.0002 8.58197 47.668 8.92547L47.7096 8.9659L47.7514 9.00641C48.104 8.64367 48.2824 8.19363 48.282 7.66974C48.2825 7.14878 48.1034 6.69971 47.7491 6.33533C47.3947 5.96951 46.9506 5.78453 46.4298 5.78516C45.9063 5.78453 45.4609 5.96865 45.1087 6.33306C44.7553 6.69608 44.5776 7.14579 44.5781 7.66974C44.5776 8.19363 44.7553 8.64367 45.1087 9.00662C45.4609 9.37103 45.9063 9.55453 46.4298 9.55402C46.9531 9.55453 47.3985 9.37081 47.7514 9.00641L47.7096 8.9659ZM48.8532 9.41775V5.92172H49.3991L51.0954 8.64135H51.1147L51.0954 7.96759V5.92172H51.5442V9.41768H51.076L49.3014 6.56626H49.282L49.3014 7.24023V9.41768L48.8532 9.41775Z" fill="white"/>
</g>
</g>
</g>
<defs>
<linearGradient id="paint0_linear_2702_32953" x1="13.6094" y1="6.03499" x2="7.01431" y2="12.6407" gradientUnits="userSpaceOnUse">
<stop stop-color="#00A0FF"/>
<stop offset="0.00657" stop-color="#00A1FF"/>
<stop offset="0.2601" stop-color="#00BEFF"/>
<stop offset="0.5122" stop-color="#00D2FF"/>
<stop offset="0.7604" stop-color="#00DFFF"/>
<stop offset="1" stop-color="#00E3FF"/>
</linearGradient>
<linearGradient id="paint1_linear_2702_32953" x1="23.4541" y1="12.9761" x2="8.50827" y2="12.9761" gradientUnits="userSpaceOnUse">
<stop stop-color="#FFE000"/>
<stop offset="0.4087" stop-color="#FFBD00"/>
<stop offset="0.7754" stop-color="#FFA500"/>
<stop offset="1" stop-color="#FF9C00"/>
</linearGradient>
<linearGradient id="paint2_linear_2702_32953" x1="17.8958" y1="15.4456" x2="6.71997" y2="26.5577" gradientUnits="userSpaceOnUse">
<stop stop-color="#FF3A44"/>
<stop offset="1" stop-color="#C31162"/>
</linearGradient>
<linearGradient id="paint3_linear_2702_32953" x1="7.07454" y1="4.2168" x2="12.0554" y2="9.1768" gradientUnits="userSpaceOnUse">
<stop stop-color="#32A071"/>
<stop offset="0.0685" stop-color="#2DA771"/>
<stop offset="0.4762" stop-color="#15CF74"/>
<stop offset="0.8009" stop-color="#06E775"/>
<stop offset="1" stop-color="#00F076"/>
</linearGradient>
<linearGradient id="paint4_linear_2702_32953" x1="17.8932" y1="17.2174" x2="8.943" y2="26.182" gradientUnits="userSpaceOnUse">
<stop stop-color="#CC2E36"/>
<stop offset="1" stop-color="#9C0E4E"/>
</linearGradient>
<linearGradient id="paint5_linear_2702_32953" x1="9.73818" y1="6.03266" x2="3.92804" y2="11.8523" gradientUnits="userSpaceOnUse">
<stop stop-color="#008DE0"/>
<stop offset="0.00657" stop-color="#008DE0"/>
<stop offset="0.2601" stop-color="#00A7E0"/>
<stop offset="0.5122" stop-color="#00B8E0"/>
<stop offset="0.7604" stop-color="#00C4E0"/>
<stop offset="1" stop-color="#00C7E0"/>
</linearGradient>
<linearGradient id="paint6_linear_2702_32953" x1="23.4536" y1="13.0151" x2="8.50766" y2="13.0151" gradientUnits="userSpaceOnUse">
<stop stop-color="#E0C500"/>
<stop offset="0.4087" stop-color="#E0A600"/>
<stop offset="0.7754" stop-color="#E09100"/>
<stop offset="1" stop-color="#E08900"/>
</linearGradient>
<linearGradient id="paint7_linear_2702_32953" x1="23.4539" y1="13.0157" x2="8.50795" y2="13.0157" gradientUnits="userSpaceOnUse">
<stop stop-color="#FFE840"/>
<stop offset="0.4087" stop-color="#FFCE40"/>
<stop offset="0.7754" stop-color="#FFBC40"/>
<stop offset="1" stop-color="#FFB540"/>
</linearGradient>
<linearGradient id="paint8_linear_2702_32953" x1="9.73189" y1="6.04406" x2="4.13569" y2="11.4065" gradientUnits="userSpaceOnUse">
<stop stop-color="#40B8FF"/>
<stop offset="0.00657" stop-color="#40B9FF"/>
<stop offset="0.2601" stop-color="#40CEFF"/>
<stop offset="0.5122" stop-color="#40DDFF"/>
<stop offset="0.7604" stop-color="#40E7FF"/>
<stop offset="1" stop-color="#40EAFF"/>
</linearGradient>
<linearGradient id="paint9_linear_2702_32953" x1="7.06554" y1="5.83836" x2="11.0622" y2="9.84152" gradientUnits="userSpaceOnUse">
<stop stop-color="#65B895"/>
<stop offset="0.0685" stop-color="#62BD95"/>
<stop offset="0.4762" stop-color="#50DB97"/>
<stop offset="0.8009" stop-color="#44ED98"/>
<stop offset="1" stop-color="#40F498"/>
</linearGradient>
<clipPath id="clip0_2702_32953">
<rect width="86.7969" height="26.0391" fill="white"/>
</clipPath>
<clipPath id="clip1_2702_32953">
<rect width="86.7969" height="26.0391" fill="white"/>
</clipPath>
<clipPath id="clip2_2702_32953">
<rect width="86.7969" height="26.0391" fill="white"/>
</clipPath>
</defs>
</svg>
