<svg width="20" height="21" viewBox="0 0 20 21" fill="none" xmlns="http://www.w3.org/2000/svg">
<path d="M15.2259 7.5C10.3919 6.4402 14.6237 0.20359 8.00049 0.759191C1.37729 1.31479 -5.17234 16.0984 6.58591 19.6694C18.3442 23.2404 24.4044 9.51191 15.2259 7.5Z" fill="#FFD15D"/>
<path d="M10.5119 17.998C10.4776 17.998 10.4409 17.9906 10.4091 17.9735L5.38663 15.3424C5.36104 15.3291 5.33832 15.3108 5.31979 15.2888C5.30125 15.2667 5.28726 15.2411 5.27862 15.2136C5.26998 15.1861 5.26685 15.1571 5.26943 15.1284C5.272 15.0997 5.28023 15.0717 5.29363 15.0462L10.2549 5.5716C10.2735 5.53585 10.3016 5.50595 10.3362 5.48522C10.3708 5.46448 10.4104 5.45371 10.4507 5.45411C10.485 5.45411 10.5217 5.46146 10.5535 5.47859L15.5759 8.10974C15.6836 8.16604 15.7252 8.29821 15.6689 8.4059L10.7052 17.8805C10.6868 17.9159 10.6591 17.9455 10.625 17.9663C10.5909 17.987 10.5518 17.9979 10.5119 17.998Z" fill="#F9B54C"/>
<path d="M10.4504 5.67432L15.4728 8.30548L10.5116 17.7776L5.48911 15.1489L10.4504 5.67432ZM10.4504 5.23621C10.4063 5.23621 10.3623 5.24355 10.3206 5.25579C10.2105 5.29005 10.1175 5.36838 10.0637 5.47117L5.09995 14.9458C5.07315 14.9969 5.05671 15.0527 5.05155 15.1102C5.0464 15.1676 5.05265 15.2255 5.06993 15.2806C5.08722 15.3356 5.1152 15.3867 5.15227 15.4309C5.18934 15.4751 5.23477 15.5115 5.28596 15.5381L10.3084 18.1692C10.372 18.2035 10.4406 18.2182 10.5116 18.2182C10.5556 18.2182 10.5997 18.2109 10.6413 18.1986C10.7514 18.1644 10.8444 18.086 10.8983 17.9832L15.862 8.50618C15.9155 8.40328 15.9259 8.28336 15.891 8.17276C15.8562 8.06216 15.7788 7.96992 15.676 7.91631L10.6535 5.28516C10.5923 5.25334 10.5213 5.23621 10.4504 5.23621Z" fill="#151B28"/>
<path d="M10.4845 17.9172C10.4601 17.9172 10.4356 17.9123 10.4136 17.905L4.1967 15.7756C4.16938 15.7662 4.14416 15.7516 4.12248 15.7326C4.1008 15.7135 4.0831 15.6904 4.07037 15.6644C4.05764 15.6385 4.05014 15.6104 4.0483 15.5816C4.04646 15.5528 4.05031 15.5239 4.05963 15.4965L8.07612 3.76771C8.10794 3.67715 8.19116 3.61841 8.28417 3.61841C8.30864 3.61841 8.33067 3.6233 8.35515 3.63065L14.572 5.76005C14.6259 5.77963 14.6724 5.81879 14.6968 5.87019C14.7213 5.92159 14.7262 5.98278 14.7066 6.03662L10.6926 17.7679C10.673 17.8218 10.6339 17.8683 10.5825 17.8927C10.5506 17.9099 10.5188 17.9172 10.4845 17.9172Z" fill="white"/>
<path d="M8.28732 3.84107L14.5042 5.97047L10.4853 17.6969L4.26838 15.5675L8.28732 3.84107ZM8.28732 3.40295C8.22124 3.40295 8.15515 3.41764 8.09396 3.44701C7.98946 3.49849 7.90944 3.58906 7.87123 3.69911L3.85474 15.4255C3.77642 15.6556 3.8988 15.9028 4.12642 15.9811L10.3433 18.1105C10.3898 18.1252 10.4363 18.135 10.4853 18.135C10.5513 18.135 10.6174 18.1203 10.6786 18.0909C10.7839 18.0395 10.8622 17.949 10.9013 17.8388L14.9178 6.10998C14.9962 5.87991 14.8738 5.6327 14.6461 5.55438L8.42928 3.42498C8.38278 3.4103 8.33383 3.40295 8.28732 3.40295Z" fill="#151B28"/>
<path d="M8.28711 5.37332C8.11823 5.37332 7.95179 5.3464 7.79025 5.2901C7.73641 5.27052 7.6899 5.23136 7.66543 5.17996C7.64095 5.12856 7.63606 5.06737 7.65564 5.01353L8.08152 3.77015C8.11334 3.67959 8.19655 3.62085 8.28956 3.62085C8.31404 3.62085 8.33607 3.62574 8.36054 3.63309L9.60392 4.05897C9.65776 4.07855 9.70427 4.11771 9.72874 4.16911C9.75322 4.22051 9.75811 4.2817 9.73853 4.33555C9.63455 4.63797 9.43886 4.90045 9.17872 5.08645C8.91858 5.27246 8.60691 5.37273 8.28711 5.37332Z" fill="white"/>
<path d="M8.28727 3.84107L9.53065 4.26695C9.44148 4.52593 9.27381 4.75068 9.05096 4.90992C8.82812 5.06916 8.56117 5.15498 8.28727 5.15543C8.14531 5.15543 8.00335 5.1334 7.86139 5.08445L8.28727 3.84107ZM8.28727 3.40295C8.10615 3.40295 7.93482 3.51799 7.87363 3.69911L7.44775 4.94249C7.41104 5.05263 7.41838 5.17256 7.46978 5.27781C7.52118 5.38305 7.61174 5.46137 7.72188 5.50054C7.90545 5.56417 8.09636 5.59599 8.28972 5.59599C8.65492 5.5958 9.01093 5.48153 9.30801 5.26914C9.6051 5.05675 9.82841 4.75685 9.94674 4.41136C9.98345 4.30122 9.97611 4.18129 9.92471 4.07604C9.87323 3.97154 9.78266 3.89152 9.67261 3.85331L8.42923 3.42743C8.38028 3.4103 8.33378 3.40295 8.28727 3.40295Z" fill="#151B28"/>
<path d="M14.0756 7.43172C14.0511 7.43172 14.0266 7.42682 14.0046 7.41948C13.6199 7.28737 13.3034 7.00803 13.1244 6.64276C12.9454 6.2775 12.9187 5.85616 13.0501 5.4712C13.0819 5.38064 13.1651 5.3219 13.2581 5.3219C13.2826 5.3219 13.3046 5.32679 13.3291 5.33414L14.5725 5.76002C14.6875 5.79918 14.7487 5.92401 14.7095 6.03904L14.2836 7.28242C14.2641 7.33626 14.2249 7.38277 14.1735 7.40724C14.1417 7.42438 14.1099 7.43172 14.0756 7.43172Z" fill="white"/>
<path d="M13.2579 5.54469L14.5013 5.97056L14.0754 7.21394C13.746 7.10043 13.4751 6.86103 13.3219 6.54816C13.1686 6.2353 13.1456 5.87447 13.2579 5.54469ZM13.2579 5.10657C13.1918 5.10657 13.1257 5.12125 13.0645 5.15062C12.96 5.2021 12.88 5.29268 12.8418 5.40273C12.5285 6.31568 13.018 7.31429 13.931 7.62758C13.9775 7.64471 14.0264 7.65206 14.0729 7.65206C14.2541 7.65206 14.4254 7.53702 14.4866 7.3559L14.9125 6.11253C14.9492 6.00238 14.9418 5.88245 14.8904 5.77721C14.8389 5.6727 14.7484 5.59268 14.6383 5.55448L13.3998 5.1286C13.3558 5.11391 13.3068 5.10657 13.2579 5.10657Z" fill="#151B28"/>
<path d="M5.51379 16.2137C5.48931 16.2137 5.46484 16.2088 5.44281 16.2015L4.19943 15.7756C4.14559 15.756 4.09908 15.7169 4.07461 15.6655C4.05013 15.6141 4.04524 15.5529 4.06482 15.499L4.4907 14.2557C4.51028 14.2018 4.54944 14.1553 4.60084 14.1308C4.65282 14.1056 4.71269 14.1021 4.76727 14.121C5.15197 14.2532 5.46853 14.5325 5.64749 14.8978C5.82646 15.263 5.85319 15.6844 5.72183 16.0693C5.70225 16.1232 5.66309 16.1697 5.61169 16.1941C5.57987 16.2064 5.54561 16.2137 5.51379 16.2137Z" fill="white"/>
<path d="M4.69671 14.3265C5.38448 14.5615 5.74917 15.308 5.5142 15.9958L4.27083 15.5699L4.69671 14.3265ZM4.69671 13.8884C4.63063 13.8884 4.56454 13.9031 4.50335 13.9325C4.39885 13.984 4.31883 14.0745 4.28062 14.1846L3.85474 15.428C3.77642 15.658 3.8988 15.9052 4.12642 15.9836L5.3698 16.4094C5.4163 16.4241 5.46281 16.4339 5.51176 16.4339C5.57784 16.4339 5.64393 16.4192 5.70512 16.3899C5.81036 16.3385 5.88869 16.2479 5.92785 16.1378C6.0796 15.6947 6.05023 15.2199 5.84463 14.7989C5.63903 14.3779 5.28168 14.0647 4.83867 13.9129C4.79217 13.8958 4.74322 13.8884 4.69671 13.8884Z" fill="#151B28"/>
<path d="M10.4845 17.9171C10.46 17.9171 10.438 17.9122 10.4135 17.9049L9.17014 17.479C9.11629 17.4594 9.06979 17.4203 9.04531 17.3689C9.02083 17.3175 9.01594 17.2563 9.03552 17.2024C9.13912 16.9003 9.33437 16.6379 9.59408 16.4519C9.85379 16.2659 10.165 16.1655 10.4845 16.1647C10.6534 16.1647 10.8223 16.1916 10.9838 16.2479C11.0376 16.2675 11.0841 16.3066 11.1086 16.358C11.1331 16.4094 11.138 16.4706 11.1184 16.5245L10.6925 17.7678C10.6777 17.8113 10.6497 17.849 10.6124 17.8758C10.5751 17.9025 10.5304 17.917 10.4845 17.9171Z" fill="white"/>
<path d="M10.4854 16.3826C10.6274 16.3826 10.7718 16.4046 10.9137 16.4536L10.4878 17.6969L9.24446 17.271C9.33267 17.0119 9.49976 16.7869 9.7223 16.6276C9.94485 16.4683 10.2117 16.3826 10.4854 16.3826ZM10.4854 15.9445C10.1202 15.9446 9.76418 16.0589 9.4671 16.2713C9.17002 16.4837 8.94671 16.7836 8.82837 17.1291C8.75005 17.3592 8.87243 17.6064 9.10006 17.6847L10.3434 18.1106C10.3899 18.1253 10.4364 18.135 10.4854 18.135C10.5515 18.135 10.6176 18.1204 10.6787 18.091C10.784 18.0396 10.8623 17.949 10.9015 17.8389L11.3274 16.5955C11.4057 16.3654 11.2833 16.1182 11.0557 16.0399C10.8697 15.9763 10.6788 15.9445 10.4854 15.9445Z" fill="#151B28"/>
<path d="M9.3887 14.4147C8.9873 14.4147 8.59079 14.3486 8.20652 14.2164C8.18204 14.2066 8.15267 14.1993 8.1233 14.1846C7.41096 13.9226 6.7985 13.4442 6.37184 12.8165C5.94517 12.1888 5.72572 11.4433 5.74425 10.6845C5.74425 10.6649 5.74914 10.6429 5.75404 10.6258L6.42957 8.65303C6.43692 8.63345 6.4467 8.61632 6.45894 8.59919C7.14182 7.674 8.23834 7.12329 9.3887 7.12329C9.79011 7.12329 10.1866 7.18938 10.5684 7.32155C11.8289 7.75232 12.7517 8.8366 12.9769 10.1485C13.0185 10.381 13.0381 10.6184 13.0332 10.8534C13.0332 10.873 13.0283 10.8926 13.0234 10.9122L12.3478 12.8849C12.3405 12.9045 12.3307 12.9216 12.3185 12.9388C11.6331 13.8615 10.5391 14.4147 9.3887 14.4147Z" fill="white"/>
<path d="M9.38625 7.32156C9.75584 7.32156 10.1328 7.38275 10.5023 7.50758C11.7335 7.92857 12.573 8.97858 12.7786 10.1803C12.8178 10.3982 12.8373 10.6234 12.8325 10.8461L12.1569 12.8188C11.8363 13.2513 11.419 13.6029 10.9384 13.8456C10.4578 14.0882 9.92709 14.2152 9.3887 14.2164C9.01911 14.2164 8.64218 14.1552 8.27015 14.0304C8.24568 14.0231 8.2212 14.0133 8.19672 14.001C8.19428 14.001 8.19183 13.9986 8.19183 13.9986C6.77957 13.4772 5.90823 12.1237 5.9425 10.6894L6.61803 8.71669C7.26419 7.84045 8.29952 7.32156 9.38625 7.32156ZM9.38625 6.92261C8.17225 6.92261 7.01699 7.50513 6.29495 8.47927C6.27047 8.51109 6.25089 8.5478 6.23866 8.58697L5.56312 10.5597C5.55088 10.5989 5.54354 10.638 5.54109 10.6797C5.52236 11.4786 5.75358 12.2636 6.20246 12.9248C6.65134 13.5861 7.29548 14.0907 8.04497 14.3682L8.13798 14.4049C8.54183 14.5444 8.96037 14.6129 9.3838 14.6129C10.5978 14.6129 11.7506 14.0304 12.4727 13.0563C12.4971 13.0244 12.5167 12.9877 12.529 12.9486L13.2045 10.9758C13.2167 10.9366 13.2241 10.8975 13.2265 10.8559C13.2339 10.6087 13.2118 10.3566 13.1678 10.1094C13.0509 9.43045 12.7533 8.79555 12.3062 8.2714C11.8591 7.74725 11.2791 7.3532 10.6272 7.13065C10.2282 6.99359 9.80968 6.92261 9.38625 6.92261Z" fill="#151B28"/>
<path d="M12.8316 10.8462L12.1561 12.8189C11.2872 13.9938 9.72808 14.5273 8.26932 14.028C8.24485 14.0207 8.22037 14.0109 8.19589 13.9987C8.19345 13.9987 8.191 13.9962 8.191 13.9962C7.13609 13.2203 6.65147 11.8203 7.09938 10.5157C7.65008 8.90767 9.40011 8.05102 11.0057 8.59928C11.3915 8.73069 11.7472 8.9378 12.0519 9.20847C12.3566 9.47914 12.6042 9.80791 12.7802 10.1755C12.8193 10.3968 12.8365 10.6215 12.8316 10.8462Z" fill="#2AEFC8"/>
<path d="M8.4808 9.62967C8.21157 9.76184 8.04024 9.89156 7.93499 10.2C7.81751 10.5451 7.96681 10.8486 8.28989 10.9587C9.12452 11.2451 9.40844 9.61743 10.6004 10.0262C11.1217 10.2048 11.3616 10.6552 11.2539 11.1937L11.7997 11.3797L11.6969 11.6783L11.156 11.4923C10.9994 11.8349 10.7032 12.1213 10.4144 12.2755L10.2039 11.9891C10.4829 11.8325 10.7448 11.6098 10.8623 11.2647C11.0067 10.8412 10.8501 10.5475 10.4927 10.4251C9.56019 10.1045 9.25179 11.7248 8.16996 11.3528C7.68778 11.1888 7.45037 10.7433 7.54093 10.2538L6.99512 10.0678L7.09792 9.76918L7.63883 9.9552C7.79303 9.61743 8.03779 9.44855 8.30947 9.32861L8.4808 9.62967Z" fill="#243045"/>
</svg>
