<svg width="16" height="15" viewBox="0 0 16 15" fill="none" xmlns="http://www.w3.org/2000/svg">
<path d="M6.33333 6.16667H1.33333C1.24493 6.16667 1.16014 6.13155 1.09763 6.06904C1.03512 6.00652 1 5.92174 1 5.83333V0.833333C1 0.744928 1.03512 0.660143 1.09763 0.597631C1.16014 0.535119 1.24493 0.5 1.33333 0.5H6.33333C6.42174 0.5 6.50652 0.535119 6.56904 0.597631C6.63155 0.660143 6.66667 0.744928 6.66667 0.833333V5.83333C6.66667 5.92174 6.63155 6.00652 6.56904 6.06904C6.50652 6.13155 6.42174 6.16667 6.33333 6.16667ZM14.6667 6.16667H9.66667C9.57826 6.16667 9.49348 6.13155 9.43097 6.06904C9.36845 6.00652 9.33333 5.92174 9.33333 5.83333V0.833333C9.33333 0.744929 9.36845 0.660143 9.43096 0.597631C9.49348 0.535119 9.57826 0.5 9.66667 0.5H14.6667C14.7551 0.5 14.8399 0.53512 14.9024 0.59763C14.9649 0.660143 15 0.744928 15 0.833333V5.83333C15 5.92174 14.9649 6.00652 14.9024 6.06904C14.8399 6.13155 14.7551 6.16667 14.6667 6.16667ZM6.33333 14.5H1.33333C1.24493 14.5 1.16014 14.4649 1.09763 14.4024C1.03512 14.3399 1 14.2551 1 14.1667V9.16667C1 9.07826 1.03512 8.99348 1.09763 8.93096C1.16014 8.86845 1.24493 8.83333 1.33333 8.83333H6.33333C6.42174 8.83333 6.50652 8.86845 6.56904 8.93096C6.63155 8.99348 6.66667 9.07826 6.66667 9.16667V14.1667C6.66667 14.2551 6.63155 14.3399 6.56904 14.4024C6.50652 14.4649 6.42174 14.5 6.33333 14.5ZM15 11.6667C15 13.2289 13.7289 14.5 12.1667 14.5C10.6045 14.5 9.33333 13.2289 9.33333 11.6667C9.33333 10.1045 10.6045 8.83333 12.1667 8.83333C13.7289 8.83333 15 10.1045 15 11.6667Z" fill="#FFD15D" stroke="#2B3B4E"/>
</svg>
