<svg width="12" height="12" viewBox="0 0 12 12" fill="none" xmlns="http://www.w3.org/2000/svg">
<path d="M2.52213 9.70837L0.908924 11.3214C0.82298 11.4075 0.726341 11.429 0.619008 11.386C0.511674 11.343 0.458008 11.2609 0.458008 11.1397V2.01289C0.458008 1.71821 0.560091 1.46879 0.764258 1.26462C0.968424 1.06046 1.21785 0.958374 1.51253 0.958374H10.4868C10.7815 0.958374 11.0309 1.06046 11.2351 1.26462C11.4393 1.46879 11.5413 1.71821 11.5413 2.01289V8.65385C11.5413 8.94853 11.4393 9.19796 11.2351 9.40212C11.0309 9.60629 10.7815 9.70837 10.4868 9.70837H2.52213ZM5.99967 6.68744L7.04063 7.31889C7.1364 7.37946 7.23216 7.37611 7.32792 7.30883C7.42359 7.24155 7.45874 7.15031 7.43336 7.0351L7.15847 5.8505L8.0829 5.05177C8.17264 4.97176 8.19991 4.87755 8.16472 4.76914C8.12962 4.66064 8.05145 4.60153 7.93022 4.59181L6.71645 4.48973L6.23972 3.3725C6.1949 3.26701 6.11488 3.21427 5.99967 3.21427C5.88447 3.21427 5.80445 3.26701 5.75963 3.3725L5.2829 4.48973L4.06913 4.59181C3.9479 4.60153 3.86973 4.66064 3.83463 4.76914C3.79944 4.87755 3.82671 4.97176 3.91645 5.05177L4.84088 5.8505L4.56599 7.0351C4.54061 7.15031 4.57576 7.24155 4.67142 7.30883C4.76719 7.37611 4.86295 7.37946 4.95872 7.31889L5.99967 6.68744Z" fill="#8391A1"/>
</svg>
