<svg width="18" height="17" viewBox="0 0 18 17" fill="none" xmlns="http://www.w3.org/2000/svg">
<path d="M1.5 16H16.5H1.5ZM14 16V3.66667C14 2.73325 14 2.26653 13.8183 1.91002C13.6586 1.59641 13.4036 1.34144 13.09 1.18166C12.7335 1 12.2668 1 11.3333 1H6.66667C5.73325 1 5.26653 1 4.91002 1.18166C4.59641 1.34144 4.34144 1.59641 4.18166 1.91002C4 2.26653 4 2.73325 4 3.66667V16M11.5 8.5H11.5083H11.5Z" fill="#FFD15D"/>
<path d="M1.5 16H16.5M14 16V3.66667C14 2.73325 14 2.26653 13.8183 1.91002C13.6586 1.59641 13.4036 1.34144 13.09 1.18166C12.7335 1 12.2667 1 11.3333 1H6.66667C5.73325 1 5.26653 1 4.91002 1.18166C4.59641 1.34144 4.34144 1.59641 4.18166 1.91002C4 2.26653 4 2.73325 4 3.66667V16M11.5 8.5H11.5083" stroke="#2B3B4E" stroke-width="2" stroke-linecap="round" stroke-linejoin="round"/>
</svg>
