<svg width="18" height="17" viewBox="0 0 18 17" fill="none" xmlns="http://www.w3.org/2000/svg">
<path d="M16.1998 0.300049H1.7998C1.24752 0.300049 0.799805 0.747764 0.799805 1.30005V15.7C0.799805 16.2523 1.24752 16.7 1.7998 16.7H16.1998C16.7521 16.7 17.1998 16.2523 17.1998 15.7V1.30005C17.1998 0.747764 16.7521 0.300049 16.1998 0.300049Z" fill="#2B3B4E"/>
<path d="M1.2002 15.7V3.71399H16.8002V15.1248L14.0638 12.3884C14.0005 12.3288 13.924 12.2852 13.8405 12.2612C13.7571 12.2371 13.669 12.2333 13.5838 12.25L12.4398 11.106C13.1042 10.2299 13.4111 9.13434 13.2987 8.04064C13.1862 6.94694 12.6626 5.93674 11.8339 5.21426C11.0051 4.49177 9.93297 4.11089 8.83415 4.14862C7.73533 4.18635 6.69182 4.63986 5.91457 5.41749C5.13731 6.19512 4.6843 7.23885 4.6471 8.33768C4.6099 9.43652 4.99129 10.5085 5.71417 11.3369C6.43706 12.1653 7.44751 12.6884 8.54126 12.8003C9.63501 12.9123 10.7305 12.6048 11.6062 11.94L12.7466 13.0804C12.7376 13.1114 12.7313 13.1431 12.7278 13.1752C12.7274 13.2472 12.7413 13.3187 12.7688 13.3853C12.7963 13.4519 12.8367 13.5124 12.8878 13.5632L15.625 16.3H1.8002C1.64107 16.3 1.48845 16.2368 1.37593 16.1243C1.26341 16.0117 1.2002 15.8591 1.2002 15.7Z" fill="white"/>
<path d="M8.99955 12.4224C11.1658 12.4224 12.9219 10.6663 12.9219 8.50004C12.9219 6.33375 11.1658 4.57764 8.99955 4.57764C6.83327 4.57764 5.07715 6.33375 5.07715 8.50004C5.07715 10.6663 6.83327 12.4224 8.99955 12.4224Z" fill="#FFD15D"/>
<path d="M12.1829 11.4141L13.2229 12.4541L12.9541 12.7229L11.9141 11.6829C12.0077 11.5973 12.0973 11.5077 12.1829 11.4141Z" fill="#C6B9C4"/>
<path d="M13.1711 13.072L13.5711 12.672C13.5848 12.6582 13.6011 12.6473 13.6191 12.6398C13.637 12.6323 13.6563 12.6284 13.6757 12.6284C13.6952 12.6284 13.7144 12.6323 13.7324 12.6398C13.7503 12.6473 13.7666 12.6582 13.7803 12.672L16.7499 15.642C16.7636 15.6557 16.7745 15.672 16.7819 15.6898C16.7893 15.7077 16.7932 15.7269 16.7932 15.7462C16.7932 15.7656 16.7893 15.7848 16.7819 15.8027C16.7745 15.8205 16.7636 15.8368 16.7499 15.8504L16.3499 16.2504C16.3219 16.2776 16.2845 16.2927 16.2455 16.2927C16.2066 16.2927 16.1691 16.2776 16.1411 16.2504L13.1715 13.2808C13.1577 13.2672 13.1468 13.2509 13.1393 13.233C13.1318 13.2151 13.1279 13.1959 13.1279 13.1764C13.1279 13.157 13.1318 13.1378 13.1393 13.1199C13.1468 13.102 13.1573 13.0857 13.1711 13.072Z" fill="#2B3B4E"/>
<path d="M8.99996 11.7149C10.7754 11.7149 12.2148 10.2756 12.2148 8.50008C12.2148 6.72459 10.7754 5.28528 8.99996 5.28528C7.22447 5.28528 5.78516 6.72459 5.78516 8.50008C5.78516 10.2756 7.22447 11.7149 8.99996 11.7149Z" fill="#2B3B4E"/>
<path d="M8.99937 11.3149C10.5539 11.3149 11.8142 10.0547 11.8142 8.5001C11.8142 6.94553 10.5539 5.6853 8.99937 5.6853C7.4448 5.6853 6.18457 6.94553 6.18457 8.5001C6.18457 10.0547 7.4448 11.3149 8.99937 11.3149Z" fill="white"/>
<path d="M8.9998 7.92041C8.94676 7.92041 8.89589 7.94148 8.85838 7.97899C8.82088 8.0165 8.7998 8.06737 8.7998 8.12041V9.48041C8.7998 9.53345 8.82088 9.58432 8.85838 9.62183C8.89589 9.65934 8.94676 9.68041 8.9998 9.68041C9.05285 9.68041 9.10372 9.65934 9.14123 9.62183C9.17873 9.58432 9.1998 9.53345 9.1998 9.48041V8.12041C9.1998 8.06737 9.17873 8.0165 9.14123 7.97899C9.10372 7.94148 9.05285 7.92041 8.9998 7.92041Z" fill="#2B3B4E"/>
<path d="M8.99981 7.31889C8.9458 7.32107 8.89475 7.34415 8.85743 7.38325C8.82011 7.42236 8.79945 7.47444 8.79981 7.52849C8.79981 7.58154 8.82088 7.63241 8.85839 7.66991C8.89589 7.70742 8.94677 7.72849 8.99981 7.72849C9.05285 7.72849 9.10372 7.70742 9.14123 7.66991C9.17874 7.63241 9.19981 7.58154 9.19981 7.52849V7.50929C9.19962 7.48353 9.19424 7.45806 9.184 7.43442C9.17376 7.41077 9.15886 7.38943 9.1402 7.37166C9.12154 7.3539 9.09949 7.34007 9.07537 7.331C9.05125 7.32194 9.02555 7.31782 8.99981 7.31889Z" fill="#2B3B4E"/>
<path d="M6.60918 2.20127H11.39C11.443 2.20127 11.4939 2.1802 11.5314 2.14269C11.5689 2.10518 11.59 2.05431 11.59 2.00127C11.59 1.94823 11.5689 1.89736 11.5314 1.85985C11.4939 1.82234 11.443 1.80127 11.39 1.80127H6.60918C6.55614 1.80127 6.50527 1.82234 6.46776 1.85985C6.43025 1.89736 6.40918 1.94823 6.40918 2.00127C6.40918 2.05431 6.43025 2.10518 6.46776 2.14269C6.50527 2.1802 6.55614 2.20127 6.60918 2.20127Z" fill="#2B3B4E"/>
<path d="M1.8002 0.700073H16.2002C16.3593 0.700073 16.5119 0.763287 16.6245 0.875809C16.737 0.988331 16.8002 1.14094 16.8002 1.30007V3.31407H1.2002V1.30007C1.2002 1.14094 1.26341 0.988331 1.37593 0.875809C1.48845 0.763287 1.64107 0.700073 1.8002 0.700073Z" fill="#FFD15D"/>
<path d="M2.19396 2.20201C2.30486 2.20201 2.39476 2.11211 2.39476 2.00121C2.39476 1.89032 2.30486 1.80042 2.19396 1.80042C2.08307 1.80042 1.99316 1.89032 1.99316 2.00121C1.99316 2.11211 2.08307 2.20201 2.19396 2.20201Z" fill="#2B3B4E"/>
<path d="M3.21074 2.202C3.2503 2.202 3.28897 2.19027 3.32186 2.1683C3.35475 2.14632 3.38038 2.11508 3.39552 2.07854C3.41066 2.04199 3.41462 2.00178 3.4069 1.96298C3.39918 1.92419 3.38013 1.88855 3.35216 1.86058C3.32419 1.83261 3.28856 1.81356 3.24976 1.80584C3.21096 1.79813 3.17075 1.80209 3.13421 1.81723C3.09766 1.83236 3.06642 1.858 3.04445 1.89089C3.02247 1.92378 3.01074 1.96245 3.01074 2.002C3.01074 2.05505 3.03181 2.10592 3.06932 2.14342C3.10683 2.18093 3.1577 2.202 3.21074 2.202Z" fill="#2B3B4E"/>
<path d="M4.20861 2.20201C4.31951 2.20201 4.40941 2.11211 4.40941 2.00121C4.40941 1.89032 4.31951 1.80042 4.20861 1.80042C4.09771 1.80042 4.00781 1.89032 4.00781 2.00121C4.00781 2.11211 4.09771 2.20201 4.20861 2.20201Z" fill="#2B3B4E"/>
</svg>
