<svg width="20" height="19" viewBox="0 0 20 19" fill="none" xmlns="http://www.w3.org/2000/svg">
<path d="M9.70084 15.5862L5.16792 17.965C4.68834 18.2158 4.13667 17.8137 4.22542 17.2833L5.09042 12.2429C5.12542 12.0337 5.05625 11.8171 4.90709 11.6683L1.23625 8.10082C0.853755 7.72582 1.06542 7.07249 1.59209 6.99665L6.66042 6.25999C6.87542 6.23249 7.05917 6.09915 7.14959 5.90915L9.42084 1.31832C9.6525 0.837904 10.3467 0.837904 10.5779 1.31832L12.8492 5.90915C12.9396 6.09915 13.1233 6.23207 13.3383 6.25999L18.4067 6.99665C18.9333 7.0729 19.1446 7.72582 18.7625 8.10082L15.0917 11.6683C14.9425 11.8171 14.8733 12.0337 14.9083 12.2429L15.7733 17.2833C15.8621 17.8137 15.3108 18.2158 14.8308 17.965L10.2979 15.5862C10.1079 15.4862 9.89126 15.4862 9.70084 15.5862Z" fill="#FFD15D"/>
<path d="M15.1363 18.2492C14.9997 18.2492 14.8622 18.2162 14.7347 18.15L10.2013 15.7708C10.0709 15.7025 9.92799 15.7025 9.79757 15.7708L5.26465 18.1496C4.97174 18.3025 4.62632 18.2779 4.36132 18.0858C4.09632 17.8938 3.9659 17.5733 4.02007 17.2488L4.88507 12.2075C4.90882 12.0667 4.8609 11.9163 4.76007 11.8158L1.09132 8.25042C0.856318 8.02 0.773818 7.6825 0.876318 7.36958C0.977568 7.05875 1.24048 6.83708 1.56215 6.79042L6.63007 6.05375C6.77757 6.03458 6.90007 5.9475 6.96132 5.81958L9.23382 1.22625C9.37549 0.933333 9.66924 0.75 9.99965 0.75C10.3301 0.75 10.6238 0.933333 10.7659 1.22792L12.9638 5.67042C13.0147 5.77375 12.9726 5.89833 12.8692 5.94958C12.7667 6 12.6409 5.95875 12.5901 5.855L10.3913 1.41083C10.2434 1.10375 9.75507 1.10542 9.6084 1.40917L7.33632 6.00167C7.2159 6.255 6.97257 6.43 6.68674 6.46667L1.62257 7.20292C1.45632 7.22708 1.32548 7.33792 1.27257 7.49917C1.21882 7.66292 1.26007 7.8325 1.38257 7.9525L5.05299 11.5192C5.25257 11.7179 5.34299 12.0008 5.29674 12.2775L4.43174 17.3188C4.4034 17.4875 4.46882 17.6488 4.60673 17.7488C4.74465 17.8496 4.91882 17.8608 5.07215 17.7804L9.60465 15.4017C9.85632 15.27 10.1442 15.27 10.3955 15.4017L14.9284 17.7804C15.0813 17.8608 15.2559 17.8488 15.3934 17.7483C15.5313 17.6483 15.5967 17.4871 15.5684 17.3175L14.7034 12.2779C14.6572 12.0004 14.7476 11.7175 14.9455 11.5204L18.6176 7.95167C18.7397 7.83208 18.7809 7.66292 18.7272 7.49917C18.6742 7.33792 18.5438 7.22708 18.3776 7.20292L13.5392 6.49958C13.4259 6.48292 13.3467 6.3775 13.363 6.26375C13.3797 6.14958 13.4859 6.06792 13.5992 6.0875L18.4372 6.79083C18.7584 6.83708 19.0213 7.05917 19.123 7.37C19.2255 7.68292 19.1434 8.02042 18.9084 8.25L15.2372 11.8179C15.138 11.9167 15.0901 12.0671 15.1138 12.2088L15.9788 17.2483C16.033 17.5733 15.9022 17.8942 15.6376 18.0863C15.4884 18.1942 15.3134 18.2492 15.1363 18.2492Z" fill="#2B3B4E"/>
<path d="M4.63661 17.562C4.62494 17.562 4.61286 17.5612 4.60078 17.5591C4.48786 17.54 4.41161 17.432 4.43078 17.3187L5.29619 12.2766C5.34244 12.0008 5.25078 11.7166 5.05078 11.517L1.38286 7.95288C1.25994 7.83246 1.21869 7.6633 1.27161 7.49996C1.32536 7.33746 1.45578 7.22705 1.62203 7.20288L6.68328 6.46705C6.97203 6.42996 7.21411 6.25705 7.33453 6.00455L9.6087 1.40705C9.65995 1.3033 9.78578 1.26205 9.88786 1.31246C9.99078 1.36371 10.0333 1.4883 9.98244 1.59163L7.70953 6.18621C7.52953 6.56455 7.16661 6.82496 6.73994 6.87996L1.68161 7.61538L5.34244 11.2204C5.63953 11.5166 5.77494 11.9366 5.70661 12.3462L4.84119 17.3891C4.82411 17.4904 4.73578 17.562 4.63661 17.562Z" fill="#FFF8E1"/>
</svg>
