<svg width="48" height="28" viewBox="0 0 48 28" fill="none" xmlns="http://www.w3.org/2000/svg">
<g clip-path="url(#clip0_2702_52507)">
<path d="M44 0.5H4C2.067 0.5 0.5 2.067 0.5 4V24C0.5 25.933 2.067 27.5 4 27.5H44C45.933 27.5 47.5 25.933 47.5 24V4C47.5 2.067 45.933 0.5 44 0.5Z" fill="white"/>
<path d="M44 0.5H4C2.067 0.5 0.5 2.067 0.5 4V24C0.5 25.933 2.067 27.5 4 27.5H44C45.933 27.5 47.5 25.933 47.5 24V4C47.5 2.067 45.933 0.5 44 0.5Z" stroke="#EBF0F5"/>
<path d="M8.15436 17.1549C7.86911 17.2119 7.70937 17.2575 7.60668 17.2918C7.08182 16.3105 6.78516 15.1923 6.78516 14.0057C6.78516 10.1377 9.9229 7 13.7908 7C16.6319 7 19.0736 8.68867 20.1804 11.119L20.0321 11.1304L15.799 10.3659C15.7648 10.3545 15.7419 10.3659 15.7191 10.3888C15.6963 10.4116 15.6963 10.4344 15.6963 10.4686L15.9245 11.2559C15.9359 11.2901 15.9701 11.313 16.0044 11.3244L18.4347 11.3358L17.9897 11.3814L15.8903 11.7237C14.5553 11.9976 13.6996 12.1459 13.3344 12.1687C13.3687 12.1117 13.3915 12.066 13.4143 12.0204C13.4714 11.9747 13.5512 11.9291 13.6311 11.872C13.9049 11.8036 13.9392 11.6324 13.9392 11.5297V11.4841C13.9392 11.4156 13.9163 11.3472 13.8593 11.2787L13.8479 11.2559C13.8365 11.2331 13.8022 11.2217 13.7794 11.2217H13.7452C13.6425 11.2217 13.5398 11.2331 13.4143 11.2787C13.3687 11.3015 13.3344 11.313 13.3002 11.3358C13.2203 11.2217 13.0378 11.1532 12.6955 11.0962C12.6841 11.0962 12.6727 11.0962 12.6613 11.0962C12.2619 11.1418 11.9881 11.1989 11.8397 11.2673C11.5088 11.3472 11.0296 11.5412 10.4135 11.8492C9.3524 12.4768 8.83895 13.0473 8.83895 13.5835C8.83895 13.7205 8.88459 13.8802 8.98728 14.0399C9.13561 14.2795 9.43227 14.4735 9.9229 14.6104C10.345 14.6903 10.7672 14.7588 11.178 14.8272C11.6344 14.9299 11.8854 15.0897 11.931 15.3064C11.931 15.3178 11.9196 15.3293 11.9196 15.3407V15.3977C11.9196 15.4319 11.8968 15.5346 11.737 15.7172C11.4974 15.9454 11.2692 16.1165 11.041 16.2078L10.482 16.4817C9.86585 16.7441 9.07856 16.9609 8.15436 17.1549ZM20.3401 11.4955C20.2603 11.5526 20.0891 11.621 19.724 11.7237C19.724 11.7237 19.7126 11.7237 19.7012 11.7237C19.4388 11.7579 19.1649 11.7922 18.9025 11.8378L16.3124 12.5909C16.0386 13.1842 15.799 13.7319 15.6164 14.1883L15.605 14.2111C15.5936 14.2339 15.5137 14.3708 15.1258 15.3521C15.0117 15.5917 14.9204 15.8085 14.852 15.9682C14.8406 16.0024 14.7835 16.128 14.5439 16.6756L14.156 17.577L14.1445 17.5884C13.9734 17.8166 13.8821 17.8623 13.8137 17.8623C13.8137 17.8623 13.8022 17.8623 13.7908 17.8623C13.7794 17.8623 13.768 17.8623 13.7566 17.8623C13.6425 17.8166 13.5855 17.7596 13.5855 17.6797C13.5855 17.4401 13.7794 16.8924 14.1902 15.9568C14.5895 15.0098 15.0573 13.8688 15.5822 12.5909L15.5936 12.5795C15.6278 12.5224 15.6621 12.454 15.6963 12.3855C14.6352 12.5795 13.9962 12.6936 13.8022 12.7164L13.4599 12.762C13.4371 12.762 13.4143 12.762 13.3915 12.7506L13.2546 12.762C13.1062 12.762 13.0036 12.7392 12.9009 12.6936C12.7525 12.8533 12.57 13.0245 12.3532 13.2184C12.0223 13.4694 11.8968 13.5037 11.8169 13.5037H11.7827C11.5545 13.4808 11.429 13.3553 11.429 13.1614C11.429 13.0701 11.4746 13.013 11.8055 12.8191C12.2163 12.4768 12.4445 12.2486 12.5814 12.0888C12.6156 11.9519 12.6841 11.8378 12.7868 11.7237C12.7754 11.7237 12.7525 11.7237 12.7411 11.7123C12.319 11.7351 11.7713 11.9177 11.0981 12.2258C10.9041 12.2942 10.5732 12.4996 10.1054 12.8305C9.79739 13.1043 9.60342 13.3553 9.52355 13.5721C9.51214 13.6406 9.50073 13.6634 9.50073 13.6748C9.50073 13.8688 9.88867 14.0399 10.5504 14.1198C11.6001 14.2795 11.8626 14.4165 11.9538 14.4963C12.2163 14.6447 12.4216 14.8957 12.5357 15.2152L12.5472 15.2494V15.5232C12.5472 16.3447 11.3149 17.0065 8.67921 17.6112L8.02885 17.7368C8.02885 17.7368 8.01744 17.7368 8.00603 17.7368C7.98321 17.7368 7.9718 17.7368 7.94898 17.7253L7.89193 17.7368H7.88052C9.1242 19.6993 11.3149 21 13.8022 21C15.7419 21 17.4877 20.2127 18.7542 18.9462C20.0207 17.6797 20.808 15.9226 20.808 13.9943C20.808 13.1271 20.6368 12.2714 20.3401 11.4955Z" fill="#1882FF"/>
<path d="M22.3627 17.2456C22.2942 17.2456 22.2486 17.2228 22.2143 17.1772C22.1801 17.1315 22.1687 17.0859 22.1801 17.0174L23.5265 10.6849C23.5379 10.6164 23.5721 10.5594 23.6178 10.5138C23.6634 10.4681 23.7205 10.4453 23.7889 10.4453H26.185C26.5501 10.4453 26.881 10.4909 27.1549 10.5708C27.4287 10.6507 27.6683 10.7876 27.8394 10.9587C28.0106 11.1299 28.1361 11.3467 28.1932 11.6091C28.2502 11.8715 28.2502 12.1682 28.1817 12.5105C28.0334 13.1951 27.7253 13.7085 27.2575 14.0623C26.7897 14.4046 26.1964 14.5757 25.4662 14.5757H23.6748L23.1614 17.006C23.15 17.0745 23.1157 17.1201 23.0701 17.1658C23.0245 17.2114 22.9674 17.2342 22.8875 17.2342H22.3627V17.2456ZM23.8346 13.7884H25.4548C25.9112 13.7884 26.2877 13.6857 26.6072 13.4689C26.9267 13.2521 27.132 12.9441 27.2233 12.5333C27.2804 12.2595 27.2804 12.0313 27.2575 11.8487C27.2233 11.6662 27.1206 11.5178 26.9381 11.4266C26.7555 11.3239 26.4817 11.2782 26.1051 11.2782H24.3822L23.8346 13.7884Z" fill="#003897"/>
<path d="M30.1082 17.3466C29.7545 17.3466 29.4579 17.2781 29.2297 17.1526C29.0015 17.0271 28.8189 16.856 28.6934 16.6392C28.5679 16.4224 28.4994 16.1714 28.4652 15.8975C28.431 15.6237 28.4424 15.327 28.488 15.019C28.5108 14.9163 28.5222 14.8136 28.5451 14.7337C28.5679 14.6424 28.5907 14.5512 28.6135 14.4371C28.6934 14.129 28.7961 13.8437 28.9216 13.5699C29.0471 13.2961 29.2182 13.045 29.4122 12.8283C29.6062 12.6001 29.8458 12.4289 30.131 12.3034C30.4163 12.1779 30.7358 12.1094 31.1123 12.1094C31.5231 12.1094 31.8425 12.1779 32.0479 12.3148C32.2533 12.4517 32.4244 12.6229 32.5385 12.8283L32.6184 12.4289C32.6298 12.3604 32.6641 12.3148 32.7097 12.2692C32.7553 12.2235 32.8124 12.2007 32.8922 12.2007H33.3258C33.3943 12.2007 33.4399 12.2235 33.4742 12.2692C33.5084 12.3148 33.5198 12.3604 33.5084 12.4289L32.5271 17.0271C32.5157 17.0956 32.4815 17.1412 32.4359 17.1869C32.3902 17.2325 32.3332 17.2553 32.2647 17.2553H31.8197C31.7513 17.2553 31.7056 17.2325 31.6714 17.1869C31.6372 17.1412 31.6257 17.0956 31.6372 17.0271L31.7284 16.6164C31.5231 16.8217 31.3063 16.9929 31.0781 17.1298C30.8499 17.2781 30.519 17.3466 30.1082 17.3466ZM30.3136 16.5593C30.6331 16.5593 30.9183 16.4794 31.1579 16.3311C31.3975 16.1828 31.5915 15.9888 31.7398 15.7606C31.8882 15.5324 31.9909 15.2928 32.0479 15.0532C32.0707 14.9505 32.105 14.825 32.1278 14.6767C32.1506 14.5283 32.1848 14.4028 32.1962 14.3001C32.2533 14.0719 32.2533 13.8551 32.2077 13.627C32.162 13.4102 32.0707 13.2276 31.911 13.0793C31.7513 12.9424 31.5116 12.8625 31.2036 12.8625C30.8955 12.8625 30.6445 12.9309 30.4277 13.0793C30.2109 13.2276 30.0284 13.4102 29.8914 13.6498C29.7545 13.8894 29.6404 14.1404 29.5605 14.4142C29.5377 14.5169 29.5149 14.6082 29.4921 14.6995C29.4693 14.7908 29.4579 14.882 29.4464 14.9847C29.4122 15.2586 29.4008 15.5096 29.4122 15.7492C29.435 15.9888 29.5149 16.1714 29.6518 16.3197C29.7887 16.4794 30.0055 16.5593 30.3136 16.5593Z" fill="#003897"/>
<path d="M34.4129 19.0947C34.333 19.0947 34.2874 19.0605 34.2532 18.9921C34.2304 18.9236 34.2418 18.8551 34.2988 18.7639L35.4969 16.904L34.5498 12.4656C34.5384 12.3971 34.5498 12.3401 34.5841 12.283C34.6183 12.226 34.6753 12.2031 34.778 12.2031H35.2002C35.2687 12.2031 35.3257 12.2145 35.3599 12.2488C35.3942 12.283 35.417 12.3172 35.417 12.3743L36.1586 15.9114L38.4292 12.3743C38.452 12.3286 38.4863 12.2944 38.5319 12.2602C38.5775 12.226 38.6346 12.2145 38.7031 12.2145H39.2051C39.2621 12.2145 39.3078 12.2374 39.3534 12.2944C39.3991 12.3515 39.3876 12.4085 39.342 12.4998L35.1774 18.935C35.1432 18.9806 35.1089 19.0149 35.0633 19.0491C35.0176 19.0833 34.9606 19.0947 34.8921 19.0947H34.4129Z" fill="#003897"/>
<path d="M40.3124 11.8716H40.0842V12.6361H39.9473V11.8716H39.7305V11.7461H40.3238V11.8716H40.3124Z" fill="#003897"/>
<path d="M41.2137 12.6361H41.0767V12.077L40.8828 12.5676H40.7801L40.5861 12.0656V12.6361H40.4492V11.7461H40.5861L40.8257 12.3622L41.0653 11.7461H41.2023V12.6361H41.2137Z" fill="#003897"/>
</g>
<defs>
<clipPath id="clip0_2702_52507">
<rect width="48" height="28" fill="white"/>
</clipPath>
</defs>
</svg>
