<svg width="48" height="28" viewBox="0 0 48 28" fill="none" xmlns="http://www.w3.org/2000/svg">
<g clip-path="url(#clip0_2702_52657)">
<path d="M44 0.5H4C2.067 0.5 0.5 2.067 0.5 4V24C0.5 25.933 2.067 27.5 4 27.5H44C45.933 27.5 47.5 25.933 47.5 24V4C47.5 2.067 45.933 0.5 44 0.5Z" fill="white"/>
<path d="M16.4612 23.4202H15.9922V23.1484H17.2729V23.4202H16.8039V24.5864H16.4612V23.4202Z" fill="#77787B"/>
<path d="M17.8792 23.5087C17.9424 23.4824 18.0235 23.4648 18.1137 23.4648V23.7629C18.0776 23.7629 18.0506 23.7629 18.0415 23.7629C17.9513 23.7629 17.8702 23.7892 17.816 23.8419C17.762 23.8944 17.7349 23.9734 17.7349 24.0698V24.5871H17.4102V23.4824H17.7258V23.6314C17.762 23.5701 17.816 23.5349 17.8792 23.5087Z" fill="#77787B"/>
<path d="M19.4579 23.4844V24.5893H19.1422V24.4489C19.0971 24.4928 19.043 24.5366 18.9889 24.5541C18.9258 24.5805 18.8626 24.5893 18.7905 24.5893C18.6372 24.5893 18.5199 24.5454 18.4388 24.4664C18.3486 24.3875 18.3125 24.256 18.3125 24.0982V23.4844H18.6372V24.0631C18.6372 24.2385 18.7093 24.3262 18.8626 24.3262C18.9438 24.3262 19.007 24.2998 19.052 24.2473C19.0971 24.1946 19.1242 24.1245 19.1242 24.028V23.4844H19.4579Z" fill="#77787B"/>
<path d="M19.8727 24.5609C19.7825 24.5346 19.7103 24.5082 19.6562 24.4732L19.7645 24.2452C19.8185 24.2803 19.8727 24.2978 19.9448 24.3241C20.017 24.3416 20.0891 24.3504 20.1523 24.3504C20.2876 24.3504 20.3597 24.3153 20.3597 24.2539C20.3597 24.2189 20.3416 24.2014 20.3056 24.1838C20.2695 24.1662 20.2063 24.1575 20.1342 24.1487C20.044 24.1312 19.9629 24.1224 19.9087 24.1049C19.8456 24.0874 19.8005 24.0523 19.7554 24.0085C19.7103 23.9646 19.6923 23.9032 19.6923 23.8155C19.6923 23.7454 19.7103 23.684 19.7554 23.6314C19.8005 23.5788 19.8548 23.5349 19.9359 23.5087C20.0171 23.4824 20.1072 23.4648 20.2154 23.4648C20.2965 23.4648 20.3778 23.4736 20.459 23.4911C20.5402 23.5087 20.6032 23.5349 20.6573 23.5613L20.5491 23.7892C20.4499 23.7366 20.3416 23.7103 20.2244 23.7103C20.1523 23.7103 20.0981 23.7191 20.0621 23.7366C20.026 23.7542 20.0079 23.7805 20.0079 23.8067C20.0079 23.8419 20.026 23.8681 20.0621 23.8769C20.0981 23.8944 20.1612 23.9032 20.2425 23.912C20.3327 23.9296 20.4138 23.9471 20.4679 23.9558C20.531 23.9734 20.5762 23.9997 20.6213 24.0523C20.6664 24.0962 20.6843 24.1575 20.6843 24.2364C20.6843 24.3066 20.6664 24.368 20.6213 24.4205C20.5762 24.4732 20.522 24.517 20.4409 24.5434C20.3597 24.5696 20.2605 24.5871 20.1523 24.5871C20.053 24.5959 19.9629 24.5871 19.8727 24.5609Z" fill="#77787B"/>
<path d="M21.612 24.5244C21.5759 24.5506 21.5398 24.5682 21.4947 24.577C21.4496 24.5858 21.3955 24.5945 21.3504 24.5945C21.2151 24.5945 21.1069 24.5594 21.0347 24.4981C20.9625 24.4279 20.9265 24.3315 20.9265 24.1999V23.744H20.7461V23.4984H20.9175V23.2266H21.2422V23.4984H21.5218V23.744H21.2422V24.1911C21.2422 24.235 21.2512 24.2701 21.2783 24.2963C21.3053 24.3227 21.3414 24.3315 21.3865 24.3315C21.4406 24.3315 21.4857 24.3139 21.5218 24.2876L21.612 24.5244Z" fill="#77787B"/>
<path d="M23.3901 24.2708H22.7046L22.5784 24.5776H22.2266L22.885 23.1484H23.2187L23.8771 24.5776H23.5163L23.3901 24.2708ZM23.2819 24.0252L23.0474 23.4728L22.8128 24.0252H23.2819Z" fill="#77787B"/>
<path d="M24.6521 24.5805L24.3996 24.2385L24.138 24.5805H23.7773L24.2102 24.028L23.7863 23.4844H24.156L24.3996 23.8089L24.6431 23.4844H24.9948L24.5709 24.0193L25.0129 24.5805H24.6521Z" fill="#77787B"/>
<path d="M25.2024 23.2708C25.1664 23.2357 25.1484 23.1919 25.1484 23.1481C25.1484 23.0955 25.1664 23.0516 25.2024 23.0253C25.2386 22.9902 25.2926 22.9727 25.3468 22.9727C25.4099 22.9727 25.455 22.9902 25.4911 23.0253C25.5271 23.0604 25.5451 23.0955 25.5451 23.1481C25.5451 23.2007 25.5271 23.2445 25.4911 23.2796C25.455 23.3147 25.4009 23.3322 25.3468 23.3322C25.2926 23.3234 25.2386 23.3059 25.2024 23.2708ZM25.1844 23.4813H25.5091V24.5861H25.1844V23.4813Z" fill="#77787B"/>
<path d="M26.679 23.5878C26.7692 23.6667 26.8233 23.7894 26.8233 23.956V24.5874H26.5167V24.447C26.4535 24.5523 26.3363 24.6049 26.1739 24.6049C26.0838 24.6049 26.0116 24.5874 25.9484 24.5611C25.8853 24.5347 25.8402 24.4909 25.8041 24.4383C25.768 24.3857 25.75 24.3331 25.75 24.2629C25.75 24.1577 25.7861 24.0788 25.8673 24.0174C25.9484 23.9561 26.0656 23.9297 26.2371 23.9297H26.4986C26.4986 23.8596 26.4805 23.807 26.4354 23.7719C26.3903 23.7368 26.3272 23.7193 26.2371 23.7193C26.1739 23.7193 26.1198 23.728 26.0567 23.7456C26.0025 23.7632 25.9484 23.7894 25.9123 23.8245L25.7951 23.6053C25.8582 23.5614 25.9304 23.5264 26.0205 23.5089C26.1107 23.4825 26.192 23.4737 26.2912 23.4737C26.4535 23.465 26.5888 23.5089 26.679 23.5878ZM26.3994 24.3418C26.4445 24.3155 26.4716 24.2805 26.4896 24.2279V24.1139H26.2641C26.1289 24.1139 26.0656 24.1577 26.0656 24.2454C26.0656 24.2893 26.0838 24.3155 26.1107 24.3418C26.1378 24.3681 26.192 24.377 26.2461 24.377C26.3092 24.3857 26.3543 24.3681 26.3994 24.3418Z" fill="#77787B"/>
<path d="M27.8529 24.5244C27.8168 24.5506 27.7808 24.5682 27.7357 24.577C27.6906 24.5858 27.6364 24.5945 27.5913 24.5945C27.4561 24.5945 27.3478 24.5594 27.2757 24.4981C27.2035 24.4367 27.1675 24.3315 27.1675 24.1999V23.744H26.9961V23.4984H27.1675V23.2266H27.4921V23.4984H27.7717V23.744H27.4921V24.1911C27.4921 24.235 27.5011 24.2701 27.5282 24.2963C27.5553 24.3227 27.5913 24.3315 27.6364 24.3315C27.6906 24.3315 27.7357 24.3139 27.7717 24.2876L27.8529 24.5244Z" fill="#77787B"/>
<path d="M28.8976 23.5878C28.9878 23.6667 29.0419 23.7894 29.0419 23.956V24.5874H28.7353V24.447C28.6721 24.5523 28.5549 24.6049 28.3925 24.6049C28.3023 24.6049 28.2302 24.5874 28.1671 24.5611C28.104 24.5347 28.0589 24.4909 28.0227 24.4383C27.9867 24.3857 27.9688 24.3331 27.9688 24.2629C27.9688 24.1577 28.0047 24.0788 28.0859 24.0174C28.1671 23.9561 28.2843 23.9297 28.4556 23.9297H28.7172C28.7172 23.8596 28.6992 23.807 28.6541 23.7719C28.609 23.7368 28.5458 23.7193 28.4556 23.7193C28.3925 23.7193 28.3384 23.728 28.2753 23.7456C28.2212 23.7632 28.1671 23.7894 28.131 23.8245L28.0138 23.6053C28.0769 23.5614 28.1491 23.5264 28.2392 23.5089C28.3294 23.4825 28.4105 23.4737 28.5098 23.4737C28.6631 23.465 28.7984 23.5089 28.8976 23.5878ZM28.618 24.3418C28.6631 24.3155 28.6902 24.2805 28.7082 24.2279V24.1139H28.4827C28.3474 24.1139 28.2843 24.1577 28.2843 24.2454C28.2843 24.2893 28.3023 24.3155 28.3294 24.3418C28.3655 24.3681 28.4105 24.377 28.4647 24.377C28.5188 24.3857 28.5729 24.3681 28.618 24.3418Z" fill="#77787B"/>
<path d="M30.9401 23.2111C31.0393 23.2549 31.1114 23.3163 31.1656 23.3952C31.2196 23.4741 31.2467 23.5618 31.2467 23.6758C31.2467 23.781 31.2196 23.8687 31.1656 23.9476C31.1114 24.0265 31.0393 24.0879 30.9401 24.1317C30.8409 24.1756 30.7327 24.1931 30.5974 24.1931H30.2998V24.5877H29.957V23.1584H30.5974C30.7236 23.1497 30.8409 23.1672 30.9401 23.2111ZM30.8138 23.8512C30.8679 23.8073 30.895 23.7459 30.895 23.667C30.895 23.5881 30.8679 23.5267 30.8138 23.4829C30.7597 23.439 30.6785 23.4215 30.5793 23.4215H30.2998V23.9213H30.5793C30.6785 23.9213 30.7597 23.895 30.8138 23.8512Z" fill="#77787B"/>
<path d="M32.3001 23.5878C32.3903 23.6667 32.4444 23.7894 32.4444 23.956V24.5874H32.1378V24.447C32.0746 24.5523 31.9574 24.6049 31.7951 24.6049C31.7049 24.6049 31.6327 24.5874 31.5696 24.5611C31.5064 24.5347 31.4613 24.4909 31.4253 24.4383C31.3892 24.3857 31.3711 24.3331 31.3711 24.2629C31.3711 24.1577 31.4073 24.0788 31.4884 24.0174C31.5696 23.9561 31.6868 23.9297 31.8582 23.9297H32.1197C32.1197 23.8596 32.1017 23.807 32.0566 23.7719C32.0115 23.7368 31.9484 23.7193 31.8582 23.7193C31.7951 23.7193 31.7409 23.728 31.6778 23.7456C31.6237 23.7632 31.5696 23.7894 31.5335 23.8245L31.4162 23.6053C31.4794 23.5614 31.5515 23.5264 31.6417 23.5089C31.7319 23.4825 31.8131 23.4737 31.9123 23.4737C32.0746 23.465 32.2099 23.5089 32.3001 23.5878ZM32.0205 24.3418C32.0656 24.3155 32.0927 24.2805 32.1107 24.2279V24.1139H31.8853C31.75 24.1139 31.6868 24.1577 31.6868 24.2454C31.6868 24.2893 31.7049 24.3155 31.7319 24.3418C31.768 24.3681 31.8131 24.377 31.8672 24.377C31.9303 24.3857 31.9844 24.3681 32.0205 24.3418Z" fill="#77787B"/>
<path d="M33.8417 23.4844L33.3277 24.6506C33.2736 24.7734 33.2105 24.8698 33.1383 24.9224C33.0661 24.975 32.9669 25.0013 32.8587 25.0013C32.7956 25.0013 32.7414 24.9925 32.6874 24.975C32.6332 24.9575 32.5791 24.9312 32.543 24.9049L32.6603 24.6769C32.6874 24.6945 32.7144 24.712 32.7505 24.7295C32.7865 24.7382 32.8136 24.747 32.8497 24.747C32.8948 24.747 32.9308 24.7382 32.9579 24.712C32.985 24.6945 33.012 24.6594 33.0301 24.6068V24.598L32.543 23.4844H32.8857L33.2014 24.2298L33.517 23.4844H33.8417Z" fill="#77787B"/>
<path d="M30.3175 22.2925H19.2151C17.2671 22.2925 15.6797 20.758 15.6797 18.8552V8.06123C15.6797 6.16728 17.258 4.63281 19.2151 4.63281H30.3175C32.2656 4.63281 33.8529 6.16728 33.8529 8.07004V18.864C33.8439 20.758 32.2656 22.2925 30.3175 22.2925Z" fill="url(#paint0_linear_2702_52657)"/>
<path d="M26.0699 5.86719C20.7668 5.86719 16.4648 10.0497 16.4648 15.2056C16.4648 18.0378 17.7635 20.5719 19.8018 22.2817H30.3179C32.266 22.2817 33.8533 20.7473 33.8533 18.8445V9.73406C32.1037 7.39289 29.2717 5.86719 26.0699 5.86719Z" fill="url(#paint1_linear_2702_52657)"/>
<path d="M23.3256 21.1331C28.476 21.1331 32.6512 17.0739 32.6512 12.0666C32.6512 7.05927 28.476 3 23.3256 3C18.1752 3 14 7.05927 14 12.0666C14 17.0739 18.1752 21.1331 23.3256 21.1331Z" fill="url(#paint2_linear_2702_52657)"/>
<path d="M31.8216 14.5756C32.4563 10.7853 29.8105 7.21244 25.9118 6.59533C22.0132 5.9782 18.3382 8.55058 17.7034 12.3409C17.0687 16.1312 19.7145 19.7041 23.6131 20.3212C27.5118 20.9384 31.1868 18.366 31.8216 14.5756Z" fill="white"/>
<path d="M21.1892 14.5126C21.1802 14.5565 21.1802 14.5827 21.1802 14.6003C21.1802 14.7406 21.2614 14.8108 21.4147 14.8108C21.4959 14.8108 21.595 14.7844 21.6943 14.7406L21.8386 15.5736C21.6221 15.6876 21.3425 15.749 20.9998 15.749C20.6481 15.749 20.3685 15.6701 20.1701 15.5035C19.9716 15.3369 19.8634 15.1088 19.8634 14.8108C19.8634 14.7143 19.8725 14.6179 19.8995 14.5126L20.0618 13.7498H19.6289L19.8183 12.8378H20.2422L20.4136 11.9961H21.6943L21.5229 12.8378H22.1543L21.9648 13.7498H21.3335L21.1892 14.5126Z" fill="url(#paint3_linear_2702_52657)"/>
<path d="M26.0696 12.6806L25.4563 15.6969H24.2477L24.3019 15.4251C24.0674 15.6442 23.7878 15.7583 23.4632 15.7583C23.2557 15.7583 23.0483 15.7056 22.8499 15.5917C22.6514 15.4777 22.4981 15.3199 22.3718 15.1094C22.2456 14.8989 22.1914 14.6534 22.1914 14.3641C22.1914 14.0396 22.2636 13.7503 22.4169 13.4872C22.5703 13.2242 22.7686 13.0138 23.0212 12.8647C23.2737 12.7156 23.5443 12.6367 23.8419 12.6367C24.2568 12.6367 24.5544 12.7595 24.7257 13.0138L24.7979 12.6981H26.0696V12.6806ZM23.6074 14.6359C23.6886 14.7236 23.7968 14.7674 23.9412 14.7674C24.1035 14.7674 24.2388 14.7061 24.347 14.5832C24.4552 14.4605 24.5003 14.2939 24.5003 14.0835C24.5003 13.9432 24.4552 13.8292 24.3741 13.7415C24.2928 13.6538 24.1846 13.61 24.0403 13.61C23.878 13.61 23.7427 13.6714 23.6345 13.7941C23.5263 13.9169 23.4812 14.0835 23.4812 14.2939C23.4812 14.443 23.5263 14.557 23.6074 14.6359Z" fill="url(#paint4_linear_2702_52657)"/>
<path d="M29.2225 12.7925C29.4209 12.9066 29.5742 13.0644 29.7005 13.2748C29.8267 13.4852 29.8809 13.7308 29.8809 14.0201C29.8809 14.3445 29.8087 14.6339 29.6554 14.8969C29.502 15.16 29.3036 15.3705 29.0511 15.5195C28.7986 15.6686 28.528 15.7475 28.2304 15.7475C27.8155 15.7475 27.5179 15.6248 27.3466 15.3705L27.0579 16.7559H25.7773L26.616 12.6785H27.8246L27.7704 12.9503C28.0049 12.7312 28.2845 12.6172 28.6092 12.6172C28.8256 12.626 29.024 12.6785 29.2225 12.7925ZM28.4288 14.5813C28.5371 14.4585 28.5822 14.2919 28.5822 14.0815C28.5822 13.9412 28.5371 13.8272 28.4558 13.7395C28.3747 13.6518 28.2665 13.608 28.1222 13.608C27.9598 13.608 27.8246 13.6694 27.7164 13.7922C27.6081 13.9149 27.563 14.0815 27.563 14.2919C27.563 14.4322 27.5991 14.5462 27.6802 14.6339C27.7614 14.7216 27.8696 14.7655 28.014 14.7655C28.1944 14.7655 28.3296 14.704 28.4288 14.5813Z" fill="url(#paint5_linear_2702_52657)"/>
<path d="M44 0.5H4C2.067 0.5 0.5 2.067 0.5 4V24C0.5 25.933 2.067 27.5 4 27.5H44C45.933 27.5 47.5 25.933 47.5 24V4C47.5 2.067 45.933 0.5 44 0.5Z" stroke="#EBF0F5"/>
</g>
<defs>
<linearGradient id="paint0_linear_2702_52657" x1="32.8389" y1="5.20031" x2="16.9423" y2="22.4027" gradientUnits="userSpaceOnUse">
<stop stop-color="#50B748"/>
<stop offset="0.4038" stop-color="#4FB74A"/>
<stop offset="0.5492" stop-color="#4EB851"/>
<stop offset="0.6529" stop-color="#4AB85C"/>
<stop offset="0.7368" stop-color="#45BA6D"/>
<stop offset="0.8085" stop-color="#3FBB83"/>
<stop offset="0.8721" stop-color="#37BD9F"/>
<stop offset="0.9296" stop-color="#2EBFBF"/>
<stop offset="0.9807" stop-color="#24C2E3"/>
<stop offset="1" stop-color="#1FC3F3"/>
</linearGradient>
<linearGradient id="paint1_linear_2702_52657" x1="18.2786" y1="8.80931" x2="33.3565" y2="21.9189" gradientUnits="userSpaceOnUse">
<stop offset="0.1329" stop-color="#00934A"/>
<stop offset="0.8791" stop-color="#37B34A"/>
<stop offset="1" stop-color="#50B748"/>
</linearGradient>
<linearGradient id="paint2_linear_2702_52657" x1="17.1104" y1="5.6215" x2="29.1331" y2="18.8024" gradientUnits="userSpaceOnUse">
<stop stop-color="#EC1C24"/>
<stop offset="0.3115" stop-color="#E91C24"/>
<stop offset="0.5147" stop-color="#E11C24"/>
<stop offset="0.6869" stop-color="#D21D23"/>
<stop offset="0.8419" stop-color="#BD1D22"/>
<stop offset="0.984" stop-color="#A21E21"/>
<stop offset="1" stop-color="#9E1E21"/>
</linearGradient>
<linearGradient id="paint3_linear_2702_52657" x1="21.2715" y1="13.8967" x2="27.089" y2="15.9483" gradientUnits="userSpaceOnUse">
<stop stop-color="#EC1C24"/>
<stop offset="1" stop-color="#50B748"/>
</linearGradient>
<linearGradient id="paint4_linear_2702_52657" x1="21.5291" y1="13.1698" x2="27.3466" y2="15.2214" gradientUnits="userSpaceOnUse">
<stop stop-color="#EC1C24"/>
<stop offset="1" stop-color="#50B748"/>
</linearGradient>
<linearGradient id="paint5_linear_2702_52657" x1="21.6512" y1="12.8114" x2="27.4686" y2="14.863" gradientUnits="userSpaceOnUse">
<stop stop-color="#EC1C24"/>
<stop offset="1" stop-color="#50B748"/>
</linearGradient>
<clipPath id="clip0_2702_52657">
<rect width="48" height="28" fill="white"/>
</clipPath>
</defs>
</svg>
