<svg width="12" height="12" viewBox="0 0 12 12" fill="none" xmlns="http://www.w3.org/2000/svg">
<path d="M5.44743 4.92664L1.22943 3.12014C1.00554 3.02358 0.870538 2.86058 0.824427 2.63114C0.778205 2.40158 0.841427 2.20047 1.01409 2.0278L1.22943 1.80614C1.30554 1.73003 1.3957 1.67508 1.49993 1.6413C1.60426 1.60752 1.71243 1.59964 1.82443 1.61764L7.72826 2.6523L9.80759 0.562469C10.029 0.341136 10.2991 0.230469 10.6179 0.230469C10.9367 0.230469 11.2068 0.341136 11.4281 0.562469C11.6495 0.783803 11.7603 1.05391 11.7603 1.3728C11.7603 1.69158 11.6495 1.96164 11.4281 2.18297L9.34859 4.27264L10.3731 10.1663C10.391 10.2783 10.3848 10.3881 10.3544 10.4958C10.3241 10.6035 10.2709 10.6954 10.1948 10.7715L9.97309 10.9765C9.80043 11.1491 9.59765 11.2141 9.36476 11.1715C9.13187 11.1287 8.96709 10.9954 8.87043 10.7715L7.07426 6.54697L5.20126 8.4098L5.56143 10.483C5.57943 10.5727 5.57604 10.6597 5.55126 10.7438C5.52648 10.828 5.48159 10.9026 5.41659 10.9676L5.18459 11.1931C5.05471 11.3231 4.89937 11.3736 4.71859 11.3445C4.53782 11.3155 4.40254 11.2202 4.31276 11.0586L3.13459 8.8663L0.94226 7.68814C0.780705 7.59836 0.685427 7.46308 0.656427 7.2823C0.627316 7.10152 0.67776 6.94619 0.80776 6.8163L1.03326 6.5843C1.09826 6.5193 1.17287 6.47336 1.25709 6.44647C1.3412 6.41958 1.42815 6.41508 1.51793 6.43297L3.58076 6.78947L5.44743 4.92664Z" fill="#243045"/>
</svg>
