<svg width="48" height="28" viewBox="0 0 48 28" fill="none" xmlns="http://www.w3.org/2000/svg">
<g clip-path="url(#clip0_2702_52640)">
<path d="M44 0.5H4C2.067 0.5 0.5 2.067 0.5 4V24C0.5 25.933 2.067 27.5 4 27.5H44C45.933 27.5 47.5 25.933 47.5 24V4C47.5 2.067 45.933 0.5 44 0.5Z" fill="white"/>
<path d="M34.2266 19.082C34.2442 19.0826 34.2623 19.0837 34.2799 19.0843V19.0826C34.2618 19.0826 34.2442 19.0826 34.2266 19.082Z" fill="#807AB7"/>
<path d="M34.2969 14.7695V14.7721H34.3027" fill="#4A4A49"/>
<path d="M16.5615 11.4438C17.5476 11.4438 18.3496 10.6715 18.3496 9.72183C18.3496 8.7723 17.5476 8 16.5615 8C15.5754 8 14.7734 8.7723 14.7734 9.72183C14.7734 10.6715 15.5754 11.4438 16.5615 11.4438Z" fill="#004899"/>
<path d="M5.7881 11.4438C6.77415 11.4438 7.5762 10.6715 7.5762 9.72183C7.5762 8.7723 6.77415 8 5.7881 8C4.80204 8 4 8.7723 4 9.72183C4 10.6715 4.80204 11.4438 5.7881 11.4438Z" fill="#FFD600"/>
<path d="M17.5776 12.4258H15.8392C15.4143 12.4258 15.0686 12.7587 15.0686 13.1679V13.8557C15.0686 15.777 13.7575 16.5633 12.8756 16.8746C12.858 16.881 12.8405 16.8868 12.8235 16.8927C12.8059 16.8991 12.7884 16.9044 12.7702 16.9107C12.22 17.1048 11.6812 17.1689 11.2031 17.1672V17.1689C12.0081 17.1766 12.6607 17.8084 12.6607 18.5854C12.6607 19.3583 12.0142 19.9885 11.2146 20.0013C12.686 20.0118 13.6013 19.7518 13.7072 19.7197C14.8453 19.4575 15.7919 18.9969 16.5237 18.3347C17.7344 17.2384 18.3488 15.6248 18.3488 13.5398V13.1673C18.3482 12.7587 18.0025 12.4258 17.5776 12.4258Z" fill="#004899"/>
<path d="M11.1893 17.165H11.1857V17.1632C10.196 17.1574 9.47265 16.8712 9.47265 16.8712C8.59071 16.5594 7.27898 15.7736 7.27898 13.8517V13.1639C7.27898 12.7547 6.93335 12.4219 6.50841 12.4219H4.77056C4.34563 12.4219 4 12.7547 4 13.1639V13.5364C4 15.6214 4.61379 17.235 5.82502 18.3314C6.55381 18.9906 7.49508 19.45 8.62642 19.7129H8.6022C8.6494 19.7228 8.69536 19.7315 8.74205 19.7403C9.04586 19.8061 9.36365 19.858 9.69417 19.8959C10.2202 19.9624 10.7026 19.991 11.1396 19.9967C11.1645 19.9973 11.1905 19.9979 11.2153 19.9979C12.015 19.9845 12.662 19.3549 12.662 18.582C12.6608 17.801 12.001 17.165 11.1893 17.165Z" fill="#FFD600"/>
<path d="M28.9566 15.9345C28.9082 16.1316 28.9179 16.3286 29.0807 16.5606C29.3713 16.9745 29.9627 17.2007 30.4518 17.0001C31.0359 16.7612 32.5382 15.9299 33.6206 14.8982V17.5068C33.6206 17.6933 33.7779 17.8448 33.9717 17.8448H34.8439C35.0376 17.8448 35.195 17.6933 35.195 17.5068V12.9402C35.195 12.8329 35.2852 12.7455 35.3972 12.7455H36.1284C36.2125 12.7455 36.2809 12.8114 36.2809 12.8924V17.5068C36.2809 17.6933 36.4383 17.8448 36.632 17.8448H37.5042C37.6985 17.8448 37.8553 17.6933 37.8553 17.5068V11.6193C37.8553 11.4327 37.698 11.2812 37.5042 11.2812H33.9717C33.7779 11.2812 33.6206 11.4327 33.6206 11.6193C33.6206 11.7826 33.6169 12.3083 33.6218 12.4709C32.8451 11.8636 32.4959 11.5674 30.9705 11.4118C30.5135 11.3651 30.0492 11.3995 29.6104 11.5302C28.5589 11.8425 28.5632 12.4091 28.5595 12.5158C28.5468 12.8789 28.6673 13.2369 28.9016 13.5213C29.1437 13.8157 29.2732 14.1801 29.2871 14.5538C29.2974 14.8237 29.2489 15.0934 29.1673 15.3505C29.0989 15.5633 29.0021 15.7487 28.9566 15.9345ZM30.3156 13.1284C30.2308 13.0574 30.252 12.9233 30.3555 12.8801C30.9184 12.6476 32.9663 13.1902 32.8833 13.5849C32.7986 13.9883 30.3332 15.7608 30.5341 15.1542C30.5662 15.058 30.6745 14.7163 30.6999 14.6073C30.7417 14.4295 30.7665 14.2499 30.7581 14.067C30.7392 13.6641 30.5649 13.4286 30.3156 13.1284Z" fill="#4A4A49"/>
<path d="M44.1386 11.2812H38.7392C38.5419 11.2812 38.3833 11.4287 38.388 11.6077L38.3633 12.4902C38.3633 12.4948 38.3638 12.5001 38.3638 12.506C38.3784 12.7426 38.3275 13.2946 38.5255 13.6472C38.6295 13.8332 38.8457 13.9468 39.1683 13.9929C39.491 14.0395 39.8166 14.0659 39.9195 14.1695C40.3172 14.5729 39.5999 14.7507 39.1386 14.9063C38.5121 15.1179 38.3795 15.308 38.3795 15.7831C38.3795 16.2988 38.2966 16.5782 38.5103 17.0632C38.7404 17.5855 39.2603 17.5038 39.7784 17.4694C42.9164 17.2614 42.9473 18.159 43.9218 17.7241C44.3389 17.5376 44.4817 17.2245 44.4945 16.7704C44.4999 16.5851 44.4908 16.3963 44.4908 16.2104V14.4493V11.6001C44.4902 11.424 44.3329 11.2812 44.1386 11.2812ZM42.5424 16.1322C41.6694 15.9696 40.563 16.0232 40.4595 16.0051C40.204 15.9614 40.1713 15.7247 40.4631 15.5591C40.6295 15.4641 41.7227 15.1418 41.7402 14.3123V14.3019C41.7487 13.8933 41.4812 13.5242 41.0744 13.3814L40.5672 13.2037C40.313 13.1564 40.204 12.9442 40.204 12.8236C40.204 12.7741 40.2348 12.753 40.2682 12.7443C40.3075 12.7344 40.8753 12.742 40.8753 12.742H42.506C42.6997 12.742 42.8571 12.8848 42.8571 13.0609C42.8795 13.4986 42.8959 13.7795 42.9074 14.2167C42.9164 14.556 42.9231 14.8952 42.9206 15.2339C42.92 15.3219 42.9636 15.6979 42.9648 15.9544C42.9661 16.2662 42.6483 16.1521 42.5424 16.1322Z" fill="#4A4A49"/>
<path d="M27.8804 12.7405C28.0741 12.7405 28.2314 12.5849 28.2314 12.3931V11.6371C28.2314 11.4453 28.0741 11.2897 27.8804 11.2897L27.0269 11.2745C27.3828 10.7662 27.358 9.45523 25.9524 9.22325C25.1032 9.08276 23.7787 9.76479 22.9604 9.16317C22.6426 8.92949 22.3133 8.89447 22.1759 9.24248C22.1111 9.40571 22.0615 9.58113 22.0433 9.72625C22.0258 9.8598 22.0076 10.22 22.3993 10.4718C22.8381 10.754 23.7498 10.8595 25.1691 10.5756C25.8823 10.4334 26.1207 11.2897 25.3665 11.2897H23.5748H22.2055C22.0112 11.2897 21.8545 11.4453 21.8545 11.6377V12.3931C21.8545 12.5849 22.0118 12.7405 22.2055 12.7405L24.2587 12.7399C24.2587 12.7399 24.2594 13.6464 24.263 14.5558C24.2655 15.2162 24.6371 15.4849 25.7303 15.3572L26.6207 15.2115C26.717 15.1928 26.8035 15.275 26.7872 15.3706C26.6697 16.0701 25.8417 16.4245 24.8938 16.3669C24.2509 16.3278 23.8242 16.1343 23.6456 15.8241C23.1904 15.0354 23.2981 13.5438 23.2981 13.5438C23.2981 13.352 23.1408 13.1964 22.9471 13.1964H22.2419C22.1553 13.1964 22.076 13.2273 22.0149 13.2786C21.9386 13.3422 21.8352 13.6668 21.8078 13.9565C21.7685 14.3832 21.7521 15.0407 21.8545 15.4901C22.2219 17.1042 23.1317 17.8941 25.1117 17.8941C26.145 17.8941 26.8798 17.5297 27.3749 17.1275C27.9251 16.681 28.2327 16.0987 28.2327 15.3945V14.3185C28.2327 14.1606 28.1909 13.8213 27.8447 13.7053C27.7097 13.6604 27.5626 13.6691 27.4282 13.7163L26.4276 13.9454C26.4203 13.9478 26.4118 13.9506 26.4046 13.9518C26.1044 14.0177 25.9543 13.9921 25.8338 13.886C25.7442 13.8073 25.7001 13.6913 25.7006 13.5747L25.7043 12.7423L27.8804 12.7405Z" fill="#4A4A49"/>
<path d="M41.1301 19.9785C41.8117 20.0618 42.388 19.5075 42.3013 18.8511C42.242 18.4033 41.8674 18.042 41.4025 17.9849C40.7203 17.9015 40.1446 18.4559 40.2313 19.1128C40.2906 19.5605 40.6658 19.9219 41.1301 19.9785Z" fill="#4A4A49"/>
<path d="M44 0.5H4C2.067 0.5 0.5 2.067 0.5 4V24C0.5 25.933 2.067 27.5 4 27.5H44C45.933 27.5 47.5 25.933 47.5 24V4C47.5 2.067 45.933 0.5 44 0.5Z" stroke="#EBF0F5"/>
</g>
<defs>
<clipPath id="clip0_2702_52640">
<rect width="48" height="28" fill="white"/>
</clipPath>
</defs>
</svg>
