<svg width="48" height="28" viewBox="0 0 48 28" fill="none" xmlns="http://www.w3.org/2000/svg">
<g clip-path="url(#clip0_2702_52532)">
<path d="M44 0.5H4C2.067 0.5 0.5 2.067 0.5 4V24C0.5 25.933 2.067 27.5 4 27.5H44C45.933 27.5 47.5 25.933 47.5 24V4C47.5 2.067 45.933 0.5 44 0.5Z" fill="white"/>
<path d="M21.7738 18.8556H19.1992L20.8096 9.17578H23.3843L21.7738 18.8556Z" fill="#00579F"/>
<path d="M31.0994 9.41219C30.3629 9.13631 29.5798 8.99654 28.7906 9.00007C26.2481 9.00007 24.4578 10.3183 24.4474 12.2024C24.4265 13.5925 25.7295 14.3652 26.7058 14.8289C27.7022 15.3026 28.04 15.6117 28.04 16.034C28.0296 16.6826 27.2348 16.9815 26.4939 16.9815C25.6575 17.0041 24.8281 16.8272 24.0782 16.4664L23.7394 16.3118L23.3789 18.4847C24.2942 18.8298 25.2681 19.0046 26.2498 18.9999C28.9512 18.9999 30.7094 17.7019 30.7302 15.6945C30.7407 14.5966 30.0527 13.7521 28.5691 13.0579C27.6683 12.6154 27.1176 12.3165 27.1176 11.863C27.128 11.4508 27.584 11.0286 28.6003 11.0286C29.2602 11.0098 29.9159 11.1366 30.5183 11.3993L30.7511 11.5024L31.0994 9.41219Z" fill="#00579F"/>
<path d="M34.5249 15.4262C34.7368 14.8705 35.5525 12.7179 35.5525 12.7179C35.5421 12.7382 35.7644 12.1512 35.8912 11.7889L36.0711 12.6233C36.0711 12.6233 36.5584 14.9407 36.6643 15.4246L34.5249 15.4262ZM37.7024 9.17688H35.7106C35.426 9.14346 35.1381 9.20464 34.8938 9.35046C34.6495 9.49627 34.4632 9.71814 34.3651 9.98L30.543 18.8566H33.2445L33.7848 17.4049H37.09C37.1638 17.7427 37.3975 18.8566 37.3975 18.8566H39.781L37.7032 9.17518L37.7024 9.17688Z" fill="#00579F"/>
<path d="M17.0472 9.17578L14.5282 15.7765L14.2528 14.4379C13.6241 12.7039 12.3548 11.2591 10.6914 10.3843L13.0011 18.8496H15.7234L19.7704 9.18001L17.0472 9.17578Z" fill="#00579F"/>
<path d="M12.1842 9.1749H8.04256L8 9.37085C9.39136 9.64868 10.6905 10.2567 11.7816 11.1407C12.8728 12.0248 13.7222 13.1574 14.2542 14.4379L13.3534 9.98903C13.2985 9.73663 13.1486 9.51327 12.9332 9.36268C12.7177 9.21209 12.4522 9.14511 12.1886 9.1749H12.1842Z" fill="#FAA61A"/>
<path d="M44 0.5H4C2.067 0.5 0.5 2.067 0.5 4V24C0.5 25.933 2.067 27.5 4 27.5H44C45.933 27.5 47.5 25.933 47.5 24V4C47.5 2.067 45.933 0.5 44 0.5Z" stroke="#EBF0F5"/>
</g>
<defs>
<clipPath id="clip0_2702_52532">
<rect width="48" height="28" fill="white"/>
</clipPath>
</defs>
</svg>
