<svg width="24" height="24" viewBox="0 0 24 24" fill="none" xmlns="http://www.w3.org/2000/svg">
<path d="M23.4358 11.7741C23.4061 11.5858 23.2875 11.3975 23.1688 11.3222L20.7362 9.43933L20.9439 9.0251C21.0626 8.79916 21.0626 8.49791 20.9439 8.23431C20.8252 8.00837 20.6176 7.85774 20.4099 7.85774L19.9649 7.8954V5.10879C19.9649 3.94142 19.2233 3 18.3037 3H3.76753C2.84789 3 2.10626 3.94142 2.10626 5.10879V15.7657C2.10626 15.9916 2.13592 16.1799 2.16559 16.3682H1.30528C0.593311 16.3682 0 17.1213 0 18.0251V19.3431C0 20.2469 0.593311 21 1.30528 21H20.7659C21.4779 21 22.0712 20.2469 22.0712 19.3431V18.0251C22.0712 17.1213 21.4779 16.3682 20.7659 16.3682H19.9056C19.9649 16.1799 19.9649 15.954 19.9649 15.7657V13.5063L21.5669 14.749C21.6559 14.8243 21.7745 14.8619 21.8635 14.8619C21.9229 14.8619 21.9525 14.8619 22.0119 14.8243C22.1602 14.7866 22.3085 14.636 22.3678 14.4854L23.3765 12.3766C23.4655 12.1883 23.4951 11.9623 23.4358 11.7741ZM20.8846 18.0628V19.3808C20.8846 19.4561 20.8252 19.5314 20.7659 19.5314H1.30528C1.24595 19.5314 1.18662 19.4561 1.18662 19.3808V18.0628C1.18662 17.9874 1.24595 17.9121 1.30528 17.9121H3.76753H18.3037H20.7659C20.8252 17.8745 20.8846 17.9498 20.8846 18.0628ZM3.76753 16.3682C3.50054 16.3682 3.29288 16.1046 3.29288 15.7657V5.10879C3.29288 4.76987 3.50054 4.50628 3.76753 4.50628H18.3037C18.5706 4.50628 18.7783 4.76987 18.7783 5.10879V8.04602L17.0577 8.19665C16.8797 8.19665 16.7017 8.34728 16.5831 8.57322C16.4941 8.79916 16.4644 9.0251 16.5534 9.25105L17.8883 13.1674C17.9773 13.431 18.185 13.6192 18.3927 13.6192C18.452 13.6192 18.4816 13.6192 18.541 13.6192C18.541 13.6192 18.541 13.6192 18.5706 13.6192C18.63 13.6192 18.6596 13.5816 18.719 13.5439C18.7486 13.5439 18.7783 13.5063 18.808 13.4686V15.728C18.808 16.0669 18.6003 16.3305 18.3333 16.3305H3.76753V16.3682ZM21.6559 13.0544L19.6683 11.5105L19.2233 11.1715C19.1936 11.1339 19.1343 11.0962 19.075 11.0962H19.0453C18.986 11.0962 18.9563 11.0586 18.897 11.0586C18.897 11.0586 18.897 11.0586 18.8673 11.0586C18.8376 11.0586 18.808 11.0586 18.808 11.0586H18.7783C18.7486 11.0586 18.719 11.0586 18.719 11.0962H18.6893C18.6596 11.0962 18.63 11.1339 18.63 11.1339C18.63 11.1339 18.6003 11.1339 18.6003 11.1715C18.5706 11.2092 18.541 11.2092 18.5113 11.2469L17.9477 9.62761L19.3419 9.47699C19.2826 9.77824 19.3716 10.1548 19.6089 10.3431L22.0415 12.2259L21.6559 13.0544Z" fill="#243045"/>
<path d="M10.706 6.46191H5.09917C4.77285 6.46191 4.50586 6.80083 4.50586 7.21505C4.50586 7.62928 4.77285 7.96819 5.09917 7.96819H10.706C11.0323 7.96819 11.2993 7.62928 11.2993 7.21505C11.2993 6.80083 11.0323 6.46191 10.706 6.46191Z" fill="#243045"/>
<path d="M10.706 9.66309H5.09917C4.77285 9.66309 4.50586 10.002 4.50586 10.4162C4.50586 10.8305 4.77285 11.1694 5.09917 11.1694H10.706C11.0323 11.1694 11.2993 10.8305 11.2993 10.4162C11.2993 9.96434 11.0323 9.66309 10.706 9.66309Z" fill="#243045"/>
<path d="M10.706 12.8252H5.09917C4.77285 12.8252 4.50586 13.1641 4.50586 13.5783C4.50586 13.9926 4.77285 14.3315 5.09917 14.3315H10.706C11.0323 14.3315 11.2993 13.9926 11.2993 13.5783C11.2993 13.1641 11.0323 12.8252 10.706 12.8252Z" fill="#243045"/>
</svg>
