<svg width="24" height="24" viewBox="0 0 24 24" fill="none" xmlns="http://www.w3.org/2000/svg">
<path d="M7.54232 13.2856H12.5007C12.8919 13.2856 13.209 12.998 13.209 12.6427V11.6784C13.209 10.7041 12.6718 9.845 11.8563 9.32065C12.2525 8.92165 12.5007 8.39922 12.5007 7.82129C12.5007 6.58079 11.3883 5.57129 10.0215 5.57129C8.65464 5.57129 7.54232 6.58079 7.54232 7.82129C7.54232 8.39922 7.79047 8.92165 8.18666 9.32065C7.37114 9.845 6.83398 10.7041 6.83398 11.6784V12.6427C6.83398 12.998 7.15108 13.2856 7.54232 13.2856ZM10.0215 6.857C10.6073 6.857 11.084 7.28965 11.084 7.82129C11.084 8.35293 10.6073 8.78557 10.0215 8.78557C9.43569 8.78557 8.95898 8.35293 8.95898 7.82129C8.95898 7.28965 9.43569 6.857 10.0215 6.857ZM8.25065 11.6784C8.25065 10.7924 9.04516 10.0713 10.0215 10.0713C10.9978 10.0713 11.7923 10.7924 11.7923 11.6784V11.9999H8.25065V11.6784Z" fill="#243045"/>
<path d="M19.5833 3H5.41667C4.63537 3 4 3.57664 4 4.28571V19.7143C4 20.4231 4.63537 21 5.41667 21H19.5833C20.3646 21 21 20.4231 21 19.7143V4.28571C21 3.57664 20.3646 3 19.5833 3ZM5.41667 19.7143V4.28571H19.5833L19.5843 19.7143H5.41667Z" fill="#243045"/>
<path d="M18.1673 15.2141C18.1673 15.5694 17.8502 15.857 17.459 15.857H7.54232C7.15108 15.857 6.83398 15.5694 6.83398 15.2141C6.83398 14.8589 7.15108 14.5713 7.54232 14.5713H17.459C17.8502 14.5713 18.1673 14.8589 18.1673 15.2141Z" fill="#243045"/>
<path d="M18.1673 17.7859C18.1673 18.1412 17.8502 18.4288 17.459 18.4288H7.54232C7.15108 18.4288 6.83398 18.1412 6.83398 17.7859C6.83398 17.4306 7.15108 17.1431 7.54232 17.1431H17.459C17.8502 17.1431 18.1673 17.4306 18.1673 17.7859Z" fill="#243045"/>
<path d="M18.1667 10.7141C18.1667 11.0692 17.8496 11.357 17.4583 11.357H15.3333C14.9421 11.357 14.625 11.0692 14.625 10.7141C14.625 10.3591 14.9421 10.0713 15.3333 10.0713H17.4583C17.8496 10.0713 18.1667 10.3591 18.1667 10.7141Z" fill="#243045"/>
<path d="M18.1667 8.14286C18.1667 8.49793 17.8496 8.78571 17.4583 8.78571H15.3333C14.9421 8.78571 14.625 8.49793 14.625 8.14286C14.625 7.78779 14.9421 7.5 15.3333 7.5H17.4583C17.8496 7.5 18.1667 7.78779 18.1667 8.14286Z" fill="#243045"/>
</svg>
