<svg width="22" height="22" viewBox="0 0 22 22" fill="none" xmlns="http://www.w3.org/2000/svg">
<path d="M11.1492 15.3422C11.7183 15.3422 12.2293 15.2003 12.6819 14.9163C13.1344 14.6324 13.3607 14.177 13.3607 13.55C13.3607 13.0282 13.1662 12.6125 12.7772 12.303C12.388 11.9933 11.662 11.6436 10.5992 11.2537C9.571 10.8846 8.82934 10.4712 8.37417 10.0135C7.919 9.55583 7.69142 8.95133 7.69142 8.2C7.69142 7.55517 7.92417 6.96475 8.38967 6.42875C8.855 5.89292 9.50559 5.55125 10.3414 5.40375V4.875C10.3414 4.693 10.4098 4.53375 10.5464 4.39725C10.6829 4.26058 10.8422 4.19225 11.0242 4.19225C11.2062 4.19225 11.3654 4.26058 11.5019 4.39725C11.6386 4.53375 11.7069 4.693 11.7069 4.875V5.40375C12.1774 5.43708 12.6153 5.59 13.0204 5.8625C13.4254 6.135 13.7562 6.47317 14.0127 6.877C14.1037 7.01533 14.112 7.16308 14.0377 7.32025C13.9633 7.47725 13.8383 7.58783 13.6627 7.652C13.4973 7.716 13.3303 7.72433 13.1617 7.677C12.9932 7.6295 12.855 7.53333 12.7472 7.3885C12.555 7.15633 12.3194 6.96817 12.0404 6.824C11.7616 6.67983 11.4312 6.60775 11.0492 6.60775C10.4273 6.60775 9.93984 6.75517 9.58667 7.05C9.23351 7.34483 9.05692 7.72817 9.05692 8.2C9.05692 8.67183 9.22934 9.03917 9.57417 9.302C9.91901 9.56483 10.6171 9.87575 11.6684 10.2348C12.8684 10.6681 13.6748 11.1539 14.0877 11.6923C14.5005 12.2308 14.7069 12.85 14.7069 13.55C14.7069 14.027 14.6188 14.4456 14.4424 14.8057C14.2661 15.1661 14.0357 15.469 13.7512 15.7145C13.4665 15.96 13.1424 16.1539 12.7789 16.2962C12.4154 16.4384 12.0414 16.5384 11.6569 16.5963V17.125C11.6569 17.307 11.5886 17.4663 11.4519 17.6028C11.3154 17.7394 11.1562 17.8078 10.9742 17.8078C10.7922 17.8078 10.6329 17.7394 10.4964 17.6028C10.3598 17.4663 10.2914 17.307 10.2914 17.125V16.5462C9.67742 16.4129 9.14542 16.1741 8.69542 15.8298C8.24542 15.4856 7.88067 15.0366 7.60117 14.4827C7.52034 14.3071 7.51967 14.1333 7.59917 13.9615C7.67867 13.7897 7.80625 13.6718 7.98192 13.6077C8.14725 13.5436 8.31584 13.5445 8.48767 13.6105C8.65951 13.6767 8.79092 13.7873 8.88192 13.9423C9.14092 14.4012 9.46559 14.7493 9.85592 14.9865C10.2463 15.2237 10.6773 15.3422 11.1492 15.3422ZM10.9992 21.5C9.04917 21.5 7.27959 21.0173 5.69042 20.0518C4.10142 19.0864 2.85501 17.7928 1.95117 16.171V18.4038C1.95117 18.6166 1.87934 18.7948 1.73567 18.9385C1.59217 19.082 1.41401 19.1538 1.20117 19.1538C0.988339 19.1538 0.810089 19.082 0.666422 18.9385C0.522922 18.7948 0.451172 18.6166 0.451172 18.4038V14.5577C0.451172 14.2999 0.537338 14.0848 0.709672 13.9125C0.882172 13.74 1.09726 13.6538 1.35492 13.6538H5.20117C5.41401 13.6538 5.59217 13.7256 5.73567 13.8693C5.87934 14.0128 5.95117 14.1909 5.95117 14.4038C5.95117 14.6166 5.87934 14.7948 5.73567 14.9385C5.59217 15.082 5.41401 15.1538 5.20117 15.1538H3.11067C3.83367 16.6103 4.90226 17.7821 6.31642 18.6693C7.73059 19.5564 9.2915 20 10.9992 20C13.3235 20 15.3299 19.2327 17.0184 17.698C18.7069 16.1635 19.6807 14.2482 19.9397 11.952C19.9665 11.743 20.0543 11.5738 20.2029 11.4443C20.3518 11.3147 20.5306 11.25 20.7394 11.25C20.9523 11.25 21.1314 11.3215 21.2769 11.4645C21.4224 11.6073 21.4818 11.7782 21.4549 11.977C21.3318 13.3167 20.9747 14.5637 20.3837 15.7182C19.7927 16.8727 19.0296 17.8785 18.0944 18.7355C17.1591 19.5925 16.086 20.2675 14.8752 20.7605C13.6642 21.2535 12.3722 21.5 10.9992 21.5ZM10.9992 2C8.71334 2 6.71817 2.75608 5.01367 4.26825C3.30917 5.78042 2.32417 7.70383 2.05867 10.0385C2.03184 10.2475 1.94409 10.4183 1.79542 10.551C1.64659 10.6837 1.46776 10.75 1.25892 10.75C1.03959 10.75 0.858755 10.6785 0.716422 10.5355C0.574255 10.3927 0.516589 10.2187 0.543422 10.0135C0.679255 8.64817 1.04751 7.38658 1.64817 6.22875C2.24884 5.07108 3.01684 4.06858 3.95217 3.22125C4.88734 2.37375 5.95717 1.70833 7.16167 1.225C8.36617 0.741667 9.64534 0.5 10.9992 0.5C12.93 0.5 14.6996 0.984333 16.3079 1.953C17.9163 2.9215 19.1627 4.22633 20.0472 5.8675V3.59625C20.0472 3.38342 20.119 3.20517 20.2627 3.0615C20.4062 2.918 20.5843 2.84625 20.7972 2.84625C21.01 2.84625 21.1883 2.918 21.3319 3.0615C21.4754 3.20517 21.5472 3.38342 21.5472 3.59625V7.44225C21.5472 7.70008 21.461 7.91517 21.2887 8.0875C21.1162 8.26 20.9011 8.34625 20.6434 8.34625H16.7972C16.5843 8.34625 16.4062 8.27442 16.2627 8.13075C16.119 7.98725 16.0472 7.80908 16.0472 7.59625C16.0472 7.38342 16.119 7.20517 16.2627 7.0615C16.4062 6.918 16.5843 6.84625 16.7972 6.84625H18.8877C18.1838 5.41542 17.1233 4.25 15.7059 3.35C14.2886 2.45 12.7197 2 10.9992 2Z" fill="#243045"/>
</svg>
