<svg width="24" height="24" viewBox="0 0 24 24" fill="none" xmlns="http://www.w3.org/2000/svg">
<path d="M3.16047 4.63698C3.8646 4.15257 4.72528 4.05569 5.51311 4.35745C6.30093 4.6592 6.88884 5.31515 7.10943 6.15479L7.79187 8.72718C8.06465 8.25388 8.44281 7.84414 8.90567 7.53231C9.01104 7.45662 9.12626 7.40314 9.24147 7.33855C8.52751 6.80066 8.05482 5.93881 8.05482 4.95992C8.05482 3.32405 9.34685 2 10.9432 2C12.5395 2 13.8315 3.32405 13.8315 4.95992C13.8315 5.93984 13.3588 6.80066 12.6449 7.33855C12.7601 7.40314 12.8763 7.45662 12.9807 7.53231L14.3357 8.45772H15.6701C16.973 8.45772 18.0336 9.5446 18.0336 10.8798C18.0336 11.2461 17.9499 11.5902 17.813 11.902C19.2202 12.3976 20.271 13.6893 20.4394 15.2717L20.986 20.2661C21.0598 20.9554 20.8392 21.6548 20.3872 22.1715C19.9352 22.6882 19.2843 22.9899 18.6018 22.9899C17.425 22.9899 16.4383 22.1291 16.2384 20.9443L15.9754 19.3296C15.5973 19.5991 15.1354 19.7706 14.641 19.7706H14.1368L14.8409 21.9343C14.9247 22.1816 14.8833 22.451 14.7356 22.666C14.5888 22.8809 14.3466 23 14.0945 23H7.79188C7.53978 23 7.29851 22.8708 7.15078 22.666C7.00405 22.451 6.9617 22.1815 7.04541 21.9343L7.75937 19.7383C6.12069 19.5658 4.73412 18.382 4.32445 16.7138L2.07619 7.51009C1.81325 6.42321 2.24459 5.27071 3.15847 4.64706L3.16047 4.63698ZM10.9442 3.61469C10.2194 3.61469 9.63147 4.21716 9.63147 4.95992C9.63147 5.70268 10.2194 6.30515 10.9442 6.30515C11.669 6.30515 12.2569 5.70268 12.2569 4.95992C12.2569 4.21716 11.669 3.61469 10.9442 3.61469ZM17.1207 16.4888L17.8032 20.6759C17.8662 21.0846 18.2128 21.3752 18.6117 21.3752C18.8431 21.3752 19.0637 21.2784 19.2213 21.0957C19.3788 20.913 19.4527 20.687 19.4212 20.4498L18.8746 15.4554C18.7377 14.2282 17.7293 13.3028 16.522 13.3028H13.0447C12.8349 13.3028 12.635 13.217 12.4883 13.0657L11.4375 11.9889C11.1333 11.677 11.1333 11.1603 11.4375 10.8475C11.7418 10.5356 12.246 10.5356 12.5513 10.8475L13.3707 11.6871H15.6711C16.1015 11.6871 16.4589 11.3208 16.4589 10.8798C16.4589 10.4388 16.1015 10.0724 15.6711 10.0724H14.0955C13.9379 10.0724 13.7912 10.029 13.6543 9.93214L12.0993 8.87756C11.3952 8.39315 10.4813 8.39315 9.77819 8.87756C9.09575 9.35085 8.73826 10.1905 8.87516 11.0201L9.17945 12.8931C9.36852 14.0668 10.3563 14.9165 11.5114 14.9165H15.3038C16.2068 14.9165 16.974 15.5836 17.1207 16.4878L17.1207 16.4888ZM13.0034 21.3763L12.4785 19.7616H9.41088L8.886 21.3763H13.0034ZM3.6125 7.11353L5.86076 16.3173C6.1237 17.3941 7.06909 18.1469 8.15036 18.1469H14.642C15.0625 18.1469 15.4092 17.7917 15.4092 17.3184C15.4092 16.8874 15.0625 16.5322 14.642 16.5322H11.2495C9.47391 16.5322 7.91994 15.305 7.44725 13.5612L5.58798 6.58572C5.50428 6.25167 5.27285 6.00443 4.95772 5.87525C4.64259 5.75718 4.30679 5.79956 4.033 5.98324C3.67552 6.23048 3.50813 6.6826 3.6125 7.11353Z" fill="#243045"/>
</svg>
