<svg width="24" height="24" viewBox="0 0 24 24" fill="none" xmlns="http://www.w3.org/2000/svg">
<g clip-path="url(#clip0_436_6622)">
<path d="M12.375 5.5C12.0299 5.50021 11.7502 5.77995 11.75 6.125C11.7502 6.47005 12.0299 6.74979 12.375 6.74979H13.625C13.7908 6.74979 13.9497 6.68406 14.0669 6.56687C14.1843 6.44969 14.25 6.29063 14.2502 6.125C14.25 5.95917 14.1843 5.80031 14.0669 5.68312C13.9497 5.56594 13.7908 5.5 13.625 5.5H12.375Z" fill="#243045"/>
<path d="M7.99979 3C6.97177 3 6.125 3.84677 6.125 4.875V12.375C6.125 12.7201 6.40474 12.9998 6.74979 13C6.91562 13 7.07448 12.9341 7.19167 12.8169C7.30906 12.6997 7.375 12.5408 7.375 12.375V4.875C7.375 4.5224 7.64719 4.25 7.99979 4.25H18C18.3526 4.25 18.6248 4.5224 18.6248 4.875V12.375C18.625 12.7201 18.9045 12.9998 19.2496 13C19.4154 13 19.5745 12.9341 19.6917 12.8169C19.8089 12.6997 19.8748 12.5408 19.8748 12.375V4.875C19.8748 3.84677 19.028 3 18 3H7.99979Z" fill="#243045"/>
<path d="M13 14.25C13.6978 14.25 14.2502 14.8022 14.2502 15.5C14.2502 16.1977 13.6979 16.75 13 16.75C12.3023 16.75 11.75 16.1977 11.75 15.5C11.75 14.8022 12.3023 14.25 13 14.25ZM13 13C11.6267 13 10.5 14.1267 10.5 15.5C10.5 16.8733 11.6267 18 13 18C14.3735 18 15.5002 16.8733 15.5002 15.5C15.5002 14.1267 14.3735 13 13 13Z" fill="#243045"/>
<path d="M6.75 15.5C7.44781 15.5 8 16.0522 8 16.75C8 17.4477 7.44781 18 6.75 18C6.05219 18 5.5 17.4477 5.5 16.75C5.5 16.0522 6.05219 15.5 6.75 15.5ZM6.75 14.25C5.37672 14.25 4.25 15.3767 4.25 16.75C4.25 18.1233 5.37672 19.25 6.75 19.25C8.12328 19.25 9.25 18.1233 9.25 16.75C9.25 15.3767 8.12328 14.25 6.75 14.25Z" fill="#243045"/>
<path d="M11.125 18.625C10.0968 18.625 9.25 19.4722 9.25 20.5002V22.3752C9.25 22.541 9.31594 22.6999 9.43312 22.8173C9.55031 22.9345 9.70937 23.0002 9.87521 23.0002C10.041 23.0002 10.1999 22.9343 10.3171 22.8171C10.4343 22.6999 10.5 22.5408 10.5 22.3752V20.5002C10.5 20.1476 10.7724 19.875 11.125 19.875H14.875C15.2276 19.875 15.5002 20.1476 15.5002 20.5002V22.3752C15.5 22.5408 15.5659 22.6999 15.6831 22.8171C15.8003 22.9343 15.9592 23.0002 16.125 23.0002C16.2908 23.0002 16.4499 22.9345 16.5671 22.8173C16.6843 22.6999 16.7502 22.541 16.7502 22.3752V20.5002C16.7502 19.4722 15.903 18.625 14.875 18.625H11.125Z" fill="#243045"/>
<path d="M4.87521 19.875C3.84698 19.875 3 20.7222 3 21.7502V22.3752C2.99979 22.541 3.06573 22.6999 3.18292 22.8173C3.30031 22.9345 3.45917 23.0002 3.625 23.0002C3.79083 23.0002 3.9499 22.9343 4.06708 22.8171C4.18427 22.6999 4.25 22.5408 4.25 22.3752V21.7502C4.25 21.3976 4.5226 21.125 4.87521 21.125H7.37521C7.72026 21.125 8 20.8453 8 20.5002C8 20.3344 7.93427 20.1755 7.81708 20.0583C7.6999 19.9409 7.54104 19.8752 7.37521 19.875H4.87521Z" fill="#243045"/>
<path d="M19.25 15.5C18.5522 15.5 18 16.0522 18 16.75C18 17.4477 18.5522 18 19.25 18C19.9478 18 20.5 17.4477 20.5 16.75C20.5 16.0522 19.9478 15.5 19.25 15.5ZM19.25 14.25C20.6233 14.25 21.7498 15.3767 21.7498 16.75C21.7498 18.1233 20.6233 19.25 19.25 19.25C17.8767 19.25 16.75 18.1233 16.75 16.75C16.75 15.3767 17.8767 14.25 19.25 14.25Z" fill="#243045"/>
<path d="M18.6248 19.875C18.459 19.8752 18.3001 19.9409 18.1829 20.0583C18.0657 20.1755 18 20.3344 18 20.5002C18 20.8453 18.2797 21.125 18.6248 21.125H21.1248C21.4774 21.125 21.7498 21.3976 21.7498 21.7502V22.3752C21.7496 22.541 21.8155 22.6999 21.9327 22.8173C22.0501 22.9345 22.209 23.0002 22.3748 23.0002C22.5406 23.0002 22.6997 22.9343 22.8169 22.8171C22.9341 22.6999 22.9998 22.5408 22.9998 22.3752V21.7502C22.9998 20.7222 22.153 19.875 21.1248 19.875H18.6248Z" fill="#243045"/>
<path d="M9.24979 5.5C8.90474 5.50021 8.625 5.77995 8.625 6.125C8.625 6.47005 8.90474 6.74979 9.24979 6.74979H10.4998C10.8448 6.74979 11.1246 6.47005 11.1248 6.125C11.1246 5.77995 10.8448 5.50021 10.4998 5.5H9.24979Z" fill="#243045"/>
<path d="M15.5002 5.5C15.3344 5.5 15.1753 5.56594 15.0581 5.68312C14.9409 5.80031 14.875 5.95917 14.875 6.125C14.875 6.29063 14.9409 6.44969 15.0581 6.56687C15.1753 6.68406 15.3344 6.74979 15.5002 6.74979H16.7502C17.0953 6.74979 17.375 6.47005 17.375 6.125C17.375 5.77995 17.0953 5.50021 16.7502 5.5H15.5002Z" fill="#243045"/>
<path d="M12.375 8C12.2092 8 12.0503 8.06594 11.9331 8.18312C11.8159 8.30052 11.75 8.45938 11.75 8.62521C11.7502 8.97026 12.0299 9.25 12.375 9.25H13.625C13.7908 9.25 13.9497 9.18427 14.0669 9.06708C14.1843 8.9499 14.25 8.79104 14.2502 8.62521C14.2502 8.45938 14.1843 8.30031 14.0671 8.18312C13.9497 8.06594 13.7908 8 13.625 8H12.375Z" fill="#243045"/>
<path d="M9.24979 8C9.08396 8 8.9251 8.06594 8.80792 8.18312C8.69073 8.30052 8.625 8.45938 8.625 8.62521C8.625 8.97026 8.90474 9.25 9.24979 9.25H10.4998C10.8448 9.25 11.1246 8.97026 11.1248 8.62521C11.1248 8.45938 11.0589 8.30052 10.9417 8.18312C10.8245 8.06594 10.6656 8 10.4998 8H9.24979Z" fill="#243045"/>
<path d="M15.5002 8C15.3344 8 15.1753 8.06594 15.0581 8.18312C14.9407 8.30031 14.875 8.45938 14.875 8.62521C14.875 8.79104 14.9409 8.9499 15.0581 9.06708C15.1753 9.18427 15.3344 9.25 15.5002 9.25H16.7502C17.0953 9.25 17.375 8.97026 17.375 8.62521C17.375 8.45938 17.3093 8.30052 17.1921 8.18312C17.0749 8.06594 16.916 8 16.7502 8H15.5002Z" fill="#243045"/>
<path d="M12.375 10.5C12.2092 10.5002 12.0503 10.5659 11.9331 10.6833C11.8159 10.8005 11.75 10.9594 11.75 11.1252C11.7502 11.4703 12.0299 11.75 12.375 11.75H13.625C13.7908 11.7502 13.9497 11.6843 14.0669 11.5671C14.1843 11.4499 14.25 11.291 14.2502 11.1252C14.2502 10.9594 14.1843 10.8003 14.0671 10.6831C13.9497 10.5659 13.7908 10.5 13.625 10.5H12.375Z" fill="#243045"/>
<path d="M9.24979 10.5C9.08396 10.5002 8.9251 10.5659 8.80792 10.6833C8.69073 10.8005 8.625 10.9594 8.625 11.1252C8.625 11.4703 8.90474 11.75 9.24979 11.75H10.4998C10.8448 11.75 11.1246 11.4703 11.1248 11.1252C11.1248 10.9594 11.0589 10.8005 10.9417 10.6833C10.8245 10.5659 10.6656 10.5002 10.4998 10.5H9.24979Z" fill="#243045"/>
<path d="M15.5002 10.5C15.3344 10.5 15.1753 10.5659 15.0581 10.6831C14.9407 10.8003 14.875 10.9594 14.875 11.1252C14.875 11.291 14.9409 11.4499 15.0581 11.5671C15.1753 11.6843 15.3344 11.7502 15.5002 11.75H16.7502C17.0953 11.75 17.375 11.4703 17.375 11.1252C17.375 10.9594 17.3093 10.8005 17.1921 10.6833C17.0749 10.5659 16.916 10.5002 16.7502 10.5H15.5002Z" fill="#243045"/>
</g>
<defs>
<clipPath id="clip0_436_6622">
<rect width="20" height="20" fill="white" transform="translate(3 3)"/>
</clipPath>
</defs>
</svg>
