<svg width="24" height="24" viewBox="0 0 24 24" fill="none" xmlns="http://www.w3.org/2000/svg">
<mask id="mask0_436_6584" style="mask-type:alpha" maskUnits="userSpaceOnUse" x="0" y="0" width="24" height="24">
<rect width="24" height="24" fill="#D9D9D9"/>
</mask>
<g mask="url(#mask0_436_6584)">
<path d="M12.1492 16.3422C12.7183 16.3422 13.2293 16.2003 13.6819 15.9163C14.1344 15.6324 14.3607 15.177 14.3607 14.55C14.3607 14.0282 14.1662 13.6125 13.7772 13.303C13.388 12.9933 12.662 12.6436 11.5992 12.2537C10.571 11.8846 9.82934 11.4712 9.37417 11.0135C8.919 10.5558 8.69142 9.95133 8.69142 9.2C8.69142 8.55517 8.92417 7.96475 9.38967 7.42875C9.855 6.89292 10.5056 6.55125 11.3414 6.40375V5.875C11.3414 5.693 11.4098 5.53375 11.5464 5.39725C11.6829 5.26058 11.8422 5.19225 12.0242 5.19225C12.2062 5.19225 12.3654 5.26058 12.5019 5.39725C12.6386 5.53375 12.7069 5.693 12.7069 5.875V6.40375C13.1774 6.43708 13.6153 6.59 14.0204 6.8625C14.4254 7.135 14.7562 7.47317 15.0127 7.877C15.1037 8.01533 15.112 8.16308 15.0377 8.32025C14.9633 8.47725 14.8383 8.58783 14.6627 8.652C14.4973 8.716 14.3303 8.72433 14.1617 8.677C13.9932 8.6295 13.855 8.53333 13.7472 8.3885C13.555 8.15633 13.3194 7.96817 13.0404 7.824C12.7616 7.67983 12.4312 7.60775 12.0492 7.60775C11.4273 7.60775 10.9398 7.75517 10.5867 8.05C10.2335 8.34483 10.0569 8.72817 10.0569 9.2C10.0569 9.67183 10.2293 10.0392 10.5742 10.302C10.919 10.5648 11.6171 10.8758 12.6684 11.2348C13.8684 11.6681 14.6748 12.1539 15.0877 12.6923C15.5005 13.2308 15.7069 13.85 15.7069 14.55C15.7069 15.027 15.6188 15.4456 15.4424 15.8057C15.2661 16.1661 15.0357 16.469 14.7512 16.7145C14.4665 16.96 14.1424 17.1539 13.7789 17.2962C13.4154 17.4384 13.0414 17.5384 12.6569 17.5963V18.125C12.6569 18.307 12.5886 18.4663 12.4519 18.6028C12.3154 18.7394 12.1562 18.8078 11.9742 18.8078C11.7922 18.8078 11.6329 18.7394 11.4964 18.6028C11.3598 18.4663 11.2914 18.307 11.2914 18.125V17.5462C10.6774 17.4129 10.1454 17.1741 9.69542 16.8298C9.24542 16.4856 8.88067 16.0366 8.60117 15.4827C8.52034 15.3071 8.51967 15.1333 8.59917 14.9615C8.67867 14.7897 8.80625 14.6718 8.98192 14.6077C9.14725 14.5436 9.31584 14.5445 9.48767 14.6105C9.65951 14.6767 9.79092 14.7873 9.88192 14.9423C10.1409 15.4012 10.4656 15.7493 10.8559 15.9865C11.2463 16.2237 11.6773 16.3422 12.1492 16.3422ZM11.9992 22.5C10.0492 22.5 8.27959 22.0173 6.69042 21.0518C5.10142 20.0864 3.85501 18.7928 2.95117 17.171V19.4038C2.95117 19.6166 2.87934 19.7948 2.73567 19.9385C2.59217 20.082 2.41401 20.1538 2.20117 20.1538C1.98834 20.1538 1.81009 20.082 1.66642 19.9385C1.52292 19.7948 1.45117 19.6166 1.45117 19.4038V15.5577C1.45117 15.2999 1.53734 15.0848 1.70967 14.9125C1.88217 14.74 2.09726 14.6538 2.35492 14.6538H6.20117C6.41401 14.6538 6.59217 14.7256 6.73567 14.8693C6.87934 15.0128 6.95117 15.1909 6.95117 15.4038C6.95117 15.6166 6.87934 15.7948 6.73567 15.9385C6.59217 16.082 6.41401 16.1538 6.20117 16.1538H4.11067C4.83367 17.6103 5.90226 18.7821 7.31642 19.6693C8.73059 20.5564 10.2915 21 11.9992 21C14.3235 21 16.3299 20.2327 18.0184 18.698C19.7069 17.1635 20.6807 15.2482 20.9397 12.952C20.9665 12.743 21.0543 12.5738 21.2029 12.4443C21.3518 12.3147 21.5306 12.25 21.7394 12.25C21.9523 12.25 22.1314 12.3215 22.2769 12.4645C22.4224 12.6073 22.4818 12.7782 22.4549 12.977C22.3318 14.3167 21.9747 15.5637 21.3837 16.7182C20.7927 17.8727 20.0296 18.8785 19.0944 19.7355C18.1591 20.5925 17.086 21.2675 15.8752 21.7605C14.6642 22.2535 13.3722 22.5 11.9992 22.5ZM11.9992 3C9.71334 3 7.71817 3.75608 6.01367 5.26825C4.30917 6.78042 3.32417 8.70383 3.05867 11.0385C3.03184 11.2475 2.94409 11.4183 2.79542 11.551C2.64659 11.6837 2.46776 11.75 2.25892 11.75C2.03959 11.75 1.85876 11.6785 1.71642 11.5355C1.57426 11.3927 1.51659 11.2187 1.54342 11.0135C1.67926 9.64817 2.04751 8.38658 2.64817 7.22875C3.24884 6.07108 4.01684 5.06858 4.95217 4.22125C5.88734 3.37375 6.95717 2.70833 8.16167 2.225C9.36617 1.74167 10.6453 1.5 11.9992 1.5C13.93 1.5 15.6996 1.98433 17.3079 2.953C18.9163 3.9215 20.1627 5.22633 21.0472 6.8675V4.59625C21.0472 4.38342 21.119 4.20517 21.2627 4.0615C21.4062 3.918 21.5843 3.84625 21.7972 3.84625C22.01 3.84625 22.1883 3.918 22.3319 4.0615C22.4754 4.20517 22.5472 4.38342 22.5472 4.59625V8.44225C22.5472 8.70008 22.461 8.91517 22.2887 9.0875C22.1162 9.26 21.9011 9.34625 21.6434 9.34625H17.7972C17.5843 9.34625 17.4062 9.27442 17.2627 9.13075C17.119 8.98725 17.0472 8.80908 17.0472 8.59625C17.0472 8.38342 17.119 8.20517 17.2627 8.0615C17.4062 7.918 17.5843 7.84625 17.7972 7.84625H19.8877C19.1838 6.41542 18.1233 5.25 16.7059 4.35C15.2886 3.45 13.7197 3 11.9992 3Z" fill="#243045"/>
</g>
</svg>
