<svg width="24" height="24" viewBox="0 0 24 24" fill="none" xmlns="http://www.w3.org/2000/svg">
<path d="M19.0857 5.38554H17.4858V3.86747C17.4858 3.39036 17.0744 3 16.5715 3H4.91426C4.41142 3 4 3.39036 4 3.86747V17.747C4 18.2241 4.41142 18.6145 4.91426 18.6145H6.51421V20.1325C6.51421 20.6096 6.92563 21 7.42847 21H19.0853C19.5881 21 19.9995 20.6096 19.9995 20.1325L20 6.25301C20 5.7759 19.5886 5.38554 19.0857 5.38554ZM6.51421 6.25301V17.5301H5.14282V4.08434H16.343V5.38554H7.42847C6.92563 5.38554 6.51421 5.7759 6.51421 6.25301ZM7.65704 6.46988H18.8572L18.8567 16.8871L18.7278 16.7646C18.6608 16.701 18.5523 16.701 18.4853 16.7646C18.4183 16.8281 18.4183 16.9311 18.4853 16.9947L18.8567 17.3471V18.393L18.4021 17.9615C18.3351 17.8979 18.2266 17.8979 18.1596 17.9615C18.0926 18.025 18.0926 18.128 18.1596 18.1916L18.8567 18.8532V19.8983L17.425 18.5401C17.358 18.4765 17.2495 18.4765 17.1825 18.5401C17.1155 18.6036 17.1155 18.7066 17.1825 18.7702L18.3902 19.9159H17.2883L16.8047 19.457C16.7377 19.3934 16.6291 19.3934 16.5622 19.457C16.4952 19.5205 16.4952 19.6235 16.5622 19.6871L16.8035 19.9161H7.65704V6.46988Z" fill="#243045"/>
<path d="M9.94441 12.0002H16.8009C16.9902 12.0002 17.1437 11.8545 17.1437 11.6749C17.1437 11.4953 16.9902 11.3496 16.8009 11.3496H9.94441C9.75516 11.3496 9.60156 11.4953 9.60156 11.6749C9.60156 11.8545 9.75516 12.0002 9.94441 12.0002Z" fill="#243045"/>
<path d="M9.94441 9.83127H16.8009C16.9902 9.83127 17.1437 9.68553 17.1437 9.50597C17.1437 9.3264 16.9902 9.18066 16.8009 9.18066H9.94441C9.75516 9.18066 9.60156 9.3264 9.60156 9.50597C9.60156 9.68553 9.75516 9.83127 9.94441 9.83127Z" fill="#243045"/>
<path d="M14.7432 13.9517C14.554 13.9517 14.4004 14.0974 14.4004 14.277V16.8794C14.4004 17.0589 14.554 17.2047 14.7432 17.2047C14.9325 17.2047 15.0861 17.0589 15.0861 16.8794V14.277C15.0861 14.0974 14.9325 13.9517 14.7432 13.9517Z" fill="#243045"/>
<path d="M16.6855 14.9278V16.8796C16.6855 17.0592 16.8391 17.2049 17.0284 17.2049C17.2176 17.2049 17.3712 17.0592 17.3712 16.8796V14.9278C17.3712 14.7483 17.2176 14.6025 17.0284 14.6025C16.8391 14.6025 16.6855 14.7483 16.6855 14.9278Z" fill="#243045"/>
<path d="M15.8858 15.2529C15.6966 15.2529 15.543 15.3987 15.543 15.5782V16.8794C15.543 17.059 15.6966 17.2047 15.8858 17.2047C16.0751 17.2047 16.2287 17.059 16.2287 16.8794V15.5782C16.2287 15.3987 16.0751 15.2529 15.8858 15.2529Z" fill="#243045"/>
<path d="M11.1997 13.5181C10.0635 13.5183 9.14281 14.3916 9.14258 15.4699C9.14281 16.5481 10.0635 17.4215 11.1997 17.4217C12.3359 17.4215 13.2565 16.5481 13.2567 15.4699C13.2565 14.3916 12.3359 13.5183 11.1997 13.5181ZM9.82827 15.4699C9.8285 15.1094 9.98118 14.7863 10.2301 14.5497C10.4792 14.3138 10.82 14.1689 11.1997 14.1687C11.5793 14.1689 11.9201 14.3138 12.1692 14.5497C12.4156 14.7841 12.5674 15.1036 12.5706 15.4597L11.2829 15.1543C11.1661 15.1266 11.0422 15.1591 10.9572 15.24C10.8721 15.3209 10.8378 15.4382 10.8669 15.5488L11.1887 16.7709C10.8132 16.7678 10.4765 16.6238 10.2299 16.39C9.98118 16.1534 9.8285 15.8303 9.82827 15.4699ZM11.8543 16.6134L11.6707 15.9168L12.4049 16.0912C12.3418 16.2012 12.2623 16.3016 12.1692 16.3898C12.0762 16.4781 11.9702 16.5536 11.8543 16.6134Z" fill="#243045"/>
</svg>
