<svg width="18" height="18" viewBox="0 0 18 18" fill="none" xmlns="http://www.w3.org/2000/svg">
<path d="M17.3859 14.406L14.4432 11.4629C13.9204 10.9401 13.069 10.9401 12.5462 11.4629L12.4491 11.5599L12.0268 11.1376C13.0068 9.95926 13.5968 8.44654 13.5968 6.79768C13.5968 3.0494 10.5473 0 6.79882 0C3.04974 0 0 3.0494 0 6.79768C0 10.546 3.04953 13.5954 6.79797 13.5954C8.44684 13.5954 9.95966 13.0054 11.138 12.0254L11.5604 12.4478L11.4633 12.5448C10.9406 13.0676 10.9406 13.919 11.4633 14.4418L14.406 17.3843C14.8168 17.795 15.3562 18 15.8956 18C16.435 18 16.9743 17.7942 17.3851 17.3843C17.7818 16.9877 18 16.4582 18 15.8948C18 15.3314 17.7818 14.802 17.3851 14.4053L17.3859 14.406ZM6.79806 12.3398C3.74259 12.3398 1.25644 9.8538 1.25644 6.79846C1.25644 3.74311 3.74259 1.25708 6.79806 1.25708C9.85354 1.25708 12.3397 3.74311 12.3397 6.79846C12.3397 9.8538 9.85354 12.3398 6.79806 12.3398ZM16.4971 16.497C16.1651 16.829 15.6257 16.829 15.2938 16.497L12.3511 13.5545C12.3188 13.5221 12.3188 13.4665 12.3511 13.4333L13.4332 12.3513C13.4498 12.3347 13.4714 12.3264 13.4938 12.3264C13.5162 12.3264 13.5378 12.3347 13.5544 12.3513L16.4971 15.2945C16.6564 15.4538 16.7444 15.6679 16.7444 15.8961C16.7444 16.1243 16.6564 16.3383 16.4971 16.4977L16.4971 16.497ZM11.0368 6.01757C10.9696 6.03998 10.9015 6.05077 10.8343 6.05077C10.5729 6.05077 10.329 5.88646 10.2402 5.62508C9.73894 4.15219 8.35562 3.1622 6.79806 3.1622C6.45119 3.1622 6.16988 2.8809 6.16988 2.53405C6.16988 2.1872 6.45119 1.9059 6.79806 1.9059C8.89338 1.9059 10.7547 3.23772 11.4294 5.2202C11.5414 5.5488 11.3655 5.90561 11.0377 6.0168L11.0368 6.01757Z" fill="white"/>
</svg>
