<svg width="24" height="24" viewBox="0 0 24 24" fill="none" xmlns="http://www.w3.org/2000/svg">
<path d="M1.91357 3.83399C1.67153 3.83482 1.43964 3.93134 1.26849 4.10248C1.09735 4.27363 1.00083 4.50552 1 4.74756V16.4818C1 18.0463 2.19056 19.4187 3.74746 19.4187H7.41526C7.53625 19.4192 7.65615 19.3957 7.76802 19.3497C7.8799 19.3036 7.98154 19.2358 8.0671 19.1502C8.15265 19.0647 8.22042 18.963 8.2665 18.8512C8.31259 18.7393 8.33607 18.6194 8.33559 18.4984C8.33518 18.378 8.31104 18.2588 8.26456 18.1477C8.21808 18.0366 8.15016 17.9358 8.06469 17.851C7.97922 17.7661 7.87788 17.6989 7.76645 17.6533C7.65501 17.6076 7.53568 17.5844 7.41526 17.5848H3.74746C3.27297 17.5848 2.8339 17.1517 2.8339 16.4818V4.74756C2.83348 4.62713 2.80935 4.50797 2.76287 4.39688C2.71639 4.28579 2.64847 4.18494 2.563 4.1001C2.47753 4.01527 2.37619 3.94809 2.26476 3.90243C2.15332 3.85677 2.03399 3.83352 1.91357 3.83399Z" fill="#243045"/>
<path d="M12.0043 15.751C11.8839 15.7505 11.7646 15.7738 11.6531 15.8194C11.5417 15.8651 11.4404 15.9323 11.3549 16.0171C11.2694 16.1019 11.2015 16.2028 11.155 16.3139C11.1085 16.425 11.0844 16.5441 11.084 16.6645V20.3323C11.0835 20.4533 11.107 20.5732 11.1531 20.6851C11.1992 20.797 11.2669 20.8986 11.3525 20.9842C11.438 21.0697 11.5397 21.1375 11.6516 21.1836C11.7634 21.2297 11.8833 21.2532 12.0043 21.2527C12.1247 21.2523 12.2439 21.2281 12.355 21.1816C12.4661 21.1352 12.5669 21.0672 12.6518 20.9818C12.7366 20.8963 12.8038 20.795 12.8495 20.6835C12.8951 20.5721 12.9184 20.4528 12.9179 20.3323V16.6645C12.9171 16.4225 12.8205 16.1906 12.6494 16.0195C12.4783 15.8483 12.2464 15.7518 12.0043 15.751Z" fill="#243045"/>
<path d="M12.0036 15.751C11.7606 15.7494 11.5269 15.8443 11.3539 16.0149C11.2684 16.1001 11.2005 16.2013 11.1542 16.3128C11.1078 16.4243 11.084 16.5438 11.084 16.6646C11.084 16.7853 11.1078 16.9048 11.1542 17.0163C11.2005 17.1278 11.2684 17.229 11.3539 17.3142L13.1878 19.1481C13.3596 19.3188 13.5919 19.4146 13.8341 19.4146C14.0762 19.4146 14.3086 19.3188 14.4803 19.1481C14.5659 19.0629 14.6338 18.9617 14.6801 18.8502C14.7264 18.7387 14.7503 18.6192 14.7503 18.4985C14.7503 18.3777 14.7264 18.2582 14.6801 18.1467C14.6338 18.0352 14.5659 17.934 14.4803 17.8488L12.6464 16.0149C12.4751 15.846 12.2442 15.7512 12.0036 15.751Z" fill="#243045"/>
<path d="M12.0035 15.751C11.7605 15.7494 11.5268 15.8443 11.3538 16.0149L9.51993 17.8488C9.43438 17.934 9.36649 18.0352 9.32017 18.1467C9.27385 18.2582 9.25 18.3777 9.25 18.4985C9.25 18.6192 9.27385 18.7387 9.32017 18.8502C9.36649 18.9617 9.43438 19.0629 9.51993 19.1481C9.69169 19.3188 9.92402 19.4146 10.1662 19.4146C10.4084 19.4146 10.6407 19.3188 10.8125 19.1481L12.6464 17.3142C12.7319 17.229 12.7998 17.1278 12.8461 17.0163C12.8924 16.9048 12.9163 16.7853 12.9163 16.6646C12.9163 16.5438 12.8924 16.4243 12.8461 16.3128C12.7998 16.2013 12.7319 16.1001 12.6464 16.0149C12.475 15.846 12.2441 15.7512 12.0035 15.751Z" fill="#243045"/>
<path d="M12.0036 12.9966C8.9768 12.9966 6.50195 15.4714 6.50195 18.4983C6.50195 21.5251 8.9768 24 12.0036 24C15.0305 24 17.4986 21.5251 17.4986 18.4983C17.4986 15.4714 15.0305 12.9966 12.0036 12.9966ZM12.0036 14.8305C14.0396 14.8305 15.6647 16.4623 15.6647 18.4983C15.6647 20.5343 14.0396 22.1661 12.0036 22.1661C9.96767 22.1661 8.33585 20.5343 8.33585 18.4983C8.33585 16.4623 9.96767 14.8305 12.0036 14.8305Z" fill="#243045"/>
<path d="M3.74746 2.00001C2.23945 2 1 3.23946 1 4.74747C1 6.25548 2.23945 7.5017 3.74746 7.5017H20.2525C20.7271 7.5017 21.1661 7.92799 21.1661 8.59798V16.4817C21.1661 17.1517 20.7271 17.5848 20.2525 17.5848H16.5847C16.4643 17.5843 16.345 17.6075 16.2336 17.6532C16.1221 17.6988 16.0208 17.766 15.9353 17.8509C15.8498 17.9357 15.7819 18.0365 15.7354 18.1476C15.689 18.2587 15.6648 18.3779 15.6644 18.4983C15.6639 18.6193 15.6874 18.7392 15.7335 18.8511C15.7796 18.963 15.8473 19.0646 15.9329 19.1502C16.0185 19.2357 16.1201 19.3035 16.232 19.3496C16.3439 19.3957 16.4637 19.4191 16.5847 19.4186H20.2525C21.8095 19.4186 23 18.0462 23 16.4817V8.59798C23 7.03346 21.8095 5.6678 20.2525 5.6678H3.74746C3.23032 5.6678 2.8339 5.26461 2.8339 4.74747C2.8339 4.23033 3.23032 3.8339 3.74746 3.8339H21.1661C21.2871 3.83438 21.407 3.81089 21.5189 3.76481C21.6307 3.71872 21.7324 3.65097 21.8179 3.56541C21.9035 3.47986 21.9713 3.37821 22.0173 3.26634C22.0634 3.15446 22.0869 3.03457 22.0864 2.91357C22.086 2.79315 22.0619 2.67399 22.0154 2.5629C21.9689 2.4518 21.901 2.35096 21.8155 2.26612C21.7301 2.18128 21.6287 2.1141 21.5173 2.06845C21.4059 2.02279 21.2865 1.99953 21.1661 2.00001H3.74746Z" fill="#243045"/>
</svg>
