<svg width="24" height="24" viewBox="0 0 24 24" fill="none" xmlns="http://www.w3.org/2000/svg">
<g clip-path="url(#clip0_436_6589)">
<path d="M22.5625 14.6908V23.5624H21.125V14.6908C21.1235 14.1193 20.8965 13.5714 20.4932 13.1664L18.4606 11.133L19.4769 10.1167L21.5095 12.15C21.8443 12.4829 22.1097 12.8789 22.2905 13.315C22.4712 13.7511 22.5637 14.2187 22.5625 14.6908ZM10.3438 18.5311C10.3438 20.6435 10.3438 21.7037 11.9918 23.3518L13.0082 22.3354C11.7813 21.1085 11.7812 20.5105 11.7812 18.5311H10.3438Z" fill="#243045"/>
<path d="M16.0938 3.4375H6.03125C5.07848 3.43864 4.16506 3.81763 3.49135 4.49135C2.81763 5.16506 2.43864 6.07848 2.4375 7.03125V12.7812C2.43864 13.734 2.81763 14.6474 3.49135 15.3212C4.16506 15.9949 5.07848 16.3739 6.03125 16.375H13.2188V14.9375H6.03125C5.45938 14.9375 4.91093 14.7103 4.50655 14.3059C4.10218 13.9016 3.875 13.3531 3.875 12.7812V9.1875H18.25V12.7812C18.2495 13.1962 18.1296 13.6023 17.9045 13.9509C17.6794 14.2995 17.3587 14.5759 16.9807 14.747L17.5737 16.0573C18.2033 15.7717 18.7374 15.311 19.1122 14.73C19.487 14.1491 19.6867 13.4726 19.6875 12.7812V7.03125C19.6864 6.07848 19.3074 5.16506 18.6337 4.49135C17.9599 3.81763 17.0465 3.43864 16.0938 3.4375ZM3.875 7.75V7.03125C3.875 6.45938 4.10218 5.91093 4.50655 5.50655C4.91093 5.10218 5.45938 4.875 6.03125 4.875H16.0938C16.6656 4.875 17.2141 5.10218 17.6184 5.50655C18.0228 5.91093 18.25 6.45938 18.25 7.03125V7.75H3.875ZM5.3125 12.7812V11.3438H8.90625V12.7812H5.3125Z" fill="#243045"/>
<path d="M18.2505 23.5626C16.9166 23.5611 15.6377 23.0305 14.6945 22.0873C13.7513 21.1441 13.2207 19.8653 13.2192 18.5314V16.6727L10.8524 14.3058C10.6521 14.1056 10.4933 13.8679 10.3849 13.6063C10.2765 13.3446 10.2207 13.0642 10.2207 12.781C10.2207 12.4978 10.2765 12.2174 10.3849 11.9558C10.4933 11.6941 10.6521 11.4564 10.8524 11.2562L10.976 11.1333C11.3804 10.729 11.9287 10.502 12.5005 10.502C13.0722 10.502 13.6206 10.729 14.0249 11.1333L18.7586 15.867L17.7423 16.8833L13.0086 12.1496C12.8738 12.0148 12.6911 11.9391 12.5005 11.9391C12.3099 11.9391 12.1271 12.0148 11.9923 12.1496L11.8687 12.2725C11.734 12.4073 11.6583 12.5901 11.6583 12.7806C11.6583 12.9712 11.734 13.154 11.8687 13.2888L14.4461 15.8662C14.513 15.9331 14.566 16.0124 14.6021 16.0997C14.6382 16.187 14.6568 16.2806 14.6567 16.3751V18.5314C14.6579 19.4841 15.0369 20.3976 15.7106 21.0713C16.3843 21.745 17.2977 22.124 18.2505 22.1251V23.5626Z" fill="#243045"/>
</g>
<defs>
<clipPath id="clip0_436_6589">
<rect width="24" height="24" fill="white"/>
</clipPath>
</defs>
</svg>
