<svg width="24" height="18" viewBox="0 0 24 18" fill="none" xmlns="http://www.w3.org/2000/svg">
<path fill-rule="evenodd" clip-rule="evenodd" d="M0 0V18H24V0H0Z" fill="#2E42A5"/>
<mask id="mask0_478_6955" style="mask-type:luminance" maskUnits="userSpaceOnUse" x="0" y="0" width="24" height="18">
<path fill-rule="evenodd" clip-rule="evenodd" d="M0 0V18H24V0H0Z" fill="white"/>
</mask>
<g mask="url(#mask0_478_6955)">
<path d="M-2.67236 16.7137L2.6089 18.9473L24.1198 2.42805L26.9056 -0.89106L21.258 -1.63758L12.4842 5.48103L5.42223 10.2773L-2.67236 16.7137Z" fill="white"/>
<path d="M-1.94946 18.2781L0.741099 19.5742L25.9051 -1.19999H22.1273L-1.94946 18.2781Z" fill="#F50100"/>
<path d="M26.6724 16.7137L21.3911 18.9473L-0.119831 2.42805L-2.90558 -0.89106L2.74197 -1.63758L11.5158 5.48103L18.5778 10.2773L26.6724 16.7137Z" fill="white"/>
<path d="M26.4922 17.8366L23.8016 19.1328L13.0865 10.2383L9.90973 9.24453L-3.1736 -0.879866H0.604259L13.6802 9.00422L17.1535 10.1959L26.4922 17.8366Z" fill="#F50100"/>
<mask id="path-7-inside-1_478_6955" fill="white">
<path fill-rule="evenodd" clip-rule="evenodd" d="M14.8334 -1.5H9.16678V6H-1.47925V12H9.16678V19.5H14.8334V12H25.5208V6H14.8334V-1.5Z"/>
</mask>
<path fill-rule="evenodd" clip-rule="evenodd" d="M14.8334 -1.5H9.16678V6H-1.47925V12H9.16678V19.5H14.8334V12H25.5208V6H14.8334V-1.5Z" fill="#F50100"/>
<path d="M9.16678 -1.5V-2.5H8.16678V-1.5H9.16678ZM14.8334 -1.5H15.8334V-2.5H14.8334V-1.5ZM9.16678 6V7H10.1668V6H9.16678ZM-1.47925 6V5H-2.47925V6H-1.47925ZM-1.47925 12H-2.47925V13H-1.47925V12ZM9.16678 12H10.1668V11H9.16678V12ZM9.16678 19.5H8.16678V20.5H9.16678V19.5ZM14.8334 19.5V20.5H15.8334V19.5H14.8334ZM14.8334 12V11H13.8334V12H14.8334ZM25.5208 12V13H26.5208V12H25.5208ZM25.5208 6H26.5208V5H25.5208V6ZM14.8334 6H13.8334V7H14.8334V6ZM9.16678 -0.5H14.8334V-2.5H9.16678V-0.5ZM10.1668 6V-1.5H8.16678V6H10.1668ZM-1.47925 7H9.16678V5H-1.47925V7ZM-0.479248 12V6H-2.47925V12H-0.479248ZM9.16678 11H-1.47925V13H9.16678V11ZM10.1668 19.5V12H8.16678V19.5H10.1668ZM14.8334 18.5H9.16678V20.5H14.8334V18.5ZM13.8334 12V19.5H15.8334V12H13.8334ZM25.5208 11H14.8334V13H25.5208V11ZM24.5208 6V12H26.5208V6H24.5208ZM14.8334 7H25.5208V5H14.8334V7ZM13.8334 -1.5V6H15.8334V-1.5H13.8334Z" fill="white" mask="url(#path-7-inside-1_478_6955)"/>
</g>
</svg>
